solid CATIA STL
  facet normal  0.000000e+000  0.000000e+000 -1.000000e+000
    outer loop
      vertex -2.128258e+000  3.386815e+000  0.000000e+000
      vertex  0.000000e+000  7.000000e+000  0.000000e+000
      vertex -5.608616e-016  4.000000e+000  0.000000e+000
    endloop
  endfacet
  facet normal  0.000000e+000  0.000000e+000 -1.000000e+000
    outer loop
      vertex  1.800000e+001  2.200000e+001  0.000000e+000
      vertex  1.850000e+001  4.669873e+000  0.000000e+000
      vertex  1.800000e+001  1.700000e+001  0.000000e+000
    endloop
  endfacet
  facet normal  0.000000e+000  0.000000e+000 -1.000000e+000
    outer loop
      vertex  1.600000e+001  4.000000e+000  0.000000e+000
      vertex -5.608616e-016  4.000000e+000  0.000000e+000
      vertex  0.000000e+000  7.000000e+000  0.000000e+000
    endloop
  endfacet
  facet normal  0.000000e+000  0.000000e+000 -1.000000e+000
    outer loop
      vertex  1.600000e+001  4.000000e+000  0.000000e+000
      vertex  0.000000e+000  7.000000e+000  0.000000e+000
      vertex  8.000000e+000  7.000000e+000  0.000000e+000
    endloop
  endfacet
  facet normal  0.000000e+000  0.000000e+000 -9.999999e-001
    outer loop
      vertex  1.600000e+001  4.000000e+000  0.000000e+000
      vertex  8.000000e+000  7.000000e+000  0.000000e+000
      vertex  1.800000e+001  1.700000e+001  0.000000e+000
    endloop
  endfacet
  facet normal  0.000000e+000  -0.000000e+000 -9.999999e-001
    outer loop
      vertex  1.600000e+001  4.000000e+000  0.000000e+000
      vertex  1.800000e+001  1.700000e+001  0.000000e+000
      vertex  1.850000e+001  4.669873e+000  0.000000e+000
    endloop
  endfacet
  facet normal  0.000000e+000  0.000000e+000 -9.999999e-001
    outer loop
      vertex  8.909798e-001 -3.899507e+000  0.000000e+000
      vertex  1.501277e-003 -7.000000e+000  0.000000e+000
      vertex -1.320393e+000 -3.775786e+000  0.000000e+000
    endloop
  endfacet
  facet normal  0.000000e+000  -0.000000e+000 -1.000000e+000
    outer loop
      vertex -1.320393e+000 -3.775786e+000  0.000000e+000
      vertex  1.501277e-003 -7.000000e+000  0.000000e+000
      vertex -3.036027e+000 -6.307340e+000  0.000000e+000
    endloop
  endfacet
  facet normal  0.000000e+000  0.000000e+000 -9.999999e-001
    outer loop
      vertex -1.320393e+000 -3.775786e+000  0.000000e+000
      vertex -3.036027e+000 -6.307340e+000  0.000000e+000
      vertex -3.126944e+000 -2.494438e+000  0.000000e+000
    endloop
  endfacet
  facet normal  0.000000e+000  -0.000000e+000 -1.000000e+000
    outer loop
      vertex -3.126944e+000 -2.494438e+000  0.000000e+000
      vertex -3.036027e+000 -6.307340e+000  0.000000e+000
      vertex -5.472152e+000 -4.365267e+000  0.000000e+000
    endloop
  endfacet
  facet normal  0.000000e+000  0.000000e+000 -1.000000e+000
    outer loop
      vertex -3.126944e+000 -2.494438e+000  0.000000e+000
      vertex -5.472152e+000 -4.365267e+000  0.000000e+000
      vertex -3.974797e+000 -4.483146e-001  0.000000e+000
    endloop
  endfacet
  facet normal  -0.000000e+000  0.000000e+000 -9.999999e-001
    outer loop
      vertex -3.974797e+000 -4.483146e-001  0.000000e+000
      vertex -5.472152e+000 -4.365267e+000  0.000000e+000
      vertex -5.473088e+000  4.364093e+000  0.000000e+000
    endloop
  endfacet
  facet normal  0.000000e+000  0.000000e+000 -1.000000e+000
    outer loop
      vertex -3.974797e+000 -4.483146e-001  0.000000e+000
      vertex -5.473088e+000  4.364093e+000  0.000000e+000
      vertex -3.037380e+000  6.306689e+000  0.000000e+000
    endloop
  endfacet
  facet normal  0.000000e+000  0.000000e+000 -1.000000e+000
    outer loop
      vertex  4.865170e+000  1.116650e+000  0.000000e+000
      vertex  5.474024e+000 -4.362919e+000  0.000000e+000
      vertex  3.899984e+000 -8.888889e-001  0.000000e+000
    endloop
  endfacet
  facet normal  0.000000e+000  -0.000000e+000 -1.000000e+000
    outer loop
      vertex  3.899984e+000 -8.888889e-001  0.000000e+000
      vertex  5.474024e+000 -4.362919e+000  0.000000e+000
      vertex  3.038732e+000 -6.306037e+000  0.000000e+000
    endloop
  endfacet
  facet normal  0.000000e+000  0.000000e+000 -1.000000e+000
    outer loop
      vertex  3.899984e+000 -8.888889e-001  0.000000e+000
      vertex  3.038732e+000 -6.306037e+000  0.000000e+000
      vertex  2.829185e+000 -2.827669e+000  0.000000e+000
    endloop
  endfacet
  facet normal  0.000000e+000  -0.000000e+000 -1.000000e+000
    outer loop
      vertex  2.829185e+000 -2.827669e+000  0.000000e+000
      vertex  3.038732e+000 -6.306037e+000  0.000000e+000
      vertex  1.501277e-003 -7.000000e+000  0.000000e+000
    endloop
  endfacet
  facet normal  0.000000e+000  0.000000e+000 -1.000000e+000
    outer loop
      vertex  2.829185e+000 -2.827669e+000  0.000000e+000
      vertex  1.501277e-003 -7.000000e+000  0.000000e+000
      vertex  8.909798e-001 -3.899507e+000  0.000000e+000
    endloop
  endfacet
  facet normal  0.000000e+000  0.000000e+000 -1.000000e+000
    outer loop
      vertex  8.774964e+000  1.110223e-015  0.000000e+000
      vertex  7.527745e+000 -4.365281e-001  0.000000e+000
      vertex  8.774964e+000  3.000000e+000  0.000000e+000
    endloop
  endfacet
  facet normal  0.000000e+000  0.000000e+000 -1.000000e+000
    outer loop
      vertex  8.774964e+000  3.000000e+000  0.000000e+000
      vertex  7.527745e+000 -4.365281e-001  0.000000e+000
      vertex  6.824972e+000 -1.555556e+000  0.000000e+000
    endloop
  endfacet
  facet normal  0.000000e+000  0.000000e+000 -1.000000e+000
    outer loop
      vertex  8.774964e+000  3.000000e+000  0.000000e+000
      vertex  6.824972e+000 -1.555556e+000  0.000000e+000
      vertex  6.605086e+000  2.504623e+000  0.000000e+000
    endloop
  endfacet
  facet normal  0.000000e+000  -0.000000e+000 -9.999999e-001
    outer loop
      vertex  6.605086e+000  2.504623e+000  0.000000e+000
      vertex  6.824972e+000 -1.555556e+000  0.000000e+000
      vertex  5.474024e+000 -4.362919e+000  0.000000e+000
    endloop
  endfacet
  facet normal  0.000000e+000  0.000000e+000 -1.000000e+000
    outer loop
      vertex  6.605086e+000  2.504623e+000  0.000000e+000
      vertex  5.474024e+000 -4.362919e+000  0.000000e+000
      vertex  4.865170e+000  1.116650e+000  0.000000e+000
    endloop
  endfacet
  facet normal  0.000000e+000  0.000000e+000 -1.000000e+000
    outer loop
      vertex  3.900000e+001  2.220446e-016  0.000000e+000
      vertex  8.774964e+000  1.110223e-015  0.000000e+000
      vertex  3.900000e+001  3.000000e+000  0.000000e+000
    endloop
  endfacet
  facet normal  -0.000000e+000  0.000000e+000 -1.000000e+000
    outer loop
      vertex  3.900000e+001  3.000000e+000  0.000000e+000
      vertex  8.774964e+000  1.110223e-015  0.000000e+000
      vertex  8.774964e+000  3.000000e+000  0.000000e+000
    endloop
  endfacet
  facet normal  0.000000e+000  0.000000e+000 -9.999999e-001
    outer loop
      vertex -5.472152e+000 -4.365267e+000  0.000000e+000
      vertex -6.824305e+000 -1.558483e+000  0.000000e+000
      vertex -5.473088e+000  4.364093e+000  0.000000e+000
    endloop
  endfacet
  facet normal  0.000000e+000  0.000000e+000 -1.000000e+000
    outer loop
      vertex -5.473088e+000  4.364093e+000  0.000000e+000
      vertex -6.824305e+000 -1.558483e+000  0.000000e+000
      vertex -6.824638e+000  1.557019e+000  0.000000e+000
    endloop
  endfacet
  facet normal  0.000000e+000  0.000000e+000 -1.000000e+000
    outer loop
      vertex -3.974797e+000 -4.483146e-001  0.000000e+000
      vertex -3.037380e+000  6.306689e+000  0.000000e+000
      vertex -3.604008e+000  1.735259e+000  0.000000e+000
    endloop
  endfacet
  facet normal  0.000000e+000  0.000000e+000 -1.000000e+000
    outer loop
      vertex -3.604008e+000  1.735259e+000  0.000000e+000
      vertex -3.037380e+000  6.306689e+000  0.000000e+000
      vertex  0.000000e+000  7.000000e+000  0.000000e+000
    endloop
  endfacet
  facet normal  0.000000e+000  0.000000e+000 -1.000000e+000
    outer loop
      vertex -3.604008e+000  1.735259e+000  0.000000e+000
      vertex  0.000000e+000  7.000000e+000  0.000000e+000
      vertex -2.128258e+000  3.386815e+000  0.000000e+000
    endloop
  endfacet
  facet normal  0.000000e+000  0.000000e+000 -1.000000e+000
    outer loop
      vertex  2.100000e+001  9.000000e+000  0.000000e+000
      vertex  2.033013e+001  6.500000e+000  0.000000e+000
      vertex  2.100000e+001  2.200000e+001  0.000000e+000
    endloop
  endfacet
  facet normal  0.000000e+000  0.000000e+000 -1.000000e+000
    outer loop
      vertex  2.100000e+001  2.200000e+001  0.000000e+000
      vertex  2.033013e+001  6.500000e+000  0.000000e+000
      vertex  1.850000e+001  4.669873e+000  0.000000e+000
    endloop
  endfacet
  facet normal  0.000000e+000  0.000000e+000 -9.999999e-001
    outer loop
      vertex  2.100000e+001  2.200000e+001  0.000000e+000
      vertex  1.850000e+001  4.669873e+000  0.000000e+000
      vertex  1.800000e+001  2.200000e+001  0.000000e+000
    endloop
  endfacet
  facet normal -7.071068e-001  7.071068e-001  0.000000e+000
    outer loop
      vertex  1.800000e+001  1.700000e+001  2.000000e+000
      vertex  1.800000e+001  1.700000e+001  0.000000e+000
      vertex  8.000000e+000  7.000000e+000  2.000000e+000
    endloop
  endfacet
  facet normal -7.071068e-001  7.071068e-001  0.000000e+000
    outer loop
      vertex  8.000000e+000  7.000000e+000  2.000000e+000
      vertex  1.800000e+001  1.700000e+001  0.000000e+000
      vertex  8.000000e+000  7.000000e+000  0.000000e+000
    endloop
  endfacet
  facet normal  0.000000e+000  1.000000e+000  0.000000e+000
    outer loop
      vertex  8.000000e+000  7.000000e+000  1.300000e+001
      vertex  1.600000e+001  7.000000e+000  1.300000e+001
      vertex  1.600000e+001  7.000000e+000  2.000000e+000
    endloop
  endfacet
  facet normal  0.000000e+000  1.000000e+000  0.000000e+000
    outer loop
      vertex  8.000000e+000  7.000000e+000  1.300000e+001
      vertex  1.600000e+001  7.000000e+000  2.000000e+000
      vertex  8.000000e+000  7.000000e+000  2.000000e+000
    endloop
  endfacet
  facet normal  0.000000e+000  1.000000e+000  -0.000000e+000
    outer loop
      vertex  8.000000e+000  7.000000e+000  1.300000e+001
      vertex  8.000000e+000  7.000000e+000  2.000000e+000
      vertex  0.000000e+000  7.000000e+000  1.500000e+001
    endloop
  endfacet
  facet normal  -0.000000e+000  1.000000e+000  0.000000e+000
    outer loop
      vertex  8.000000e+000  7.000000e+000  1.300000e+001
      vertex  0.000000e+000  7.000000e+000  1.500000e+001
      vertex  8.000000e+000  7.000000e+000  1.500000e+001
    endloop
  endfacet
  facet normal  0.000000e+000  1.000000e+000  0.000000e+000
    outer loop
      vertex  0.000000e+000  7.000000e+000  0.000000e+000
      vertex  0.000000e+000  7.000000e+000  1.500000e+001
      vertex  8.000000e+000  7.000000e+000  0.000000e+000
    endloop
  endfacet
  facet normal  0.000000e+000  1.000000e+000  -0.000000e+000
    outer loop
      vertex  8.000000e+000  7.000000e+000  0.000000e+000
      vertex  0.000000e+000  7.000000e+000  1.500000e+001
      vertex  8.000000e+000  7.000000e+000  2.000000e+000
    endloop
  endfacet
  facet normal -1.000000e+000  0.000000e+000  0.000000e+000
    outer loop
      vertex  1.800000e+001  2.341421e+001  5.857865e-001
      vertex  1.800000e+001  2.200000e+001  0.000000e+000
      vertex  1.800000e+001  1.700000e+001  0.000000e+000
    endloop
  endfacet
  facet normal -1.000000e+000  -0.000000e+000  0.000000e+000
    outer loop
      vertex  1.800000e+001  2.400000e+001  2.000000e+000
      vertex  1.800000e+001  2.341421e+001  5.857865e-001
      vertex  1.800000e+001  1.700000e+001  0.000000e+000
    endloop
  endfacet
  facet normal -1.000000e+000  0.000000e+000  0.000000e+000
    outer loop
      vertex  1.800000e+001  2.400000e+001  2.000000e+000
      vertex  1.800000e+001  1.700000e+001  0.000000e+000
      vertex  1.800000e+001  1.700000e+001  2.000000e+000
    endloop
  endfacet
  facet normal -1.000000e+000  0.000000e+000  0.000000e+000
    outer loop
      vertex  1.800000e+001  2.400000e+001  2.000000e+000
      vertex  1.800000e+001  1.700000e+001  2.000000e+000
      vertex  1.800000e+001  1.300000e+001  6.500000e+000
    endloop
  endfacet
  facet normal -1.000000e+000  0.000000e+000  0.000000e+000
    outer loop
      vertex  1.800000e+001  2.400000e+001  2.000000e+000
      vertex  1.800000e+001  1.300000e+001  6.500000e+000
      vertex  1.800000e+001  1.370711e+001  6.792893e+000
    endloop
  endfacet
  facet normal -1.000000e+000  0.000000e+000  0.000000e+000
    outer loop
      vertex  1.800000e+001  2.400000e+001  2.000000e+000
      vertex  1.800000e+001  1.370711e+001  6.792893e+000
      vertex  1.800000e+001  1.400000e+001  7.500000e+000
    endloop
  endfacet
  facet normal -1.000000e+000  0.000000e+000  0.000000e+000
    outer loop
      vertex  1.800000e+001  2.400000e+001  2.000000e+000
      vertex  1.800000e+001  1.400000e+001  7.500000e+000
      vertex  1.800000e+001  1.370711e+001  8.207107e+000
    endloop
  endfacet
  facet normal -9.999999e-001  0.000000e+000  0.000000e+000
    outer loop
      vertex  1.800000e+001  2.400000e+001  2.000000e+000
      vertex  1.800000e+001  1.370711e+001  8.207107e+000
      vertex  1.800000e+001  2.400000e+001  1.300000e+001
    endloop
  endfacet
  facet normal -9.999999e-001  -0.000000e+000  0.000000e+000
    outer loop
      vertex  1.800000e+001  1.229289e+001  6.792893e+000
      vertex  1.800000e+001  1.300000e+001  6.500000e+000
      vertex  1.800000e+001  8.256583e+000  5.918861e+000
    endloop
  endfacet
  facet normal -1.000000e+000  0.000000e+000  0.000000e+000
    outer loop
      vertex  1.800000e+001  8.256583e+000  5.918861e+000
      vertex  1.800000e+001  1.300000e+001  6.500000e+000
      vertex  1.800000e+001  9.000000e+000  4.500000e+000
    endloop
  endfacet
  facet normal -1.000000e+000  0.000000e+000  0.000000e+000
    outer loop
      vertex  1.800000e+001  1.300000e+001  6.500000e+000
      vertex  1.800000e+001  1.700000e+001  2.000000e+000
      vertex  1.800000e+001  9.000000e+000  4.500000e+000
    endloop
  endfacet
  facet normal -1.000000e+000  0.000000e+000  0.000000e+000
    outer loop
      vertex  1.800000e+001  9.000000e+000  4.500000e+000
      vertex  1.800000e+001  1.700000e+001  2.000000e+000
      vertex  1.800000e+001  9.000000e+000  2.000000e+000
    endloop
  endfacet
  facet normal -1.000000e+000  0.000000e+000  0.000000e+000
    outer loop
      vertex  1.800000e+001  1.370711e+001  8.207107e+000
      vertex  1.800000e+001  1.300000e+001  8.500000e+000
      vertex  1.800000e+001  2.400000e+001  1.300000e+001
    endloop
  endfacet
  facet normal -1.000000e+000  -0.000000e+000  0.000000e+000
    outer loop
      vertex  1.800000e+001  2.400000e+001  1.300000e+001
      vertex  1.800000e+001  1.300000e+001  8.500000e+000
      vertex  1.800000e+001  1.700000e+001  1.300000e+001
    endloop
  endfacet
  facet normal -1.000000e+000  0.000000e+000  0.000000e+000
    outer loop
      vertex  1.800000e+001  1.300000e+001  8.500000e+000
      vertex  1.800000e+001  9.000000e+000  1.050000e+001
      vertex  1.800000e+001  1.700000e+001  1.300000e+001
    endloop
  endfacet
  facet normal -1.000000e+000  -0.000000e+000  0.000000e+000
    outer loop
      vertex  1.800000e+001  1.700000e+001  1.300000e+001
      vertex  1.800000e+001  9.000000e+000  1.050000e+001
      vertex  1.800000e+001  9.000000e+000  1.300000e+001
    endloop
  endfacet
  facet normal -1.000000e+000  0.000000e+000  0.000000e+000
    outer loop
      vertex  1.800000e+001  9.000000e+000  1.050000e+001
      vertex  1.800000e+001  1.300000e+001  8.500000e+000
      vertex  1.800000e+001  8.256583e+000  9.081139e+000
    endloop
  endfacet
  facet normal -9.999999e-001  0.000000e+000  0.000000e+000
    outer loop
      vertex  1.800000e+001  8.256583e+000  9.081139e+000
      vertex  1.800000e+001  1.300000e+001  8.500000e+000
      vertex  1.800000e+001  1.229289e+001  8.207107e+000
    endloop
  endfacet
  facet normal -1.000000e+000  -0.000000e+000  0.000000e+000
    outer loop
      vertex  1.800000e+001  8.256583e+000  9.081139e+000
      vertex  1.800000e+001  1.229289e+001  8.207107e+000
      vertex  1.800000e+001  8.000000e+000  7.500000e+000
    endloop
  endfacet
  facet normal -9.999999e-001  0.000000e+000  0.000000e+000
    outer loop
      vertex  1.800000e+001  1.229289e+001  8.207107e+000
      vertex  1.800000e+001  1.200000e+001  7.500000e+000
      vertex  1.800000e+001  8.000000e+000  7.500000e+000
    endloop
  endfacet
  facet normal -9.999999e-001  0.000000e+000  0.000000e+000
    outer loop
      vertex  1.800000e+001  8.000000e+000  7.500000e+000
      vertex  1.800000e+001  1.200000e+001  7.500000e+000
      vertex  1.800000e+001  1.229289e+001  6.792893e+000
    endloop
  endfacet
  facet normal -1.000000e+000  -0.000000e+000  0.000000e+000
    outer loop
      vertex  1.800000e+001  8.000000e+000  7.500000e+000
      vertex  1.800000e+001  1.229289e+001  6.792893e+000
      vertex  1.800000e+001  8.256583e+000  5.918861e+000
    endloop
  endfacet
  facet normal -1.000000e+000  0.000000e+000  0.000000e+000
    outer loop
      vertex  1.800000e+001  2.400000e+001  1.300000e+001
      vertex  1.800000e+001  1.700000e+001  1.300000e+001
      vertex  1.800000e+001  2.341421e+001  1.441421e+001
    endloop
  endfacet
  facet normal -1.000000e+000  -0.000000e+000  0.000000e+000
    outer loop
      vertex  1.800000e+001  2.341421e+001  1.441421e+001
      vertex  1.800000e+001  1.700000e+001  1.300000e+001
      vertex  1.800000e+001  1.700000e+001  1.500000e+001
    endloop
  endfacet
  facet normal -1.000000e+000  0.000000e+000  0.000000e+000
    outer loop
      vertex  1.800000e+001  2.341421e+001  1.441421e+001
      vertex  1.800000e+001  1.700000e+001  1.500000e+001
      vertex  1.800000e+001  2.200000e+001  1.500000e+001
    endloop
  endfacet
  facet normal -9.238794e-001  3.826836e-001  0.000000e+000
    outer loop
      vertex  1.741421e+001  7.585786e+000  1.300000e+001
      vertex  1.800000e+001  9.000000e+000  1.300000e+001
      vertex  1.800000e+001  9.000000e+000  1.050000e+001
    endloop
  endfacet
  facet normal -9.508157e-001  3.057198e-001 -4.984884e-002
    outer loop
      vertex  1.741421e+001  7.585786e+000  1.300000e+001
      vertex  1.800000e+001  9.000000e+000  1.050000e+001
      vertex  1.782382e+001  8.179214e+000  8.826661e+000
    endloop
  endfacet
  facet normal -8.561466e-001  5.166250e-001 -1.056758e-002
    outer loop
      vertex  1.741421e+001  7.585786e+000  1.300000e+001
      vertex  1.782382e+001  8.179214e+000  8.826661e+000
      vertex  1.773205e+001  8.000000e+000  7.500000e+000
    endloop
  endfacet
  facet normal -7.933539e-001  6.087608e-001  0.000000e+000
    outer loop
      vertex  1.741421e+001  7.585786e+000  1.300000e+001
      vertex  1.773205e+001  8.000000e+000  7.500000e+000
      vertex  1.741421e+001  7.585786e+000  2.000000e+000
    endloop
  endfacet
  facet normal -3.826835e-001  9.238796e-001  0.000000e+000
    outer loop
      vertex  1.741421e+001  7.585786e+000  1.300000e+001
      vertex  1.741421e+001  7.585786e+000  2.000000e+000
      vertex  1.600000e+001  7.000000e+000  2.000000e+000
    endloop
  endfacet
  facet normal -3.826835e-001  9.238796e-001  0.000000e+000
    outer loop
      vertex  1.741421e+001  7.585786e+000  1.300000e+001
      vertex  1.600000e+001  7.000000e+000  2.000000e+000
      vertex  1.600000e+001  7.000000e+000  1.300000e+001
    endloop
  endfacet
  facet normal -8.561465e-001  5.166250e-001  1.056758e-002
    outer loop
      vertex  1.773205e+001  8.000000e+000  7.500000e+000
      vertex  1.782382e+001  8.179214e+000  6.173338e+000
      vertex  1.741421e+001  7.585786e+000  2.000000e+000
    endloop
  endfacet
  facet normal -9.508157e-001  3.057199e-001  4.984885e-002
    outer loop
      vertex  1.741421e+001  7.585786e+000  2.000000e+000
      vertex  1.782382e+001  8.179214e+000  6.173338e+000
      vertex  1.800000e+001  9.000000e+000  4.500000e+000
    endloop
  endfacet
  facet normal -9.238794e-001  3.826836e-001  0.000000e+000
    outer loop
      vertex  1.741421e+001  7.585786e+000  2.000000e+000
      vertex  1.800000e+001  9.000000e+000  4.500000e+000
      vertex  1.800000e+001  9.000000e+000  2.000000e+000
    endloop
  endfacet
  facet normal  0.000000e+000  -0.000000e+000  1.000000e+000
    outer loop
      vertex  8.000000e+000  7.000000e+000  2.000000e+000
      vertex  1.600000e+001  7.000000e+000  2.000000e+000
      vertex  1.800000e+001  1.700000e+001  2.000000e+000
    endloop
  endfacet
  facet normal  0.000000e+000  0.000000e+000  1.000000e+000
    outer loop
      vertex  1.800000e+001  1.700000e+001  2.000000e+000
      vertex  1.600000e+001  7.000000e+000  2.000000e+000
      vertex  1.741421e+001  7.585786e+000  2.000000e+000
    endloop
  endfacet
  facet normal  0.000000e+000  0.000000e+000  1.000000e+000
    outer loop
      vertex  1.800000e+001  1.700000e+001  2.000000e+000
      vertex  1.741421e+001  7.585786e+000  2.000000e+000
      vertex  1.800000e+001  9.000000e+000  2.000000e+000
    endloop
  endfacet
  facet normal  0.000000e+000  0.000000e+000  1.000000e+000
    outer loop
      vertex -5.608616e-016  4.000000e+000  1.500000e+001
      vertex  0.000000e+000  7.000000e+000  1.500000e+001
      vertex -2.128258e+000  3.386815e+000  1.500000e+001
    endloop
  endfacet
  facet normal  0.000000e+000  0.000000e+000  1.000000e+000
    outer loop
      vertex  1.800000e+001  1.700000e+001  1.500000e+001
      vertex  1.850000e+001  4.669873e+000  1.500000e+001
      vertex  1.800000e+001  2.200000e+001  1.500000e+001
    endloop
  endfacet
  facet normal  0.000000e+000  0.000000e+000  9.999999e-001
    outer loop
      vertex  1.600000e+001  4.000000e+000  1.500000e+001
      vertex  1.850000e+001  4.669873e+000  1.500000e+001
      vertex  1.800000e+001  1.700000e+001  1.500000e+001
    endloop
  endfacet
  facet normal  0.000000e+000  0.000000e+000  9.999999e-001
    outer loop
      vertex  1.600000e+001  4.000000e+000  1.500000e+001
      vertex  1.800000e+001  1.700000e+001  1.500000e+001
      vertex  8.000000e+000  7.000000e+000  1.500000e+001
    endloop
  endfacet
  facet normal  0.000000e+000  0.000000e+000  1.000000e+000
    outer loop
      vertex  1.600000e+001  4.000000e+000  1.500000e+001
      vertex  8.000000e+000  7.000000e+000  1.500000e+001
      vertex  0.000000e+000  7.000000e+000  1.500000e+001
    endloop
  endfacet
  facet normal  0.000000e+000  0.000000e+000  1.000000e+000
    outer loop
      vertex  1.600000e+001  4.000000e+000  1.500000e+001
      vertex  0.000000e+000  7.000000e+000  1.500000e+001
      vertex -5.608616e-016  4.000000e+000  1.500000e+001
    endloop
  endfacet
  facet normal  -0.000000e+000  0.000000e+000  1.000000e+000
    outer loop
      vertex -3.037380e+000  6.306689e+000  1.500000e+001
      vertex -5.473088e+000  4.364093e+000  1.500000e+001
      vertex -3.974797e+000 -4.483146e-001  1.500000e+001
    endloop
  endfacet
  facet normal  0.000000e+000  0.000000e+000  9.999999e-001
    outer loop
      vertex -3.974797e+000 -4.483146e-001  1.500000e+001
      vertex -5.473088e+000  4.364093e+000  1.500000e+001
      vertex -5.472152e+000 -4.365267e+000  1.500000e+001
    endloop
  endfacet
  facet normal  0.000000e+000  0.000000e+000  1.000000e+000
    outer loop
      vertex -3.974797e+000 -4.483146e-001  1.500000e+001
      vertex -5.472152e+000 -4.365267e+000  1.500000e+001
      vertex -3.126944e+000 -2.494438e+000  1.500000e+001
    endloop
  endfacet
  facet normal  0.000000e+000  0.000000e+000  1.000000e+000
    outer loop
      vertex -3.126944e+000 -2.494438e+000  1.500000e+001
      vertex -5.472152e+000 -4.365267e+000  1.500000e+001
      vertex -3.036027e+000 -6.307340e+000  1.500000e+001
    endloop
  endfacet
  facet normal  0.000000e+000  -0.000000e+000  9.999999e-001
    outer loop
      vertex -3.126944e+000 -2.494438e+000  1.500000e+001
      vertex -3.036027e+000 -6.307340e+000  1.500000e+001
      vertex -1.320393e+000 -3.775786e+000  1.500000e+001
    endloop
  endfacet
  facet normal  0.000000e+000  0.000000e+000  1.000000e+000
    outer loop
      vertex -1.320393e+000 -3.775786e+000  1.500000e+001
      vertex -3.036027e+000 -6.307340e+000  1.500000e+001
      vertex  1.501277e-003 -7.000000e+000  1.500000e+001
    endloop
  endfacet
  facet normal  0.000000e+000  -0.000000e+000  9.999999e-001
    outer loop
      vertex -1.320393e+000 -3.775786e+000  1.500000e+001
      vertex  1.501277e-003 -7.000000e+000  1.500000e+001
      vertex  8.909798e-001 -3.899507e+000  1.500000e+001
    endloop
  endfacet
  facet normal  0.000000e+000  0.000000e+000  1.000000e+000
    outer loop
      vertex  8.909798e-001 -3.899507e+000  1.500000e+001
      vertex  1.501277e-003 -7.000000e+000  1.500000e+001
      vertex  2.829185e+000 -2.827669e+000  1.500000e+001
    endloop
  endfacet
  facet normal  0.000000e+000  0.000000e+000  1.000000e+000
    outer loop
      vertex  2.829185e+000 -2.827669e+000  1.500000e+001
      vertex  1.501277e-003 -7.000000e+000  1.500000e+001
      vertex  3.038732e+000 -6.306037e+000  1.500000e+001
    endloop
  endfacet
  facet normal  0.000000e+000  -0.000000e+000  1.000000e+000
    outer loop
      vertex  2.829185e+000 -2.827669e+000  1.500000e+001
      vertex  3.038732e+000 -6.306037e+000  1.500000e+001
      vertex  3.899984e+000 -8.888889e-001  1.500000e+001
    endloop
  endfacet
  facet normal  0.000000e+000  0.000000e+000  1.000000e+000
    outer loop
      vertex  3.899984e+000 -8.888889e-001  1.500000e+001
      vertex  3.038732e+000 -6.306037e+000  1.500000e+001
      vertex  5.474024e+000 -4.362919e+000  1.500000e+001
    endloop
  endfacet
  facet normal  0.000000e+000  0.000000e+000  1.000000e+000
    outer loop
      vertex  3.899984e+000 -8.888889e-001  1.500000e+001
      vertex  5.474024e+000 -4.362919e+000  1.500000e+001
      vertex  4.865170e+000  1.116650e+000  1.500000e+001
    endloop
  endfacet
  facet normal  0.000000e+000  -0.000000e+000  1.000000e+000
    outer loop
      vertex  4.865170e+000  1.116650e+000  1.500000e+001
      vertex  5.474024e+000 -4.362919e+000  1.500000e+001
      vertex  6.605086e+000  2.504623e+000  1.500000e+001
    endloop
  endfacet
  facet normal  0.000000e+000  0.000000e+000  9.999999e-001
    outer loop
      vertex  6.605086e+000  2.504623e+000  1.500000e+001
      vertex  5.474024e+000 -4.362919e+000  1.500000e+001
      vertex  6.824972e+000 -1.555556e+000  1.500000e+001
    endloop
  endfacet
  facet normal  0.000000e+000  -0.000000e+000  1.000000e+000
    outer loop
      vertex  6.605086e+000  2.504623e+000  1.500000e+001
      vertex  6.824972e+000 -1.555556e+000  1.500000e+001
      vertex  8.774964e+000  3.000000e+000  1.500000e+001
    endloop
  endfacet
  facet normal  0.000000e+000  0.000000e+000  1.000000e+000
    outer loop
      vertex  8.774964e+000  3.000000e+000  1.500000e+001
      vertex  6.824972e+000 -1.555556e+000  1.500000e+001
      vertex  7.527745e+000 -4.365281e-001  1.500000e+001
    endloop
  endfacet
  facet normal  0.000000e+000  0.000000e+000  1.000000e+000
    outer loop
      vertex  8.774964e+000  3.000000e+000  1.500000e+001
      vertex  7.527745e+000 -4.365281e-001  1.500000e+001
      vertex  8.774964e+000  1.110223e-015  1.500000e+001
    endloop
  endfacet
  facet normal  0.000000e+000  0.000000e+000  1.000000e+000
    outer loop
      vertex  3.900000e+001  2.220446e-016  1.500000e+001
      vertex  3.900000e+001  3.000000e+000  1.500000e+001
      vertex  8.774964e+000  1.110223e-015  1.500000e+001
    endloop
  endfacet
  facet normal  0.000000e+000  0.000000e+000  1.000000e+000
    outer loop
      vertex  8.774964e+000  1.110223e-015  1.500000e+001
      vertex  3.900000e+001  3.000000e+000  1.500000e+001
      vertex  8.774964e+000  3.000000e+000  1.500000e+001
    endloop
  endfacet
  facet normal  0.000000e+000  0.000000e+000  9.999999e-001
    outer loop
      vertex -5.472152e+000 -4.365267e+000  1.500000e+001
      vertex -5.473088e+000  4.364093e+000  1.500000e+001
      vertex -6.824305e+000 -1.558483e+000  1.500000e+001
    endloop
  endfacet
  facet normal  0.000000e+000  -0.000000e+000  1.000000e+000
    outer loop
      vertex -6.824305e+000 -1.558483e+000  1.500000e+001
      vertex -5.473088e+000  4.364093e+000  1.500000e+001
      vertex -6.824638e+000  1.557019e+000  1.500000e+001
    endloop
  endfacet
  facet normal  0.000000e+000  0.000000e+000  1.000000e+000
    outer loop
      vertex -2.128258e+000  3.386815e+000  1.500000e+001
      vertex  0.000000e+000  7.000000e+000  1.500000e+001
      vertex -3.604008e+000  1.735259e+000  1.500000e+001
    endloop
  endfacet
  facet normal  0.000000e+000  0.000000e+000  1.000000e+000
    outer loop
      vertex -3.604008e+000  1.735259e+000  1.500000e+001
      vertex  0.000000e+000  7.000000e+000  1.500000e+001
      vertex -3.037380e+000  6.306689e+000  1.500000e+001
    endloop
  endfacet
  facet normal  0.000000e+000  0.000000e+000  1.000000e+000
    outer loop
      vertex -3.604008e+000  1.735259e+000  1.500000e+001
      vertex -3.037380e+000  6.306689e+000  1.500000e+001
      vertex -3.974797e+000 -4.483146e-001  1.500000e+001
    endloop
  endfacet
  facet normal  0.000000e+000  -0.000000e+000  9.999999e-001
    outer loop
      vertex  1.800000e+001  2.200000e+001  1.500000e+001
      vertex  1.850000e+001  4.669873e+000  1.500000e+001
      vertex  2.100000e+001  2.200000e+001  1.500000e+001
    endloop
  endfacet
  facet normal  0.000000e+000  0.000000e+000  1.000000e+000
    outer loop
      vertex  2.100000e+001  2.200000e+001  1.500000e+001
      vertex  1.850000e+001  4.669873e+000  1.500000e+001
      vertex  2.033013e+001  6.500000e+000  1.500000e+001
    endloop
  endfacet
  facet normal  0.000000e+000  0.000000e+000  1.000000e+000
    outer loop
      vertex  2.100000e+001  2.200000e+001  1.500000e+001
      vertex  2.033013e+001  6.500000e+000  1.500000e+001
      vertex  2.100000e+001  9.000000e+000  1.500000e+001
    endloop
  endfacet
  facet normal -7.071068e-001  7.071068e-001  0.000000e+000
    outer loop
      vertex  1.800000e+001  1.700000e+001  1.500000e+001
      vertex  1.800000e+001  1.700000e+001  1.300000e+001
      vertex  8.000000e+000  7.000000e+000  1.500000e+001
    endloop
  endfacet
  facet normal -7.071068e-001  7.071068e-001  0.000000e+000
    outer loop
      vertex  8.000000e+000  7.000000e+000  1.500000e+001
      vertex  1.800000e+001  1.700000e+001  1.300000e+001
      vertex  8.000000e+000  7.000000e+000  1.300000e+001
    endloop
  endfacet
  facet normal  0.000000e+000  0.000000e+000 -1.000000e+000
    outer loop
      vertex  1.800000e+001  9.000000e+000  1.300000e+001
      vertex  1.741421e+001  7.585786e+000  1.300000e+001
      vertex  1.800000e+001  1.700000e+001  1.300000e+001
    endloop
  endfacet
  facet normal  0.000000e+000  0.000000e+000 -1.000000e+000
    outer loop
      vertex  1.800000e+001  1.700000e+001  1.300000e+001
      vertex  1.741421e+001  7.585786e+000  1.300000e+001
      vertex  1.600000e+001  7.000000e+000  1.300000e+001
    endloop
  endfacet
  facet normal  0.000000e+000  0.000000e+000 -1.000000e+000
    outer loop
      vertex  1.800000e+001  1.700000e+001  1.300000e+001
      vertex  1.600000e+001  7.000000e+000  1.300000e+001
      vertex  8.000000e+000  7.000000e+000  1.300000e+001
    endloop
  endfacet
  facet normal  2.708557e-001  8.526688e-001  4.467584e-001
    outer loop
      vertex  1.800000e+001  9.000000e+000  4.500000e+000
      vertex  1.782382e+001  8.179214e+000  6.173338e+000
      vertex  1.800000e+001  8.256583e+000  5.918861e+000
    endloop
  endfacet
  facet normal -2.600297e-001  9.591323e-001  1.115793e-001
    outer loop
      vertex  1.800000e+001  8.256583e+000  5.918861e+000
      vertex  1.782382e+001  8.179214e+000  6.173338e+000
      vertex  1.773205e+001  8.000000e+000  7.500000e+000
    endloop
  endfacet
  facet normal  -0.000000e+000  9.870875e-001  1.601821e-001
    outer loop
      vertex  1.800000e+001  8.256583e+000  5.918861e+000
      vertex  1.773205e+001  8.000000e+000  7.500000e+000
      vertex  1.800000e+001  8.000000e+000  7.500000e+000
    endloop
  endfacet
  facet normal  2.708569e-001  8.526685e-001 -4.467583e-001
    outer loop
      vertex  1.800000e+001  9.000000e+000  1.050000e+001
      vertex  1.800000e+001  8.256583e+000  9.081139e+000
      vertex  1.782382e+001  8.179214e+000  8.826661e+000
    endloop
  endfacet
  facet normal -1.980983e-001  9.675255e-001 -1.570076e-001
    outer loop
      vertex  1.782382e+001  8.179214e+000  8.826661e+000
      vertex  1.800000e+001  8.256583e+000  9.081139e+000
      vertex  1.800000e+001  8.000000e+000  7.500000e+000
    endloop
  endfacet
  facet normal  0.000000e+000  9.909988e-001 -1.338709e-001
    outer loop
      vertex  1.782382e+001  8.179214e+000  8.826661e+000
      vertex  1.800000e+001  8.000000e+000  7.500000e+000
      vertex  1.773205e+001  8.000000e+000  7.500000e+000
    endloop
  endfacet
  facet normal  0.000000e+000 -3.826837e-001 -9.238794e-001
    outer loop
      vertex  2.100000e+001  1.300000e+001  8.500000e+000
      vertex  1.800000e+001  1.370711e+001  8.207107e+000
      vertex  2.100000e+001  1.370711e+001  8.207107e+000
    endloop
  endfacet
  facet normal  -0.000000e+000 -9.238794e-001 -3.826837e-001
    outer loop
      vertex  2.100000e+001  1.370711e+001  8.207107e+000
      vertex  1.800000e+001  1.370711e+001  8.207107e+000
      vertex  1.800000e+001  1.400000e+001  7.500000e+000
    endloop
  endfacet
  facet normal  0.000000e+000 -9.238794e-001 -3.826837e-001
    outer loop
      vertex  2.100000e+001  1.370711e+001  8.207107e+000
      vertex  1.800000e+001  1.400000e+001  7.500000e+000
      vertex  2.100000e+001  1.400000e+001  7.500000e+000
    endloop
  endfacet
  facet normal  -0.000000e+000 -3.826837e-001 -9.238794e-001
    outer loop
      vertex  1.800000e+001  1.370711e+001  8.207107e+000
      vertex  2.100000e+001  1.300000e+001  8.500000e+000
      vertex  1.800000e+001  1.300000e+001  8.500000e+000
    endloop
  endfacet
  facet normal  0.000000e+000  3.826837e-001 -9.238794e-001
    outer loop
      vertex  1.800000e+001  1.300000e+001  8.500000e+000
      vertex  2.100000e+001  1.300000e+001  8.500000e+000
      vertex  2.100000e+001  1.229289e+001  8.207107e+000
    endloop
  endfacet
  facet normal  0.000000e+000  3.826837e-001 -9.238794e-001
    outer loop
      vertex  1.800000e+001  1.300000e+001  8.500000e+000
      vertex  2.100000e+001  1.229289e+001  8.207107e+000
      vertex  1.800000e+001  1.229289e+001  8.207107e+000
    endloop
  endfacet
  facet normal  0.000000e+000  9.238794e-001 -3.826837e-001
    outer loop
      vertex  1.800000e+001  1.229289e+001  8.207107e+000
      vertex  2.100000e+001  1.229289e+001  8.207107e+000
      vertex  2.100000e+001  1.200000e+001  7.500000e+000
    endloop
  endfacet
  facet normal  0.000000e+000  9.238794e-001 -3.826837e-001
    outer loop
      vertex  1.800000e+001  1.229289e+001  8.207107e+000
      vertex  2.100000e+001  1.200000e+001  7.500000e+000
      vertex  1.800000e+001  1.200000e+001  7.500000e+000
    endloop
  endfacet
  facet normal  -0.000000e+000  3.826837e-001  9.238794e-001
    outer loop
      vertex  2.100000e+001  1.300000e+001  6.500000e+000
      vertex  1.800000e+001  1.229289e+001  6.792893e+000
      vertex  2.100000e+001  1.229289e+001  6.792893e+000
    endloop
  endfacet
  facet normal  0.000000e+000  9.238794e-001  3.826837e-001
    outer loop
      vertex  2.100000e+001  1.229289e+001  6.792893e+000
      vertex  1.800000e+001  1.229289e+001  6.792893e+000
      vertex  1.800000e+001  1.200000e+001  7.500000e+000
    endloop
  endfacet
  facet normal  -0.000000e+000  9.238794e-001  3.826837e-001
    outer loop
      vertex  2.100000e+001  1.229289e+001  6.792893e+000
      vertex  1.800000e+001  1.200000e+001  7.500000e+000
      vertex  2.100000e+001  1.200000e+001  7.500000e+000
    endloop
  endfacet
  facet normal  0.000000e+000  3.826837e-001  9.238794e-001
    outer loop
      vertex  1.800000e+001  1.229289e+001  6.792893e+000
      vertex  2.100000e+001  1.300000e+001  6.500000e+000
      vertex  1.800000e+001  1.300000e+001  6.500000e+000
    endloop
  endfacet
  facet normal  0.000000e+000 -3.826837e-001  9.238794e-001
    outer loop
      vertex  1.800000e+001  1.300000e+001  6.500000e+000
      vertex  2.100000e+001  1.300000e+001  6.500000e+000
      vertex  2.100000e+001  1.370711e+001  6.792893e+000
    endloop
  endfacet
  facet normal  0.000000e+000 -3.826837e-001  9.238794e-001
    outer loop
      vertex  1.800000e+001  1.300000e+001  6.500000e+000
      vertex  2.100000e+001  1.370711e+001  6.792893e+000
      vertex  1.800000e+001  1.370711e+001  6.792893e+000
    endloop
  endfacet
  facet normal  0.000000e+000 -9.238794e-001  3.826837e-001
    outer loop
      vertex  1.800000e+001  1.370711e+001  6.792893e+000
      vertex  2.100000e+001  1.370711e+001  6.792893e+000
      vertex  2.100000e+001  1.400000e+001  7.500000e+000
    endloop
  endfacet
  facet normal  0.000000e+000 -9.238794e-001  3.826837e-001
    outer loop
      vertex  1.800000e+001  1.370711e+001  6.792893e+000
      vertex  2.100000e+001  1.400000e+001  7.500000e+000
      vertex  1.800000e+001  1.400000e+001  7.500000e+000
    endloop
  endfacet
  facet normal -4.562879e-017 -1.000000e+000 -1.890002e-017
    outer loop
      vertex  8.774964e+000  1.110223e-015  0.000000e+000
      vertex  3.029289e+001  0.000000e+000  6.792893e+000
      vertex  3.000000e+001  0.000000e+000  7.500000e+000
    endloop
  endfacet
  facet normal -2.928002e-017 -1.000000e+000 -7.068825e-017
    outer loop
      vertex  8.774964e+000  1.110223e-015  0.000000e+000
      vertex  3.100000e+001  0.000000e+000  6.500000e+000
      vertex  3.029289e+001  0.000000e+000  6.792893e+000
    endloop
  endfacet
  facet normal -5.230724e-017 -1.000000e+000  0.000000e+000
    outer loop
      vertex  8.774964e+000  1.110223e-015  1.500000e+001
      vertex  8.774964e+000  1.110223e-015  0.000000e+000
      vertex  3.000000e+001  0.000000e+000  7.500000e+000
    endloop
  endfacet
  facet normal -4.562879e-017 -1.000000e+000  1.890002e-017
    outer loop
      vertex  8.774964e+000  1.110223e-015  1.500000e+001
      vertex  3.000000e+001  0.000000e+000  7.500000e+000
      vertex  3.029289e+001  0.000000e+000  8.207107e+000
    endloop
  endfacet
  facet normal -2.928002e-017 -1.000000e+000  7.068825e-017
    outer loop
      vertex  8.774964e+000  1.110223e-015  1.500000e+001
      vertex  3.029289e+001  0.000000e+000  8.207107e+000
      vertex  3.100000e+001  0.000000e+000  8.500000e+000
    endloop
  endfacet
  facet normal  -0.000000e+000 -1.000000e+000  0.000000e+000
    outer loop
      vertex  3.900000e+001  2.220446e-016  0.000000e+000
      vertex  4.041422e+001  2.220446e-016  5.857865e-001
      vertex  4.100000e+001  2.220446e-016  2.000000e+000
    endloop
  endfacet
  facet normal  1.531342e-017 -1.000000e+000 -1.531342e-017
    outer loop
      vertex  3.900000e+001  2.220446e-016  0.000000e+000
      vertex  4.100000e+001  2.220446e-016  2.000000e+000
      vertex  3.200000e+001  0.000000e+000  7.500000e+000
    endloop
  endfacet
  facet normal  2.197027e-017 -1.000000e+000 -9.100362e-018
    outer loop
      vertex  3.900000e+001  2.220446e-016  0.000000e+000
      vertex  3.200000e+001  0.000000e+000  7.500000e+000
      vertex  3.170711e+001  0.000000e+000  6.792893e+000
    endloop
  endfacet
  facet normal  9.371978e-018 -1.000000e+000 -2.262597e-017
    outer loop
      vertex  3.900000e+001  2.220446e-016  0.000000e+000
      vertex  3.170711e+001  0.000000e+000  6.792893e+000
      vertex  3.100000e+001  0.000000e+000  6.500000e+000
    endloop
  endfacet
  facet normal -2.938552e-017 -1.000000e+000 -7.032750e-017
    outer loop
      vertex  3.900000e+001  2.220446e-016  0.000000e+000
      vertex  3.100000e+001  0.000000e+000  6.500000e+000
      vertex  8.774964e+000  1.110223e-015  0.000000e+000
    endloop
  endfacet
  facet normal -2.938552e-017 -1.000000e+000  7.032750e-017
    outer loop
      vertex  3.900000e+001  2.220446e-016  1.500000e+001
      vertex  8.774964e+000  1.110223e-015  1.500000e+001
      vertex  3.100000e+001  0.000000e+000  8.500000e+000
    endloop
  endfacet
  facet normal  9.371978e-018 -1.000000e+000  2.262597e-017
    outer loop
      vertex  3.900000e+001  2.220446e-016  1.500000e+001
      vertex  3.100000e+001  0.000000e+000  8.500000e+000
      vertex  3.170711e+001  0.000000e+000  8.207107e+000
    endloop
  endfacet
  facet normal  2.197027e-017 -1.000000e+000  9.100362e-018
    outer loop
      vertex  3.900000e+001  2.220446e-016  1.500000e+001
      vertex  3.170711e+001  0.000000e+000  8.207107e+000
      vertex  3.200000e+001  0.000000e+000  7.500000e+000
    endloop
  endfacet
  facet normal  8.844070e-018 -1.000000e+000  2.135148e-017
    outer loop
      vertex  3.900000e+001  2.220446e-016  1.500000e+001
      vertex  3.200000e+001  0.000000e+000  7.500000e+000
      vertex  4.041422e+001  2.220446e-016  1.441421e+001
    endloop
  endfacet
  facet normal  2.540418e-017 -9.999999e-001  1.198738e-018
    outer loop
      vertex  3.200000e+001  0.000000e+000  7.500000e+000
      vertex  4.100000e+001  2.220446e-016  2.000000e+000
      vertex  4.041422e+001  2.220446e-016  1.441421e+001
    endloop
  endfacet
  facet normal  0.000000e+000 -1.000000e+000  0.000000e+000
    outer loop
      vertex  4.041422e+001  2.220446e-016  1.441421e+001
      vertex  4.100000e+001  2.220446e-016  2.000000e+000
      vertex  4.100000e+001  2.220446e-016  1.300000e+001
    endloop
  endfacet
  facet normal  0.000000e+000  1.000000e+000  0.000000e+000
    outer loop
      vertex  3.000000e+001  3.000000e+000  7.500000e+000
      vertex  3.029289e+001  3.000000e+000  6.792893e+000
      vertex  8.774964e+000  3.000000e+000  0.000000e+000
    endloop
  endfacet
  facet normal  0.000000e+000  1.000000e+000  0.000000e+000
    outer loop
      vertex  3.029289e+001  3.000000e+000  6.792893e+000
      vertex  3.100000e+001  3.000000e+000  6.500000e+000
      vertex  8.774964e+000  3.000000e+000  0.000000e+000
    endloop
  endfacet
  facet normal  0.000000e+000  1.000000e+000  0.000000e+000
    outer loop
      vertex  8.774964e+000  3.000000e+000  1.500000e+001
      vertex  3.100000e+001  3.000000e+000  8.500000e+000
      vertex  3.029289e+001  3.000000e+000  8.207107e+000
    endloop
  endfacet
  facet normal  0.000000e+000  1.000000e+000  0.000000e+000
    outer loop
      vertex  8.774964e+000  3.000000e+000  1.500000e+001
      vertex  3.029289e+001  3.000000e+000  8.207107e+000
      vertex  3.000000e+001  3.000000e+000  7.500000e+000
    endloop
  endfacet
  facet normal  0.000000e+000  1.000000e+000  0.000000e+000
    outer loop
      vertex  8.774964e+000  3.000000e+000  1.500000e+001
      vertex  3.000000e+001  3.000000e+000  7.500000e+000
      vertex  8.774964e+000  3.000000e+000  0.000000e+000
    endloop
  endfacet
  facet normal  0.000000e+000  1.000000e+000  0.000000e+000
    outer loop
      vertex  3.900000e+001  3.000000e+000  0.000000e+000
      vertex  8.774964e+000  3.000000e+000  0.000000e+000
      vertex  3.100000e+001  3.000000e+000  6.500000e+000
    endloop
  endfacet
  facet normal  -0.000000e+000  1.000000e+000  0.000000e+000
    outer loop
      vertex  3.900000e+001  3.000000e+000  0.000000e+000
      vertex  3.100000e+001  3.000000e+000  6.500000e+000
      vertex  3.170711e+001  3.000000e+000  6.792893e+000
    endloop
  endfacet
  facet normal  -0.000000e+000  1.000000e+000  0.000000e+000
    outer loop
      vertex  3.900000e+001  3.000000e+000  0.000000e+000
      vertex  3.170711e+001  3.000000e+000  6.792893e+000
      vertex  3.200000e+001  3.000000e+000  7.500000e+000
    endloop
  endfacet
  facet normal  0.000000e+000  1.000000e+000  0.000000e+000
    outer loop
      vertex  3.900000e+001  3.000000e+000  0.000000e+000
      vertex  3.200000e+001  3.000000e+000  7.500000e+000
      vertex  4.100000e+001  3.000000e+000  2.000000e+000
    endloop
  endfacet
  facet normal  0.000000e+000  1.000000e+000  0.000000e+000
    outer loop
      vertex  3.900000e+001  3.000000e+000  0.000000e+000
      vertex  4.100000e+001  3.000000e+000  2.000000e+000
      vertex  4.041422e+001  3.000000e+000  5.857865e-001
    endloop
  endfacet
  facet normal  0.000000e+000  1.000000e+000  0.000000e+000
    outer loop
      vertex  3.900000e+001  3.000000e+000  1.500000e+001
      vertex  4.041422e+001  3.000000e+000  1.441421e+001
      vertex  3.200000e+001  3.000000e+000  7.500000e+000
    endloop
  endfacet
  facet normal  0.000000e+000  1.000000e+000  -0.000000e+000
    outer loop
      vertex  3.900000e+001  3.000000e+000  1.500000e+001
      vertex  3.200000e+001  3.000000e+000  7.500000e+000
      vertex  3.170711e+001  3.000000e+000  8.207107e+000
    endloop
  endfacet
  facet normal  0.000000e+000  1.000000e+000  -0.000000e+000
    outer loop
      vertex  3.900000e+001  3.000000e+000  1.500000e+001
      vertex  3.170711e+001  3.000000e+000  8.207107e+000
      vertex  3.100000e+001  3.000000e+000  8.500000e+000
    endloop
  endfacet
  facet normal  0.000000e+000  1.000000e+000  -0.000000e+000
    outer loop
      vertex  3.900000e+001  3.000000e+000  1.500000e+001
      vertex  3.100000e+001  3.000000e+000  8.500000e+000
      vertex  8.774964e+000  3.000000e+000  1.500000e+001
    endloop
  endfacet
  facet normal  0.000000e+000  9.999999e-001  0.000000e+000
    outer loop
      vertex  3.200000e+001  3.000000e+000  7.500000e+000
      vertex  4.041422e+001  3.000000e+000  1.441421e+001
      vertex  4.100000e+001  3.000000e+000  2.000000e+000
    endloop
  endfacet
  facet normal  0.000000e+000  1.000000e+000  -0.000000e+000
    outer loop
      vertex  4.100000e+001  3.000000e+000  2.000000e+000
      vertex  4.041422e+001  3.000000e+000  1.441421e+001
      vertex  4.100000e+001  3.000000e+000  1.300000e+001
    endloop
  endfacet
  facet normal  3.826833e-001  0.000000e+000 -9.238796e-001
    outer loop
      vertex  3.100000e+001  3.000000e+000  8.500000e+000
      vertex  3.029289e+001  0.000000e+000  8.207107e+000
      vertex  3.029289e+001  3.000000e+000  8.207107e+000
    endloop
  endfacet
  facet normal  9.238798e-001  0.000000e+000 -3.826827e-001
    outer loop
      vertex  3.029289e+001  3.000000e+000  8.207107e+000
      vertex  3.029289e+001  0.000000e+000  8.207107e+000
      vertex  3.000000e+001  0.000000e+000  7.500000e+000
    endloop
  endfacet
  facet normal  9.238798e-001  0.000000e+000 -3.826827e-001
    outer loop
      vertex  3.029289e+001  3.000000e+000  8.207107e+000
      vertex  3.000000e+001  0.000000e+000  7.500000e+000
      vertex  3.000000e+001  3.000000e+000  7.500000e+000
    endloop
  endfacet
  facet normal  3.826833e-001  0.000000e+000 -9.238796e-001
    outer loop
      vertex  3.029289e+001  0.000000e+000  8.207107e+000
      vertex  3.100000e+001  3.000000e+000  8.500000e+000
      vertex  3.100000e+001  0.000000e+000  8.500000e+000
    endloop
  endfacet
  facet normal -3.826833e-001  0.000000e+000 -9.238796e-001
    outer loop
      vertex  3.100000e+001  0.000000e+000  8.500000e+000
      vertex  3.100000e+001  3.000000e+000  8.500000e+000
      vertex  3.170711e+001  3.000000e+000  8.207107e+000
    endloop
  endfacet
  facet normal -3.826833e-001  -0.000000e+000 -9.238796e-001
    outer loop
      vertex  3.100000e+001  0.000000e+000  8.500000e+000
      vertex  3.170711e+001  3.000000e+000  8.207107e+000
      vertex  3.170711e+001  0.000000e+000  8.207107e+000
    endloop
  endfacet
  facet normal -9.238798e-001  0.000000e+000 -3.826827e-001
    outer loop
      vertex  3.170711e+001  0.000000e+000  8.207107e+000
      vertex  3.170711e+001  3.000000e+000  8.207107e+000
      vertex  3.200000e+001  3.000000e+000  7.500000e+000
    endloop
  endfacet
  facet normal -9.238798e-001  -0.000000e+000 -3.826827e-001
    outer loop
      vertex  3.170711e+001  0.000000e+000  8.207107e+000
      vertex  3.200000e+001  3.000000e+000  7.500000e+000
      vertex  3.200000e+001  0.000000e+000  7.500000e+000
    endloop
  endfacet
  facet normal -3.826833e-001  0.000000e+000  9.238796e-001
    outer loop
      vertex  3.100000e+001  3.000000e+000  6.500000e+000
      vertex  3.170711e+001  0.000000e+000  6.792893e+000
      vertex  3.170711e+001  3.000000e+000  6.792893e+000
    endloop
  endfacet
  facet normal -9.238798e-001  0.000000e+000  3.826827e-001
    outer loop
      vertex  3.170711e+001  3.000000e+000  6.792893e+000
      vertex  3.170711e+001  0.000000e+000  6.792893e+000
      vertex  3.200000e+001  0.000000e+000  7.500000e+000
    endloop
  endfacet
  facet normal -9.238798e-001  0.000000e+000  3.826827e-001
    outer loop
      vertex  3.170711e+001  3.000000e+000  6.792893e+000
      vertex  3.200000e+001  0.000000e+000  7.500000e+000
      vertex  3.200000e+001  3.000000e+000  7.500000e+000
    endloop
  endfacet
  facet normal -3.826833e-001  0.000000e+000  9.238796e-001
    outer loop
      vertex  3.170711e+001  0.000000e+000  6.792893e+000
      vertex  3.100000e+001  3.000000e+000  6.500000e+000
      vertex  3.100000e+001  0.000000e+000  6.500000e+000
    endloop
  endfacet
  facet normal  3.826833e-001  -0.000000e+000  9.238796e-001
    outer loop
      vertex  3.100000e+001  0.000000e+000  6.500000e+000
      vertex  3.100000e+001  3.000000e+000  6.500000e+000
      vertex  3.029289e+001  3.000000e+000  6.792893e+000
    endloop
  endfacet
  facet normal  3.826833e-001  0.000000e+000  9.238796e-001
    outer loop
      vertex  3.100000e+001  0.000000e+000  6.500000e+000
      vertex  3.029289e+001  3.000000e+000  6.792893e+000
      vertex  3.029289e+001  0.000000e+000  6.792893e+000
    endloop
  endfacet
  facet normal  9.238798e-001  -0.000000e+000  3.826827e-001
    outer loop
      vertex  3.029289e+001  0.000000e+000  6.792893e+000
      vertex  3.029289e+001  3.000000e+000  6.792893e+000
      vertex  3.000000e+001  3.000000e+000  7.500000e+000
    endloop
  endfacet
  facet normal  9.238798e-001  0.000000e+000  3.826827e-001
    outer loop
      vertex  3.029289e+001  0.000000e+000  6.792893e+000
      vertex  3.000000e+001  3.000000e+000  7.500000e+000
      vertex  3.000000e+001  0.000000e+000  7.500000e+000
    endloop
  endfacet
  facet normal  1.000000e+000  0.000000e+000  0.000000e+000
    outer loop
      vertex  2.100000e+001  9.000000e+000  0.000000e+000
      vertex  2.100000e+001  2.200000e+001  0.000000e+000
      vertex  2.100000e+001  1.300000e+001  6.500000e+000
    endloop
  endfacet
  facet normal  1.000000e+000  0.000000e+000  0.000000e+000
    outer loop
      vertex  2.100000e+001  9.000000e+000  0.000000e+000
      vertex  2.100000e+001  1.300000e+001  6.500000e+000
      vertex  2.100000e+001  1.229289e+001  6.792893e+000
    endloop
  endfacet
  facet normal  1.000000e+000  0.000000e+000  0.000000e+000
    outer loop
      vertex  2.100000e+001  9.000000e+000  0.000000e+000
      vertex  2.100000e+001  1.229289e+001  6.792893e+000
      vertex  2.100000e+001  1.200000e+001  7.500000e+000
    endloop
  endfacet
  facet normal  1.000000e+000  0.000000e+000  0.000000e+000
    outer loop
      vertex  2.100000e+001  9.000000e+000  0.000000e+000
      vertex  2.100000e+001  1.200000e+001  7.500000e+000
      vertex  2.100000e+001  9.000000e+000  1.500000e+001
    endloop
  endfacet
  facet normal  1.000000e+000  0.000000e+000  0.000000e+000
    outer loop
      vertex  2.100000e+001  2.400000e+001  1.300000e+001
      vertex  2.100000e+001  2.341421e+001  1.441421e+001
      vertex  2.100000e+001  2.200000e+001  1.500000e+001
    endloop
  endfacet
  facet normal  1.000000e+000  0.000000e+000  0.000000e+000
    outer loop
      vertex  2.100000e+001  2.400000e+001  1.300000e+001
      vertex  2.100000e+001  2.200000e+001  1.500000e+001
      vertex  2.100000e+001  1.300000e+001  8.500000e+000
    endloop
  endfacet
  facet normal  1.000000e+000  -0.000000e+000  0.000000e+000
    outer loop
      vertex  2.100000e+001  2.400000e+001  1.300000e+001
      vertex  2.100000e+001  1.300000e+001  8.500000e+000
      vertex  2.100000e+001  1.370711e+001  8.207107e+000
    endloop
  endfacet
  facet normal  9.999999e-001  -0.000000e+000  0.000000e+000
    outer loop
      vertex  2.100000e+001  2.400000e+001  1.300000e+001
      vertex  2.100000e+001  1.370711e+001  8.207107e+000
      vertex  2.100000e+001  2.400000e+001  2.000000e+000
    endloop
  endfacet
  facet normal  1.000000e+000  0.000000e+000  -0.000000e+000
    outer loop
      vertex  2.100000e+001  9.000000e+000  1.500000e+001
      vertex  2.100000e+001  1.200000e+001  7.500000e+000
      vertex  2.100000e+001  1.229289e+001  8.207107e+000
    endloop
  endfacet
  facet normal  1.000000e+000  0.000000e+000  -0.000000e+000
    outer loop
      vertex  2.100000e+001  9.000000e+000  1.500000e+001
      vertex  2.100000e+001  1.229289e+001  8.207107e+000
      vertex  2.100000e+001  1.300000e+001  8.500000e+000
    endloop
  endfacet
  facet normal  1.000000e+000  0.000000e+000  -0.000000e+000
    outer loop
      vertex  2.100000e+001  9.000000e+000  1.500000e+001
      vertex  2.100000e+001  1.300000e+001  8.500000e+000
      vertex  2.100000e+001  2.200000e+001  1.500000e+001
    endloop
  endfacet
  facet normal  1.000000e+000  0.000000e+000  0.000000e+000
    outer loop
      vertex  2.100000e+001  2.400000e+001  2.000000e+000
      vertex  2.100000e+001  1.370711e+001  8.207107e+000
      vertex  2.100000e+001  1.400000e+001  7.500000e+000
    endloop
  endfacet
  facet normal  1.000000e+000  0.000000e+000  0.000000e+000
    outer loop
      vertex  2.100000e+001  2.400000e+001  2.000000e+000
      vertex  2.100000e+001  1.400000e+001  7.500000e+000
      vertex  2.100000e+001  1.370711e+001  6.792893e+000
    endloop
  endfacet
  facet normal  1.000000e+000  0.000000e+000  0.000000e+000
    outer loop
      vertex  2.100000e+001  2.400000e+001  2.000000e+000
      vertex  2.100000e+001  1.370711e+001  6.792893e+000
      vertex  2.100000e+001  1.300000e+001  6.500000e+000
    endloop
  endfacet
  facet normal  1.000000e+000  0.000000e+000  0.000000e+000
    outer loop
      vertex  2.100000e+001  2.400000e+001  2.000000e+000
      vertex  2.100000e+001  1.300000e+001  6.500000e+000
      vertex  2.100000e+001  2.200000e+001  0.000000e+000
    endloop
  endfacet
  facet normal  1.000000e+000  0.000000e+000  0.000000e+000
    outer loop
      vertex  2.100000e+001  2.400000e+001  2.000000e+000
      vertex  2.100000e+001  2.200000e+001  0.000000e+000
      vertex  2.100000e+001  2.341421e+001  5.857865e-001
    endloop
  endfacet
  facet normal  1.000000e+000  0.000000e+000  0.000000e+000
    outer loop
      vertex  4.100000e+001  2.220446e-016  2.000000e+000
      vertex  4.100000e+001  3.000000e+000  2.000000e+000
      vertex  4.100000e+001  2.220446e-016  1.300000e+001
    endloop
  endfacet
  facet normal  1.000000e+000  -0.000000e+000  0.000000e+000
    outer loop
      vertex  4.100000e+001  2.220446e-016  1.300000e+001
      vertex  4.100000e+001  3.000000e+000  2.000000e+000
      vertex  4.100000e+001  3.000000e+000  1.300000e+001
    endloop
  endfacet
  facet normal  3.826831e-001  0.000000e+000 -9.238797e-001
    outer loop
      vertex  3.900000e+001  2.220446e-016  0.000000e+000
      vertex  3.900000e+001  3.000000e+000  0.000000e+000
      vertex  4.041422e+001  2.220446e-016  5.857865e-001
    endloop
  endfacet
  facet normal  3.826831e-001  0.000000e+000 -9.238797e-001
    outer loop
      vertex  4.041422e+001  2.220446e-016  5.857865e-001
      vertex  3.900000e+001  3.000000e+000  0.000000e+000
      vertex  4.041422e+001  3.000000e+000  5.857865e-001
    endloop
  endfacet
  facet normal  9.238799e-001  0.000000e+000 -3.826826e-001
    outer loop
      vertex  4.041422e+001  2.220446e-016  5.857865e-001
      vertex  4.041422e+001  3.000000e+000  5.857865e-001
      vertex  4.100000e+001  2.220446e-016  2.000000e+000
    endloop
  endfacet
  facet normal  9.238799e-001  0.000000e+000 -3.826826e-001
    outer loop
      vertex  4.100000e+001  2.220446e-016  2.000000e+000
      vertex  4.041422e+001  3.000000e+000  5.857865e-001
      vertex  4.100000e+001  3.000000e+000  2.000000e+000
    endloop
  endfacet
  facet normal  9.238798e-001  0.000000e+000  3.826827e-001
    outer loop
      vertex  4.100000e+001  2.220446e-016  1.300000e+001
      vertex  4.100000e+001  3.000000e+000  1.300000e+001
      vertex  4.041422e+001  2.220446e-016  1.441421e+001
    endloop
  endfacet
  facet normal  9.238798e-001  -0.000000e+000  3.826827e-001
    outer loop
      vertex  4.041422e+001  2.220446e-016  1.441421e+001
      vertex  4.100000e+001  3.000000e+000  1.300000e+001
      vertex  4.041422e+001  3.000000e+000  1.441421e+001
    endloop
  endfacet
  facet normal  3.826833e-001  0.000000e+000  9.238796e-001
    outer loop
      vertex  4.041422e+001  2.220446e-016  1.441421e+001
      vertex  4.041422e+001  3.000000e+000  1.441421e+001
      vertex  3.900000e+001  2.220446e-016  1.500000e+001
    endloop
  endfacet
  facet normal  3.826833e-001  -0.000000e+000  9.238796e-001
    outer loop
      vertex  3.900000e+001  2.220446e-016  1.500000e+001
      vertex  4.041422e+001  3.000000e+000  1.441421e+001
      vertex  3.900000e+001  3.000000e+000  1.500000e+001
    endloop
  endfacet
  facet normal  0.000000e+000  1.000000e+000  0.000000e+000
    outer loop
      vertex  2.100000e+001  2.400000e+001  2.000000e+000
      vertex  1.800000e+001  2.400000e+001  2.000000e+000
      vertex  2.100000e+001  2.400000e+001  1.300000e+001
    endloop
  endfacet
  facet normal  0.000000e+000  1.000000e+000  0.000000e+000
    outer loop
      vertex  2.100000e+001  2.400000e+001  1.300000e+001
      vertex  1.800000e+001  2.400000e+001  2.000000e+000
      vertex  1.800000e+001  2.400000e+001  1.300000e+001
    endloop
  endfacet
  facet normal  0.000000e+000  3.826835e-001 -9.238794e-001
    outer loop
      vertex  2.100000e+001  2.200000e+001  0.000000e+000
      vertex  1.800000e+001  2.200000e+001  0.000000e+000
      vertex  2.100000e+001  2.341421e+001  5.857865e-001
    endloop
  endfacet
  facet normal  0.000000e+000  3.826835e-001 -9.238794e-001
    outer loop
      vertex  2.100000e+001  2.341421e+001  5.857865e-001
      vertex  1.800000e+001  2.200000e+001  0.000000e+000
      vertex  1.800000e+001  2.341421e+001  5.857865e-001
    endloop
  endfacet
  facet normal  0.000000e+000  9.238794e-001 -3.826837e-001
    outer loop
      vertex  2.100000e+001  2.341421e+001  5.857865e-001
      vertex  1.800000e+001  2.341421e+001  5.857865e-001
      vertex  2.100000e+001  2.400000e+001  2.000000e+000
    endloop
  endfacet
  facet normal  0.000000e+000  9.238794e-001 -3.826837e-001
    outer loop
      vertex  2.100000e+001  2.400000e+001  2.000000e+000
      vertex  1.800000e+001  2.341421e+001  5.857865e-001
      vertex  1.800000e+001  2.400000e+001  2.000000e+000
    endloop
  endfacet
  facet normal  -0.000000e+000  9.238794e-001  3.826837e-001
    outer loop
      vertex  2.100000e+001  2.400000e+001  1.300000e+001
      vertex  1.800000e+001  2.400000e+001  1.300000e+001
      vertex  2.100000e+001  2.341421e+001  1.441421e+001
    endloop
  endfacet
  facet normal  0.000000e+000  9.238794e-001  3.826837e-001
    outer loop
      vertex  2.100000e+001  2.341421e+001  1.441421e+001
      vertex  1.800000e+001  2.400000e+001  1.300000e+001
      vertex  1.800000e+001  2.341421e+001  1.441421e+001
    endloop
  endfacet
  facet normal  -0.000000e+000  3.826837e-001  9.238794e-001
    outer loop
      vertex  2.100000e+001  2.341421e+001  1.441421e+001
      vertex  1.800000e+001  2.341421e+001  1.441421e+001
      vertex  2.100000e+001  2.200000e+001  1.500000e+001
    endloop
  endfacet
  facet normal  0.000000e+000  3.826837e-001  9.238794e-001
    outer loop
      vertex  2.100000e+001  2.200000e+001  1.500000e+001
      vertex  1.800000e+001  2.341421e+001  1.441421e+001
      vertex  1.800000e+001  2.200000e+001  1.500000e+001
    endloop
  endfacet
  facet normal  9.659259e-001 -2.588188e-001  0.000000e+000
    outer loop
      vertex  2.100000e+001  9.000000e+000  0.000000e+000
      vertex  2.100000e+001  9.000000e+000  1.500000e+001
      vertex  2.033013e+001  6.500000e+000  0.000000e+000
    endloop
  endfacet
  facet normal  9.659259e-001 -2.588188e-001  0.000000e+000
    outer loop
      vertex  2.033013e+001  6.500000e+000  0.000000e+000
      vertex  2.100000e+001  9.000000e+000  1.500000e+001
      vertex  2.033013e+001  6.500000e+000  1.500000e+001
    endloop
  endfacet
  facet normal  7.071066e-001 -7.071068e-001  0.000000e+000
    outer loop
      vertex  2.033013e+001  6.500000e+000  0.000000e+000
      vertex  2.033013e+001  6.500000e+000  1.500000e+001
      vertex  1.850000e+001  4.669873e+000  0.000000e+000
    endloop
  endfacet
  facet normal  7.071066e-001 -7.071068e-001  0.000000e+000
    outer loop
      vertex  1.850000e+001  4.669873e+000  0.000000e+000
      vertex  2.033013e+001  6.500000e+000  1.500000e+001
      vertex  1.850000e+001  4.669873e+000  1.500000e+001
    endloop
  endfacet
  facet normal  2.588190e-001 -9.659258e-001  0.000000e+000
    outer loop
      vertex  1.850000e+001  4.669873e+000  0.000000e+000
      vertex  1.850000e+001  4.669873e+000  1.500000e+001
      vertex  1.600000e+001  4.000000e+000  0.000000e+000
    endloop
  endfacet
  facet normal  2.588190e-001 -9.659258e-001  0.000000e+000
    outer loop
      vertex  1.600000e+001  4.000000e+000  0.000000e+000
      vertex  1.850000e+001  4.669873e+000  1.500000e+001
      vertex  1.600000e+001  4.000000e+000  1.500000e+001
    endloop
  endfacet
  facet normal  0.000000e+000 -1.000000e+000  0.000000e+000
    outer loop
      vertex -5.608616e-016  4.000000e+000  1.500000e+001
      vertex -5.608616e-016  4.000000e+000  0.000000e+000
      vertex  1.600000e+001  4.000000e+000  1.500000e+001
    endloop
  endfacet
  facet normal  0.000000e+000 -1.000000e+000  -0.000000e+000
    outer loop
      vertex  1.600000e+001  4.000000e+000  1.500000e+001
      vertex -5.608616e-016  4.000000e+000  0.000000e+000
      vertex  1.600000e+001  4.000000e+000  0.000000e+000
    endloop
  endfacet
  facet normal  5.785308e-001  8.156606e-001  0.000000e+000
    outer loop
      vertex -3.126944e+000 -2.494438e+000  0.000000e+000
      vertex -1.320393e+000 -3.775786e+000  1.500000e+001
      vertex -1.320393e+000 -3.775786e+000  0.000000e+000
    endloop
  endfacet
  facet normal  5.586018e-002  9.984387e-001  -0.000000e+000
    outer loop
      vertex -1.320393e+000 -3.775786e+000  0.000000e+000
      vertex -1.320393e+000 -3.775786e+000  1.500000e+001
      vertex  8.909798e-001 -3.899507e+000  1.500000e+001
    endloop
  endfacet
  facet normal  5.586018e-002  9.984387e-001  0.000000e+000
    outer loop
      vertex -1.320393e+000 -3.775786e+000  0.000000e+000
      vertex  8.909798e-001 -3.899507e+000  1.500000e+001
      vertex  8.909798e-001 -3.899507e+000  0.000000e+000
    endloop
  endfacet
  facet normal -4.839368e-001  8.751030e-001  0.000000e+000
    outer loop
      vertex  8.909798e-001 -3.899507e+000  0.000000e+000
      vertex  8.909798e-001 -3.899507e+000  1.500000e+001
      vertex  2.829185e+000 -2.827669e+000  1.500000e+001
    endloop
  endfacet
  facet normal -4.839368e-001  8.751030e-001  0.000000e+000
    outer loop
      vertex  8.909798e-001 -3.899507e+000  0.000000e+000
      vertex  2.829185e+000 -2.827669e+000  1.500000e+001
      vertex  2.829185e+000 -2.827669e+000  0.000000e+000
    endloop
  endfacet
  facet normal -8.753623e-001  4.834675e-001  0.000000e+000
    outer loop
      vertex  2.829185e+000 -2.827669e+000  0.000000e+000
      vertex  2.829185e+000 -2.827669e+000  1.500000e+001
      vertex  3.899984e+000 -8.888889e-001  1.500000e+001
    endloop
  endfacet
  facet normal -8.753623e-001  4.834675e-001  0.000000e+000
    outer loop
      vertex  2.829185e+000 -2.827669e+000  0.000000e+000
      vertex  3.899984e+000 -8.888889e-001  1.500000e+001
      vertex  3.899984e+000 -8.888889e-001  0.000000e+000
    endloop
  endfacet
  facet normal  5.785308e-001  8.156606e-001  -0.000000e+000
    outer loop
      vertex -1.320393e+000 -3.775786e+000  1.500000e+001
      vertex -3.126944e+000 -2.494438e+000  0.000000e+000
      vertex -3.126944e+000 -2.494438e+000  1.500000e+001
    endloop
  endfacet
  facet normal  9.238283e-001  3.828073e-001  0.000000e+000
    outer loop
      vertex -3.126944e+000 -2.494438e+000  1.500000e+001
      vertex -3.126944e+000 -2.494438e+000  0.000000e+000
      vertex -3.974797e+000 -4.483146e-001  0.000000e+000
    endloop
  endfacet
  facet normal  9.238283e-001  3.828073e-001  -0.000000e+000
    outer loop
      vertex -3.126944e+000 -2.494438e+000  1.500000e+001
      vertex -3.974797e+000 -4.483146e-001  0.000000e+000
      vertex -3.974797e+000 -4.483146e-001  1.500000e+001
    endloop
  endfacet
  facet normal  9.858871e-001 -1.674118e-001  0.000000e+000
    outer loop
      vertex -3.974797e+000 -4.483146e-001  1.500000e+001
      vertex -3.974797e+000 -4.483146e-001  0.000000e+000
      vertex -3.604008e+000  1.735259e+000  0.000000e+000
    endloop
  endfacet
  facet normal  9.858871e-001 -1.674118e-001  0.000000e+000
    outer loop
      vertex -3.974797e+000 -4.483146e-001  1.500000e+001
      vertex -3.604008e+000  1.735259e+000  0.000000e+000
      vertex -3.604008e+000  1.735259e+000  1.500000e+001
    endloop
  endfacet
  facet normal  7.456805e-001 -6.663038e-001  0.000000e+000
    outer loop
      vertex -3.604008e+000  1.735259e+000  1.500000e+001
      vertex -3.604008e+000  1.735259e+000  0.000000e+000
      vertex -2.128258e+000  3.386815e+000  0.000000e+000
    endloop
  endfacet
  facet normal  7.456805e-001 -6.663038e-001  0.000000e+000
    outer loop
      vertex -3.604008e+000  1.735259e+000  1.500000e+001
      vertex -2.128258e+000  3.386815e+000  0.000000e+000
      vertex -2.128258e+000  3.386815e+000  1.500000e+001
    endloop
  endfacet
  facet normal  2.768539e-001 -9.609120e-001  0.000000e+000
    outer loop
      vertex -2.128258e+000  3.386815e+000  1.500000e+001
      vertex -2.128258e+000  3.386815e+000  0.000000e+000
      vertex -5.608616e-016  4.000000e+000  0.000000e+000
    endloop
  endfacet
  facet normal  2.768539e-001 -9.609120e-001  0.000000e+000
    outer loop
      vertex -2.128258e+000  3.386815e+000  1.500000e+001
      vertex -5.608616e-016  4.000000e+000  0.000000e+000
      vertex -5.608616e-016  4.000000e+000  1.500000e+001
    endloop
  endfacet
  facet normal -9.010795e-001  4.336537e-001  0.000000e+000
    outer loop
      vertex  3.899984e+000 -8.888889e-001  0.000000e+000
      vertex  3.899984e+000 -8.888889e-001  1.500000e+001
      vertex  4.865170e+000  1.116650e+000  0.000000e+000
    endloop
  endfacet
  facet normal -9.010795e-001  4.336537e-001  0.000000e+000
    outer loop
      vertex  4.865170e+000  1.116650e+000  0.000000e+000
      vertex  3.899984e+000 -8.888889e-001  1.500000e+001
      vertex  4.865170e+000  1.116650e+000  1.500000e+001
    endloop
  endfacet
  facet normal -6.236095e-001  7.817359e-001  0.000000e+000
    outer loop
      vertex  4.865170e+000  1.116650e+000  0.000000e+000
      vertex  4.865170e+000  1.116650e+000  1.500000e+001
      vertex  6.605086e+000  2.504623e+000  0.000000e+000
    endloop
  endfacet
  facet normal -6.236095e-001  7.817359e-001  0.000000e+000
    outer loop
      vertex  6.605086e+000  2.504623e+000  0.000000e+000
      vertex  4.865170e+000  1.116650e+000  1.500000e+001
      vertex  6.605086e+000  2.504623e+000  1.500000e+001
    endloop
  endfacet
  facet normal -2.225708e-001  9.749166e-001  0.000000e+000
    outer loop
      vertex  6.605086e+000  2.504623e+000  0.000000e+000
      vertex  6.605086e+000  2.504623e+000  1.500000e+001
      vertex  8.774964e+000  3.000000e+000  0.000000e+000
    endloop
  endfacet
  facet normal -2.225708e-001  9.749166e-001  0.000000e+000
    outer loop
      vertex  8.774964e+000  3.000000e+000  0.000000e+000
      vertex  6.605086e+000  2.504623e+000  1.500000e+001
      vertex  8.774964e+000  3.000000e+000  1.500000e+001
    endloop
  endfacet
  facet normal  8.468463e-001 -5.318376e-001  0.000000e+000
    outer loop
      vertex  6.824972e+000 -1.555556e+000  0.000000e+000
      vertex  7.527745e+000 -4.365281e-001  0.000000e+000
      vertex  6.824972e+000 -1.555556e+000  1.500000e+001
    endloop
  endfacet
  facet normal  8.468463e-001 -5.318376e-001  0.000000e+000
    outer loop
      vertex  6.824972e+000 -1.555556e+000  1.500000e+001
      vertex  7.527745e+000 -4.365281e-001  0.000000e+000
      vertex  7.527745e+000 -4.365281e-001  1.500000e+001
    endloop
  endfacet
  facet normal  3.303514e-001 -9.438580e-001  0.000000e+000
    outer loop
      vertex  7.527745e+000 -4.365281e-001  0.000000e+000
      vertex  8.774964e+000  1.110223e-015  0.000000e+000
      vertex  7.527745e+000 -4.365281e-001  1.500000e+001
    endloop
  endfacet
  facet normal  3.303514e-001 -9.438580e-001  0.000000e+000
    outer loop
      vertex  7.527745e+000 -4.365281e-001  1.500000e+001
      vertex  8.774964e+000  1.110223e-015  0.000000e+000
      vertex  8.774964e+000  1.110223e-015  1.500000e+001
    endloop
  endfacet
  facet normal  9.010952e-001 -4.336214e-001  0.000000e+000
    outer loop
      vertex  6.824972e+000 -1.555556e+000  0.000000e+000
      vertex  6.824972e+000 -1.555556e+000  1.500000e+001
      vertex  5.474024e+000 -4.362919e+000  0.000000e+000
    endloop
  endfacet
  facet normal  9.010952e-001 -4.336214e-001  0.000000e+000
    outer loop
      vertex  5.474024e+000 -4.362919e+000  0.000000e+000
      vertex  6.824972e+000 -1.555556e+000  1.500000e+001
      vertex  5.474024e+000 -4.362919e+000  1.500000e+001
    endloop
  endfacet
  facet normal  6.236933e-001 -7.816691e-001  0.000000e+000
    outer loop
      vertex  5.474024e+000 -4.362919e+000  0.000000e+000
      vertex  5.474024e+000 -4.362919e+000  1.500000e+001
      vertex  3.038732e+000 -6.306037e+000  0.000000e+000
    endloop
  endfacet
  facet normal  6.236933e-001 -7.816691e-001  0.000000e+000
    outer loop
      vertex  3.038732e+000 -6.306037e+000  0.000000e+000
      vertex  5.474024e+000 -4.362919e+000  1.500000e+001
      vertex  3.038732e+000 -6.306037e+000  1.500000e+001
    endloop
  endfacet
  facet normal  2.227450e-001 -9.748766e-001  0.000000e+000
    outer loop
      vertex  3.038732e+000 -6.306037e+000  0.000000e+000
      vertex  3.038732e+000 -6.306037e+000  1.500000e+001
      vertex  1.501277e-003 -7.000000e+000  0.000000e+000
    endloop
  endfacet
  facet normal  2.227450e-001 -9.748766e-001  0.000000e+000
    outer loop
      vertex  1.501277e-003 -7.000000e+000  0.000000e+000
      vertex  3.038732e+000 -6.306037e+000  1.500000e+001
      vertex  1.501277e-003 -7.000000e+000  1.500000e+001
    endloop
  endfacet
  facet normal -2.223269e-001 -9.749722e-001  -0.000000e+000
    outer loop
      vertex  1.501277e-003 -7.000000e+000  0.000000e+000
      vertex  1.501277e-003 -7.000000e+000  1.500000e+001
      vertex -3.036027e+000 -6.307340e+000  0.000000e+000
    endloop
  endfacet
  facet normal -2.223269e-001 -9.749722e-001  0.000000e+000
    outer loop
      vertex -3.036027e+000 -6.307340e+000  0.000000e+000
      vertex  1.501277e-003 -7.000000e+000  1.500000e+001
      vertex -3.036027e+000 -6.307340e+000  1.500000e+001
    endloop
  endfacet
  facet normal -6.233580e-001 -7.819365e-001  -0.000000e+000
    outer loop
      vertex -3.036027e+000 -6.307340e+000  0.000000e+000
      vertex -3.036027e+000 -6.307340e+000  1.500000e+001
      vertex -5.472152e+000 -4.365267e+000  0.000000e+000
    endloop
  endfacet
  facet normal -6.233580e-001 -7.819365e-001  0.000000e+000
    outer loop
      vertex -5.472152e+000 -4.365267e+000  0.000000e+000
      vertex -3.036027e+000 -6.307340e+000  1.500000e+001
      vertex -5.472152e+000 -4.365267e+000  1.500000e+001
    endloop
  endfacet
  facet normal -9.009090e-001 -4.340080e-001  -0.000000e+000
    outer loop
      vertex -5.472152e+000 -4.365267e+000  0.000000e+000
      vertex -5.472152e+000 -4.365267e+000  1.500000e+001
      vertex -6.824305e+000 -1.558483e+000  0.000000e+000
    endloop
  endfacet
  facet normal -9.009090e-001 -4.340080e-001  0.000000e+000
    outer loop
      vertex -6.824305e+000 -1.558483e+000  0.000000e+000
      vertex -5.472152e+000 -4.365267e+000  1.500000e+001
      vertex -6.824305e+000 -1.558483e+000  1.500000e+001
    endloop
  endfacet
  facet normal -1.000000e+000 -1.071371e-004  -0.000000e+000
    outer loop
      vertex -6.824305e+000 -1.558483e+000  0.000000e+000
      vertex -6.824305e+000 -1.558483e+000  1.500000e+001
      vertex -6.824638e+000  1.557019e+000  0.000000e+000
    endloop
  endfacet
  facet normal -1.000000e+000 -1.071371e-004  0.000000e+000
    outer loop
      vertex -6.824638e+000  1.557019e+000  0.000000e+000
      vertex -6.824305e+000 -1.558483e+000  1.500000e+001
      vertex -6.824638e+000  1.557019e+000  1.500000e+001
    endloop
  endfacet
  facet normal -9.010021e-001  4.338147e-001  0.000000e+000
    outer loop
      vertex -6.824638e+000  1.557019e+000  0.000000e+000
      vertex -6.824638e+000  1.557019e+000  1.500000e+001
      vertex -5.473088e+000  4.364093e+000  0.000000e+000
    endloop
  endfacet
  facet normal -9.010021e-001  4.338147e-001  0.000000e+000
    outer loop
      vertex -5.473088e+000  4.364093e+000  0.000000e+000
      vertex -6.824638e+000  1.557019e+000  1.500000e+001
      vertex -5.473088e+000  4.364093e+000  1.500000e+001
    endloop
  endfacet
  facet normal -6.235257e-001  7.818029e-001  0.000000e+000
    outer loop
      vertex -5.473088e+000  4.364093e+000  0.000000e+000
      vertex -5.473088e+000  4.364093e+000  1.500000e+001
      vertex -3.037380e+000  6.306689e+000  0.000000e+000
    endloop
  endfacet
  facet normal -6.235257e-001  7.818029e-001  0.000000e+000
    outer loop
      vertex -3.037380e+000  6.306689e+000  0.000000e+000
      vertex -5.473088e+000  4.364093e+000  1.500000e+001
      vertex -3.037380e+000  6.306689e+000  1.500000e+001
    endloop
  endfacet
  facet normal -2.225359e-001  9.749245e-001  0.000000e+000
    outer loop
      vertex -3.037380e+000  6.306689e+000  0.000000e+000
      vertex -3.037380e+000  6.306689e+000  1.500000e+001
      vertex  0.000000e+000  7.000000e+000  0.000000e+000
    endloop
  endfacet
  facet normal -2.225359e-001  9.749245e-001  0.000000e+000
    outer loop
      vertex  0.000000e+000  7.000000e+000  0.000000e+000
      vertex -3.037380e+000  6.306689e+000  1.500000e+001
      vertex  0.000000e+000  7.000000e+000  1.500000e+001
    endloop
  endfacet
endsolid CATIA STL
