<svg id="svg" version="1.1" width="400" height="400" viewBox="0 0 400 400" xmlns="http://www.w3.org/2000/svg" xmlns:xlink="http://www.w3.org/1999/xlink" ><g id="svgg"><path id="path0" d="M304.600 0.400 C 304.160 0.589,303.215 0.756,302.500 0.772 L 301.200 0.800 301.197 5.500 C 301.182 26.860,293.645 35.515,273.200 37.647 C 270.890 37.887,262.070 38.227,253.600 38.401 C 245.130 38.574,236.813 38.906,235.118 39.137 C 211.764 42.321,200.612 54.287,199.732 77.100 L 199.482 83.600 203.523 83.600 L 207.564 83.600 207.761 82.300 C 207.869 81.585,208.047 79.452,208.155 77.559 C 209.068 61.650,218.023 51.625,234.200 48.403 C 235.080 48.227,236.790 47.887,238.000 47.646 C 242.628 46.725,253.174 46.418,271.547 46.671 C 300.072 47.063,308.326 46.046,318.723 40.858 C 322.429 39.008,328.564 33.765,329.926 31.282 C 334.138 23.604,334.785 21.088,335.080 11.238 L 335.301 3.876 332.385 4.120 C 328.805 4.420,328.814 4.407,328.806 9.523 C 328.796 16.173,328.116 19.381,325.282 26.150 C 323.356 30.752,315.254 36.360,308.450 37.801 C 302.516 39.058,301.757 39.187,297.493 39.664 C 291.889 40.291,291.471 39.933,294.926 37.468 C 303.845 31.103,307.594 21.883,307.598 6.300 L 307.600 0.000 306.500 0.028 C 305.895 0.044,305.040 0.211,304.600 0.400 M158.000 113.557 C 158.000 137.587,157.936 140.339,157.367 140.557 C 157.019 140.691,128.960 140.800,95.013 140.800 C 46.203 140.800,33.052 140.906,32.146 141.305 C 21.999 145.773,22.714 160.174,33.200 162.559 C 33.750 162.684,61.754 162.792,95.430 162.798 C 143.443 162.807,156.805 162.917,157.330 163.305 C 157.943 163.758,158.008 166.065,158.100 190.400 L 158.200 217.000 172.100 217.105 L 186.000 217.210 186.010 225.905 C 186.022 236.635,186.477 238.991,189.324 243.067 C 190.614 244.914,190.492 245.602,188.876 245.596 C 172.942 245.537,162.637 253.388,167.455 261.918 C 170.045 266.502,180.348 267.777,203.800 266.416 C 232.681 264.740,244.000 266.502,244.000 272.675 C 244.000 278.822,236.678 281.390,214.000 283.196 C 195.552 284.664,188.170 287.232,184.759 293.365 L 183.405 295.800 183.267 304.100 L 183.129 312.400 198.522 312.400 C 217.748 312.400,224.334 313.037,229.401 315.387 C 230.061 315.693,231.462 316.312,232.513 316.763 C 243.585 321.509,249.831 335.352,248.396 351.962 C 246.895 369.331,239.142 379.355,223.800 383.765 C 217.676 385.524,201.778 385.964,200.791 384.400 C 200.563 384.038,200.410 373.128,200.406 356.900 L 200.400 330.000 191.800 330.000 L 183.200 330.000 183.200 363.813 C 183.200 390.507,183.305 397.660,183.700 397.791 C 186.567 398.742,210.070 399.512,215.706 398.839 C 221.284 398.173,229.495 396.833,231.200 396.311 C 235.223 395.079,241.527 392.586,243.341 391.510 C 244.473 390.838,246.016 389.939,246.768 389.513 C 252.912 386.030,260.591 376.240,263.477 368.211 C 266.846 358.841,268.242 339.914,265.985 334.220 C 265.806 333.769,265.082 331.539,264.376 329.264 C 260.344 316.273,251.406 307.690,236.200 302.207 C 229.596 299.825,209.766 298.674,194.500 299.786 L 190.000 300.113 190.014 298.757 C 190.069 293.524,196.426 291.354,217.400 289.409 C 237.076 287.583,242.268 286.226,247.019 281.664 C 251.422 277.436,251.627 269.643,247.449 265.277 C 242.303 259.898,232.513 258.502,207.600 259.594 C 201.550 259.859,194.170 260.172,191.200 260.289 C 170.052 261.125,166.007 255.129,186.000 252.582 C 192.373 251.770,194.177 251.405,197.400 250.274 C 212.397 245.014,214.000 242.702,214.000 226.327 L 214.000 217.200 228.000 217.200 L 242.000 217.200 242.000 190.424 C 242.000 173.851,242.146 163.557,242.382 163.411 C 242.592 163.281,269.457 163.181,302.082 163.188 C 363.498 163.200,366.565 163.126,369.533 161.542 C 377.130 157.486,377.047 146.399,369.387 142.137 L 367.000 140.810 304.980 140.805 C 257.281 140.801,242.849 140.689,242.480 140.320 C 242.116 139.956,242.000 133.413,242.000 113.320 L 242.000 86.800 200.000 86.800 L 158.000 86.800 158.000 113.557 M147.000 93.982 C 133.720 96.472,135.138 116.845,148.600 116.973 L 151.400 117.000 151.400 105.400 L 151.400 93.800 150.000 93.741 C 149.230 93.709,147.880 93.817,147.000 93.982 M246.602 94.051 C 246.484 94.359,246.435 99.648,246.494 105.805 L 246.600 117.000 249.400 116.953 C 264.016 116.707,263.996 95.251,249.379 93.754 C 247.372 93.548,246.770 93.612,246.602 94.051 M142.000 302.057 C 135.557 302.946,128.000 305.191,124.300 307.318 C 121.308 309.037,121.383 308.898,122.151 311.286 C 122.454 312.229,123.192 314.548,123.790 316.440 C 125.365 321.418,124.897 321.216,129.800 319.028 C 139.733 314.594,150.244 314.459,155.763 318.694 C 159.756 321.757,161.358 327.595,159.367 331.825 C 157.801 335.153,155.261 337.578,151.799 339.050 C 148.168 340.594,146.944 340.818,140.944 341.035 C 132.245 341.351,133.200 340.522,133.200 347.754 L 133.200 353.894 140.500 354.114 C 148.191 354.347,151.984 355.089,154.462 356.847 C 155.046 357.261,155.739 357.600,156.003 357.600 C 157.093 357.600,161.035 362.258,161.947 364.624 C 168.784 382.347,145.888 392.366,124.030 381.215 C 123.091 380.736,122.278 380.402,122.224 380.472 C 121.811 381.008,118.399 392.167,118.401 392.973 C 118.405 394.020,124.917 396.692,130.800 398.059 C 157.314 404.220,179.812 392.792,181.084 372.515 C 181.614 364.075,176.428 354.114,169.941 351.109 C 165.942 349.256,164.030 348.469,162.500 348.042 C 160.119 347.378,160.326 347.039,164.297 345.104 C 173.103 340.812,177.715 333.904,177.719 325.000 C 177.724 313.816,171.631 306.835,158.400 302.867 C 154.487 301.693,147.237 301.335,142.000 302.057 " stroke="none" fill="#FFFFFF" fill-rule="evenodd"></path><path id="path1" d="M0.000 200.000 L 0.000 400.000 68.100 399.969 L 136.200 399.938 132.400 399.152 C 130.310 398.720,128.240 398.207,127.800 398.012 C 127.360 397.817,126.010 397.349,124.800 396.973 C 118.230 394.929,117.306 393.965,118.400 390.290 C 121.946 378.380,121.436 379.163,124.629 380.744 C 127.039 381.938,133.208 383.922,137.200 384.788 C 151.068 387.795,163.042 380.509,162.289 369.522 C 161.620 359.749,154.189 354.807,140.142 354.794 C 132.059 354.786,132.758 355.501,132.890 347.370 L 133.000 340.600 140.200 340.341 C 155.428 339.794,162.991 332.428,158.296 322.717 C 154.543 314.953,139.146 313.978,127.640 320.774 C 124.935 322.372,124.833 322.284,123.270 317.000 C 122.619 314.800,121.774 312.048,121.392 310.884 C 121.010 309.721,120.766 308.730,120.849 308.683 C 120.932 308.636,121.540 308.221,122.200 307.761 C 131.598 301.208,153.142 299.167,163.512 303.847 C 164.673 304.371,165.775 304.800,165.960 304.800 C 166.145 304.800,167.454 305.655,168.869 306.700 C 183.041 317.165,181.255 337.475,165.483 345.207 C 161.296 347.260,161.140 347.433,163.220 347.712 C 175.350 349.339,184.729 365.182,181.026 377.793 C 179.204 383.999,172.762 393.200,170.239 393.200 C 170.104 393.200,169.264 393.728,168.372 394.374 C 166.378 395.819,161.391 397.777,156.600 398.997 L 153.000 399.914 179.000 399.889 C 196.917 399.872,202.637 399.774,197.400 399.573 C 190.498 399.309,183.285 398.618,182.846 398.179 C 182.751 398.084,182.698 382.660,182.728 363.903 L 182.783 329.800 191.992 329.693 L 201.200 329.585 201.200 356.769 C 201.200 378.077,201.308 384.023,201.700 384.276 C 201.975 384.454,205.800 384.570,210.200 384.533 C 222.235 384.432,229.757 382.269,236.203 377.056 C 239.511 374.381,241.602 371.673,244.124 366.800 C 245.065 364.982,245.226 364.488,246.839 358.463 C 250.222 345.827,246.093 327.672,238.443 321.545 C 237.794 321.025,236.754 320.180,236.131 319.668 C 233.954 317.874,228.508 315.548,223.745 314.379 L 219.000 313.214 201.800 313.202 C 192.340 313.195,184.195 313.081,183.700 312.948 C 182.251 312.559,182.306 296.539,183.766 293.687 C 187.248 286.889,194.830 284.131,214.800 282.397 C 237.919 280.389,244.140 278.138,243.023 272.183 C 241.963 266.533,234.644 265.746,196.951 267.229 C 175.679 268.066,169.827 266.945,166.385 261.376 C 165.255 259.548,165.134 255.947,166.135 253.928 C 168.649 248.855,173.656 246.698,186.000 245.372 C 189.701 244.974,189.835 244.846,188.490 242.977 C 186.012 239.533,185.862 238.718,185.684 227.700 L 185.520 217.600 171.840 217.600 C 161.733 217.600,158.035 217.475,157.680 217.120 C 157.316 216.756,157.200 210.215,157.200 190.129 L 157.200 163.617 94.900 163.509 L 32.600 163.400 30.493 162.233 C 21.846 157.442,22.108 145.815,30.969 141.073 L 32.600 140.200 94.900 140.093 L 157.200 139.985 157.200 113.766 C 157.200 96.458,157.341 87.284,157.614 86.774 C 158.154 85.764,241.514 85.532,242.348 86.537 C 242.664 86.918,242.824 94.774,242.897 113.437 L 243.000 139.800 305.200 140.000 L 367.400 140.200 369.031 141.073 C 377.984 145.865,378.286 157.226,369.592 162.157 L 367.400 163.400 305.200 163.600 L 243.000 163.800 242.800 190.600 L 242.600 217.400 228.500 217.505 L 214.400 217.610 214.396 227.105 C 214.390 238.452,214.095 239.915,211.035 243.746 C 209.360 245.844,207.137 247.309,203.797 248.516 C 202.259 249.072,199.676 250.083,198.057 250.764 C 196.267 251.516,193.760 252.175,191.657 252.445 C 178.493 254.134,175.449 254.854,173.981 256.623 C 171.888 259.145,181.586 260.039,201.600 259.171 C 240.796 257.470,250.883 260.337,250.953 273.200 C 251.011 283.833,243.921 287.577,219.200 289.968 C 202.377 291.596,201.109 291.773,197.400 293.017 C 193.779 294.231,191.889 295.480,190.964 297.270 C 189.875 299.376,190.478 299.534,197.400 298.956 C 233.765 295.916,256.094 305.271,264.339 327.000 C 269.559 340.759,268.246 362.259,261.459 374.175 C 260.950 375.069,260.126 376.512,259.627 377.382 C 254.191 386.876,241.778 394.837,228.084 397.612 C 222.019 398.841,218.871 399.291,214.400 399.570 C 211.650 399.741,252.285 399.908,304.700 399.941 L 400.000 400.000 400.000 200.000 L 400.000 0.000 354.258 0.000 L 308.516 0.000 308.282 7.900 C 307.964 18.640,306.514 24.392,302.600 30.442 C 300.768 33.275,296.419 37.786,295.100 38.222 C 293.503 38.751,294.581 39.157,297.100 38.975 C 318.966 37.396,327.457 29.204,328.375 8.800 L 328.600 3.800 332.300 3.685 L 336.000 3.570 336.000 9.512 C 336.000 26.702,327.219 40.610,314.600 43.409 C 313.940 43.555,312.860 43.911,312.200 44.200 C 305.750 47.019,293.200 47.759,261.400 47.192 C 250.732 47.002,242.437 47.428,237.600 48.414 C 227.389 50.495,223.785 51.823,219.761 54.989 C 215.344 58.464,211.260 64.471,210.371 68.800 C 210.213 69.570,209.797 71.550,209.445 73.200 C 209.094 74.850,208.670 77.908,208.503 79.995 L 208.200 83.791 206.000 84.109 C 204.790 84.284,202.720 84.376,201.400 84.314 L 199.000 84.200 199.100 78.600 C 199.290 67.939,201.283 60.613,205.862 53.750 C 207.830 50.801,212.140 46.636,215.002 44.921 C 224.113 39.460,231.217 38.209,256.775 37.566 C 272.048 37.181,276.324 36.871,280.400 35.852 C 285.263 34.637,285.905 34.383,289.866 32.123 C 297.024 28.036,300.392 19.576,300.544 5.301 L 300.600 0.003 150.300 0.001 L 0.000 0.000 0.000 200.000 M152.017 93.900 C 152.183 100.667,152.063 117.175,151.845 117.527 C 151.680 117.794,150.648 117.997,149.476 117.994 C 136.079 117.955,132.176 99.264,144.491 94.119 C 147.265 92.959,151.991 92.822,152.017 93.900 M253.777 94.173 C 265.790 99.486,261.490 118.607,248.437 117.918 L 246.200 117.800 246.094 105.500 L 245.988 93.200 248.783 93.200 C 250.873 93.200,252.132 93.445,253.777 94.173 " stroke="none" fill="none" fill-rule="evenodd"></path><path id="path2" d="M302.000 0.357 L 301.000 0.635 300.982 6.218 L 300.964 11.800 301.093 6.300 L 301.223 0.800 302.511 0.772 C 303.220 0.756,304.160 0.589,304.600 0.400 C 305.624 -0.040,303.554 -0.074,302.000 0.357 M307.764 6.600 C 307.763 10.340,307.823 11.924,307.897 10.120 C 307.971 8.315,307.972 5.255,307.898 3.320 C 307.825 1.384,307.764 2.860,307.764 6.600 M328.814 4.774 C 328.586 5.199,328.421 6.054,328.446 6.674 C 328.479 7.461,328.544 7.559,328.662 7.000 C 328.755 6.560,328.915 5.807,329.017 5.326 C 329.140 4.745,329.569 4.397,330.301 4.286 L 331.400 4.120 330.314 4.060 C 329.607 4.021,329.084 4.270,328.814 4.774 M335.361 10.000 C 335.361 13.410,335.422 14.805,335.497 13.100 C 335.572 11.395,335.572 8.605,335.497 6.900 C 335.422 5.195,335.361 6.590,335.361 10.000 M307.293 14.800 C 307.293 15.570,307.375 15.885,307.476 15.500 C 307.576 15.115,307.576 14.485,307.476 14.100 C 307.375 13.715,307.293 14.030,307.293 14.800 M299.754 17.800 C 299.509 19.120,299.362 20.263,299.428 20.340 C 299.670 20.624,300.443 17.110,300.324 16.269 C 300.256 15.791,299.999 16.480,299.754 17.800 M334.893 17.600 C 334.893 18.370,334.975 18.685,335.076 18.300 C 335.176 17.915,335.176 17.285,335.076 16.900 C 334.975 16.515,334.893 16.830,334.893 17.600 M334.250 20.450 C 333.917 22.117,334.240 22.440,334.600 20.800 C 334.752 20.109,334.793 19.459,334.691 19.358 C 334.589 19.256,334.391 19.747,334.250 20.450 M297.021 25.312 C 296.616 26.021,295.906 27.045,295.442 27.588 C 294.754 28.395,294.738 28.469,295.354 27.994 C 296.182 27.356,298.148 24.415,297.908 24.175 C 297.825 24.092,297.426 24.604,297.021 25.312 M323.826 27.900 C 322.962 29.005,322.893 29.190,323.563 28.604 C 324.365 27.904,325.423 26.400,325.114 26.400 C 325.051 26.400,324.472 27.075,323.826 27.900 M303.053 28.500 L 302.333 29.800 303.158 28.800 C 303.889 27.913,304.214 27.200,303.886 27.200 C 303.824 27.200,303.449 27.785,303.053 28.500 M331.000 29.200 C 330.659 29.860,330.469 30.400,330.579 30.400 C 330.689 30.400,331.059 29.860,331.400 29.200 C 331.741 28.540,331.931 28.000,331.821 28.000 C 331.711 28.000,331.341 28.540,331.000 29.200 M321.375 30.900 L 320.200 32.200 321.500 31.025 C 322.215 30.379,322.800 29.794,322.800 29.725 C 322.800 29.416,322.470 29.688,321.375 30.900 M318.400 33.260 C 317.630 33.935,317.362 34.305,317.804 34.081 C 318.535 33.711,320.347 31.978,319.962 32.016 C 319.873 32.025,319.170 32.585,318.400 33.260 M299.375 33.700 L 298.200 35.000 299.500 33.825 C 300.215 33.179,300.800 32.594,300.800 32.525 C 300.800 32.216,300.470 32.488,299.375 33.700 M325.600 35.969 C 323.476 38.074,322.950 38.724,324.200 37.703 C 326.469 35.849,329.436 32.869,329.174 32.707 C 329.078 32.648,327.470 34.116,325.600 35.969 M288.300 33.429 C 286.805 34.240,286.896 34.578,288.400 33.800 C 289.060 33.459,289.600 33.094,289.600 32.990 C 289.600 32.732,289.557 32.747,288.300 33.429 M312.600 36.238 C 311.500 36.772,311.050 37.094,311.600 36.954 C 312.772 36.655,314.800 35.663,314.800 35.390 C 314.800 35.153,314.965 35.089,312.600 36.238 M278.200 36.800 C 277.181 37.238,278.232 37.238,279.600 36.800 C 280.404 36.543,280.443 36.477,279.800 36.468 C 279.360 36.462,278.640 36.611,278.200 36.800 M295.000 37.450 C 294.281 38.062,294.134 38.305,294.633 38.057 C 295.366 37.693,296.741 36.376,296.349 36.414 C 296.267 36.422,295.660 36.888,295.000 37.450 M273.300 37.476 C 273.685 37.576,274.315 37.576,274.700 37.476 C 275.085 37.375,274.770 37.293,274.000 37.293 C 273.230 37.293,272.915 37.375,273.300 37.476 M268.500 37.876 C 268.885 37.976,269.515 37.976,269.900 37.876 C 270.285 37.775,269.970 37.693,269.200 37.693 C 268.430 37.693,268.115 37.775,268.500 37.876 M255.321 38.298 C 257.477 38.371,260.897 38.370,262.921 38.298 C 264.944 38.225,263.180 38.166,259.000 38.167 C 254.820 38.167,253.164 38.226,255.321 38.298 M238.100 38.676 C 238.485 38.776,239.115 38.776,239.500 38.676 C 239.885 38.575,239.570 38.493,238.800 38.493 C 238.030 38.493,237.715 38.575,238.100 38.676 M292.804 38.995 C 292.149 39.785,292.965 40.110,295.058 39.894 C 296.485 39.746,296.455 39.729,294.651 39.667 C 292.968 39.609,292.770 39.518,293.200 39.000 C 293.474 38.670,293.608 38.400,293.498 38.400 C 293.388 38.400,293.076 38.668,292.804 38.995 M302.000 38.800 C 301.196 39.057,301.157 39.123,301.800 39.132 C 302.240 39.138,302.960 38.989,303.400 38.800 C 304.419 38.362,303.368 38.362,302.000 38.800 M235.105 39.083 C 235.602 39.179,236.322 39.175,236.705 39.075 C 237.087 38.975,236.680 38.896,235.800 38.901 C 234.920 38.905,234.607 38.987,235.105 39.083 M297.505 39.483 C 298.002 39.579,298.722 39.575,299.105 39.475 C 299.487 39.375,299.080 39.296,298.200 39.301 C 297.320 39.305,297.007 39.387,297.505 39.483 M319.000 40.800 C 318.340 41.237,317.980 41.592,318.200 41.588 C 318.601 41.582,320.776 40.023,320.400 40.012 C 320.290 40.008,319.660 40.363,319.000 40.800 M218.300 43.477 C 217.256 44.058,216.461 44.594,216.535 44.668 C 216.608 44.742,217.643 44.265,218.834 43.608 C 220.025 42.952,220.820 42.416,220.600 42.417 C 220.380 42.418,219.345 42.895,218.300 43.477 M312.600 43.386 C 311.055 44.093,311.774 44.103,313.600 43.400 C 314.370 43.103,314.730 42.855,314.400 42.848 C 314.070 42.842,313.260 43.083,312.600 43.386 M308.600 44.615 C 307.016 45.163,307.014 45.166,308.400 44.938 C 309.170 44.812,310.070 44.554,310.400 44.366 C 311.281 43.864,310.430 43.982,308.600 44.615 M303.800 45.600 C 302.781 46.038,303.832 46.038,305.200 45.600 C 306.004 45.343,306.043 45.277,305.400 45.268 C 304.960 45.262,304.240 45.411,303.800 45.600 M212.975 46.900 L 211.800 48.200 213.100 47.025 C 213.815 46.379,214.400 45.794,214.400 45.725 C 214.400 45.416,214.070 45.688,212.975 46.900 M298.705 46.283 C 299.202 46.379,299.922 46.375,300.305 46.275 C 300.687 46.175,300.280 46.096,299.400 46.101 C 298.520 46.105,298.207 46.187,298.705 46.283 M253.900 46.698 C 255.935 46.771,259.265 46.771,261.300 46.698 C 263.335 46.625,261.670 46.566,257.600 46.566 C 253.530 46.566,251.865 46.625,253.900 46.698 M294.705 46.683 C 295.202 46.779,295.922 46.775,296.305 46.675 C 296.687 46.575,296.280 46.496,295.400 46.501 C 294.520 46.505,294.207 46.587,294.705 46.683 M243.900 47.082 C 244.395 47.178,245.205 47.178,245.700 47.082 C 246.195 46.987,245.790 46.909,244.800 46.909 C 243.810 46.909,243.405 46.987,243.900 47.082 M280.882 47.096 C 282.358 47.173,284.878 47.173,286.482 47.097 C 288.087 47.021,286.880 46.958,283.800 46.958 C 280.720 46.957,279.407 47.019,280.882 47.096 M232.400 48.818 C 231.962 49.115,232.124 49.152,233.000 48.956 C 234.471 48.627,234.790 48.398,233.767 48.406 C 233.345 48.409,232.730 48.595,232.400 48.818 M208.175 51.300 L 207.000 52.600 208.300 51.425 C 209.015 50.779,209.600 50.194,209.600 50.125 C 209.600 49.816,209.270 50.088,208.175 51.300 M206.133 53.900 C 205.756 54.505,205.257 55.260,205.024 55.577 C 204.716 55.996,204.725 56.079,205.060 55.878 C 205.546 55.587,207.299 52.800,206.996 52.800 C 206.898 52.800,206.510 53.295,206.133 53.900 M219.800 54.244 L 218.200 55.676 220.000 54.361 C 220.990 53.637,221.875 52.990,221.967 52.923 C 222.058 52.855,221.968 52.803,221.767 52.806 C 221.565 52.809,220.680 53.456,219.800 54.244 M215.600 57.800 C 214.628 58.790,213.923 59.600,214.033 59.600 C 214.143 59.600,215.028 58.790,216.000 57.800 C 216.972 56.810,217.677 56.000,217.567 56.000 C 217.457 56.000,216.572 56.810,215.600 57.800 M213.054 60.973 C 212.119 62.400,212.246 62.704,213.246 61.433 C 213.711 60.842,214.005 60.272,213.900 60.166 C 213.795 60.061,213.414 60.424,213.054 60.973 M209.050 71.250 C 208.717 72.917,209.040 73.240,209.400 71.600 C 209.552 70.909,209.593 70.259,209.491 70.158 C 209.389 70.056,209.191 70.547,209.050 71.250 M208.134 78.800 C 208.134 80.450,208.205 81.125,208.291 80.300 C 208.378 79.475,208.378 78.125,208.291 77.300 C 208.205 76.475,208.134 77.150,208.134 78.800 M199.376 80.600 L 199.400 83.800 201.303 83.837 L 203.205 83.874 201.418 83.716 L 199.632 83.557 199.492 80.479 L 199.352 77.400 199.376 80.600 M200.000 86.699 L 242.000 86.804 242.000 113.322 C 242.000 133.414,242.116 139.956,242.480 140.320 C 242.850 140.690,257.121 140.778,304.780 140.702 L 366.600 140.604 304.600 140.402 L 242.600 140.200 242.400 113.400 L 242.200 86.600 200.100 86.597 L 158.000 86.594 200.000 86.699 M157.599 113.600 L 157.400 140.200 95.400 140.402 L 33.400 140.604 95.200 140.696 C 129.190 140.746,157.226 140.644,157.503 140.468 C 157.900 140.216,157.984 134.571,157.901 113.575 L 157.797 87.000 157.599 113.600 M149.200 93.355 C 149.200 93.440,149.730 93.587,150.379 93.682 C 151.027 93.777,151.467 93.708,151.355 93.528 C 151.157 93.207,149.200 93.050,149.200 93.355 M246.652 93.516 C 246.544 93.690,247.073 93.761,247.828 93.673 C 248.583 93.585,249.200 93.442,249.200 93.356 C 249.200 93.055,246.845 93.203,246.652 93.516 M141.667 96.300 L 140.165 97.800 141.582 96.601 C 142.362 95.942,143.171 95.267,143.380 95.101 C 143.589 94.935,143.627 94.800,143.465 94.800 C 143.302 94.800,142.493 95.475,141.667 96.300 M255.485 95.822 C 256.192 96.379,257.336 97.502,258.027 98.317 C 258.718 99.133,259.096 99.429,258.867 98.975 C 258.407 98.061,254.997 94.797,254.509 94.804 C 254.339 94.807,254.778 95.265,255.485 95.822 M138.814 99.573 C 138.184 100.751,137.513 102.620,137.837 102.296 C 138.220 101.914,139.607 98.800,139.395 98.800 C 139.303 98.800,139.042 99.148,138.814 99.573 M137.314 105.400 C 137.317 106.500,137.395 106.903,137.487 106.295 C 137.579 105.686,137.577 104.786,137.482 104.295 C 137.387 103.803,137.311 104.300,137.314 105.400 M260.509 105.600 C 260.509 106.590,260.587 106.995,260.682 106.500 C 260.778 106.005,260.778 105.195,260.682 104.700 C 260.587 104.205,260.509 104.610,260.509 105.600 M253.600 116.200 C 253.050 116.514,252.780 116.772,253.000 116.772 C 253.220 116.772,253.850 116.514,254.400 116.200 C 254.950 115.886,255.220 115.628,255.000 115.628 C 254.780 115.628,254.150 115.886,253.600 116.200 M149.200 117.200 L 147.000 117.470 149.300 117.535 C 150.610 117.572,151.600 117.428,151.600 117.200 C 151.600 116.980,151.555 116.829,151.500 116.865 C 151.445 116.901,150.410 117.052,149.200 117.200 M246.400 117.289 C 246.400 117.460,247.435 117.579,248.700 117.554 C 251.141 117.504,250.902 117.328,248.100 117.111 C 247.165 117.038,246.400 117.119,246.400 117.289 M367.233 140.949 C 367.645 141.317,370.000 142.400,370.000 142.221 C 370.000 141.990,367.782 140.800,367.353 140.800 C 367.196 140.800,367.142 140.867,367.233 140.949 M26.543 145.406 C 25.738 146.619,25.151 147.677,25.239 147.755 C 25.328 147.834,26.069 146.842,26.887 145.549 C 28.770 142.575,28.498 142.462,26.543 145.406 M373.014 145.200 C 374.741 147.806,375.135 148.245,374.272 146.600 C 373.926 145.940,373.173 144.860,372.599 144.200 C 371.931 143.431,372.080 143.790,373.014 145.200 M24.574 150.232 C 24.423 151.239,24.457 152.810,24.650 153.723 C 24.950 155.146,25.000 154.885,25.000 151.892 C 25.000 147.889,24.953 147.706,24.574 150.232 M375.320 152.000 C 375.320 153.210,375.395 153.705,375.487 153.100 C 375.578 152.495,375.578 151.505,375.487 150.900 C 375.395 150.295,375.320 150.790,375.320 152.000 M25.216 155.720 C 25.186 156.320,26.346 158.257,27.074 158.822 C 27.760 159.355,27.764 159.342,27.150 158.593 C 26.793 158.157,26.215 157.260,25.866 156.600 C 25.517 155.940,25.225 155.544,25.216 155.720 M372.671 158.846 C 371.830 159.920,371.223 160.800,371.323 160.800 C 371.605 160.800,374.508 157.173,374.345 157.024 C 374.265 156.951,373.512 157.771,372.671 158.846 M64.700 163.100 C 81.475 163.158,108.925 163.158,125.700 163.100 C 142.475 163.042,128.750 162.995,95.200 162.995 C 61.650 162.995,47.925 163.042,64.700 163.100 M363.500 163.082 C 363.995 163.178,364.805 163.178,365.300 163.082 C 365.795 162.987,365.390 162.909,364.400 162.909 C 363.410 162.909,363.005 162.987,363.500 163.082 M157.506 189.906 C 157.564 204.572,157.744 216.704,157.906 216.866 C 158.068 217.028,158.152 205.161,158.094 190.494 C 158.036 175.828,157.856 163.696,157.694 163.534 C 157.532 163.372,157.448 175.239,157.506 189.906 M242.184 163.700 C 242.079 163.975,242.041 176.170,242.099 190.800 L 242.206 217.400 242.303 190.533 C 242.379 169.488,242.508 163.623,242.900 163.465 C 243.292 163.307,243.289 163.256,242.887 163.232 C 242.606 163.214,242.289 163.425,242.184 163.700 M186.028 236.033 C 186.044 236.565,186.219 237.360,186.419 237.800 C 186.671 238.358,186.707 238.115,186.538 237.000 C 186.255 235.143,185.987 234.636,186.028 236.033 M213.510 237.000 C 213.370 237.660,213.151 238.560,213.022 239.000 C 212.894 239.440,213.070 239.194,213.414 238.453 C 213.759 237.712,213.978 236.812,213.903 236.453 C 213.823 236.075,213.657 236.306,213.510 237.000 M186.828 239.000 C 186.828 239.220,187.086 239.850,187.400 240.400 C 187.714 240.950,187.972 241.220,187.972 241.000 C 187.972 240.780,187.714 240.150,187.400 239.600 C 187.086 239.050,186.828 238.780,186.828 239.000 M211.682 241.627 C 211.184 242.492,210.857 243.200,210.955 243.200 C 211.231 243.200,212.912 240.379,212.739 240.206 C 212.655 240.122,212.180 240.762,211.682 241.627 M189.368 243.589 C 190.215 244.915,190.172 245.117,188.995 245.322 C 188.032 245.490,188.034 245.495,189.064 245.449 C 190.460 245.385,190.632 244.755,189.581 243.561 L 188.736 242.600 189.368 243.589 M179.700 246.676 C 180.085 246.776,180.715 246.776,181.100 246.676 C 181.485 246.575,181.170 246.493,180.400 246.493 C 179.630 246.493,179.315 246.575,179.700 246.676 M204.600 247.414 C 203.940 247.717,203.670 247.966,204.000 247.968 C 204.330 247.970,205.050 247.714,205.600 247.400 C 206.865 246.677,206.189 246.687,204.600 247.414 M172.500 248.412 C 171.115 248.969,171.434 249.214,172.900 248.720 C 173.615 248.479,174.275 248.218,174.367 248.141 C 174.692 247.866,173.386 248.056,172.500 248.412 M169.180 250.666 C 168.288 251.472,167.373 252.507,167.147 252.966 C 166.920 253.424,167.207 253.222,167.784 252.516 C 168.361 251.810,169.410 250.777,170.116 250.221 C 170.822 249.664,171.266 249.207,171.101 249.204 C 170.937 249.202,170.072 249.859,169.180 250.666 M195.200 251.000 C 194.430 251.297,194.070 251.539,194.400 251.539 C 194.730 251.539,195.630 251.297,196.400 251.000 C 197.170 250.703,197.530 250.461,197.200 250.461 C 196.870 250.461,195.970 250.703,195.200 251.000 M190.400 252.000 C 189.056 252.431,190.508 252.431,192.200 252.000 C 193.278 251.726,193.298 251.694,192.400 251.687 C 191.850 251.683,190.950 251.824,190.400 252.000 M183.100 253.082 C 183.595 253.178,184.405 253.178,184.900 253.082 C 185.395 252.987,184.990 252.909,184.000 252.909 C 183.010 252.909,182.605 252.987,183.100 253.082 M177.400 254.000 C 176.381 254.438,177.432 254.438,178.800 254.000 C 179.604 253.743,179.643 253.677,179.000 253.668 C 178.560 253.662,177.840 253.811,177.400 254.000 M166.044 255.244 C 165.798 255.951,165.666 256.600,165.752 256.685 C 165.838 256.771,166.109 256.262,166.356 255.556 C 166.602 254.849,166.734 254.200,166.648 254.115 C 166.562 254.029,166.291 254.538,166.044 255.244 M173.907 255.967 C 173.188 256.609,172.690 257.194,172.800 257.267 C 172.910 257.340,173.602 256.815,174.337 256.100 C 176.000 254.484,175.678 254.384,173.907 255.967 M175.600 259.182 C 175.930 259.405,176.545 259.591,176.967 259.594 C 177.990 259.602,177.671 259.373,176.200 259.044 C 175.324 258.848,175.162 258.885,175.600 259.182 M214.000 259.023 C 214.330 259.095,218.920 259.214,224.200 259.288 C 229.480 259.362,232.810 259.300,231.600 259.151 C 229.453 258.886,212.811 258.765,214.000 259.023 M207.312 259.495 C 208.364 259.577,209.984 259.576,210.912 259.492 C 211.840 259.408,210.980 259.341,209.000 259.342 C 207.020 259.343,206.260 259.412,207.312 259.495 M197.705 259.887 C 198.314 259.979,199.214 259.977,199.705 259.882 C 200.197 259.787,199.700 259.711,198.600 259.714 C 197.500 259.717,197.097 259.795,197.705 259.887 M185.919 260.298 C 187.744 260.372,190.624 260.372,192.319 260.297 C 194.014 260.222,192.520 260.161,189.000 260.162 C 185.480 260.162,184.094 260.224,185.919 260.298 M241.146 261.416 C 241.886 261.737,242.606 261.994,242.746 261.986 C 243.266 261.957,240.976 260.828,240.400 260.830 C 240.070 260.831,240.406 261.094,241.146 261.416 M244.800 262.873 C 248.697 266.409,249.380 266.952,247.800 265.255 C 246.920 264.310,245.840 263.347,245.400 263.114 C 244.960 262.882,244.690 262.773,244.800 262.873 M170.615 264.825 C 170.856 265.214,174.362 266.573,174.570 266.358 C 174.654 266.271,173.755 265.820,172.573 265.356 C 171.390 264.892,170.509 264.653,170.615 264.825 M211.800 265.963 C 210.700 266.093,214.750 266.200,220.800 266.200 C 226.850 266.200,230.990 266.078,230.000 265.930 C 227.837 265.605,214.617 265.629,211.800 265.963 M200.300 266.689 C 201.015 266.778,202.185 266.778,202.900 266.689 C 203.615 266.601,203.030 266.528,201.600 266.528 C 200.170 266.528,199.585 266.601,200.300 266.689 M180.112 267.095 C 181.164 267.177,182.784 267.176,183.712 267.092 C 184.640 267.008,183.780 266.941,181.800 266.942 C 179.820 266.943,179.060 267.012,180.112 267.095 M193.091 267.089 C 193.801 267.177,195.061 267.179,195.891 267.092 C 196.721 267.005,196.140 266.933,194.600 266.931 C 193.060 266.929,192.381 267.000,193.091 267.089 M242.966 270.702 C 243.168 270.999,243.462 271.907,243.620 272.721 C 243.904 274.181,243.909 274.184,243.954 272.944 C 243.979 272.249,243.688 271.348,243.300 270.925 C 242.915 270.506,242.765 270.405,242.966 270.702 M250.514 273.400 C 250.517 274.500,250.595 274.903,250.687 274.295 C 250.779 273.686,250.777 272.786,250.682 272.295 C 250.587 271.803,250.511 272.300,250.514 273.400 M240.400 278.000 C 239.410 278.658,238.739 279.197,238.909 279.198 C 239.257 279.200,242.400 277.174,242.400 276.947 C 242.400 276.692,242.242 276.775,240.400 278.000 M246.124 282.450 C 243.778 284.463,243.628 284.614,244.438 284.159 C 245.309 283.669,248.605 280.800,248.296 280.800 C 248.160 280.800,247.183 281.543,246.124 282.450 M226.600 281.600 L 225.000 281.886 226.400 281.903 C 227.170 281.913,228.250 281.776,228.800 281.600 C 230.085 281.188,228.899 281.188,226.600 281.600 M222.100 282.276 C 222.485 282.376,223.115 282.376,223.500 282.276 C 223.885 282.175,223.570 282.093,222.800 282.093 C 222.030 282.093,221.715 282.175,222.100 282.276 M218.105 282.687 C 218.714 282.779,219.614 282.777,220.105 282.682 C 220.597 282.587,220.100 282.511,219.000 282.514 C 217.900 282.517,217.497 282.595,218.105 282.687 M214.105 283.087 C 214.714 283.179,215.614 283.177,216.105 283.082 C 216.597 282.987,216.100 282.911,215.000 282.914 C 213.900 282.917,213.497 282.995,214.105 283.087 M209.300 283.476 C 209.685 283.576,210.315 283.576,210.700 283.476 C 211.085 283.375,210.770 283.293,210.000 283.293 C 209.230 283.293,208.915 283.375,209.300 283.476 M205.300 283.876 C 205.685 283.976,206.315 283.976,206.700 283.876 C 207.085 283.775,206.770 283.693,206.000 283.693 C 205.230 283.693,204.915 283.775,205.300 283.876 M198.400 284.800 C 197.608 285.054,197.567 285.120,198.200 285.120 C 198.640 285.120,199.450 284.976,200.000 284.800 C 200.792 284.546,200.833 284.480,200.200 284.480 C 199.760 284.480,198.950 284.624,198.400 284.800 M240.000 285.834 C 238.690 286.370,238.677 286.392,239.800 286.175 C 240.460 286.048,241.171 285.776,241.380 285.572 C 241.859 285.103,241.721 285.129,240.000 285.834 M193.800 286.186 C 192.255 286.893,192.974 286.903,194.800 286.200 C 195.570 285.903,195.930 285.655,195.600 285.648 C 195.270 285.642,194.460 285.883,193.800 286.186 M187.687 289.500 C 186.730 290.435,186.714 290.481,187.581 289.806 C 189.288 288.476,189.369 288.400,189.086 288.400 C 188.936 288.400,188.306 288.895,187.687 289.500 M226.900 288.676 C 227.285 288.776,227.915 288.776,228.300 288.676 C 228.685 288.575,228.370 288.493,227.600 288.493 C 226.830 288.493,226.515 288.575,226.900 288.676 M222.105 289.087 C 222.714 289.179,223.614 289.177,224.105 289.082 C 224.597 288.987,224.100 288.911,223.000 288.914 C 221.900 288.917,221.497 288.995,222.105 289.087 M215.400 289.600 C 213.500 289.861,213.480 289.875,215.000 289.898 C 215.880 289.910,217.590 289.784,218.800 289.617 C 220.966 289.317,220.972 289.313,219.200 289.319 C 218.210 289.323,216.500 289.449,215.400 289.600 M209.900 290.282 C 210.395 290.378,211.205 290.378,211.700 290.282 C 212.195 290.187,211.790 290.109,210.800 290.109 C 209.810 290.109,209.405 290.187,209.900 290.282 M206.900 290.676 C 207.285 290.776,207.915 290.776,208.300 290.676 C 208.685 290.575,208.370 290.493,207.600 290.493 C 206.830 290.493,206.515 290.575,206.900 290.676 M184.568 293.018 C 183.982 294.018,183.570 294.904,183.653 294.986 C 183.735 295.068,184.297 294.250,184.901 293.168 C 186.283 290.693,186.005 290.567,184.568 293.018 M183.050 296.850 C 182.796 298.122,182.778 313.097,183.032 312.000 C 183.159 311.453,183.466 295.600,183.350 295.600 C 183.322 295.600,183.188 296.163,183.050 296.850 M206.900 299.097 C 208.385 299.174,210.815 299.174,212.300 299.097 C 213.785 299.020,212.570 298.957,209.600 298.957 C 206.630 298.957,205.415 299.020,206.900 299.097 M193.100 299.889 C 193.815 299.978,194.985 299.978,195.700 299.889 C 196.415 299.801,195.830 299.728,194.400 299.728 C 192.970 299.728,192.385 299.801,193.100 299.889 M222.500 299.887 C 223.105 299.978,224.095 299.978,224.700 299.887 C 225.305 299.795,224.810 299.720,223.600 299.720 C 222.390 299.720,221.895 299.795,222.500 299.887 M142.305 301.883 C 142.802 301.979,143.522 301.975,143.905 301.875 C 144.287 301.775,143.880 301.696,143.000 301.701 C 142.120 301.705,141.807 301.787,142.305 301.883 M152.033 301.744 C 152.125 301.824,153.280 301.989,154.600 302.112 C 156.091 302.251,156.621 302.211,156.000 302.007 C 155.012 301.684,151.711 301.465,152.033 301.744 M136.400 302.800 C 135.596 303.057,135.557 303.123,136.200 303.132 C 136.640 303.138,137.360 302.989,137.800 302.800 C 138.819 302.362,137.768 302.362,136.400 302.800 M158.000 302.782 C 158.330 303.005,158.945 303.191,159.367 303.194 C 160.390 303.202,160.071 302.973,158.600 302.644 C 157.724 302.448,157.562 302.485,158.000 302.782 M238.400 303.000 C 238.950 303.314,239.580 303.572,239.800 303.572 C 240.020 303.572,239.750 303.314,239.200 303.000 C 238.650 302.686,238.020 302.428,237.800 302.428 C 237.580 302.428,237.850 302.686,238.400 303.000 M124.028 307.100 C 122.616 307.925,121.415 308.830,121.360 309.110 C 121.305 309.390,121.351 309.436,121.463 309.211 C 121.575 308.986,122.821 308.156,124.233 307.367 C 126.411 306.149,127.177 305.600,126.698 305.600 C 126.642 305.600,125.441 306.275,124.028 307.100 M166.944 305.909 C 167.260 306.421,169.600 308.153,169.600 307.875 C 169.600 307.776,168.939 307.191,168.132 306.575 C 167.324 305.959,166.789 305.659,166.944 305.909 M245.382 305.971 C 245.506 306.172,246.521 306.898,247.638 307.586 C 248.755 308.273,249.573 308.680,249.456 308.491 C 249.339 308.301,248.324 307.575,247.200 306.876 C 246.076 306.178,245.258 305.770,245.382 305.971 M250.200 309.073 C 251.758 310.643,254.454 312.815,253.400 311.652 C 252.740 310.923,251.660 309.954,251.000 309.499 C 250.340 309.043,249.980 308.852,250.200 309.073 M172.782 311.000 C 173.747 312.100,174.620 313.090,174.722 313.200 C 174.825 313.310,174.719 313.040,174.487 312.600 C 174.255 312.160,173.382 311.170,172.547 310.400 C 171.103 309.069,171.115 309.099,172.782 311.000 M195.700 312.699 C 199.385 312.765,205.415 312.765,209.100 312.699 C 212.785 312.633,209.770 312.579,202.400 312.579 C 195.030 312.579,192.015 312.633,195.700 312.699 M217.305 313.087 C 217.914 313.179,218.814 313.177,219.305 313.082 C 219.797 312.987,219.300 312.911,218.200 312.914 C 217.100 312.917,216.697 312.995,217.305 313.087 M254.818 313.044 C 254.828 313.240,255.847 314.480,257.083 315.800 C 259.576 318.462,259.164 317.622,256.500 314.610 C 255.565 313.552,254.808 312.848,254.818 313.044 M141.300 315.876 C 141.685 315.976,142.315 315.976,142.700 315.876 C 143.085 315.775,142.770 315.693,142.000 315.693 C 141.230 315.693,140.915 315.775,141.300 315.876 M132.200 317.978 C 131.320 318.395,130.780 318.736,131.000 318.738 C 131.546 318.742,134.702 317.264,134.200 317.240 C 133.980 317.230,133.080 317.562,132.200 317.978 M235.792 318.876 C 236.667 319.604,238.552 321.370,239.980 322.800 C 241.408 324.230,242.192 324.860,241.722 324.200 C 240.679 322.735,238.408 320.618,236.000 318.864 L 234.200 317.552 235.792 318.876 M261.179 321.800 C 261.899 323.120,262.675 324.380,262.904 324.600 C 263.133 324.820,262.726 323.920,262.000 322.600 C 261.274 321.280,260.498 320.020,260.275 319.800 C 260.052 319.580,260.459 320.480,261.179 321.800 M124.806 320.313 C 124.797 321.044,125.966 321.395,126.527 320.829 C 126.892 320.461,126.831 320.417,126.260 320.635 C 125.800 320.810,125.385 320.705,125.166 320.358 C 124.901 319.941,124.811 319.929,124.806 320.313 M158.007 321.420 C 158.003 321.651,158.175 322.015,158.390 322.230 C 158.604 322.444,159.057 323.335,159.396 324.210 C 159.871 325.436,159.958 325.525,159.777 324.600 C 159.538 323.380,158.019 320.652,158.007 321.420 M243.352 326.967 C 243.928 327.816,244.400 328.697,244.400 328.922 C 244.400 329.148,244.503 329.230,244.629 329.104 C 244.938 328.795,243.819 326.680,242.978 325.982 C 242.607 325.674,242.775 326.117,243.352 326.967 M160.093 327.200 C 160.093 327.970,160.175 328.285,160.276 327.900 C 160.376 327.515,160.376 326.885,160.276 326.500 C 160.175 326.115,160.093 326.430,160.093 327.200 M177.693 327.600 C 177.693 328.370,177.775 328.685,177.876 328.300 C 177.976 327.915,177.976 327.285,177.876 326.900 C 177.775 326.515,177.693 326.830,177.693 327.600 M159.338 330.800 C 159.107 331.666,159.058 332.288,159.228 332.183 C 159.582 331.964,160.158 329.625,159.917 329.384 C 159.830 329.297,159.569 329.934,159.338 330.800 M177.246 329.667 C 177.221 330.034,177.096 330.664,176.970 331.067 C 176.752 331.762,176.763 331.763,177.197 331.087 C 177.448 330.696,177.573 330.066,177.473 329.687 C 177.311 329.068,177.288 329.066,177.246 329.667 M183.074 329.859 C 182.699 330.234,182.725 398.000,183.100 398.000 C 183.265 398.000,183.353 382.700,183.296 364.000 L 183.191 330.000 191.793 330.000 L 200.394 330.000 200.501 357.000 L 200.608 384.000 200.604 356.900 L 200.600 329.800 191.974 329.692 C 187.230 329.633,183.225 329.708,183.074 329.859 M245.663 331.400 C 245.662 331.620,245.903 332.430,246.200 333.200 C 246.497 333.970,246.745 334.330,246.752 334.000 C 246.758 333.670,246.517 332.860,246.214 332.200 C 245.912 331.540,245.664 331.180,245.663 331.400 M156.626 335.500 C 155.762 336.605,155.693 336.790,156.363 336.204 C 157.165 335.504,158.223 334.000,157.914 334.000 C 157.851 334.000,157.272 334.675,156.626 335.500 M247.050 336.000 C 247.190 336.770,247.461 337.760,247.654 338.200 C 247.894 338.749,247.924 338.561,247.750 337.600 C 247.610 336.830,247.339 335.840,247.146 335.400 C 246.906 334.851,246.876 335.039,247.050 336.000 M172.341 339.300 C 171.387 340.455,170.927 341.147,171.319 340.838 C 172.137 340.193,174.565 337.200,174.271 337.200 C 174.163 337.200,173.294 338.145,172.341 339.300 M266.914 341.400 C 266.917 342.500,266.995 342.903,267.087 342.295 C 267.179 341.686,267.177 340.786,267.082 340.295 C 266.987 339.803,266.911 340.300,266.914 341.400 M146.200 340.400 L 144.600 340.686 146.000 340.737 C 146.770 340.765,147.670 340.613,148.000 340.400 C 148.655 339.977,148.562 339.977,146.200 340.400 M248.114 341.800 C 248.117 342.900,248.195 343.303,248.287 342.695 C 248.379 342.086,248.377 341.186,248.282 340.695 C 248.187 340.203,248.111 340.700,248.114 341.800 M141.300 341.076 C 141.685 341.176,142.315 341.176,142.700 341.076 C 143.085 340.975,142.770 340.893,142.000 340.893 C 141.230 340.893,140.915 340.975,141.300 341.076 M132.976 341.718 C 132.867 342.004,132.833 344.839,132.900 348.018 L 133.024 353.800 133.112 347.733 C 133.176 343.323,133.336 341.612,133.700 341.465 C 134.092 341.307,134.089 341.256,133.687 341.232 C 133.406 341.214,133.085 341.433,132.976 341.718 M248.531 347.000 C 248.533 348.540,248.605 349.121,248.692 348.291 C 248.779 347.461,248.777 346.201,248.689 345.491 C 248.600 344.781,248.529 345.460,248.531 347.000 M162.800 345.800 C 162.250 346.114,161.980 346.372,162.200 346.372 C 162.420 346.372,163.050 346.114,163.600 345.800 C 164.150 345.486,164.420 345.228,164.200 345.228 C 163.980 345.228,163.350 345.486,162.800 345.800 M168.000 350.200 C 168.550 350.514,169.180 350.772,169.400 350.772 C 169.620 350.772,169.350 350.514,168.800 350.200 C 168.250 349.886,167.620 349.628,167.400 349.628 C 167.180 349.628,167.450 349.886,168.000 350.200 M266.920 352.000 C 266.920 353.210,266.995 353.705,267.087 353.100 C 267.178 352.495,267.178 351.505,267.087 350.900 C 266.995 350.295,266.920 350.790,266.920 352.000 M248.120 352.400 C 248.120 353.610,248.195 354.105,248.287 353.500 C 248.378 352.895,248.378 351.905,248.287 351.300 C 248.195 350.695,248.120 351.190,248.120 352.400 M172.748 353.120 C 173.709 353.991,175.209 355.491,176.080 356.452 L 177.665 358.200 176.206 356.326 C 175.404 355.296,173.904 353.796,172.874 352.994 L 171.000 351.535 172.748 353.120 M142.505 354.287 C 143.114 354.379,144.014 354.377,144.505 354.282 C 144.997 354.187,144.500 354.111,143.400 354.114 C 142.300 354.117,141.897 354.195,142.505 354.287 M153.200 356.420 C 154.587 357.361,155.378 357.635,154.400 356.836 C 153.850 356.386,153.220 356.017,153.000 356.015 C 152.780 356.013,152.870 356.196,153.200 356.420 M247.233 358.233 C 246.975 359.259,246.839 360.172,246.931 360.264 C 247.022 360.356,247.309 359.592,247.567 358.567 C 247.825 357.541,247.961 356.628,247.869 356.536 C 247.778 356.444,247.491 357.208,247.233 358.233 M158.400 359.800 C 159.146 360.570,159.847 361.200,159.957 361.200 C 160.067 361.200,159.546 360.570,158.800 359.800 C 158.054 359.030,157.353 358.400,157.243 358.400 C 157.133 358.400,157.654 359.030,158.400 359.800 M265.849 359.415 C 265.712 359.773,265.615 360.366,265.634 360.733 C 265.653 361.100,265.827 360.869,266.021 360.220 C 266.398 358.958,266.265 358.333,265.849 359.415 M246.229 361.829 C 246.081 362.415,246.038 362.972,246.132 363.066 C 246.227 363.160,246.424 362.758,246.571 362.171 C 246.719 361.585,246.762 361.028,246.668 360.934 C 246.573 360.840,246.376 361.242,246.229 361.829 M265.000 362.800 C 264.848 363.491,264.807 364.141,264.909 364.242 C 265.011 364.344,265.209 363.853,265.350 363.150 C 265.491 362.447,265.531 361.798,265.441 361.708 C 265.350 361.617,265.152 362.109,265.000 362.800 M162.870 370.400 C 162.826 371.610,162.696 373.050,162.583 373.600 L 162.377 374.600 162.806 373.618 C 163.042 373.078,163.171 371.638,163.093 370.418 L 162.951 368.200 162.870 370.400 M181.314 371.000 C 181.317 372.100,181.395 372.503,181.487 371.895 C 181.579 371.286,181.577 370.386,181.482 369.895 C 181.387 369.403,181.311 369.900,181.314 371.000 M262.081 371.409 C 261.602 372.394,261.294 373.200,261.397 373.200 C 261.668 373.200,263.284 369.951,263.103 369.770 C 263.019 369.686,262.559 370.424,262.081 371.409 M240.175 373.700 L 239.000 375.000 240.300 373.825 C 241.512 372.730,241.784 372.400,241.475 372.400 C 241.406 372.400,240.821 372.985,240.175 373.700 M236.575 377.265 C 235.402 378.528,235.402 378.529,236.483 377.765 C 237.079 377.344,237.658 376.775,237.770 376.500 C 238.081 375.741,237.858 375.884,236.575 377.265 M257.410 379.300 C 256.554 380.455,255.122 382.208,254.227 383.196 C 252.901 384.660,252.848 384.771,253.938 383.796 C 255.528 382.376,259.582 377.200,259.106 377.200 C 259.028 377.200,258.265 378.145,257.410 379.300 M159.494 379.655 C 158.666 380.725,158.069 381.600,158.167 381.600 C 158.457 381.600,161.328 377.993,161.157 377.844 C 161.070 377.770,160.322 378.585,159.494 379.655 M177.194 384.900 C 176.493 386.055,176.180 386.730,176.498 386.400 C 177.218 385.654,178.937 382.800,178.667 382.800 C 178.558 382.800,177.895 383.745,177.194 384.900 M224.600 383.200 C 224.096 383.417,224.022 383.544,224.400 383.544 C 224.730 383.544,225.360 383.389,225.800 383.200 C 226.304 382.983,226.378 382.856,226.000 382.856 C 225.670 382.856,225.040 383.011,224.600 383.200 M131.000 383.946 C 131.440 384.139,132.430 384.410,133.200 384.550 C 134.161 384.724,134.349 384.694,133.800 384.454 C 133.360 384.261,132.370 383.990,131.600 383.850 C 130.639 383.676,130.451 383.706,131.000 383.946 M221.000 384.215 C 219.423 384.761,219.420 384.765,220.800 384.532 C 222.432 384.257,224.100 383.648,223.200 383.656 C 222.870 383.659,221.880 383.911,221.000 384.215 M214.905 385.087 C 215.514 385.179,216.414 385.177,216.905 385.082 C 217.397 384.987,216.900 384.911,215.800 384.914 C 214.700 384.917,214.297 384.995,214.905 385.087 M137.905 385.483 C 138.402 385.579,139.122 385.575,139.505 385.475 C 139.887 385.375,139.480 385.296,138.600 385.301 C 137.720 385.305,137.407 385.387,137.905 385.483 M208.900 385.476 C 209.285 385.576,209.915 385.576,210.300 385.476 C 210.685 385.375,210.370 385.293,209.600 385.293 C 208.830 385.293,208.515 385.375,208.900 385.476 M142.291 385.889 C 143.001 385.977,144.261 385.979,145.091 385.892 C 145.921 385.805,145.340 385.733,143.800 385.731 C 142.260 385.729,141.581 385.800,142.291 385.889 M249.576 387.446 C 246.862 389.749,246.805 389.810,247.878 389.252 C 248.360 389.001,248.873 388.605,249.018 388.371 C 249.162 388.138,250.009 387.419,250.900 386.774 C 251.791 386.128,252.347 385.600,252.136 385.600 C 251.925 385.600,250.773 386.431,249.576 387.446 M173.200 389.718 C 171.770 391.095,170.150 392.544,169.600 392.937 C 168.679 393.597,168.699 393.596,169.855 392.927 C 171.091 392.211,173.873 389.754,175.362 388.065 C 176.766 386.471,175.823 387.192,173.200 389.718 M245.200 390.436 C 244.536 390.979,244.469 391.115,245.000 390.840 C 246.305 390.166,247.028 389.612,246.600 389.615 C 246.380 389.617,245.750 389.986,245.200 390.436 M242.700 391.829 C 241.205 392.640,241.296 392.978,242.800 392.200 C 243.460 391.859,244.000 391.494,244.000 391.390 C 244.000 391.132,243.957 391.147,242.700 391.829 M119.600 394.184 C 119.600 394.294,120.320 394.751,121.200 395.200 C 122.080 395.649,122.800 395.926,122.800 395.816 C 122.800 395.706,122.080 395.249,121.200 394.800 C 120.320 394.351,119.600 394.074,119.600 394.184 M165.900 395.029 C 164.405 395.840,164.496 396.178,166.000 395.400 C 166.660 395.059,167.200 394.694,167.200 394.590 C 167.200 394.332,167.157 394.347,165.900 395.029 M154.200 398.800 C 153.181 399.238,154.232 399.238,155.600 398.800 C 156.404 398.543,156.443 398.477,155.800 398.468 C 155.360 398.462,154.640 398.611,154.200 398.800 M189.305 398.687 C 189.914 398.779,190.814 398.777,191.305 398.682 C 191.797 398.587,191.300 398.511,190.200 398.514 C 189.100 398.517,188.697 398.595,189.305 398.687 M217.700 398.687 C 218.305 398.778,219.295 398.778,219.900 398.687 C 220.505 398.595,220.010 398.520,218.800 398.520 C 217.590 398.520,217.095 398.595,217.700 398.687 M194.700 399.093 C 195.635 399.177,197.165 399.177,198.100 399.093 C 199.035 399.009,198.270 398.940,196.400 398.940 C 194.530 398.940,193.765 399.009,194.700 399.093 M137.600 399.620 C 138.590 399.797,139.850 399.936,140.400 399.930 L 141.400 399.920 140.400 399.600 C 139.850 399.424,138.590 399.284,137.600 399.290 L 135.800 399.300 137.600 399.620 M148.200 399.600 L 147.000 399.905 148.200 399.918 C 148.860 399.924,150.300 399.790,151.400 399.618 L 153.400 399.307 151.400 399.301 C 150.300 399.297,148.860 399.432,148.200 399.600 M206.100 399.487 C 206.705 399.578,207.695 399.578,208.300 399.487 C 208.905 399.395,208.410 399.320,207.200 399.320 C 205.990 399.320,205.495 399.395,206.100 399.487 " stroke="none" fill="#747474" fill-rule="evenodd"></path><path id="path3" d="M300.667 0.267 C 300.520 0.413,300.437 2.348,300.483 4.567 L 300.566 8.600 300.693 4.800 C 300.793 1.825,300.965 0.892,301.487 0.500 C 302.051 0.077,302.059 0.000,301.543 0.000 C 301.208 0.000,300.813 0.120,300.667 0.267 M308.162 6.200 C 308.162 9.720,308.224 11.106,308.298 9.281 C 308.372 7.456,308.372 4.576,308.297 2.881 C 308.222 1.186,308.161 2.680,308.162 6.200 M328.667 3.867 C 328.520 4.013,328.403 4.328,328.406 4.567 C 328.410 4.842,328.523 4.826,328.715 4.524 C 328.881 4.262,330.004 3.981,331.209 3.898 L 333.400 3.748 331.167 3.674 C 329.938 3.633,328.813 3.720,328.667 3.867 M335.505 7.899 C 335.700 15.863,335.848 16.640,335.924 10.100 C 335.966 6.525,335.865 3.600,335.700 3.599 C 335.535 3.599,335.447 5.534,335.505 7.899 M300.063 13.200 C 300.023 13.970,299.906 15.320,299.802 16.200 L 299.612 17.800 300.023 16.200 C 300.248 15.320,300.366 13.970,300.284 13.200 L 300.134 11.800 300.063 13.200 M327.622 16.222 C 327.352 17.896,327.211 19.345,327.309 19.443 C 327.407 19.540,327.708 18.251,327.978 16.578 C 328.248 14.904,328.389 13.455,328.291 13.357 C 328.193 13.260,327.892 14.549,327.622 16.222 M307.295 16.649 C 307.025 18.347,306.875 19.808,306.961 19.894 C 307.198 20.132,308.131 14.592,307.947 14.040 C 307.859 13.776,307.566 14.950,307.295 16.649 M335.018 18.618 C 334.865 19.639,334.822 20.555,334.922 20.655 C 335.022 20.755,335.229 20.002,335.382 18.982 C 335.535 17.961,335.578 17.045,335.478 16.945 C 335.378 16.845,335.171 17.598,335.018 18.618 M298.873 19.673 C 298.635 20.609,298.510 21.443,298.594 21.527 C 298.678 21.612,298.951 20.924,299.200 20.000 C 299.449 19.076,299.574 18.241,299.479 18.145 C 299.383 18.050,299.110 18.737,298.873 19.673 M306.229 21.429 C 306.081 22.015,306.038 22.572,306.132 22.666 C 306.227 22.760,306.424 22.358,306.571 21.771 C 306.719 21.185,306.762 20.628,306.668 20.534 C 306.573 20.440,306.376 20.842,306.229 21.429 M325.644 23.644 C 325.398 24.351,325.266 25.000,325.352 25.085 C 325.438 25.171,325.709 24.662,325.956 23.956 C 326.202 23.249,326.334 22.600,326.248 22.515 C 326.162 22.429,325.891 22.938,325.644 23.644 M333.829 23.429 C 333.681 24.015,333.638 24.572,333.732 24.666 C 333.827 24.760,334.024 24.358,334.171 23.771 C 334.319 23.185,334.362 22.628,334.268 22.534 C 334.173 22.440,333.976 22.842,333.829 23.429 M296.770 24.866 C 296.498 25.380,296.013 26.205,295.692 26.700 C 295.371 27.195,295.216 27.600,295.349 27.600 C 295.713 27.600,297.687 24.354,297.461 24.128 C 297.353 24.020,297.042 24.352,296.770 24.866 M332.867 26.380 C 332.633 27.051,332.527 27.600,332.631 27.600 C 332.901 27.600,333.656 25.522,333.457 25.324 C 333.367 25.233,333.101 25.708,332.867 26.380 M322.896 28.505 C 321.309 30.689,321.167 30.980,322.316 29.689 C 323.677 28.162,325.443 25.592,325.123 25.605 C 325.055 25.608,324.053 26.913,322.896 28.505 M303.466 28.422 C 302.854 29.510,302.437 30.400,302.539 30.400 C 302.810 30.400,304.897 26.763,304.724 26.591 C 304.643 26.510,304.077 27.334,303.466 28.422 M331.200 29.600 C 330.751 30.480,330.474 31.200,330.584 31.200 C 330.694 31.200,331.151 30.480,331.600 29.600 C 332.049 28.720,332.326 28.000,332.216 28.000 C 332.106 28.000,331.649 28.720,331.200 29.600 M291.800 30.683 C 289.502 32.811,290.226 32.536,292.810 30.300 C 293.764 29.475,294.377 28.807,294.172 28.816 C 293.967 28.825,292.900 29.665,291.800 30.683 M319.187 32.113 C 318.630 32.601,317.730 33.323,317.187 33.717 C 316.238 34.407,316.251 34.407,317.524 33.717 C 318.252 33.323,319.228 32.595,319.694 32.100 C 320.770 30.954,320.502 30.961,319.187 32.113 M327.014 35.137 C 325.152 37.160,324.640 37.852,325.781 36.800 C 327.875 34.871,329.602 33.016,330.120 32.141 C 330.671 31.210,330.289 31.577,327.014 35.137 M300.401 32.998 C 299.886 33.548,299.552 34.085,299.660 34.194 C 299.768 34.302,300.254 33.852,300.740 33.195 C 301.817 31.739,301.666 31.652,300.401 32.998 M287.897 33.166 C 286.085 34.328,286.086 34.556,287.900 33.641 C 288.835 33.170,289.600 32.697,289.600 32.592 C 289.600 32.249,289.023 32.444,287.897 33.166 M296.400 36.874 C 295.410 37.776,294.960 38.324,295.400 38.092 C 296.152 37.694,298.752 35.181,298.375 35.216 C 298.279 35.225,297.390 35.971,296.400 36.874 M311.086 36.301 C 309.593 36.853,308.438 37.372,308.520 37.453 C 308.700 37.634,312.903 36.213,313.892 35.636 C 315.021 34.979,314.012 35.218,311.086 36.301 M279.600 36.000 C 278.808 36.254,278.767 36.320,279.400 36.320 C 279.840 36.320,280.650 36.176,281.200 36.000 C 281.992 35.746,282.033 35.680,281.400 35.680 C 280.960 35.680,280.150 35.824,279.600 36.000 M270.600 37.197 C 269.939 37.364,270.928 37.408,272.800 37.294 C 274.670 37.181,276.275 37.024,276.367 36.944 C 276.674 36.678,271.814 36.891,270.600 37.197 M252.900 37.899 C 255.485 37.968,259.715 37.968,262.300 37.899 C 264.885 37.829,262.770 37.772,257.600 37.772 C 252.430 37.772,250.315 37.829,252.900 37.899 M241.513 38.295 C 242.676 38.376,244.476 38.376,245.513 38.293 C 246.551 38.211,245.600 38.145,243.400 38.146 C 241.200 38.147,240.351 38.214,241.513 38.295 M293.614 38.983 C 293.075 39.633,299.753 39.544,300.400 38.892 C 300.510 38.781,299.215 38.791,297.522 38.913 C 295.574 39.053,294.395 38.984,294.308 38.724 C 294.232 38.497,293.920 38.614,293.614 38.983 M230.400 39.213 C 229.754 39.429,230.180 39.466,231.600 39.319 C 232.810 39.194,233.875 39.026,233.967 38.946 C 234.287 38.665,231.391 38.883,230.400 39.213 M226.880 39.995 C 226.154 40.167,225.447 40.420,225.309 40.558 C 225.012 40.855,227.454 40.415,228.600 39.965 C 229.620 39.564,228.624 39.582,226.880 39.995 M320.300 40.427 C 319.475 40.863,318.800 41.308,318.800 41.418 C 318.800 41.527,319.520 41.249,320.400 40.800 C 321.280 40.351,322.000 39.897,322.000 39.792 C 322.000 39.530,321.997 39.531,320.300 40.427 M310.600 44.400 C 309.500 44.806,308.150 45.173,307.600 45.215 C 306.888 45.270,306.803 45.346,307.305 45.477 C 308.050 45.671,311.934 44.547,312.580 43.951 C 313.067 43.501,312.988 43.519,310.600 44.400 M212.176 47.104 C 211.062 48.147,210.612 48.628,211.176 48.173 C 211.739 47.718,212.799 46.863,213.531 46.273 C 214.263 45.683,214.713 45.202,214.531 45.204 C 214.349 45.207,213.289 46.062,212.176 47.104 M298.700 46.682 C 299.195 46.778,300.005 46.778,300.500 46.682 C 300.995 46.587,300.590 46.509,299.600 46.509 C 298.610 46.509,298.205 46.587,298.700 46.682 M245.000 47.200 L 242.200 47.459 244.600 47.494 C 245.920 47.514,247.900 47.390,249.000 47.218 C 251.605 46.813,249.306 46.802,245.000 47.200 M268.600 47.221 C 273.742 47.511,291.844 47.696,291.567 47.455 C 291.475 47.376,285.190 47.229,277.600 47.130 C 270.010 47.031,265.960 47.071,268.600 47.221 M292.705 47.083 C 293.202 47.179,293.922 47.175,294.305 47.075 C 294.687 46.975,294.280 46.896,293.400 46.901 C 292.520 46.905,292.207 46.987,292.705 47.083 M239.700 47.876 C 240.085 47.976,240.715 47.976,241.100 47.876 C 241.485 47.775,241.170 47.693,240.400 47.693 C 239.630 47.693,239.315 47.775,239.700 47.876 M236.200 48.400 C 235.122 48.674,235.102 48.706,236.000 48.713 C 236.550 48.717,237.450 48.576,238.000 48.400 C 239.344 47.969,237.892 47.969,236.200 48.400 M208.551 50.100 C 207.313 51.512,206.683 52.400,206.917 52.400 C 207.036 52.400,207.703 51.680,208.400 50.800 C 209.755 49.089,209.859 48.607,208.551 50.100 M230.600 49.600 C 230.096 49.817,230.022 49.944,230.400 49.944 C 230.730 49.944,231.360 49.789,231.800 49.600 C 232.304 49.383,232.378 49.256,232.000 49.256 C 231.670 49.256,231.040 49.411,230.600 49.600 M227.050 50.588 C 226.197 50.892,225.297 51.349,225.050 51.603 C 224.789 51.871,225.190 51.817,226.000 51.474 C 226.770 51.148,227.850 50.695,228.400 50.468 C 229.880 49.856,228.845 49.948,227.050 50.588 M205.693 53.900 C 204.657 55.396,204.321 56.000,204.523 56.000 C 204.617 56.000,205.170 55.280,205.753 54.400 C 206.936 52.612,206.884 52.179,205.693 53.900 M219.600 54.854 L 217.800 56.485 219.494 55.213 C 220.968 54.107,221.914 53.174,221.524 53.212 C 221.456 53.219,220.590 53.958,219.600 54.854 M216.000 57.800 C 215.254 58.570,214.813 59.200,215.022 59.200 C 215.230 59.200,215.903 58.570,216.517 57.800 C 217.943 56.013,217.732 56.013,216.000 57.800 M201.644 62.044 C 201.398 62.751,201.266 63.400,201.352 63.485 C 201.438 63.571,201.709 63.062,201.956 62.356 C 202.202 61.649,202.334 61.000,202.248 60.915 C 202.162 60.829,201.891 61.338,201.644 62.044 M200.629 65.029 C 200.481 65.615,200.438 66.172,200.532 66.266 C 200.627 66.360,200.824 65.958,200.971 65.371 C 201.119 64.785,201.162 64.228,201.068 64.134 C 200.973 64.040,200.776 64.442,200.629 65.029 M210.049 68.600 C 210.016 69.040,209.896 69.850,209.783 70.400 L 209.577 71.400 210.006 70.419 C 210.242 69.879,210.361 69.069,210.272 68.619 C 210.113 67.821,210.107 67.821,210.049 68.600 M199.453 71.236 C 199.314 71.931,199.224 73.242,199.253 74.150 C 199.291 75.369,199.390 75.070,199.628 73.009 C 199.970 70.058,199.877 69.116,199.453 71.236 M208.509 77.200 C 208.509 78.190,208.587 78.595,208.682 78.100 C 208.778 77.605,208.778 76.795,208.682 76.300 C 208.587 75.805,208.509 76.210,208.509 77.200 M198.963 81.000 L 199.000 84.200 202.200 84.237 L 205.400 84.274 202.400 84.037 L 199.400 83.800 199.163 80.800 L 198.926 77.800 198.963 81.000 M208.000 83.133 C 208.000 83.390,207.505 83.625,206.900 83.654 C 205.890 83.704,205.878 83.724,206.746 83.888 C 207.719 84.073,208.760 83.427,208.273 82.940 C 208.123 82.790,208.000 82.877,208.000 83.133 M157.862 86.300 C 157.760 86.465,176.694 86.600,199.938 86.600 L 242.200 86.600 242.303 113.178 C 242.383 133.831,242.517 139.827,242.903 140.072 C 243.176 140.246,270.940 140.346,304.600 140.296 L 365.800 140.204 304.400 140.002 L 243.000 139.800 242.897 113.437 C 242.824 94.774,242.664 86.918,242.348 86.537 C 241.853 85.941,158.229 85.705,157.862 86.300 M157.297 113.499 L 157.200 139.997 95.700 140.100 L 34.200 140.203 95.713 140.301 C 144.627 140.380,157.264 140.298,157.416 139.900 C 157.521 139.625,157.559 127.610,157.501 113.200 L 157.394 87.000 157.297 113.499 M145.800 93.600 C 144.781 94.038,145.832 94.038,147.200 93.600 C 148.004 93.343,148.043 93.277,147.400 93.268 C 146.960 93.262,146.240 93.411,145.800 93.600 M250.033 93.343 C 250.125 93.421,250.830 93.601,251.600 93.742 C 252.585 93.923,252.822 93.882,252.400 93.606 C 251.858 93.250,249.637 93.003,250.033 93.343 M141.931 95.500 C 140.152 96.970,139.303 97.960,138.586 99.400 C 138.258 100.060,138.216 100.254,138.494 99.832 C 139.537 98.248,141.841 95.847,143.000 95.138 C 143.660 94.734,143.989 94.402,143.731 94.401 C 143.473 94.401,142.663 94.895,141.931 95.500 M255.000 95.010 C 255.440 95.370,256.070 95.875,256.400 96.133 C 256.730 96.390,257.585 97.281,258.300 98.114 C 259.015 98.947,259.600 99.458,259.600 99.251 C 259.600 98.688,256.264 95.363,255.160 94.824 C 254.229 94.370,254.224 94.376,255.000 95.010 M137.449 101.415 C 137.312 101.773,137.215 102.366,137.234 102.733 C 137.253 103.100,137.427 102.869,137.621 102.220 C 137.998 100.958,137.865 100.333,137.449 101.415 M136.901 105.400 C 136.905 106.280,136.987 106.593,137.083 106.095 C 137.179 105.598,137.175 104.878,137.075 104.495 C 136.975 104.113,136.896 104.520,136.901 105.400 M138.012 110.678 C 138.005 110.940,138.405 111.579,138.900 112.097 C 139.395 112.615,139.600 112.760,139.356 112.420 C 139.112 112.079,138.712 111.440,138.468 111.000 C 138.224 110.560,138.019 110.415,138.012 110.678 M259.600 110.697 C 259.600 111.927,256.187 115.349,253.855 116.456 C 252.505 117.098,251.850 117.505,252.400 117.360 C 255.601 116.519,260.932 111.598,259.832 110.499 C 259.705 110.371,259.600 110.461,259.600 110.697 M151.883 116.345 L 151.602 117.690 148.820 117.533 C 147.290 117.447,146.254 117.514,146.519 117.682 C 148.626 119.021,152.714 117.607,152.308 115.679 C 152.225 115.289,152.045 115.572,151.883 116.345 M246.360 117.722 C 246.538 117.899,247.745 117.986,249.042 117.917 L 251.400 117.790 248.718 117.595 C 247.243 117.488,246.182 117.545,246.360 117.722 M29.300 142.046 C 28.585 142.504,28.000 142.956,28.000 143.050 C 28.000 143.334,30.331 142.036,30.598 141.603 C 30.945 141.041,30.782 141.097,29.300 142.046 M369.800 141.807 C 370.240 142.166,370.960 142.635,371.400 142.851 L 372.200 143.244 371.400 142.593 C 370.960 142.234,370.240 141.765,369.800 141.549 L 369.000 141.156 369.800 141.807 M26.710 144.300 C 26.002 145.108,24.679 147.618,24.871 147.790 C 24.942 147.854,25.570 146.938,26.266 145.753 C 27.609 143.468,27.700 143.171,26.710 144.300 M373.631 145.527 C 374.340 146.667,374.986 147.600,375.068 147.600 C 375.391 147.600,373.618 144.513,373.000 144.000 C 372.639 143.700,372.922 144.387,373.631 145.527 M375.720 152.000 C 375.720 153.210,375.795 153.705,375.887 153.100 C 375.978 152.495,375.978 151.505,375.887 150.900 C 375.795 150.295,375.720 150.790,375.720 152.000 M374.832 156.084 C 374.814 156.461,373.962 157.811,372.938 159.084 C 371.913 160.358,371.545 160.971,372.120 160.447 C 373.667 159.035,375.310 156.516,375.072 155.921 C 374.935 155.579,374.852 155.635,374.832 156.084 M26.955 159.319 C 27.803 160.353,28.580 161.200,28.682 161.200 C 28.955 161.200,26.421 158.060,25.877 157.724 C 25.622 157.566,26.107 158.284,26.955 159.319 M29.200 161.382 C 29.200 161.751,32.356 163.201,33.084 163.166 C 33.566 163.142,33.472 163.032,32.797 162.826 C 32.246 162.659,31.211 162.219,30.497 161.850 C 29.784 161.481,29.200 161.270,29.200 161.382 M367.200 162.800 C 366.376 163.064,366.341 163.126,367.000 163.154 C 367.440 163.173,368.070 163.013,368.400 162.800 C 369.101 162.347,368.614 162.347,367.200 162.800 M64.531 163.500 C 80.994 163.558,107.814 163.558,124.131 163.500 C 140.449 163.442,126.980 163.395,94.200 163.395 C 61.420 163.395,48.069 163.442,64.531 163.500 M157.389 190.200 C 157.389 204.940,157.439 210.912,157.500 203.471 C 157.561 196.030,157.561 183.970,157.500 176.671 C 157.439 169.372,157.389 175.460,157.389 190.200 M242.400 190.395 L 242.400 217.190 228.300 217.295 L 214.200 217.400 214.189 227.300 L 214.179 237.200 214.296 227.405 L 214.414 217.610 228.507 217.505 L 242.600 217.400 242.800 190.500 C 242.910 175.705,242.865 163.600,242.700 163.600 C 242.535 163.600,242.400 175.658,242.400 190.395 M171.693 217.500 L 185.585 217.610 185.700 226.705 L 185.816 235.800 185.908 226.500 L 186.000 217.200 171.900 217.295 L 157.800 217.389 171.693 217.500 M213.078 239.632 C 212.936 240.197,212.344 241.360,211.762 242.218 C 211.179 243.076,211.008 243.525,211.381 243.216 C 212.260 242.486,213.692 239.676,213.491 239.073 C 213.405 238.816,213.219 239.068,213.078 239.632 M188.996 243.660 C 189.505 244.499,189.531 244.764,189.120 244.928 C 188.786 245.062,188.850 245.148,189.300 245.168 C 190.223 245.210,190.184 244.700,189.176 243.544 L 188.353 242.600 188.996 243.660 M208.662 245.580 C 207.596 246.414,205.706 247.426,204.462 247.830 C 201.817 248.688,200.747 249.371,203.034 248.740 C 205.495 248.062,207.799 246.861,209.466 245.389 C 211.501 243.590,211.077 243.691,208.662 245.580 M185.300 245.476 C 185.685 245.576,186.315 245.576,186.700 245.476 C 187.085 245.375,186.770 245.293,186.000 245.293 C 185.230 245.293,184.915 245.375,185.300 245.476 M178.200 246.410 C 177.666 246.647,177.998 246.686,179.200 246.527 C 180.190 246.396,181.075 246.224,181.167 246.144 C 181.514 245.843,178.964 246.072,178.200 246.410 M173.400 247.786 C 171.822 248.508,172.179 248.520,174.400 247.821 C 175.390 247.509,175.840 247.250,175.400 247.245 C 174.960 247.240,174.060 247.483,173.400 247.786 M197.800 250.614 C 196.800 251.096,196.766 251.151,197.600 250.948 C 198.733 250.671,200.007 250.021,199.400 250.030 C 199.180 250.033,198.460 250.296,197.800 250.614 M167.321 252.101 C 166.654 253.035,165.987 254.250,165.839 254.800 C 165.686 255.372,165.921 255.125,166.389 254.223 C 166.838 253.355,167.595 252.231,168.071 251.724 C 168.547 251.218,168.846 250.713,168.736 250.602 C 168.625 250.492,167.989 251.166,167.321 252.101 M193.600 251.830 L 191.400 252.370 193.400 252.147 C 194.500 252.024,195.670 251.767,196.000 251.574 C 196.782 251.118,196.280 251.172,193.600 251.830 M187.000 252.800 C 185.922 253.074,185.902 253.106,186.800 253.113 C 187.350 253.117,188.250 252.976,188.800 252.800 C 190.144 252.369,188.692 252.369,187.000 252.800 M180.661 253.619 C 178.080 254.053,177.729 254.476,180.232 254.137 C 182.577 253.819,184.642 253.262,183.400 253.281 C 182.960 253.288,181.727 253.441,180.661 253.619 M173.765 256.438 C 172.979 257.307,174.005 258.831,175.344 258.784 C 175.595 258.775,175.305 258.499,174.700 258.171 C 173.416 257.475,173.377 257.310,174.262 256.331 C 174.626 255.929,174.834 255.600,174.724 255.600 C 174.614 255.600,174.183 255.977,173.765 256.438 M217.491 258.689 C 218.201 258.777,219.461 258.779,220.291 258.692 C 221.121 258.605,220.540 258.533,219.000 258.531 C 217.460 258.529,216.781 258.600,217.491 258.689 M208.291 259.089 C 209.001 259.177,210.261 259.179,211.091 259.092 C 211.921 259.005,211.340 258.933,209.800 258.931 C 208.260 258.929,207.581 259.000,208.291 259.089 M230.900 259.076 C 231.285 259.176,231.915 259.176,232.300 259.076 C 232.685 258.975,232.370 258.893,231.600 258.893 C 230.830 258.893,230.515 258.975,230.900 259.076 M165.616 259.611 C 165.570 261.406,171.299 266.834,172.243 265.890 C 172.334 265.800,171.677 265.396,170.784 264.993 C 168.988 264.183,166.991 262.124,166.167 260.231 C 165.873 259.554,165.624 259.275,165.616 259.611 M180.400 259.630 C 183.125 259.920,195.855 260.107,195.567 259.853 C 195.475 259.773,191.440 259.628,186.600 259.531 C 181.760 259.434,178.970 259.479,180.400 259.630 M198.313 259.495 C 199.476 259.576,201.276 259.576,202.313 259.493 C 203.351 259.411,202.400 259.345,200.200 259.346 C 198.000 259.347,197.151 259.414,198.313 259.495 M240.979 260.997 C 242.288 261.535,243.418 261.915,243.491 261.842 C 243.684 261.650,239.750 259.998,239.126 260.009 C 238.837 260.015,239.671 260.459,240.979 260.997 M247.381 264.738 C 248.251 265.652,249.024 266.400,249.100 266.400 C 249.436 266.400,247.747 264.484,246.823 263.816 C 246.220 263.380,246.449 263.759,247.381 264.738 M219.100 266.297 C 220.695 266.373,223.305 266.373,224.900 266.297 C 226.495 266.221,225.190 266.159,222.000 266.159 C 218.810 266.159,217.505 266.221,219.100 266.297 M207.300 266.694 C 208.345 266.776,210.055 266.776,211.100 266.694 C 212.145 266.612,211.290 266.544,209.200 266.544 C 207.110 266.544,206.255 266.612,207.300 266.694 M230.505 266.687 C 231.114 266.779,232.014 266.777,232.505 266.682 C 232.997 266.587,232.500 266.511,231.400 266.514 C 230.300 266.517,229.897 266.595,230.505 266.687 M200.100 267.091 C 200.925 267.178,202.275 267.178,203.100 267.091 C 203.925 267.005,203.250 266.934,201.600 266.934 C 199.950 266.934,199.275 267.005,200.100 267.091 M183.919 267.498 C 185.744 267.572,188.624 267.572,190.319 267.497 C 192.014 267.422,190.520 267.361,187.000 267.362 C 183.480 267.362,182.094 267.424,183.919 267.498 M238.795 268.213 C 242.757 270.064,243.875 272.011,242.653 274.935 C 242.316 275.741,242.131 276.400,242.241 276.400 C 242.777 276.400,243.641 273.346,243.427 272.205 C 243.068 270.292,240.493 268.188,237.600 267.444 C 237.050 267.303,237.588 267.649,238.795 268.213 M250.258 269.600 C 250.575 271.325,250.802 271.651,250.794 270.367 C 250.791 269.835,250.611 269.130,250.394 268.800 C 250.118 268.378,250.077 268.615,250.258 269.600 M250.914 273.400 C 250.917 274.500,250.995 274.903,251.087 274.295 C 251.179 273.686,251.177 272.786,251.082 272.295 C 250.987 271.803,250.911 272.300,250.914 273.400 M250.446 276.067 C 250.421 276.434,250.296 277.064,250.170 277.467 C 249.952 278.162,249.963 278.163,250.397 277.487 C 250.648 277.096,250.773 276.466,250.673 276.087 C 250.511 275.468,250.488 275.466,250.446 276.067 M238.800 278.400 C 237.590 279.039,236.741 279.571,236.913 279.581 C 237.338 279.607,241.200 277.636,241.200 277.393 C 241.200 277.126,241.255 277.103,238.800 278.400 M234.200 280.000 C 233.181 280.438,234.232 280.438,235.600 280.000 C 236.404 279.743,236.443 279.677,235.800 279.668 C 235.360 279.662,234.640 279.811,234.200 280.000 M229.600 280.800 C 228.808 281.054,228.767 281.120,229.400 281.120 C 229.840 281.120,230.650 280.976,231.200 280.800 C 231.992 280.546,232.033 280.480,231.400 280.480 C 230.960 280.480,230.150 280.624,229.600 280.800 M246.589 282.635 C 244.820 284.267,244.781 284.335,246.238 283.250 C 247.765 282.114,249.105 280.800,248.738 280.800 C 248.650 280.800,247.683 281.626,246.589 282.635 M225.500 281.482 C 225.995 281.578,226.805 281.578,227.300 281.482 C 227.795 281.387,227.390 281.309,226.400 281.309 C 225.410 281.309,225.005 281.387,225.500 281.482 M222.305 281.883 C 222.802 281.979,223.522 281.975,223.905 281.875 C 224.287 281.775,223.880 281.696,223.000 281.701 C 222.120 281.705,221.807 281.787,222.305 281.883 M217.907 282.290 C 218.626 282.379,219.706 282.377,220.307 282.286 C 220.908 282.195,220.320 282.122,219.000 282.124 C 217.680 282.126,217.188 282.201,217.907 282.290 M213.900 282.682 C 214.395 282.778,215.205 282.778,215.700 282.682 C 216.195 282.587,215.790 282.509,214.800 282.509 C 213.810 282.509,213.405 282.587,213.900 282.682 M207.000 283.197 C 206.339 283.364,207.328 283.408,209.200 283.294 C 211.070 283.181,212.675 283.024,212.767 282.944 C 213.074 282.678,208.214 282.891,207.000 283.197 M201.400 284.000 C 200.330 284.272,200.308 284.305,201.200 284.305 C 201.750 284.305,202.740 284.168,203.400 284.000 C 204.470 283.728,204.492 283.695,203.600 283.695 C 203.050 283.695,202.060 283.832,201.400 284.000 M242.000 285.400 C 241.010 285.930,240.380 286.364,240.600 286.364 C 240.820 286.364,241.810 285.930,242.800 285.400 C 243.790 284.870,244.420 284.436,244.200 284.436 C 243.980 284.436,242.990 284.870,242.000 285.400 M195.400 285.200 C 194.896 285.417,194.822 285.544,195.200 285.544 C 195.530 285.544,196.160 285.389,196.600 285.200 C 197.104 284.983,197.178 284.856,196.800 284.856 C 196.470 284.856,195.840 285.011,195.400 285.200 M192.800 286.200 C 192.250 286.514,191.980 286.772,192.200 286.772 C 192.420 286.772,193.050 286.514,193.600 286.200 C 194.150 285.886,194.420 285.628,194.200 285.628 C 193.980 285.628,193.350 285.886,192.800 286.200 M186.743 289.892 C 184.706 291.797,182.771 294.964,182.834 296.287 C 182.857 296.765,182.969 296.671,183.174 296.000 C 183.860 293.753,185.273 291.609,187.223 289.855 C 188.358 288.835,189.169 288.000,189.026 288.000 C 188.883 288.000,187.855 288.851,186.743 289.892 M223.200 289.222 C 222.082 289.409,222.764 289.444,225.000 289.314 C 226.980 289.198,228.675 289.035,228.767 288.952 C 229.037 288.706,225.154 288.894,223.200 289.222 M213.200 290.200 C 210.890 290.467,209.810 290.694,210.800 290.705 C 211.790 290.716,214.490 290.497,216.800 290.218 C 219.110 289.940,220.190 289.712,219.200 289.713 C 218.210 289.714,215.510 289.933,213.200 290.200 M204.600 291.200 L 203.000 291.486 204.400 291.503 C 205.170 291.513,206.250 291.376,206.800 291.200 C 208.085 290.788,206.899 290.788,204.600 291.200 M195.400 293.414 C 194.400 293.896,194.366 293.951,195.200 293.748 C 196.333 293.471,197.607 292.821,197.000 292.830 C 196.780 292.833,196.060 293.096,195.400 293.414 M191.953 295.553 C 191.099 296.407,190.401 297.352,190.401 297.653 C 190.402 297.954,190.741 297.645,191.155 296.968 C 191.568 296.290,192.422 295.350,193.053 294.880 C 193.684 294.410,194.044 294.020,193.853 294.013 C 193.662 294.006,192.807 294.699,191.953 295.553 M205.280 298.698 C 207.194 298.771,210.434 298.771,212.480 298.698 C 214.526 298.626,212.960 298.566,209.000 298.565 C 205.040 298.565,203.366 298.624,205.280 298.698 M198.100 299.087 C 198.705 299.178,199.695 299.178,200.300 299.087 C 200.905 298.995,200.410 298.920,199.200 298.920 C 197.990 298.920,197.495 298.995,198.100 299.087 M217.507 299.090 C 218.226 299.179,219.306 299.177,219.907 299.086 C 220.508 298.995,219.920 298.922,218.600 298.924 C 217.280 298.926,216.788 299.001,217.507 299.090 M192.700 299.489 C 193.415 299.578,194.585 299.578,195.300 299.489 C 196.015 299.401,195.430 299.328,194.000 299.328 C 192.570 299.328,191.985 299.401,192.700 299.489 M222.900 299.487 C 223.505 299.578,224.495 299.578,225.100 299.487 C 225.705 299.395,225.210 299.320,224.000 299.320 C 222.790 299.320,222.295 299.395,222.900 299.487 M227.600 299.972 C 229.940 300.527,232.249 300.793,231.600 300.431 C 231.270 300.248,229.920 299.994,228.600 299.868 C 226.880 299.704,226.597 299.733,227.600 299.972 M146.912 301.495 C 147.964 301.577,149.584 301.576,150.512 301.492 C 151.440 301.408,150.580 301.341,148.600 301.342 C 146.620 301.343,145.860 301.412,146.912 301.495 M237.200 302.200 C 239.026 302.903,239.745 302.893,238.200 302.186 C 237.540 301.883,236.730 301.642,236.400 301.648 C 236.070 301.655,236.430 301.903,237.200 302.200 M136.200 302.419 C 135.642 302.671,135.885 302.707,137.000 302.538 C 137.880 302.404,138.675 302.228,138.767 302.147 C 139.110 301.844,136.968 302.071,136.200 302.419 M158.000 302.400 C 159.368 302.838,160.419 302.838,159.400 302.400 C 158.960 302.211,158.240 302.062,157.800 302.068 C 157.157 302.077,157.196 302.143,158.000 302.400 M132.456 303.259 C 131.717 303.472,131.190 303.723,131.285 303.818 C 131.380 303.913,132.254 303.740,133.229 303.435 C 135.218 302.811,134.545 302.658,132.456 303.259 M160.400 302.884 C 160.510 302.993,161.226 303.293,161.991 303.551 C 162.756 303.810,163.206 303.850,162.991 303.639 C 162.776 303.429,162.060 303.129,161.400 302.972 C 160.740 302.816,160.290 302.776,160.400 302.884 M239.600 302.934 C 239.600 303.037,240.181 303.324,240.891 303.572 C 241.601 303.819,242.006 303.857,241.791 303.656 C 241.335 303.229,239.600 302.658,239.600 302.934 M242.433 304.151 C 242.842 304.521,246.000 305.995,246.000 305.816 C 246.000 305.589,242.981 304.000,242.549 304.000 C 242.394 304.000,242.342 304.068,242.433 304.151 M166.200 305.271 C 166.640 305.517,167.855 306.337,168.900 307.093 C 169.945 307.849,170.800 308.373,170.800 308.256 C 170.800 307.913,166.311 304.799,165.835 304.812 C 165.596 304.819,165.760 305.025,166.200 305.271 M123.700 306.796 C 122.985 307.232,122.400 307.675,122.400 307.781 C 122.400 307.886,123.030 307.601,123.800 307.147 C 124.570 306.693,125.200 306.249,125.200 306.160 C 125.200 305.905,125.074 305.958,123.700 306.796 M121.269 308.349 C 120.844 308.618,120.829 309.024,121.195 310.383 C 121.447 311.317,121.728 312.006,121.819 311.914 C 121.911 311.822,121.813 311.143,121.601 310.405 C 121.337 309.482,121.354 308.896,121.657 308.531 C 122.161 307.924,122.034 307.864,121.269 308.349 M252.574 310.693 C 253.440 311.624,254.235 312.299,254.341 312.193 C 254.447 312.087,254.456 311.955,254.362 311.900 C 254.268 311.845,253.473 311.170,252.596 310.401 L 251.000 309.001 252.574 310.693 M173.199 311.001 C 173.968 311.880,174.755 312.780,174.948 313.000 C 175.140 313.220,175.111 313.040,174.883 312.600 C 174.655 312.160,173.868 311.260,173.134 310.601 L 171.800 309.402 173.199 311.001 M255.449 313.226 C 256.669 314.893,259.750 318.270,259.258 317.400 C 259.009 316.960,257.881 315.610,256.752 314.400 C 255.623 313.190,255.037 312.662,255.449 313.226 M191.673 313.099 C 196.004 313.164,203.204 313.164,207.673 313.100 C 212.143 313.035,208.600 312.982,199.800 312.982 C 191.000 312.982,187.343 313.035,191.673 313.099 M220.400 313.600 C 220.950 313.776,221.760 313.920,222.200 313.920 C 222.833 313.920,222.792 313.854,222.000 313.600 C 221.450 313.424,220.640 313.280,220.200 313.280 C 219.567 313.280,219.608 313.346,220.400 313.600 M225.400 314.800 C 225.840 314.989,226.560 315.138,227.000 315.132 C 227.643 315.123,227.604 315.057,226.800 314.800 C 225.432 314.362,224.381 314.362,225.400 314.800 M141.505 316.283 C 142.002 316.379,142.722 316.375,143.105 316.275 C 143.487 316.175,143.080 316.096,142.200 316.101 C 141.320 316.105,141.007 316.187,141.505 316.283 M146.900 316.276 C 147.285 316.376,147.915 316.376,148.300 316.276 C 148.685 316.175,148.370 316.093,147.600 316.093 C 146.830 316.093,146.515 316.175,146.900 316.276 M123.256 316.800 C 123.256 317.130,123.411 317.760,123.600 318.200 C 123.817 318.704,123.944 318.778,123.944 318.400 C 123.944 318.070,123.789 317.440,123.600 317.000 C 123.383 316.496,123.256 316.422,123.256 316.800 M137.000 316.800 C 136.496 317.017,136.422 317.144,136.800 317.144 C 137.130 317.144,137.760 316.989,138.200 316.800 C 138.704 316.583,138.778 316.456,138.400 316.456 C 138.070 316.456,137.440 316.611,137.000 316.800 M232.600 317.465 C 233.700 318.030,234.957 318.787,235.393 319.146 C 236.144 319.765,236.156 319.761,235.618 319.069 C 235.069 318.362,231.551 316.381,230.913 316.419 C 230.741 316.429,231.500 316.900,232.600 317.465 M152.433 317.321 C 152.525 317.388,153.140 317.758,153.800 318.145 L 155.000 318.847 154.056 318.024 C 153.536 317.571,152.921 317.200,152.689 317.200 C 152.457 317.200,152.342 317.254,152.433 317.321 M177.436 319.000 C 177.572 319.440,177.822 320.700,177.992 321.800 C 178.294 323.758,178.301 323.766,178.332 322.200 C 178.350 321.320,178.099 320.060,177.776 319.400 C 177.453 318.740,177.299 318.560,177.436 319.000 M259.949 319.000 C 260.165 319.440,260.634 320.160,260.993 320.600 L 261.644 321.400 261.251 320.600 C 261.035 320.160,260.566 319.440,260.207 319.000 L 259.556 318.200 259.949 319.000 M124.247 320.000 C 124.713 321.952,125.273 322.126,127.348 320.967 C 128.389 320.385,129.159 319.826,129.059 319.725 C 128.958 319.625,128.142 320.005,127.246 320.571 C 125.219 321.850,125.322 321.861,124.605 320.300 C 124.175 319.363,124.075 319.279,124.247 320.000 M239.200 322.200 C 239.946 322.970,240.647 323.600,240.757 323.600 C 240.867 323.600,240.346 322.970,239.600 322.200 C 238.854 321.430,238.153 320.800,238.043 320.800 C 237.933 320.800,238.454 321.430,239.200 322.200 M262.910 324.391 C 263.373 325.486,263.822 326.311,263.909 326.224 C 264.098 326.035,262.527 322.400,262.257 322.400 C 262.153 322.400,262.447 323.296,262.910 324.391 M242.500 326.231 C 242.885 326.689,243.200 327.263,243.200 327.508 C 243.200 327.753,243.363 328.054,243.563 328.177 C 244.286 328.624,243.498 326.833,242.660 326.126 C 241.808 325.406,241.806 325.407,242.500 326.231 M178.054 327.464 C 178.025 328.160,177.659 329.823,177.243 331.161 C 176.826 332.500,176.626 333.508,176.797 333.402 C 177.321 333.078,178.488 328.220,178.293 327.179 C 178.138 326.353,178.100 326.397,178.054 327.464 M265.054 329.800 C 265.474 331.703,266.048 332.846,265.756 331.200 C 265.620 330.430,265.346 329.530,265.149 329.200 C 264.914 328.808,264.881 329.016,265.054 329.800 M158.930 330.671 C 158.671 331.508,158.531 332.264,158.618 332.352 C 158.871 332.604,159.645 330.323,159.516 329.706 C 159.452 329.400,159.188 329.834,158.930 330.671 M200.896 356.651 C 200.815 379.735,200.887 383.974,201.366 384.372 C 202.176 385.044,209.449 385.314,214.600 384.862 C 218.803 384.494,218.696 384.484,212.200 384.655 C 208.460 384.753,204.500 384.688,203.400 384.512 L 201.400 384.190 201.196 356.795 L 200.992 329.400 200.896 356.651 M246.033 333.600 C 246.021 333.930,246.267 335.010,246.579 336.000 C 246.891 336.990,247.156 337.530,247.167 337.200 C 247.179 336.870,246.933 335.790,246.621 334.800 C 246.309 333.810,246.044 333.270,246.033 333.600 M156.000 335.479 C 154.747 336.779,154.537 337.125,155.310 336.620 C 156.234 336.017,158.345 333.585,157.927 333.607 C 157.857 333.610,156.990 334.453,156.000 335.479 M266.493 335.600 C 266.493 336.370,266.575 336.685,266.676 336.300 C 266.776 335.915,266.776 335.285,266.676 334.900 C 266.575 334.515,266.493 334.830,266.493 335.600 M173.722 338.148 C 173.044 339.110,171.380 340.820,170.024 341.948 C 168.668 343.077,167.726 344.000,167.931 344.000 C 168.543 344.000,173.744 338.986,174.523 337.645 C 175.560 335.859,175.158 336.111,173.722 338.148 M152.300 338.027 C 151.475 338.463,150.800 338.908,150.800 339.018 C 150.800 339.127,151.520 338.849,152.400 338.400 C 153.280 337.951,154.000 337.497,154.000 337.392 C 154.000 337.130,153.997 337.131,152.300 338.027 M247.481 340.600 C 247.722 344.258,247.936 344.816,247.940 341.800 C 247.942 340.480,247.798 339.040,247.620 338.600 C 247.432 338.135,247.374 338.973,247.481 340.600 M148.600 339.600 C 148.096 339.817,148.022 339.944,148.400 339.944 C 148.730 339.944,149.360 339.789,149.800 339.600 C 150.304 339.383,150.378 339.256,150.000 339.256 C 149.670 339.256,149.040 339.411,148.600 339.600 M133.067 340.667 C 132.920 340.813,132.803 341.128,132.806 341.367 C 132.810 341.633,132.932 341.612,133.122 341.312 C 133.334 340.979,135.137 340.785,138.816 340.700 L 144.200 340.575 138.767 340.487 C 135.778 340.439,133.213 340.520,133.067 340.667 M267.353 346.600 C 267.353 349.240,267.418 350.268,267.497 348.884 C 267.575 347.501,267.574 345.341,267.495 344.084 C 267.416 342.828,267.352 343.960,267.353 346.600 M164.800 345.200 C 163.590 345.839,162.741 346.371,162.913 346.381 C 163.338 346.407,167.200 344.436,167.200 344.193 C 167.200 343.926,167.255 343.903,164.800 345.200 M248.128 347.200 C 248.128 348.630,248.201 349.215,248.289 348.500 C 248.378 347.785,248.378 346.615,248.289 345.900 C 248.201 345.185,248.128 345.770,248.128 347.200 M166.433 348.951 C 166.842 349.321,170.000 350.795,170.000 350.616 C 170.000 350.389,166.981 348.800,166.549 348.800 C 166.394 348.800,166.342 348.868,166.433 348.951 M247.734 353.200 C 247.734 354.850,247.805 355.525,247.891 354.700 C 247.978 353.875,247.978 352.525,247.891 351.700 C 247.805 350.875,247.734 351.550,247.734 353.200 M172.400 352.125 C 172.400 352.194,172.985 352.779,173.700 353.425 L 175.000 354.600 173.825 353.300 C 172.730 352.088,172.400 351.816,172.400 352.125 M133.336 354.494 C 133.591 354.656,136.500 354.759,139.800 354.724 C 146.310 354.655,145.448 354.481,137.736 354.309 C 135.061 354.249,133.081 354.332,133.336 354.494 M266.615 356.615 C 266.461 357.854,266.417 358.950,266.519 359.052 C 266.620 359.154,266.830 358.223,266.985 356.985 C 267.139 355.746,267.183 354.650,267.081 354.548 C 266.980 354.446,266.770 355.377,266.615 356.615 M176.624 356.600 C 178.492 359.070,179.022 359.640,178.484 358.600 C 178.256 358.160,177.404 357.080,176.591 356.200 L 175.112 354.600 176.624 356.600 M152.400 356.600 C 152.950 356.914,153.580 357.172,153.800 357.172 C 154.020 357.172,153.750 356.914,153.200 356.600 C 152.650 356.286,152.020 356.028,151.800 356.028 C 151.580 356.028,151.850 356.286,152.400 356.600 M246.467 359.467 C 246.196 360.479,246.045 361.379,246.132 361.465 C 246.219 361.552,246.519 360.803,246.800 359.800 C 247.081 358.797,247.231 357.898,247.135 357.801 C 247.038 357.705,246.737 358.454,246.467 359.467 M157.600 359.330 C 157.600 359.718,159.235 361.299,159.432 361.102 C 159.523 361.011,159.148 360.514,158.598 359.999 C 158.049 359.483,157.600 359.182,157.600 359.330 M160.525 363.168 C 161.000 364.035,161.450 364.684,161.524 364.609 C 161.718 364.416,160.477 362.095,160.034 361.821 C 159.829 361.694,160.050 362.300,160.525 363.168 M265.450 362.850 C 265.309 363.553,265.269 364.202,265.359 364.292 C 265.450 364.383,265.648 363.891,265.800 363.200 C 265.952 362.509,265.993 361.859,265.891 361.758 C 265.789 361.656,265.591 362.147,265.450 362.850 M180.450 363.400 C 180.431 363.620,180.666 364.700,180.972 365.800 C 181.278 366.900,181.531 367.440,181.533 367.000 C 181.539 366.148,180.508 362.723,180.450 363.400 M264.444 366.044 C 264.198 366.751,264.066 367.400,264.152 367.485 C 264.238 367.571,264.509 367.062,264.756 366.356 C 265.002 365.649,265.134 365.000,265.048 364.915 C 264.962 364.829,264.691 365.338,264.444 366.044 M161.858 366.400 C 162.175 368.125,162.402 368.451,162.394 367.167 C 162.391 366.635,162.211 365.930,161.994 365.600 C 161.718 365.178,161.677 365.415,161.858 366.400 M243.297 368.310 C 242.580 369.529,242.065 370.599,242.154 370.687 C 242.242 370.775,242.893 369.836,243.600 368.600 C 244.307 367.364,244.822 366.294,244.743 366.223 C 244.664 366.152,244.013 367.091,243.297 368.310 M162.528 370.800 C 162.528 372.230,162.601 372.815,162.689 372.100 C 162.778 371.385,162.778 370.215,162.689 369.500 C 162.601 368.785,162.528 369.370,162.528 370.800 M181.714 371.000 C 181.717 372.100,181.795 372.503,181.887 371.895 C 181.979 371.286,181.977 370.386,181.882 369.895 C 181.787 369.403,181.711 369.900,181.714 371.000 M261.096 374.135 C 260.269 375.711,259.878 376.640,260.228 376.200 C 261.002 375.226,262.903 371.570,262.727 371.395 C 262.657 371.326,261.923 372.559,261.096 374.135 M239.375 374.100 L 238.200 375.400 239.500 374.225 C 240.215 373.579,240.800 372.994,240.800 372.925 C 240.800 372.616,240.470 372.888,239.375 374.100 M236.000 377.249 C 234.919 378.226,234.679 378.558,235.400 378.081 C 236.506 377.349,238.337 375.584,237.962 375.612 C 237.873 375.619,236.990 376.355,236.000 377.249 M160.985 376.849 C 160.826 377.349,159.780 378.757,158.661 379.979 L 156.625 382.200 158.545 380.400 C 160.403 378.657,161.861 376.528,161.466 376.133 C 161.360 376.027,161.143 376.349,160.985 376.849 M180.044 379.644 C 179.798 380.351,179.666 381.000,179.752 381.085 C 179.838 381.171,180.109 380.662,180.356 379.956 C 180.602 379.249,180.734 378.600,180.648 378.515 C 180.562 378.429,180.291 378.938,180.044 379.644 M231.100 380.225 C 229.615 380.987,228.400 381.701,228.400 381.811 C 228.400 381.920,229.660 381.376,231.200 380.600 C 232.740 379.824,234.000 379.102,234.000 378.995 C 234.000 378.727,234.112 378.679,231.100 380.225 M257.798 379.359 C 257.579 379.666,256.983 380.476,256.473 381.159 C 255.102 382.994,255.609 382.665,257.335 380.600 C 258.163 379.610,258.695 378.800,258.518 378.800 C 258.341 378.800,258.017 379.051,257.798 379.359 M121.611 380.187 C 121.343 380.509,121.217 381.004,121.331 381.287 C 121.464 381.619,121.548 381.561,121.568 381.124 C 121.614 380.157,122.243 379.895,123.292 380.404 C 124.162 380.826,124.168 380.818,123.424 380.222 C 122.462 379.452,122.225 379.447,121.611 380.187 M125.200 381.400 C 125.750 381.714,126.380 381.972,126.600 381.972 C 126.820 381.972,126.550 381.714,126.000 381.400 C 125.450 381.086,124.820 380.828,124.600 380.828 C 124.380 380.828,124.650 381.086,125.200 381.400 M120.446 383.239 C 120.201 383.943,120.013 384.718,120.028 384.960 C 120.044 385.202,120.314 384.696,120.630 383.835 C 120.945 382.974,121.133 382.200,121.048 382.115 C 120.962 382.029,120.692 382.535,120.446 383.239 M130.600 383.414 C 131.260 383.717,132.160 383.960,132.600 383.955 C 133.040 383.950,132.590 383.691,131.600 383.379 C 129.379 382.680,129.022 382.692,130.600 383.414 M253.999 383.802 C 253.483 384.351,253.232 384.800,253.441 384.800 C 253.888 384.800,255.332 383.199,255.097 382.964 C 255.009 382.875,254.514 383.252,253.999 383.802 M221.600 383.600 C 220.796 383.857,220.757 383.923,221.400 383.932 C 221.840 383.938,222.560 383.789,223.000 383.600 C 224.019 383.162,222.968 383.162,221.600 383.600 M177.452 385.265 C 176.853 386.180,176.653 386.688,177.008 386.394 C 177.612 385.892,178.985 383.600,178.681 383.600 C 178.605 383.600,178.052 384.349,177.452 385.265 M135.600 384.800 C 136.150 384.976,136.960 385.126,137.400 385.132 L 138.200 385.144 137.400 384.800 C 136.960 384.611,136.150 384.462,135.600 384.468 L 134.600 384.480 135.600 384.800 M149.200 384.818 C 148.762 385.115,148.924 385.152,149.800 384.956 C 151.271 384.627,151.590 384.398,150.567 384.406 C 150.145 384.409,149.530 384.595,149.200 384.818 M142.311 385.493 C 143.251 385.578,144.691 385.577,145.511 385.491 C 146.330 385.405,145.560 385.336,143.800 385.337 C 142.040 385.339,141.370 385.409,142.311 385.493 M250.000 387.634 L 248.200 389.265 250.100 387.784 C 251.766 386.486,252.259 385.997,251.900 386.001 C 251.845 386.002,250.990 386.736,250.000 387.634 M119.246 387.267 C 119.221 387.634,119.096 388.264,118.970 388.667 C 118.752 389.362,118.763 389.363,119.197 388.687 C 119.448 388.296,119.573 387.666,119.473 387.287 C 119.311 386.668,119.288 386.666,119.246 387.267 M173.589 390.100 C 172.825 390.815,171.670 391.805,171.022 392.300 C 170.375 392.795,170.030 393.200,170.258 393.200 C 170.679 393.200,175.573 388.851,175.189 388.818 C 175.073 388.808,174.353 389.385,173.589 390.100 M246.500 390.046 C 245.137 390.919,244.695 391.506,245.900 390.843 C 246.818 390.339,248.256 389.227,248.000 389.219 C 247.890 389.216,247.215 389.588,246.500 390.046 M242.800 392.200 C 241.810 392.730,241.142 393.172,241.316 393.182 C 241.741 393.206,244.800 391.634,244.800 391.392 C 244.800 391.127,244.817 391.120,242.800 392.200 M117.706 393.000 C 117.798 393.744,121.956 396.391,123.000 396.369 C 123.220 396.365,122.241 395.765,120.825 395.037 C 119.409 394.309,118.105 393.372,117.928 392.956 C 117.625 392.242,117.612 392.245,117.706 393.000 M168.979 393.581 C 168.770 393.790,167.609 394.507,166.399 395.173 C 165.190 395.840,164.380 396.387,164.600 396.389 C 165.150 396.394,169.083 394.113,169.395 393.608 C 169.712 393.095,169.481 393.079,168.979 393.581 M182.493 395.200 C 182.493 395.970,182.575 396.285,182.676 395.900 C 182.776 395.515,182.776 394.885,182.676 394.500 C 182.575 394.115,182.493 394.430,182.493 395.200 M235.000 395.442 C 233.680 395.985,233.072 396.334,233.649 396.219 C 234.825 395.985,238.424 394.457,237.800 394.456 C 237.580 394.456,236.320 394.900,235.000 395.442 M228.600 397.200 C 227.581 397.638,228.632 397.638,230.000 397.200 C 230.804 396.943,230.843 396.877,230.200 396.868 C 229.760 396.862,229.040 397.011,228.600 397.200 M127.852 397.983 C 128.236 398.336,131.528 399.001,131.189 398.658 C 131.072 398.540,130.196 398.268,129.240 398.054 C 128.285 397.839,127.660 397.807,127.852 397.983 M158.880 397.995 C 158.154 398.167,157.447 398.420,157.309 398.558 C 156.971 398.896,159.644 398.376,160.400 397.957 C 161.116 397.560,160.668 397.571,158.880 397.995 M224.400 398.000 C 223.033 398.288,223.028 398.295,224.200 398.319 C 224.860 398.333,225.760 398.189,226.200 398.000 C 227.162 397.587,226.364 397.587,224.400 398.000 M132.800 399.200 C 133.350 399.376,134.160 399.520,134.600 399.520 C 135.233 399.520,135.192 399.454,134.400 399.200 C 133.850 399.024,133.040 398.880,132.600 398.880 C 131.967 398.880,132.008 398.946,132.800 399.200 M154.200 399.200 C 153.181 399.638,154.232 399.638,155.600 399.200 C 156.404 398.943,156.443 398.877,155.800 398.868 C 155.360 398.862,154.640 399.011,154.200 399.200 M190.400 399.229 C 192.657 399.529,202.266 399.716,201.967 399.454 C 201.875 399.374,198.740 399.225,195.000 399.123 C 191.260 399.020,189.190 399.068,190.400 399.229 M214.800 399.200 L 212.200 399.462 214.400 399.491 C 215.610 399.508,217.590 399.384,218.800 399.217 C 221.748 398.809,218.801 398.797,214.800 399.200 M151.300 399.876 C 151.685 399.976,152.315 399.976,152.700 399.876 C 153.085 399.775,152.770 399.693,152.000 399.693 C 151.230 399.693,150.915 399.775,151.300 399.876 M205.900 399.889 C 206.615 399.978,207.785 399.978,208.500 399.889 C 209.215 399.801,208.630 399.728,207.200 399.728 C 205.770 399.728,205.185 399.801,205.900 399.889 " stroke="none" fill="#9a9a9a" fill-rule="evenodd"></path><path id="path4" d="M328.531 10.200 C 328.533 11.740,328.605 12.321,328.692 11.491 C 328.779 10.661,328.777 9.401,328.689 8.691 C 328.600 7.981,328.529 8.660,328.531 10.200 M248.307 38.290 C 249.026 38.379,250.106 38.377,250.707 38.286 C 251.308 38.195,250.720 38.122,249.400 38.124 C 248.080 38.126,247.588 38.201,248.307 38.290 M273.911 47.093 C 274.851 47.178,276.291 47.177,277.111 47.091 C 277.930 47.005,277.160 46.936,275.400 46.937 C 273.640 46.939,272.970 47.009,273.911 47.093 M289.905 47.083 C 290.402 47.179,291.122 47.175,291.505 47.075 C 291.887 46.975,291.480 46.896,290.600 46.901 C 289.720 46.905,289.407 46.987,289.905 47.083 M203.905 83.883 C 204.402 83.979,205.122 83.975,205.505 83.875 C 205.887 83.775,205.480 83.696,204.600 83.701 C 203.720 83.705,203.407 83.787,203.905 83.883 M151.777 105.400 C 151.777 111.780,151.832 114.334,151.899 111.076 C 151.967 107.817,151.966 102.597,151.899 99.476 C 151.831 96.354,151.776 99.020,151.777 105.400 M246.175 106.400 C 246.175 112.450,246.231 114.925,246.299 111.900 C 246.367 108.875,246.367 103.925,246.299 100.900 C 246.231 97.875,246.175 100.350,246.175 106.400 M273.300 163.500 C 289.965 163.558,317.235 163.558,333.900 163.500 C 350.565 163.442,336.930 163.395,303.600 163.395 C 270.270 163.395,256.635 163.442,273.300 163.500 M214.500 266.276 C 214.885 266.376,215.515 266.376,215.900 266.276 C 216.285 266.175,215.970 266.093,215.200 266.093 C 214.430 266.093,214.115 266.175,214.500 266.276 M201.900 299.082 C 202.395 299.178,203.205 299.178,203.700 299.082 C 204.195 298.987,203.790 298.909,202.800 298.909 C 201.810 298.909,201.405 298.987,201.900 299.082 M184.711 312.693 C 185.651 312.778,187.091 312.777,187.911 312.691 C 188.730 312.605,187.960 312.536,186.200 312.537 C 184.440 312.539,183.770 312.609,184.711 312.693 M135.113 341.095 C 136.276 341.176,138.076 341.176,139.113 341.093 C 140.151 341.011,139.200 340.945,137.000 340.946 C 134.800 340.947,133.951 341.014,135.113 341.095 M135.500 354.295 C 136.655 354.376,138.545 354.376,139.700 354.295 C 140.855 354.214,139.910 354.148,137.600 354.148 C 135.290 354.148,134.345 354.214,135.500 354.295 M202.700 399.482 C 203.195 399.578,204.005 399.578,204.500 399.482 C 204.995 399.387,204.590 399.309,203.600 399.309 C 202.610 399.309,202.205 399.387,202.700 399.482 M209.900 399.482 C 210.395 399.578,211.205 399.578,211.700 399.482 C 212.195 399.387,211.790 399.309,210.800 399.309 C 209.810 399.309,209.405 399.387,209.900 399.482 " stroke="none" fill="#7c7c7c" fill-rule="evenodd"></path></g></svg>