<svg id="svg" version="1.1" width="400" height="400" viewBox="0 0 400 400" xmlns="http://www.w3.org/2000/svg" xmlns:xlink="http://www.w3.org/1999/xlink" ><g id="svgg"><path id="path0" d="M242.173 84.170 C 241.961 84.407,240.894 85.860,239.803 87.400 C 238.712 88.940,237.601 90.470,237.335 90.800 C 236.291 92.097,234.101 95.098,232.811 97.000 C 230.795 99.973,232.270 99.800,209.000 99.800 C 197.340 99.800,184.740 99.961,180.999 100.159 C 172.276 100.619,171.109 100.115,167.191 94.200 C 165.296 91.339,159.547 84.000,159.200 84.000 C 159.039 84.000,158.431 84.375,157.848 84.834 L 156.787 85.668 157.891 87.734 C 158.497 88.870,159.100 89.890,159.229 90.000 C 159.358 90.110,160.499 92.000,161.765 94.200 C 163.031 96.400,164.789 99.420,165.672 100.911 C 167.297 103.653,167.396 104.605,166.109 105.080 C 164.666 105.613,157.118 110.891,153.710 113.751 C 148.948 117.747,146.148 120.838,142.803 125.796 C 138.345 132.401,134.800 142.596,134.800 148.807 L 134.800 151.202 200.900 151.101 L 267.000 151.000 266.883 147.800 C 266.406 134.805,259.649 122.683,247.400 112.851 C 245.860 111.615,244.510 110.511,244.400 110.397 C 243.777 109.756,237.999 106.000,237.635 106.000 C 237.396 106.000,237.200 105.841,237.200 105.647 C 237.200 105.452,236.841 105.199,236.402 105.085 C 235.409 104.825,234.944 103.704,235.473 102.847 C 235.844 102.247,237.635 99.011,239.152 96.200 C 239.509 95.540,239.890 94.910,240.000 94.800 C 240.110 94.690,240.717 93.610,241.349 92.400 C 243.136 88.981,244.447 86.646,244.876 86.118 C 245.625 85.197,242.969 83.283,242.173 84.170 M173.409 119.600 C 173.824 119.600,181.161 124.257,181.950 125.022 C 182.033 125.102,181.583 125.606,180.950 126.143 C 180.318 126.680,179.260 127.599,178.600 128.186 C 173.744 132.503,171.738 132.803,168.717 129.669 C 166.872 127.755,166.677 127.379,166.701 125.788 C 166.745 122.833,170.408 118.679,172.333 119.400 C 172.626 119.510,173.110 119.600,173.409 119.600 M231.800 120.521 C 236.718 123.831,237.213 125.771,234.128 129.642 C 229.247 135.768,229.618 135.650,227.000 131.905 C 223.323 126.645,223.009 125.463,224.635 122.980 C 226.934 119.468,229.120 118.718,231.800 120.521 M288.000 161.771 C 284.710 162.684,281.470 165.034,280.100 167.500 C 277.129 172.847,277.200 171.904,277.200 206.157 C 277.200 241.761,277.239 242.142,281.366 246.710 C 284.323 249.982,292.429 251.847,296.113 250.101 C 296.601 249.870,297.608 249.451,298.350 249.171 C 300.010 248.544,303.360 245.259,304.135 243.499 C 305.860 239.576,305.800 240.900,305.800 207.000 C 305.800 172.585,305.839 173.356,303.889 169.296 C 300.938 163.154,294.317 160.018,288.000 161.771 M106.600 161.954 C 101.777 163.265,98.911 166.110,97.261 171.228 C 96.481 173.647,96.630 239.278,97.420 241.548 C 101.381 252.920,118.396 254.014,123.113 243.200 C 124.796 239.344,124.800 239.242,124.795 205.954 C 124.790 169.074,124.879 170.051,121.127 165.778 C 118.343 162.607,111.158 160.716,106.600 161.954 M134.535 162.625 C 134.403 162.968,134.376 187.313,134.475 216.725 L 134.655 270.200 135.909 272.819 C 138.634 278.508,142.029 280.234,151.600 280.795 C 157.031 281.113,159.074 281.558,159.394 282.494 C 159.489 282.772,159.736 290.803,159.943 300.340 C 160.195 311.938,160.466 317.826,160.760 318.120 C 161.002 318.362,161.200 318.895,161.200 319.305 C 161.200 327.961,176.281 332.519,183.353 326.001 C 187.869 321.838,188.400 318.908,188.400 298.147 L 188.400 281.693 189.300 281.452 C 191.113 280.966,212.612 281.172,213.120 281.680 C 213.477 282.037,213.600 286.225,213.600 298.054 C 213.600 320.253,214.706 324.437,221.459 327.794 C 224.091 329.101,232.180 329.580,233.268 328.492 C 233.538 328.222,234.084 328.000,234.480 328.000 C 236.176 328.000,241.200 321.710,241.200 319.586 C 241.200 319.180,241.357 318.750,241.548 318.632 C 242.237 318.206,242.484 313.941,242.740 298.000 L 243.000 281.800 245.600 281.521 C 247.030 281.367,249.550 281.037,251.200 280.789 C 252.850 280.540,254.876 280.242,255.703 280.126 C 256.529 280.010,257.305 279.755,257.426 279.558 C 257.548 279.361,258.076 279.200,258.600 279.200 C 259.124 279.200,259.664 279.020,259.800 278.800 C 259.936 278.580,260.364 278.400,260.752 278.400 C 261.761 278.400,264.686 275.776,265.350 274.275 C 267.487 269.444,267.550 267.827,267.576 216.818 C 267.593 183.411,267.467 169.442,267.120 166.318 L 266.640 162.000 200.707 162.000 C 141.316 162.000,134.751 162.062,134.535 162.625 " stroke="none" fill="#fcfbfa" fill-rule="evenodd"></path><path id="path1" d="M177.100 0.275 C 174.955 0.360,173.200 0.602,173.200 0.814 C 173.200 1.027,171.940 1.200,170.400 1.200 C 168.800 1.200,167.600 1.371,167.600 1.600 C 167.600 1.822,166.541 2.000,165.224 2.000 C 163.917 2.000,162.736 2.180,162.600 2.400 C 162.464 2.620,161.564 2.800,160.600 2.800 C 159.636 2.800,158.736 2.980,158.600 3.200 C 158.464 3.420,157.643 3.600,156.776 3.600 C 155.909 3.600,155.200 3.780,155.200 4.000 C 155.200 4.220,154.403 4.400,153.429 4.400 C 152.387 4.400,151.410 4.647,151.057 5.000 C 150.727 5.330,149.994 5.600,149.429 5.600 C 148.863 5.600,148.400 5.780,148.400 6.000 C 148.400 6.220,147.680 6.400,146.800 6.400 C 145.920 6.400,145.200 6.580,145.200 6.800 C 145.200 7.020,144.480 7.200,143.600 7.200 C 142.720 7.200,142.000 7.380,142.000 7.600 C 142.000 7.820,141.370 8.000,140.600 8.000 C 139.830 8.000,139.200 8.180,139.200 8.400 C 139.200 8.620,138.660 8.800,138.000 8.800 C 137.340 8.800,136.800 8.980,136.800 9.200 C 136.800 9.420,136.260 9.600,135.600 9.600 C 134.940 9.600,134.400 9.780,134.400 10.000 C 134.400 10.220,133.860 10.400,133.200 10.400 C 132.540 10.400,132.000 10.580,132.000 10.800 C 132.000 11.020,131.460 11.200,130.800 11.200 C 130.140 11.200,129.600 11.380,129.600 11.600 C 129.600 11.820,129.150 12.000,128.600 12.000 C 128.050 12.000,127.600 12.180,127.600 12.400 C 127.600 12.620,127.060 12.800,126.400 12.800 C 125.740 12.800,125.200 12.980,125.200 13.200 C 125.200 13.420,124.840 13.600,124.400 13.600 C 123.960 13.600,123.600 13.780,123.600 14.000 C 123.600 14.220,123.161 14.400,122.624 14.400 C 122.087 14.400,121.536 14.580,121.400 14.800 C 121.264 15.020,120.803 15.200,120.376 15.200 C 119.949 15.200,119.600 15.380,119.600 15.600 C 119.600 15.820,119.240 16.000,118.800 16.000 C 118.360 16.000,118.000 16.180,118.000 16.400 C 118.000 16.620,117.634 16.800,117.187 16.800 C 116.741 16.800,116.271 17.070,116.145 17.400 C 116.013 17.742,115.417 18.000,114.757 18.000 C 114.121 18.000,113.600 18.180,113.600 18.400 C 113.600 18.620,113.240 18.800,112.800 18.800 C 112.360 18.800,112.000 18.980,112.000 19.200 C 112.000 19.420,111.640 19.600,111.200 19.600 C 110.760 19.600,110.400 19.780,110.400 20.000 C 110.400 20.220,110.040 20.400,109.600 20.400 C 109.160 20.400,108.800 20.580,108.800 20.800 C 108.800 21.020,108.440 21.200,108.000 21.200 C 107.560 21.200,107.200 21.380,107.200 21.600 C 107.200 21.820,106.840 22.000,106.400 22.000 C 105.960 22.000,105.600 22.180,105.600 22.400 C 105.600 22.620,105.330 22.800,105.000 22.800 C 104.670 22.800,104.400 22.980,104.400 23.200 C 104.400 23.420,104.040 23.600,103.600 23.600 C 103.160 23.600,102.800 23.780,102.800 24.000 C 102.800 24.220,102.440 24.400,102.000 24.400 C 101.560 24.400,101.200 24.580,101.200 24.800 C 101.200 25.020,100.840 25.200,100.400 25.200 C 99.960 25.200,99.600 25.380,99.600 25.600 C 99.600 25.820,99.364 26.000,99.075 26.000 C 98.787 26.000,98.164 26.360,97.692 26.800 C 97.220 27.240,96.556 27.600,96.217 27.600 C 95.878 27.600,95.600 27.758,95.600 27.951 C 95.600 28.145,95.060 28.527,94.400 28.800 C 93.740 29.073,93.200 29.545,93.200 29.849 C 93.200 30.152,92.874 30.400,92.475 30.400 C 92.077 30.400,91.364 30.760,90.892 31.200 C 90.420 31.640,89.796 32.000,89.505 32.000 C 89.214 32.000,88.717 32.360,88.400 32.800 C 88.083 33.240,87.543 33.600,87.200 33.600 C 86.857 33.600,86.317 33.960,86.000 34.400 C 85.683 34.840,85.175 35.200,84.872 35.200 C 84.569 35.200,83.817 35.740,83.200 36.400 C 82.583 37.060,81.831 37.600,81.528 37.600 C 81.225 37.600,80.717 37.960,80.400 38.400 C 80.083 38.840,79.583 39.200,79.290 39.200 C 78.997 39.200,78.181 39.739,77.478 40.398 C 76.775 41.057,76.065 41.597,75.900 41.598 C 75.735 41.599,75.600 41.870,75.600 42.200 C 75.600 42.530,75.316 42.800,74.969 42.800 C 74.621 42.800,73.646 43.520,72.800 44.400 C 71.954 45.280,71.054 46.000,70.800 46.000 C 70.546 46.000,69.646 46.720,68.800 47.600 C 67.954 48.480,67.144 49.200,67.000 49.200 C 66.856 49.200,66.046 49.920,65.200 50.800 C 64.354 51.680,63.554 52.400,63.420 52.400 C 63.104 52.400,52.400 63.104,52.400 63.420 C 52.400 63.554,51.680 64.354,50.800 65.200 C 49.920 66.046,49.200 66.856,49.200 67.000 C 49.200 67.144,48.480 67.954,47.600 68.800 C 46.720 69.646,46.000 70.546,46.000 70.800 C 46.000 71.054,45.280 71.954,44.400 72.800 C 43.520 73.646,42.800 74.621,42.800 74.969 C 42.800 75.316,42.530 75.600,42.200 75.600 C 41.870 75.600,41.599 75.735,41.598 75.900 C 41.597 76.065,41.057 76.775,40.398 77.478 C 39.739 78.181,39.200 78.997,39.200 79.290 C 39.200 79.583,38.840 80.083,38.400 80.400 C 37.960 80.717,37.600 81.225,37.600 81.528 C 37.600 81.831,37.060 82.583,36.400 83.200 C 35.740 83.817,35.200 84.569,35.200 84.872 C 35.200 85.175,34.840 85.683,34.400 86.000 C 33.960 86.317,33.600 86.857,33.600 87.200 C 33.600 87.543,33.240 88.083,32.800 88.400 C 32.360 88.717,32.000 89.214,32.000 89.505 C 32.000 89.796,31.640 90.420,31.200 90.892 C 30.760 91.364,30.400 92.077,30.400 92.475 C 30.400 92.874,30.152 93.200,29.849 93.200 C 29.545 93.200,29.073 93.740,28.800 94.400 C 28.527 95.060,28.145 95.600,27.951 95.600 C 27.758 95.600,27.600 95.878,27.600 96.217 C 27.600 96.556,27.240 97.220,26.800 97.692 C 26.360 98.164,26.000 98.787,26.000 99.075 C 26.000 99.364,25.820 99.600,25.600 99.600 C 25.380 99.600,25.200 99.960,25.200 100.400 C 25.200 100.840,25.020 101.200,24.800 101.200 C 24.580 101.200,24.400 101.560,24.400 102.000 C 24.400 102.440,24.220 102.800,24.000 102.800 C 23.780 102.800,23.600 103.160,23.600 103.600 C 23.600 104.040,23.420 104.400,23.200 104.400 C 22.980 104.400,22.800 104.670,22.800 105.000 C 22.800 105.330,22.620 105.600,22.400 105.600 C 22.180 105.600,22.000 105.960,22.000 106.400 C 22.000 106.840,21.820 107.200,21.600 107.200 C 21.380 107.200,21.200 107.560,21.200 108.000 C 21.200 108.440,21.020 108.800,20.800 108.800 C 20.580 108.800,20.400 109.160,20.400 109.600 C 20.400 110.040,20.220 110.400,20.000 110.400 C 19.780 110.400,19.600 110.760,19.600 111.200 C 19.600 111.640,19.420 112.000,19.200 112.000 C 18.980 112.000,18.800 112.360,18.800 112.800 C 18.800 113.240,18.620 113.600,18.400 113.600 C 18.180 113.600,18.000 114.121,18.000 114.757 C 18.000 115.417,17.742 116.013,17.400 116.145 C 17.070 116.271,16.800 116.741,16.800 117.187 C 16.800 117.634,16.620 118.000,16.400 118.000 C 16.180 118.000,16.000 118.360,16.000 118.800 C 16.000 119.240,15.820 119.600,15.600 119.600 C 15.380 119.600,15.200 119.949,15.200 120.376 C 15.200 120.803,15.020 121.264,14.800 121.400 C 14.580 121.536,14.400 122.087,14.400 122.624 C 14.400 123.161,14.220 123.600,14.000 123.600 C 13.780 123.600,13.600 123.960,13.600 124.400 C 13.600 124.840,13.420 125.200,13.200 125.200 C 12.980 125.200,12.800 125.740,12.800 126.400 C 12.800 127.060,12.620 127.600,12.400 127.600 C 12.180 127.600,12.000 128.050,12.000 128.600 C 12.000 129.150,11.820 129.600,11.600 129.600 C 11.380 129.600,11.200 130.140,11.200 130.800 C 11.200 131.460,11.020 132.000,10.800 132.000 C 10.580 132.000,10.400 132.540,10.400 133.200 C 10.400 133.860,10.220 134.400,10.000 134.400 C 9.780 134.400,9.600 134.940,9.600 135.600 C 9.600 136.260,9.420 136.800,9.200 136.800 C 8.980 136.800,8.800 137.340,8.800 138.000 C 8.800 138.660,8.620 139.200,8.400 139.200 C 8.180 139.200,8.000 139.830,8.000 140.600 C 8.000 141.370,7.820 142.000,7.600 142.000 C 7.380 142.000,7.200 142.720,7.200 143.600 C 7.200 144.480,7.020 145.200,6.800 145.200 C 6.580 145.200,6.400 145.920,6.400 146.800 C 6.400 147.680,6.220 148.400,6.000 148.400 C 5.780 148.400,5.600 148.863,5.600 149.429 C 5.600 149.994,5.330 150.727,5.000 151.057 C 4.647 151.410,4.400 152.387,4.400 153.429 C 4.400 154.403,4.220 155.200,4.000 155.200 C 3.780 155.200,3.600 155.909,3.600 156.776 C 3.600 157.643,3.420 158.464,3.200 158.600 C 2.980 158.736,2.800 159.636,2.800 160.600 C 2.800 161.564,2.620 162.464,2.400 162.600 C 2.180 162.736,2.000 163.917,2.000 165.224 C 2.000 166.541,1.822 167.600,1.600 167.600 C 1.372 167.600,1.200 168.789,1.200 170.367 C 1.200 172.224,1.036 173.188,0.700 173.300 C 0.307 173.431,0.200 179.129,0.200 200.000 C 0.200 220.871,0.307 226.569,0.700 226.700 C 1.036 226.812,1.200 227.776,1.200 229.633 C 1.200 231.211,1.372 232.400,1.600 232.400 C 1.822 232.400,2.000 233.459,2.000 234.776 C 2.000 236.083,2.180 237.264,2.400 237.400 C 2.620 237.536,2.800 238.436,2.800 239.400 C 2.800 240.364,2.980 241.264,3.200 241.400 C 3.420 241.536,3.600 242.346,3.600 243.200 C 3.600 244.054,3.780 244.864,4.000 245.000 C 4.220 245.136,4.400 245.944,4.400 246.795 C 4.400 247.646,4.670 248.613,5.000 248.943 C 5.330 249.273,5.600 250.006,5.600 250.571 C 5.600 251.137,5.780 251.600,6.000 251.600 C 6.220 251.600,6.400 252.320,6.400 253.200 C 6.400 254.080,6.580 254.800,6.800 254.800 C 7.020 254.800,7.200 255.509,7.200 256.376 C 7.200 257.243,7.380 258.064,7.600 258.200 C 7.820 258.336,8.000 258.977,8.000 259.624 C 8.000 260.271,8.180 260.800,8.400 260.800 C 8.620 260.800,8.800 261.340,8.800 262.000 C 8.800 262.660,8.980 263.200,9.200 263.200 C 9.420 263.200,9.600 263.740,9.600 264.400 C 9.600 265.060,9.780 265.600,10.000 265.600 C 10.220 265.600,10.400 266.140,10.400 266.800 C 10.400 267.460,10.580 268.000,10.800 268.000 C 11.020 268.000,11.200 268.529,11.200 269.176 C 11.200 269.823,11.380 270.464,11.600 270.600 C 11.820 270.736,12.000 271.197,12.000 271.624 C 12.000 272.051,12.180 272.400,12.400 272.400 C 12.620 272.400,12.800 272.940,12.800 273.600 C 12.800 274.260,12.980 274.800,13.200 274.800 C 13.420 274.800,13.600 275.160,13.600 275.600 C 13.600 276.040,13.780 276.400,14.000 276.400 C 14.220 276.400,14.400 276.839,14.400 277.376 C 14.400 277.913,14.580 278.464,14.800 278.600 C 15.020 278.736,15.200 279.197,15.200 279.624 C 15.200 280.051,15.380 280.400,15.600 280.400 C 15.820 280.400,16.000 280.642,16.000 280.939 C 16.000 281.741,17.202 284.000,17.629 284.000 C 17.833 284.000,18.000 284.540,18.000 285.200 C 18.000 285.860,18.180 286.400,18.400 286.400 C 18.620 286.400,18.800 286.760,18.800 287.200 C 18.800 287.640,18.980 288.000,19.200 288.000 C 19.420 288.000,19.600 288.360,19.600 288.800 C 19.600 289.240,19.780 289.600,20.000 289.600 C 20.220 289.600,20.400 289.960,20.400 290.400 C 20.400 290.840,20.580 291.200,20.800 291.200 C 21.020 291.200,21.200 291.560,21.200 292.000 C 21.200 292.440,21.380 292.800,21.600 292.800 C 21.820 292.800,22.000 293.160,22.000 293.600 C 22.000 294.040,22.180 294.400,22.400 294.400 C 22.620 294.400,22.800 294.670,22.800 295.000 C 22.800 295.330,22.980 295.600,23.200 295.600 C 23.420 295.600,23.600 295.960,23.600 296.400 C 23.600 296.840,23.780 297.200,24.000 297.200 C 24.220 297.200,24.400 297.560,24.400 298.000 C 24.400 298.440,24.580 298.800,24.800 298.800 C 25.020 298.800,25.200 299.160,25.200 299.600 C 25.200 300.040,25.380 300.400,25.600 300.400 C 25.820 300.400,26.000 300.720,26.000 301.112 C 26.000 301.503,26.360 302.083,26.800 302.400 C 27.240 302.717,27.600 303.297,27.600 303.688 C 27.600 304.080,27.780 304.400,28.000 304.400 C 28.220 304.400,28.400 304.644,28.400 304.942 C 28.400 305.239,28.850 305.969,29.400 306.562 C 29.950 307.156,30.400 307.862,30.400 308.132 C 30.400 308.402,30.760 308.883,31.200 309.200 C 31.640 309.517,32.000 310.057,32.000 310.400 C 32.000 310.743,32.360 311.283,32.800 311.600 C 33.240 311.917,33.600 312.457,33.600 312.800 C 33.600 313.143,33.960 313.683,34.400 314.000 C 34.840 314.317,35.200 314.825,35.200 315.128 C 35.200 315.431,35.740 316.183,36.400 316.800 C 37.060 317.417,37.600 318.175,37.600 318.485 C 37.600 318.795,37.960 319.436,38.400 319.908 C 38.840 320.380,39.200 320.917,39.200 321.100 C 39.200 321.586,41.928 324.400,42.399 324.400 C 42.620 324.400,42.800 324.684,42.800 325.031 C 42.800 325.379,43.520 326.354,44.400 327.200 C 45.280 328.046,46.000 328.928,46.000 329.162 C 46.000 329.635,47.179 331.023,50.300 334.227 C 51.455 335.413,52.400 336.474,52.400 336.585 C 52.400 336.907,63.055 347.600,63.375 347.600 C 63.533 347.600,64.354 348.320,65.200 349.200 C 66.046 350.080,66.856 350.800,67.000 350.800 C 67.144 350.800,67.954 351.520,68.800 352.400 C 69.646 353.280,70.538 354.000,70.784 354.000 C 71.029 354.000,72.021 354.765,72.988 355.700 C 76.294 358.897,77.577 360.000,77.989 360.000 C 78.215 360.000,78.400 360.180,78.400 360.400 C 78.400 360.620,78.720 360.800,79.112 360.800 C 79.503 360.800,80.083 361.160,80.400 361.600 C 80.717 362.040,81.225 362.400,81.528 362.400 C 81.831 362.400,82.583 362.940,83.200 363.600 C 83.817 364.260,84.569 364.800,84.872 364.800 C 85.175 364.800,85.683 365.160,86.000 365.600 C 86.317 366.040,86.857 366.400,87.200 366.400 C 87.543 366.400,88.083 366.760,88.400 367.200 C 88.717 367.640,89.198 368.000,89.468 368.000 C 89.738 368.000,90.444 368.450,91.038 369.000 C 91.631 369.550,92.278 370.000,92.475 370.000 C 92.672 370.000,93.220 370.360,93.692 370.800 C 94.164 371.240,94.787 371.600,95.075 371.600 C 95.364 371.600,95.600 371.780,95.600 372.000 C 95.600 372.220,95.920 372.400,96.312 372.400 C 96.703 372.400,97.283 372.760,97.600 373.200 C 97.917 373.640,98.497 374.000,98.888 374.000 C 99.280 374.000,99.600 374.180,99.600 374.400 C 99.600 374.620,99.960 374.800,100.400 374.800 C 100.840 374.800,101.200 374.980,101.200 375.200 C 101.200 375.420,101.560 375.600,102.000 375.600 C 102.440 375.600,102.800 375.780,102.800 376.000 C 102.800 376.220,103.160 376.400,103.600 376.400 C 104.040 376.400,104.400 376.580,104.400 376.800 C 104.400 377.020,104.670 377.200,105.000 377.200 C 105.330 377.200,105.600 377.380,105.600 377.600 C 105.600 377.820,105.960 378.000,106.400 378.000 C 106.840 378.000,107.200 378.180,107.200 378.400 C 107.200 378.620,107.560 378.800,108.000 378.800 C 108.440 378.800,108.800 378.980,108.800 379.200 C 108.800 379.420,109.160 379.600,109.600 379.600 C 110.040 379.600,110.400 379.780,110.400 380.000 C 110.400 380.220,110.760 380.400,111.200 380.400 C 111.640 380.400,112.000 380.553,112.000 380.739 C 112.000 380.926,112.765 381.394,113.700 381.780 C 114.635 382.166,115.713 382.644,116.095 382.841 C 116.477 383.038,117.062 383.200,117.395 383.200 C 117.728 383.200,118.000 383.380,118.000 383.600 C 118.000 383.820,118.360 384.000,118.800 384.000 C 119.240 384.000,119.600 384.180,119.600 384.400 C 119.600 384.620,119.960 384.800,120.400 384.800 C 120.840 384.800,121.200 384.980,121.200 385.200 C 121.200 385.420,121.740 385.600,122.400 385.600 C 123.060 385.600,123.600 385.780,123.600 386.000 C 123.600 386.220,123.960 386.400,124.400 386.400 C 124.840 386.400,125.200 386.580,125.200 386.800 C 125.200 387.020,125.740 387.200,126.400 387.200 C 127.060 387.200,127.600 387.380,127.600 387.600 C 127.600 387.820,128.050 388.000,128.600 388.000 C 129.150 388.000,129.600 388.180,129.600 388.400 C 129.600 388.620,130.140 388.800,130.800 388.800 C 131.460 388.800,132.000 388.980,132.000 389.200 C 132.000 389.420,132.540 389.600,133.200 389.600 C 133.860 389.600,134.400 389.780,134.400 390.000 C 134.400 390.220,134.940 390.400,135.600 390.400 C 136.260 390.400,136.800 390.580,136.800 390.800 C 136.800 391.020,137.340 391.200,138.000 391.200 C 138.660 391.200,139.200 391.380,139.200 391.600 C 139.200 391.820,139.729 392.000,140.376 392.000 C 141.023 392.000,141.664 392.180,141.800 392.400 C 141.936 392.620,142.757 392.800,143.624 392.800 C 144.758 392.800,145.200 392.968,145.200 393.400 C 145.200 393.833,145.644 394.000,146.800 394.000 C 147.680 394.000,148.400 394.180,148.400 394.400 C 148.400 394.620,148.929 394.800,149.576 394.800 C 150.223 394.800,150.864 394.980,151.000 395.200 C 151.136 395.420,152.137 395.600,153.224 395.600 C 154.311 395.600,155.200 395.780,155.200 396.000 C 155.200 396.220,155.920 396.400,156.800 396.400 C 157.680 396.400,158.400 396.580,158.400 396.800 C 158.400 397.020,159.289 397.200,160.376 397.200 C 161.463 397.200,162.464 397.380,162.600 397.600 C 162.736 397.820,163.917 398.000,165.224 398.000 C 166.541 398.000,167.600 398.178,167.600 398.400 C 167.600 398.628,168.789 398.800,170.367 398.800 C 172.224 398.800,173.188 398.964,173.300 399.300 C 173.544 400.032,226.456 400.032,226.700 399.300 C 226.812 398.964,227.776 398.800,229.633 398.800 C 231.211 398.800,232.400 398.628,232.400 398.400 C 232.400 398.178,233.459 398.000,234.776 398.000 C 236.083 398.000,237.264 397.820,237.400 397.600 C 237.536 397.380,238.537 397.200,239.624 397.200 C 240.711 397.200,241.600 397.020,241.600 396.800 C 241.600 396.580,242.309 396.400,243.176 396.400 C 244.043 396.400,244.864 396.220,245.000 396.000 C 245.136 395.780,246.036 395.600,247.000 395.600 C 247.964 395.600,248.864 395.420,249.000 395.200 C 249.136 394.980,249.777 394.800,250.424 394.800 C 251.071 394.800,251.600 394.620,251.600 394.400 C 251.600 394.180,252.320 394.000,253.200 394.000 C 254.356 394.000,254.800 393.833,254.800 393.400 C 254.800 392.956,255.267 392.800,256.600 392.800 C 257.590 392.800,258.400 392.620,258.400 392.400 C 258.400 392.180,258.940 392.000,259.600 392.000 C 260.260 392.000,260.800 391.820,260.800 391.600 C 260.800 391.380,261.340 391.200,262.000 391.200 C 262.660 391.200,263.200 391.020,263.200 390.800 C 263.200 390.580,263.740 390.400,264.400 390.400 C 265.060 390.400,265.600 390.220,265.600 390.000 C 265.600 389.780,266.140 389.600,266.800 389.600 C 267.460 389.600,268.000 389.420,268.000 389.200 C 268.000 388.980,268.529 388.800,269.176 388.800 C 269.823 388.800,270.464 388.620,270.600 388.400 C 270.736 388.180,271.197 388.000,271.624 388.000 C 272.051 388.000,272.400 387.820,272.400 387.600 C 272.400 387.380,272.940 387.200,273.600 387.200 C 274.260 387.200,274.800 387.020,274.800 386.800 C 274.800 386.580,275.160 386.400,275.600 386.400 C 276.040 386.400,276.400 386.220,276.400 386.000 C 276.400 385.780,276.940 385.600,277.600 385.600 C 278.260 385.600,278.800 385.420,278.800 385.200 C 278.800 384.980,279.160 384.800,279.600 384.800 C 280.040 384.800,280.400 384.620,280.400 384.400 C 280.400 384.180,280.749 384.000,281.176 384.000 C 281.603 384.000,282.064 383.820,282.200 383.600 C 282.336 383.380,282.797 383.200,283.224 383.200 C 283.651 383.200,284.000 383.020,284.000 382.800 C 284.000 382.580,284.264 382.400,284.586 382.400 C 285.399 382.400,288.000 381.124,288.000 380.726 C 288.000 380.547,288.360 380.400,288.800 380.400 C 289.240 380.400,289.600 380.220,289.600 380.000 C 289.600 379.780,289.960 379.600,290.400 379.600 C 290.840 379.600,291.200 379.420,291.200 379.200 C 291.200 378.980,291.560 378.800,292.000 378.800 C 292.440 378.800,292.800 378.620,292.800 378.400 C 292.800 378.180,293.160 378.000,293.600 378.000 C 294.040 378.000,294.400 377.820,294.400 377.600 C 294.400 377.380,294.670 377.200,295.000 377.200 C 295.330 377.200,295.600 377.020,295.600 376.800 C 295.600 376.580,295.960 376.400,296.400 376.400 C 296.840 376.400,297.200 376.220,297.200 376.000 C 297.200 375.780,297.560 375.600,298.000 375.600 C 298.440 375.600,298.800 375.420,298.800 375.200 C 298.800 374.980,299.160 374.800,299.600 374.800 C 300.040 374.800,300.400 374.620,300.400 374.400 C 300.400 374.180,300.720 374.000,301.112 374.000 C 301.503 374.000,302.083 373.640,302.400 373.200 C 302.717 372.760,303.297 372.400,303.688 372.400 C 304.080 372.400,304.400 372.220,304.400 372.000 C 304.400 371.780,304.760 371.600,305.200 371.600 C 305.640 371.600,306.000 371.445,306.000 371.256 C 306.000 371.066,306.810 370.481,307.800 369.956 C 308.790 369.431,309.600 368.776,309.600 368.501 C 309.600 368.225,309.920 368.000,310.312 368.000 C 310.703 368.000,311.283 367.640,311.600 367.200 C 311.917 366.760,312.457 366.400,312.800 366.400 C 313.143 366.400,313.683 366.040,314.000 365.600 C 314.317 365.160,314.825 364.800,315.128 364.800 C 315.431 364.800,316.183 364.260,316.800 363.600 C 317.417 362.940,318.175 362.400,318.485 362.400 C 318.795 362.400,319.436 362.040,319.908 361.600 C 320.380 361.160,320.925 360.800,321.120 360.800 C 321.314 360.800,322.320 359.999,323.357 359.021 C 324.393 358.042,325.591 357.130,326.020 356.994 C 326.449 356.857,326.800 356.570,326.800 356.355 C 326.800 355.776,328.680 354.000,329.294 354.000 C 329.585 354.000,330.083 353.640,330.400 353.200 C 330.717 352.760,331.127 352.400,331.310 352.400 C 331.494 352.400,332.704 351.320,334.000 350.000 C 335.296 348.680,336.474 347.600,336.618 347.600 C 336.960 347.600,347.600 336.960,347.600 336.618 C 347.600 336.474,348.680 335.296,350.000 334.000 C 351.320 332.704,352.400 331.494,352.400 331.310 C 352.400 331.127,352.760 330.717,353.200 330.400 C 353.640 330.083,354.000 329.585,354.000 329.294 C 354.000 328.680,355.776 326.800,356.355 326.800 C 356.570 326.800,356.857 326.449,356.994 326.020 C 357.130 325.591,358.042 324.393,359.021 323.357 C 359.999 322.320,360.800 321.314,360.800 321.120 C 360.800 320.925,361.160 320.380,361.600 319.908 C 362.040 319.436,362.400 318.795,362.400 318.485 C 362.400 318.175,362.940 317.417,363.600 316.800 C 364.260 316.183,364.800 315.431,364.800 315.128 C 364.800 314.825,365.160 314.317,365.600 314.000 C 366.040 313.683,366.400 313.143,366.400 312.800 C 366.400 312.457,366.760 311.917,367.200 311.600 C 367.640 311.283,368.000 310.703,368.000 310.312 C 368.000 309.920,368.225 309.600,368.501 309.600 C 368.776 309.600,369.431 308.790,369.956 307.800 C 370.481 306.810,371.066 306.000,371.256 306.000 C 371.445 306.000,371.600 305.640,371.600 305.200 C 371.600 304.760,371.780 304.400,372.000 304.400 C 372.220 304.400,372.400 304.080,372.400 303.688 C 372.400 303.297,372.760 302.717,373.200 302.400 C 373.640 302.083,374.000 301.503,374.000 301.112 C 374.000 300.720,374.180 300.400,374.400 300.400 C 374.620 300.400,374.800 300.040,374.800 299.600 C 374.800 299.160,374.980 298.800,375.200 298.800 C 375.420 298.800,375.600 298.440,375.600 298.000 C 375.600 297.560,375.780 297.200,376.000 297.200 C 376.220 297.200,376.400 296.840,376.400 296.400 C 376.400 295.960,376.580 295.600,376.800 295.600 C 377.020 295.600,377.200 295.330,377.200 295.000 C 377.200 294.670,377.380 294.400,377.600 294.400 C 377.820 294.400,378.000 294.040,378.000 293.600 C 378.000 293.160,378.180 292.800,378.400 292.800 C 378.620 292.800,378.800 292.440,378.800 292.000 C 378.800 291.560,378.980 291.200,379.200 291.200 C 379.420 291.200,379.600 290.840,379.600 290.400 C 379.600 289.960,379.780 289.600,380.000 289.600 C 380.220 289.600,380.400 289.240,380.400 288.800 C 380.400 288.360,380.547 288.000,380.726 288.000 C 381.124 288.000,382.400 285.399,382.400 284.586 C 382.400 284.264,382.580 284.000,382.800 284.000 C 383.020 284.000,383.200 283.651,383.200 283.224 C 383.200 282.797,383.380 282.336,383.600 282.200 C 383.820 282.064,384.000 281.603,384.000 281.176 C 384.000 280.749,384.180 280.400,384.400 280.400 C 384.620 280.400,384.800 280.040,384.800 279.600 C 384.800 279.160,384.980 278.800,385.200 278.800 C 385.420 278.800,385.600 278.260,385.600 277.600 C 385.600 276.940,385.780 276.400,386.000 276.400 C 386.220 276.400,386.400 276.040,386.400 275.600 C 386.400 275.160,386.580 274.800,386.800 274.800 C 387.020 274.800,387.200 274.260,387.200 273.600 C 387.200 272.940,387.380 272.400,387.600 272.400 C 387.820 272.400,388.000 272.051,388.000 271.624 C 388.000 271.197,388.180 270.736,388.400 270.600 C 388.620 270.464,388.800 269.823,388.800 269.176 C 388.800 268.529,388.980 268.000,389.200 268.000 C 389.420 268.000,389.600 267.460,389.600 266.800 C 389.600 266.140,389.780 265.600,390.000 265.600 C 390.220 265.600,390.400 265.060,390.400 264.400 C 390.400 263.740,390.580 263.200,390.800 263.200 C 391.020 263.200,391.200 262.660,391.200 262.000 C 391.200 261.340,391.380 260.800,391.600 260.800 C 391.820 260.800,392.000 260.260,392.000 259.600 C 392.000 258.940,392.180 258.400,392.400 258.400 C 392.620 258.400,392.800 257.590,392.800 256.600 C 392.800 255.267,392.956 254.800,393.400 254.800 C 393.833 254.800,394.000 254.356,394.000 253.200 C 394.000 252.320,394.180 251.600,394.400 251.600 C 394.620 251.600,394.800 251.071,394.800 250.424 C 394.800 249.777,394.980 249.136,395.200 249.000 C 395.420 248.864,395.600 247.964,395.600 247.000 C 395.600 246.036,395.780 245.136,396.000 245.000 C 396.220 244.864,396.400 244.043,396.400 243.176 C 396.400 242.309,396.580 241.600,396.800 241.600 C 397.020 241.600,397.200 240.711,397.200 239.624 C 397.200 238.537,397.380 237.536,397.600 237.400 C 397.820 237.264,398.000 236.083,398.000 234.776 C 398.000 233.459,398.178 232.400,398.400 232.400 C 398.628 232.400,398.800 231.211,398.800 229.633 C 398.800 227.776,398.964 226.812,399.300 226.700 C 399.693 226.569,399.800 220.871,399.800 200.000 C 399.800 179.129,399.693 173.431,399.300 173.300 C 398.964 173.188,398.800 172.224,398.800 170.367 C 398.800 168.789,398.628 167.600,398.400 167.600 C 398.178 167.600,398.000 166.541,398.000 165.224 C 398.000 163.917,397.820 162.736,397.600 162.600 C 397.380 162.464,397.200 161.463,397.200 160.376 C 397.200 159.289,397.020 158.400,396.800 158.400 C 396.580 158.400,396.400 157.680,396.400 156.800 C 396.400 155.920,396.220 155.200,396.000 155.200 C 395.780 155.200,395.600 154.311,395.600 153.224 C 395.600 152.137,395.420 151.136,395.200 151.000 C 394.980 150.864,394.800 150.223,394.800 149.576 C 394.800 148.929,394.620 148.400,394.400 148.400 C 394.180 148.400,394.000 147.680,394.000 146.800 C 394.000 145.644,393.833 145.200,393.400 145.200 C 392.968 145.200,392.800 144.758,392.800 143.624 C 392.800 142.757,392.620 141.936,392.400 141.800 C 392.180 141.664,392.000 141.023,392.000 140.376 C 392.000 139.729,391.820 139.200,391.600 139.200 C 391.380 139.200,391.200 138.660,391.200 138.000 C 391.200 137.340,391.020 136.800,390.800 136.800 C 390.580 136.800,390.400 136.260,390.400 135.600 C 390.400 134.940,390.220 134.400,390.000 134.400 C 389.780 134.400,389.600 133.860,389.600 133.200 C 389.600 132.540,389.420 132.000,389.200 132.000 C 388.980 132.000,388.800 131.460,388.800 130.800 C 388.800 130.140,388.620 129.600,388.400 129.600 C 388.180 129.600,388.000 129.150,388.000 128.600 C 388.000 128.050,387.820 127.600,387.600 127.600 C 387.380 127.600,387.200 127.060,387.200 126.400 C 387.200 125.740,387.020 125.200,386.800 125.200 C 386.580 125.200,386.400 124.840,386.400 124.400 C 386.400 123.960,386.220 123.600,386.000 123.600 C 385.780 123.600,385.600 123.060,385.600 122.400 C 385.600 121.740,385.420 121.200,385.200 121.200 C 384.980 121.200,384.800 120.840,384.800 120.400 C 384.800 119.960,384.620 119.600,384.400 119.600 C 384.180 119.600,384.000 119.240,384.000 118.800 C 384.000 118.360,383.820 118.000,383.600 118.000 C 383.380 118.000,383.200 117.728,383.200 117.395 C 383.200 117.062,383.038 116.477,382.841 116.095 C 382.644 115.713,382.166 114.635,381.780 113.700 C 381.394 112.765,380.926 112.000,380.739 112.000 C 380.553 112.000,380.400 111.640,380.400 111.200 C 380.400 110.760,380.220 110.400,380.000 110.400 C 379.780 110.400,379.600 110.040,379.600 109.600 C 379.600 109.160,379.420 108.800,379.200 108.800 C 378.980 108.800,378.800 108.440,378.800 108.000 C 378.800 107.560,378.620 107.200,378.400 107.200 C 378.180 107.200,378.000 106.840,378.000 106.400 C 378.000 105.960,377.820 105.600,377.600 105.600 C 377.380 105.600,377.200 105.330,377.200 105.000 C 377.200 104.670,377.020 104.400,376.800 104.400 C 376.580 104.400,376.400 104.040,376.400 103.600 C 376.400 103.160,376.220 102.800,376.000 102.800 C 375.780 102.800,375.600 102.440,375.600 102.000 C 375.600 101.560,375.420 101.200,375.200 101.200 C 374.980 101.200,374.800 100.840,374.800 100.400 C 374.800 99.960,374.620 99.600,374.400 99.600 C 374.180 99.600,374.000 99.280,374.000 98.888 C 374.000 98.497,373.640 97.917,373.200 97.600 C 372.760 97.283,372.400 96.703,372.400 96.312 C 372.400 95.920,372.220 95.600,372.000 95.600 C 371.780 95.600,371.600 95.364,371.600 95.075 C 371.600 94.787,371.240 94.164,370.800 93.692 C 370.360 93.220,370.000 92.672,370.000 92.475 C 370.000 92.278,369.550 91.631,369.000 91.038 C 368.450 90.444,368.000 89.738,368.000 89.468 C 368.000 89.198,367.640 88.717,367.200 88.400 C 366.760 88.083,366.400 87.543,366.400 87.200 C 366.400 86.857,366.040 86.317,365.600 86.000 C 365.160 85.683,364.800 85.175,364.800 84.872 C 364.800 84.569,364.260 83.817,363.600 83.200 C 362.940 82.583,362.400 81.831,362.400 81.528 C 362.400 81.225,362.040 80.717,361.600 80.400 C 361.160 80.083,360.800 79.503,360.800 79.112 C 360.800 78.720,360.620 78.400,360.400 78.400 C 360.180 78.400,360.000 78.215,360.000 77.989 C 360.000 77.577,358.897 76.294,355.700 72.988 C 354.765 72.021,354.000 71.029,354.000 70.784 C 354.000 70.538,353.280 69.646,352.400 68.800 C 351.520 67.954,350.800 67.144,350.800 67.000 C 350.800 66.856,350.080 66.046,349.200 65.200 C 348.320 64.354,347.600 63.533,347.600 63.375 C 347.600 63.055,336.907 52.400,336.585 52.400 C 336.474 52.400,335.413 51.455,334.227 50.300 C 331.023 47.179,329.635 46.000,329.162 46.000 C 328.928 46.000,328.046 45.280,327.200 44.400 C 326.354 43.520,325.379 42.800,325.031 42.800 C 324.684 42.800,324.400 42.620,324.400 42.399 C 324.400 41.928,321.586 39.200,321.100 39.200 C 320.917 39.200,320.380 38.840,319.908 38.400 C 319.436 37.960,318.795 37.600,318.485 37.600 C 318.175 37.600,317.417 37.060,316.800 36.400 C 316.183 35.740,315.431 35.200,315.128 35.200 C 314.825 35.200,314.317 34.840,314.000 34.400 C 313.683 33.960,313.143 33.600,312.800 33.600 C 312.457 33.600,311.917 33.240,311.600 32.800 C 311.283 32.360,310.743 32.000,310.400 32.000 C 310.057 32.000,309.517 31.640,309.200 31.200 C 308.883 30.760,308.402 30.400,308.132 30.400 C 307.862 30.400,307.156 29.950,306.562 29.400 C 305.969 28.850,305.239 28.400,304.942 28.400 C 304.644 28.400,304.400 28.220,304.400 28.000 C 304.400 27.780,304.080 27.600,303.688 27.600 C 303.297 27.600,302.717 27.240,302.400 26.800 C 302.083 26.360,301.503 26.000,301.112 26.000 C 300.720 26.000,300.400 25.820,300.400 25.600 C 300.400 25.380,300.040 25.200,299.600 25.200 C 299.160 25.200,298.800 25.020,298.800 24.800 C 298.800 24.580,298.440 24.400,298.000 24.400 C 297.560 24.400,297.200 24.220,297.200 24.000 C 297.200 23.780,296.840 23.600,296.400 23.600 C 295.960 23.600,295.600 23.420,295.600 23.200 C 295.600 22.980,295.330 22.800,295.000 22.800 C 294.670 22.800,294.400 22.620,294.400 22.400 C 294.400 22.180,294.040 22.000,293.600 22.000 C 293.160 22.000,292.800 21.820,292.800 21.600 C 292.800 21.380,292.440 21.200,292.000 21.200 C 291.560 21.200,291.200 21.020,291.200 20.800 C 291.200 20.580,290.840 20.400,290.400 20.400 C 289.960 20.400,289.600 20.220,289.600 20.000 C 289.600 19.780,289.240 19.600,288.800 19.600 C 288.360 19.600,288.000 19.420,288.000 19.200 C 288.000 18.980,287.640 18.800,287.200 18.800 C 286.760 18.800,286.400 18.620,286.400 18.400 C 286.400 18.180,285.860 18.000,285.200 18.000 C 284.540 18.000,284.000 17.833,284.000 17.629 C 284.000 17.202,281.741 16.000,280.939 16.000 C 280.642 16.000,280.400 15.820,280.400 15.600 C 280.400 15.380,280.051 15.200,279.624 15.200 C 279.197 15.200,278.736 15.020,278.600 14.800 C 278.464 14.580,277.913 14.400,277.376 14.400 C 276.839 14.400,276.400 14.220,276.400 14.000 C 276.400 13.780,276.040 13.600,275.600 13.600 C 275.160 13.600,274.800 13.420,274.800 13.200 C 274.800 12.980,274.260 12.800,273.600 12.800 C 272.940 12.800,272.400 12.620,272.400 12.400 C 272.400 12.180,272.051 12.000,271.624 12.000 C 271.197 12.000,270.736 11.820,270.600 11.600 C 270.464 11.380,269.823 11.200,269.176 11.200 C 268.529 11.200,268.000 11.020,268.000 10.800 C 268.000 10.580,267.460 10.400,266.800 10.400 C 266.140 10.400,265.600 10.220,265.600 10.000 C 265.600 9.780,265.060 9.600,264.400 9.600 C 263.740 9.600,263.200 9.420,263.200 9.200 C 263.200 8.980,262.660 8.800,262.000 8.800 C 261.340 8.800,260.800 8.620,260.800 8.400 C 260.800 8.180,260.271 8.000,259.624 8.000 C 258.977 8.000,258.336 7.820,258.200 7.600 C 258.064 7.380,257.243 7.200,256.376 7.200 C 255.509 7.200,254.800 7.020,254.800 6.800 C 254.800 6.580,254.080 6.400,253.200 6.400 C 252.320 6.400,251.600 6.220,251.600 6.000 C 251.600 5.780,251.137 5.600,250.571 5.600 C 250.006 5.600,249.273 5.330,248.943 5.000 C 248.613 4.670,247.646 4.400,246.795 4.400 C 245.944 4.400,245.136 4.220,245.000 4.000 C 244.864 3.780,244.054 3.600,243.200 3.600 C 242.346 3.600,241.536 3.420,241.400 3.200 C 241.264 2.980,240.364 2.800,239.400 2.800 C 238.436 2.800,237.536 2.620,237.400 2.400 C 237.264 2.180,236.083 2.000,234.776 2.000 C 233.459 2.000,232.400 1.822,232.400 1.600 C 232.400 1.372,231.211 1.200,229.633 1.200 C 227.800 1.200,226.811 1.034,226.703 0.708 C 226.541 0.223,187.149 -0.121,177.100 0.275 M162.232 86.240 C 163.534 87.912,165.005 89.757,165.500 90.340 C 165.994 90.923,166.399 91.625,166.400 91.900 C 166.400 92.175,166.541 92.400,166.714 92.400 C 166.886 92.400,167.371 92.982,167.791 93.693 C 170.944 99.030,172.752 99.770,181.600 99.340 C 185.450 99.153,197.935 99.038,209.343 99.085 C 225.164 99.150,230.200 99.055,230.563 98.685 C 230.824 98.418,231.651 97.304,232.401 96.209 C 233.150 95.114,233.987 93.944,234.260 93.609 C 234.533 93.274,236.068 91.200,237.669 89.000 C 239.271 86.800,240.721 84.940,240.891 84.867 C 241.061 84.793,241.200 84.498,241.200 84.209 C 241.200 83.921,241.485 83.576,241.833 83.443 C 242.766 83.085,244.000 83.148,244.000 83.553 C 244.000 83.748,244.360 84.001,244.800 84.116 C 246.129 84.463,245.083 88.865,243.513 89.533 C 243.341 89.607,243.200 90.012,243.200 90.433 C 243.200 90.855,243.020 91.200,242.800 91.200 C 242.580 91.200,242.400 91.560,242.400 92.000 C 242.400 92.440,242.262 92.800,242.094 92.800 C 241.926 92.800,241.475 93.475,241.092 94.300 C 240.709 95.125,240.081 96.340,239.695 97.000 C 235.809 103.655,235.479 104.800,237.449 104.800 C 237.752 104.800,238.000 104.980,238.000 105.200 C 238.000 105.420,238.270 105.600,238.600 105.600 C 238.930 105.600,239.200 105.780,239.200 106.000 C 239.200 106.220,239.436 106.400,239.725 106.400 C 240.013 106.400,240.636 106.760,241.108 107.200 C 241.580 107.640,242.109 108.002,242.283 108.005 C 242.616 108.011,242.704 108.077,247.800 112.145 C 260.534 122.309,267.488 135.022,267.740 148.600 L 267.800 151.800 201.242 151.901 C 149.525 151.980,134.554 151.894,134.100 151.517 C 133.499 151.018,133.505 150.895,134.405 145.200 C 136.411 132.503,143.246 121.077,153.998 112.446 C 154.989 111.651,155.890 110.895,156.000 110.766 C 156.469 110.218,163.607 105.600,163.985 105.600 C 164.213 105.600,164.400 105.463,164.400 105.295 C 164.400 105.127,164.805 104.810,165.300 104.591 C 166.536 104.044,166.364 103.503,163.391 98.600 C 161.966 96.250,160.800 94.237,160.800 94.125 C 160.800 94.014,160.461 93.446,160.047 92.862 C 158.932 91.288,157.198 88.300,156.936 87.500 C 156.810 87.115,156.548 86.800,156.353 86.800 C 155.509 86.800,156.110 85.171,157.300 84.233 C 159.209 82.729,159.629 82.899,162.232 86.240 M170.105 121.100 C 167.979 122.950,166.233 127.200,167.600 127.200 C 167.820 127.200,168.000 127.366,168.000 127.569 C 168.000 128.050,170.350 130.400,170.831 130.400 C 171.034 130.400,171.200 130.580,171.200 130.800 C 171.200 131.811,173.955 131.068,175.653 129.600 C 176.034 129.270,177.340 128.190,178.554 127.200 C 181.178 125.060,181.136 125.241,179.283 124.033 C 172.473 119.591,172.010 119.443,170.105 121.100 M227.357 121.111 C 224.103 123.962,223.671 127.713,226.380 129.600 C 226.538 129.710,227.290 130.733,228.052 131.874 C 229.552 134.119,229.667 134.121,231.296 131.935 C 231.897 131.129,232.622 130.229,232.907 129.935 C 236.263 126.479,235.910 124.259,231.528 121.275 C 229.264 119.733,228.944 119.720,227.357 121.111 M297.925 162.102 C 300.519 163.368,303.127 165.883,304.080 168.037 C 304.364 168.676,304.731 169.200,304.898 169.200 C 305.064 169.200,305.200 169.650,305.200 170.200 C 305.200 170.750,305.380 171.200,305.600 171.200 C 305.820 171.200,306.000 171.909,306.000 172.776 C 306.000 173.643,306.180 174.464,306.400 174.600 C 306.661 174.761,306.800 185.863,306.800 206.600 C 306.800 227.337,306.661 238.439,306.400 238.600 C 306.180 238.736,306.000 239.379,306.000 240.029 C 306.000 240.679,305.835 241.523,305.634 241.905 C 305.432 242.287,304.966 243.291,304.598 244.135 C 301.604 251.005,290.279 253.782,283.314 249.354 C 276.657 245.121,276.010 241.340,276.004 206.580 C 275.999 177.681,276.277 173.544,278.541 168.801 C 282.101 161.344,290.459 158.456,297.925 162.102 M115.259 161.373 C 120.565 162.983,124.460 167.430,125.446 173.000 C 125.910 175.621,125.896 235.953,125.431 238.764 C 122.601 255.872,99.212 256.041,96.049 238.976 C 95.431 235.638,95.424 177.497,96.042 173.477 C 97.520 163.861,105.954 158.549,115.259 161.373 M267.520 161.680 C 268.146 162.306,268.225 269.414,267.600 269.800 C 267.380 269.936,267.200 270.656,267.200 271.400 C 267.200 272.144,267.020 272.864,266.800 273.000 C 266.580 273.136,266.400 273.564,266.400 273.952 C 266.400 275.671,261.644 279.600,259.562 279.600 C 259.143 279.600,258.800 279.780,258.800 280.000 C 258.800 280.220,258.206 280.400,257.480 280.400 C 256.754 280.400,255.989 280.563,255.780 280.763 C 255.571 280.963,254.410 281.235,253.200 281.368 C 248.879 281.844,245.383 282.331,244.300 282.610 L 243.200 282.893 243.200 299.823 C 243.200 310.678,243.056 316.841,242.800 317.000 C 242.580 317.136,242.400 317.779,242.400 318.429 C 242.400 319.079,242.243 319.923,242.050 320.305 C 240.269 323.842,239.671 324.790,238.421 326.055 C 236.772 327.725,234.328 329.200,233.211 329.200 C 232.791 329.200,232.336 329.380,232.200 329.600 C 232.064 329.821,230.270 330.000,228.200 330.000 C 226.130 330.000,224.336 329.821,224.200 329.600 C 224.064 329.380,223.549 329.200,223.056 329.200 C 222.021 329.200,220.008 328.343,220.003 327.900 C 220.001 327.735,219.802 327.600,219.560 327.600 C 219.319 327.600,218.644 327.078,218.060 326.440 C 213.163 321.084,212.816 319.223,212.807 298.294 L 212.800 281.988 201.100 282.094 L 189.400 282.200 189.165 300.000 C 188.919 318.584,188.940 318.372,187.035 322.339 C 185.400 325.744,181.446 329.200,179.186 329.200 C 178.780 329.200,178.336 329.380,178.200 329.600 C 177.894 330.096,170.649 330.133,169.695 329.644 C 169.313 329.448,168.136 328.875,167.081 328.371 C 164.109 326.952,162.241 324.566,160.369 319.800 C 159.605 317.857,159.471 315.272,159.338 300.000 C 159.167 280.354,159.717 282.106,153.645 281.849 C 147.914 281.608,144.718 281.239,144.220 280.763 C 144.011 280.563,143.426 280.400,142.920 280.400 C 142.414 280.400,142.000 280.220,142.000 280.000 C 142.000 279.780,141.640 279.600,141.200 279.600 C 140.760 279.600,140.400 279.420,140.400 279.200 C 140.400 278.980,140.145 278.800,139.834 278.800 C 138.423 278.800,134.807 273.448,134.158 270.400 C 133.835 268.880,133.468 162.521,133.783 161.700 C 134.058 160.983,266.804 160.964,267.520 161.680 " stroke="none" fill="#FF330A" fill-rule="evenodd"></path><path id="path2" d="M187.305 99.487 C 187.914 99.579,188.814 99.577,189.305 99.482 C 189.797 99.387,189.300 99.311,188.200 99.314 C 187.100 99.317,186.697 99.395,187.305 99.487 M219.680 99.498 C 221.594 99.571,224.834 99.571,226.880 99.498 C 228.926 99.426,227.360 99.366,223.400 99.365 C 219.440 99.365,217.766 99.424,219.680 99.498 M183.105 99.883 C 183.602 99.979,184.322 99.975,184.705 99.875 C 185.087 99.775,184.680 99.696,183.800 99.701 C 182.920 99.705,182.607 99.787,183.105 99.883 M134.093 150.000 C 134.093 150.770,134.175 151.085,134.276 150.700 C 134.376 150.315,134.376 149.685,134.276 149.300 C 134.175 148.915,134.093 149.230,134.093 150.000 M167.900 151.500 C 186.215 151.558,216.185 151.558,234.500 151.500 C 252.815 151.442,237.830 151.395,201.200 151.395 C 164.570 151.395,149.585 151.442,167.900 151.500 M290.705 161.083 C 291.202 161.179,291.922 161.175,292.305 161.075 C 292.687 160.975,292.280 160.896,291.400 160.901 C 290.520 160.905,290.207 160.987,290.705 161.083 M167.900 161.500 C 185.995 161.558,215.605 161.558,233.700 161.500 C 251.795 161.442,236.990 161.395,200.800 161.395 C 164.610 161.395,149.805 161.442,167.900 161.500 M267.293 164.000 C 267.293 164.770,267.375 165.085,267.476 164.700 C 267.576 164.315,267.576 163.685,267.476 163.300 C 267.375 162.915,267.293 163.230,267.293 164.000 M300.000 163.725 C 300.000 163.794,300.585 164.379,301.300 165.025 L 302.600 166.200 301.425 164.900 C 300.330 163.688,300.000 163.416,300.000 163.725 M267.709 168.000 C 267.709 168.990,267.787 169.395,267.882 168.900 C 267.978 168.405,267.978 167.595,267.882 167.100 C 267.787 166.605,267.709 167.010,267.709 168.000 M96.190 206.400 C 96.190 223.450,96.240 230.425,96.300 221.900 C 96.360 213.375,96.360 199.425,96.300 190.900 C 96.240 182.375,96.190 189.350,96.190 206.400 M125.390 206.000 C 125.390 222.830,125.440 229.715,125.500 221.300 C 125.560 212.885,125.560 199.115,125.500 190.700 C 125.440 182.285,125.390 189.170,125.390 206.000 M306.589 206.000 C 306.589 221.510,306.639 227.855,306.700 220.100 C 306.761 212.345,306.761 199.655,306.700 191.900 C 306.639 184.145,306.589 190.490,306.589 206.000 M120.581 247.300 L 119.000 249.000 120.700 247.419 C 122.281 245.948,122.584 245.600,122.281 245.600 C 122.216 245.600,121.451 246.365,120.581 247.300 M134.169 259.800 C 134.170 264.420,134.228 266.255,134.299 263.878 C 134.370 261.501,134.369 257.721,134.298 255.478 C 134.227 253.235,134.169 255.180,134.169 259.800 M267.720 264.800 C 267.720 266.010,267.795 266.505,267.887 265.900 C 267.978 265.295,267.978 264.305,267.887 263.700 C 267.795 263.095,267.720 263.590,267.720 264.800 M157.000 281.893 C 157.660 281.989,158.560 282.367,159.000 282.733 C 159.794 283.395,159.794 283.393,159.038 282.500 C 158.520 281.888,157.880 281.619,157.038 281.660 L 155.800 281.720 157.000 281.893 M195.125 281.899 C 198.493 281.966,203.893 281.966,207.125 281.899 C 210.356 281.832,207.600 281.777,201.000 281.777 C 194.400 281.777,191.756 281.832,195.125 281.899 M188.583 298.600 C 188.583 307.620,188.635 311.367,188.699 306.927 C 188.764 302.487,188.764 295.107,188.700 290.527 C 188.635 285.947,188.583 289.580,188.583 298.600 M242.909 312.000 C 242.909 312.990,242.987 313.395,243.082 312.900 C 243.178 312.405,243.178 311.595,243.082 311.100 C 242.987 310.605,242.909 311.010,242.909 312.000 M183.775 326.100 L 182.600 327.400 183.900 326.225 C 185.112 325.130,185.384 324.800,185.075 324.800 C 185.006 324.800,184.421 325.385,183.775 326.100 M173.100 329.882 C 173.595 329.978,174.405 329.978,174.900 329.882 C 175.395 329.787,174.990 329.709,174.000 329.709 C 173.010 329.709,172.605 329.787,173.100 329.882 M227.505 329.883 C 228.002 329.979,228.722 329.975,229.105 329.875 C 229.487 329.775,229.080 329.696,228.200 329.701 C 227.320 329.705,227.007 329.787,227.505 329.883 " stroke="none" fill="#fcc185" fill-rule="evenodd"></path><path id="path3" d="M159.605 83.713 C 159.938 83.981,161.169 85.415,162.340 86.900 C 163.511 88.385,164.554 89.600,164.657 89.600 C 164.877 89.600,164.490 89.065,161.836 85.694 C 160.756 84.322,159.676 83.206,159.436 83.213 C 159.196 83.220,159.272 83.445,159.605 83.713 M156.662 84.731 C 155.939 85.531,155.770 86.800,156.387 86.800 C 156.601 86.800,156.669 86.523,156.539 86.185 C 156.409 85.847,156.623 85.217,157.013 84.785 C 157.404 84.353,157.634 84.000,157.524 84.000 C 157.414 84.000,157.026 84.329,156.662 84.731 M237.010 89.900 C 235.775 91.605,234.539 93.274,234.264 93.609 C 233.989 93.944,233.161 95.114,232.425 96.209 C 230.390 99.235,232.005 97.446,234.780 93.600 C 238.884 87.912,239.646 86.800,239.447 86.800 C 239.341 86.800,238.245 88.195,237.010 89.900 M156.809 87.500 C 156.814 87.665,157.185 88.250,157.633 88.800 L 158.448 89.800 157.814 88.500 C 157.211 87.265,156.789 86.845,156.809 87.500 M243.837 88.600 C 243.476 89.150,243.337 89.600,243.527 89.600 C 243.716 89.600,244.077 89.150,244.327 88.600 C 244.578 88.050,244.717 87.600,244.637 87.600 C 244.557 87.600,244.197 88.050,243.837 88.600 M158.400 90.228 C 158.400 90.353,158.913 91.208,159.541 92.128 C 160.168 93.048,160.753 93.980,160.841 94.200 C 161.274 95.289,164.915 101.218,165.061 101.073 C 165.153 100.980,164.322 99.428,163.214 97.623 C 162.106 95.818,161.200 94.276,161.200 94.197 C 161.200 93.959,158.691 90.000,158.540 90.000 C 158.463 90.000,158.400 90.103,158.400 90.228 M165.481 90.961 C 165.877 91.489,166.257 91.867,166.328 91.800 C 166.538 91.599,165.434 90.000,165.085 90.000 C 164.908 90.000,165.086 90.432,165.481 90.961 M240.209 95.298 C 239.592 96.454,239.276 97.220,239.506 97.000 C 240.101 96.432,241.670 93.537,241.484 93.351 C 241.399 93.266,240.825 94.142,240.209 95.298 M169.220 96.190 C 171.409 99.172,173.519 100.018,178.546 99.926 L 182.600 99.852 178.200 99.611 C 173.097 99.332,172.789 99.230,170.420 97.043 C 169.441 96.139,168.901 95.756,169.220 96.190 M237.667 99.867 C 236.958 101.101,236.438 102.171,236.511 102.244 C 236.584 102.318,237.224 101.368,237.933 100.133 C 238.642 98.899,239.162 97.829,239.089 97.756 C 239.016 97.682,238.376 98.632,237.667 99.867 M195.700 99.099 C 199.605 99.165,205.995 99.165,209.900 99.099 C 213.805 99.034,210.610 98.980,202.800 98.980 C 194.990 98.980,191.795 99.034,195.700 99.099 M183.705 99.487 C 184.314 99.579,185.214 99.577,185.705 99.482 C 186.197 99.387,185.700 99.311,184.600 99.314 C 183.500 99.317,183.097 99.395,183.705 99.487 M166.110 103.251 C 166.235 103.609,166.128 104.149,165.872 104.451 C 165.615 104.753,165.757 104.686,166.186 104.303 C 166.837 103.721,166.876 103.523,166.424 103.103 C 165.982 102.693,165.924 102.720,166.110 103.251 M162.400 106.436 C 161.736 106.979,161.669 107.115,162.200 106.840 C 163.505 106.166,164.228 105.612,163.800 105.615 C 163.580 105.617,162.950 105.986,162.400 106.436 M240.176 107.013 C 240.604 107.336,241.133 107.600,241.353 107.600 C 241.573 107.600,241.404 107.336,240.976 107.013 C 240.549 106.690,240.020 106.425,239.800 106.425 C 239.580 106.425,239.749 106.690,240.176 107.013 M159.023 108.612 C 156.347 110.462,154.485 111.939,152.806 113.542 C 152.033 114.280,152.750 113.818,154.400 112.515 C 156.050 111.212,158.255 109.565,159.300 108.854 C 160.345 108.143,161.200 107.480,161.200 107.381 C 161.200 107.111,161.159 107.134,159.023 108.612 M242.856 108.766 C 243.375 109.187,243.877 109.455,243.971 109.361 C 244.176 109.157,242.744 108.031,242.256 108.013 C 242.066 108.006,242.336 108.345,242.856 108.766 M244.400 109.711 C 244.400 109.787,244.985 110.278,245.700 110.801 C 246.504 111.390,246.784 111.487,246.433 111.055 C 245.900 110.399,244.400 109.407,244.400 109.711 M247.209 111.863 C 247.215 112.048,247.955 112.740,248.856 113.400 C 252.754 116.258,259.966 124.953,262.376 129.699 C 262.683 130.304,263.003 130.730,263.087 130.646 C 263.492 130.242,259.385 123.834,256.648 120.600 C 253.558 116.949,247.187 111.051,247.209 111.863 M147.101 118.940 C 145.836 120.293,144.342 122.120,143.781 123.000 L 142.761 124.600 143.879 123.200 C 144.494 122.430,146.062 120.674,147.364 119.298 C 148.665 117.922,149.656 116.726,149.565 116.639 C 149.474 116.552,148.365 117.588,147.101 118.940 M169.570 121.063 L 168.600 122.127 169.900 121.188 C 171.252 120.212,171.425 120.000,170.870 120.000 C 170.688 120.000,170.103 120.479,169.570 121.063 M173.200 120.190 C 173.200 120.294,173.785 120.665,174.500 121.014 L 175.800 121.648 174.800 120.833 C 173.837 120.048,173.200 119.792,173.200 120.190 M226.566 121.321 C 224.037 123.942,223.432 125.816,224.613 127.376 C 224.936 127.804,225.200 127.949,225.200 127.700 C 225.200 127.451,225.020 127.136,224.800 127.000 C 223.600 126.258,224.900 123.263,227.357 121.111 C 228.041 120.512,228.420 120.026,228.200 120.032 C 227.980 120.038,227.245 120.618,226.566 121.321 M231.200 120.954 C 231.200 121.039,231.695 121.427,232.300 121.816 L 233.400 122.524 232.638 121.662 C 231.964 120.899,231.200 120.523,231.200 120.954 M179.105 123.959 C 179.603 124.387,180.222 124.807,180.481 124.894 C 180.745 124.982,180.260 125.714,179.376 126.563 L 177.800 128.076 179.500 126.771 C 181.571 125.181,181.577 125.093,179.700 124.030 C 178.369 123.277,178.302 123.269,179.105 123.959 M234.400 123.500 C 234.400 123.749,234.580 124.064,234.800 124.200 C 235.482 124.622,235.241 126.815,234.367 128.138 L 233.534 129.400 234.565 128.200 C 235.725 126.850,235.900 125.031,234.987 123.824 C 234.664 123.396,234.400 123.251,234.400 123.500 M176.278 129.034 C 175.660 129.565,175.300 129.994,175.478 129.987 C 175.921 129.968,177.751 128.417,177.557 128.224 C 177.470 128.138,176.895 128.503,176.278 129.034 M168.886 129.346 C 169.389 129.867,169.874 130.228,169.964 130.149 C 170.197 129.945,168.748 128.400,168.324 128.400 C 168.130 128.400,168.383 128.826,168.886 129.346 M225.416 128.800 C 225.935 129.735,228.876 133.600,229.067 133.600 C 229.320 133.600,226.759 129.930,225.858 129.000 C 225.431 128.560,225.232 128.470,225.416 128.800 M232.598 130.159 C 232.379 130.466,231.783 131.276,231.273 131.959 C 229.871 133.835,230.502 133.446,232.179 131.400 C 232.990 130.410,233.506 129.600,233.325 129.600 C 233.144 129.600,232.817 129.851,232.598 130.159 M263.807 132.679 C 264.482 134.293,264.800 134.758,264.800 134.128 C 264.800 133.631,263.609 131.200,263.365 131.200 C 263.268 131.200,263.467 131.866,263.807 132.679 M137.282 134.287 C 135.901 137.894,135.167 140.518,135.318 141.304 C 135.480 142.144,135.495 142.137,135.551 141.200 C 135.584 140.650,136.141 138.677,136.788 136.816 C 137.875 133.693,138.256 131.742,137.282 134.287 M265.844 138.200 C 266.173 139.671,266.402 139.990,266.394 138.967 C 266.391 138.545,266.205 137.930,265.982 137.600 C 265.685 137.162,265.648 137.324,265.844 138.200 M266.668 141.800 C 266.971 143.777,267.202 144.114,267.194 142.567 C 267.191 141.925,267.016 141.130,266.805 140.800 C 266.545 140.391,266.501 140.710,266.668 141.800 M134.649 143.015 C 134.512 143.373,134.425 144.416,134.456 145.333 C 134.509 146.901,134.529 146.870,134.792 144.800 C 135.090 142.455,135.051 141.968,134.649 143.015 M267.453 147.000 C 267.595 148.320,267.776 149.475,267.856 149.567 C 268.204 149.968,267.948 145.739,267.591 145.200 C 267.320 144.789,267.276 145.357,267.453 147.000 M133.852 148.100 C 133.448 149.609,133.571 151.078,134.142 151.552 C 134.983 152.250,267.695 151.990,267.837 151.290 C 267.894 151.010,267.849 150.965,267.737 151.190 C 267.481 151.706,135.262 151.754,134.448 151.238 C 134.038 150.978,133.967 150.414,134.172 149.044 C 134.461 147.118,134.268 146.548,133.852 148.100 M288.600 160.750 C 286.067 161.201,279.243 165.200,281.006 165.200 C 281.199 165.200,281.816 164.763,282.378 164.229 C 285.208 161.539,290.988 160.248,295.400 161.320 C 296.183 161.510,296.391 161.484,296.000 161.245 C 295.145 160.724,290.493 160.413,288.600 160.750 M106.641 161.154 C 106.223 161.318,107.483 161.376,109.441 161.284 C 113.502 161.092,116.596 161.794,119.065 163.470 C 119.902 164.038,120.328 164.195,120.018 163.822 C 118.134 161.552,109.842 159.898,106.641 161.154 M133.867 161.467 C 133.515 161.818,133.576 267.997,133.928 268.885 C 134.078 269.262,134.152 245.291,134.093 215.616 C 133.991 164.312,134.021 161.652,134.693 161.477 C 135.252 161.331,135.267 161.283,134.767 161.246 C 134.418 161.221,134.013 161.320,133.867 161.467 M266.748 161.559 C 267.049 161.750,267.431 162.962,267.595 164.253 L 267.895 166.600 267.948 164.380 C 267.998 162.254,267.554 161.193,266.620 161.206 C 266.389 161.209,266.447 161.368,266.748 161.559 M102.550 162.783 C 99.609 164.470,96.373 169.002,96.414 171.375 C 96.422 171.829,96.777 171.231,97.203 170.047 C 98.518 166.391,100.349 164.316,103.779 162.594 C 104.867 162.047,105.497 161.602,105.179 161.604 C 104.860 161.606,103.677 162.137,102.550 162.783 M300.316 163.856 C 301.040 164.485,302.030 165.459,302.516 166.019 C 303.002 166.579,303.229 166.759,303.020 166.419 C 302.331 165.296,300.614 163.538,299.800 163.122 C 299.360 162.896,299.592 163.227,300.316 163.856 M122.747 167.252 C 123.431 168.270,124.252 170.070,124.570 171.252 C 124.985 172.797,125.155 173.084,125.174 172.275 C 125.205 170.946,123.412 167.113,122.289 166.106 C 121.821 165.686,122.006 166.151,122.747 167.252 M277.073 172.153 C 276.923 172.545,276.811 173.166,276.825 173.533 C 276.842 173.975,276.981 173.874,277.237 173.234 C 277.449 172.703,277.561 172.082,277.485 171.854 C 277.409 171.627,277.224 171.761,277.073 172.153 M95.854 174.656 C 95.521 177.088,95.602 237.123,95.940 238.323 C 96.083 238.831,96.200 224.296,96.200 206.023 C 96.200 187.750,96.179 172.800,96.154 172.800 C 96.129 172.800,95.994 173.635,95.854 174.656 M125.400 205.799 C 125.400 223.535,125.517 237.631,125.660 237.123 C 126.000 235.917,126.000 175.683,125.660 174.476 C 125.517 173.968,125.400 188.063,125.400 205.799 M306.293 176.100 C 306.581 178.352,306.800 178.521,306.800 176.490 C 306.800 175.587,306.637 174.747,306.438 174.624 C 306.232 174.496,306.169 175.130,306.293 176.100 M276.261 180.262 C 275.918 185.857,276.023 229.733,276.388 233.600 C 276.543 235.250,276.700 222.965,276.735 206.300 C 276.771 189.635,276.737 176.000,276.661 176.000 C 276.584 176.000,276.404 177.918,276.261 180.262 M306.474 235.050 C 306.433 235.738,306.286 236.907,306.147 237.650 C 305.954 238.683,306.006 238.896,306.370 238.557 C 306.664 238.283,306.789 237.292,306.697 235.957 C 306.615 234.771,306.515 234.363,306.474 235.050 M124.860 239.309 C 124.497 246.017,117.384 251.625,109.895 251.106 C 108.273 250.993,107.352 251.046,107.800 251.224 C 114.381 253.851,126.060 245.825,125.091 239.342 L 124.920 238.200 124.860 239.309 M96.428 241.076 C 96.413 241.558,96.580 242.064,96.800 242.200 C 97.273 242.492,97.273 242.101,96.800 241.000 C 96.469 240.229,96.455 240.231,96.428 241.076 M303.275 245.584 C 302.082 247.198,302.168 247.595,303.400 246.162 C 304.282 245.136,304.648 244.400,304.275 244.400 C 304.207 244.400,303.757 244.933,303.275 245.584 M98.000 244.968 C 98.000 245.325,101.288 248.845,101.461 248.673 C 101.532 248.602,100.782 247.676,99.795 246.616 C 98.808 245.556,98.000 244.814,98.000 244.968 M280.055 246.400 C 281.254 248.056,285.061 250.772,286.200 250.784 C 286.643 250.788,286.098 250.372,284.981 249.852 C 283.871 249.335,282.080 248.032,281.001 246.956 C 279.419 245.377,279.236 245.270,280.055 246.400 M300.400 248.483 C 299.630 249.146,299.360 249.491,299.800 249.251 C 301.009 248.590,302.163 247.629,301.971 247.443 C 301.877 247.352,301.170 247.820,300.400 248.483 M102.000 248.967 C 102.000 249.351,105.328 250.800,106.175 250.786 C 106.629 250.778,106.065 250.435,104.923 250.024 C 103.781 249.612,102.656 249.158,102.423 249.014 C 102.190 248.871,102.000 248.849,102.000 248.967 M296.800 250.225 C 295.909 250.562,295.691 250.758,296.200 250.763 C 296.640 250.768,297.450 250.514,298.000 250.200 C 299.222 249.501,298.683 249.513,296.800 250.225 M287.739 251.294 C 288.312 251.659,293.553 251.642,294.486 251.272 C 294.863 251.122,293.395 251.000,291.225 251.000 C 289.054 251.000,287.486 251.132,287.739 251.294 M267.659 267.400 C 267.620 267.840,267.477 268.650,267.340 269.200 C 267.148 269.970,267.202 270.097,267.575 269.751 C 267.844 269.501,267.985 268.703,267.893 267.951 C 267.802 267.208,267.697 266.960,267.659 267.400 M134.441 270.862 C 134.371 272.669,138.374 278.800,139.623 278.800 C 139.819 278.800,139.215 278.035,138.281 277.100 C 136.562 275.379,135.301 273.187,134.772 271.000 C 134.487 269.820,134.481 269.818,134.441 270.862 M266.846 271.467 C 266.821 271.724,266.684 272.264,266.541 272.667 C 266.340 273.236,266.394 273.297,266.779 272.942 C 267.052 272.691,267.189 272.151,267.084 271.742 C 266.979 271.334,266.872 271.210,266.846 271.467 M265.205 275.392 C 264.717 276.181,263.665 277.271,262.866 277.813 C 262.068 278.356,261.563 278.800,261.745 278.800 C 262.797 278.800,266.832 274.698,266.301 274.168 C 266.186 274.052,265.692 274.603,265.205 275.392 M144.200 280.800 C 144.336 281.020,144.842 281.187,145.324 281.172 C 146.169 281.145,146.171 281.131,145.400 280.800 C 144.299 280.327,143.908 280.327,144.200 280.800 M254.400 280.800 L 253.400 281.120 254.476 281.160 C 255.068 281.182,255.664 281.020,255.800 280.800 C 256.081 280.345,255.820 280.345,254.400 280.800 M148.800 281.587 C 149.337 281.946,156.371 282.208,155.967 281.854 C 155.875 281.774,154.090 281.591,152.000 281.448 C 149.412 281.270,148.391 281.315,148.800 281.587 M249.200 281.600 L 247.800 281.895 249.200 281.941 C 249.970 281.967,250.870 281.813,251.200 281.600 C 251.927 281.130,251.433 281.130,249.200 281.600 M188.888 298.300 C 188.937 307.265,189.026 311.990,189.087 308.800 C 189.367 294.012,189.373 281.999,189.100 282.000 C 188.935 282.000,188.840 289.335,188.888 298.300 M212.983 298.600 C 212.983 307.840,213.036 311.563,213.100 306.873 C 213.164 302.183,213.164 294.623,213.099 290.073 C 213.035 285.523,212.983 289.360,212.983 298.600 M243.600 282.400 C 243.103 282.721,243.138 282.788,243.800 282.788 C 244.240 282.788,244.870 282.613,245.200 282.400 C 245.697 282.079,245.662 282.012,245.000 282.012 C 244.560 282.012,243.930 282.187,243.600 282.400 M158.801 282.879 C 159.050 283.179,159.211 289.370,159.228 299.380 C 159.244 308.191,159.379 315.709,159.528 316.087 C 159.678 316.465,159.747 309.265,159.681 300.087 C 159.582 286.114,159.468 283.318,158.983 282.899 C 158.602 282.569,158.540 282.563,158.801 282.879 M242.867 314.667 C 242.830 315.364,242.684 316.264,242.541 316.667 C 242.343 317.228,242.397 317.295,242.768 316.953 C 243.052 316.692,243.188 315.858,243.095 314.953 C 242.952 313.573,242.927 313.542,242.867 314.667 M188.464 316.000 C 188.423 316.770,188.289 317.850,188.167 318.400 C 187.976 319.258,188.009 319.300,188.395 318.695 C 188.643 318.307,188.777 317.227,188.693 316.295 C 188.551 314.727,188.534 314.705,188.464 316.000 M213.439 317.387 C 213.565 318.261,213.925 319.521,214.239 320.187 C 214.907 321.611,214.732 320.630,213.776 317.600 L 213.209 315.800 213.439 317.387 M160.000 318.376 C 160.000 319.023,160.142 319.641,160.316 319.748 C 160.490 319.856,160.561 319.327,160.473 318.572 C 160.276 316.891,160.000 316.777,160.000 318.376 M242.046 318.667 C 242.021 318.924,241.884 319.464,241.741 319.867 C 241.540 320.436,241.594 320.497,241.979 320.142 C 242.252 319.891,242.389 319.351,242.284 318.942 C 242.179 318.534,242.072 318.410,242.046 318.667 M187.306 320.854 C 186.459 323.202,184.510 325.915,182.759 327.184 C 181.836 327.853,181.255 328.400,181.468 328.400 C 182.977 328.400,188.224 321.639,187.919 320.088 C 187.854 319.755,187.578 320.100,187.306 320.854 M160.832 320.716 C 160.796 321.291,162.302 324.400,162.616 324.400 C 162.726 324.400,162.478 323.725,162.064 322.900 C 161.650 322.075,161.210 321.130,161.087 320.800 C 160.939 320.404,160.852 320.375,160.832 320.716 M240.637 322.291 C 240.249 323.106,239.380 324.498,238.708 325.386 L 237.484 327.000 238.664 325.800 C 239.962 324.479,241.858 321.325,241.543 321.009 C 241.433 320.900,241.026 321.477,240.637 322.291 M216.819 324.993 C 217.742 326.252,219.233 327.700,219.417 327.516 C 219.510 327.424,218.832 326.640,217.912 325.774 C 216.991 324.908,216.499 324.557,216.819 324.993 M164.539 326.616 C 165.605 327.597,166.667 328.400,166.899 328.400 C 167.130 328.400,166.565 327.853,165.641 327.184 C 164.718 326.515,163.862 325.705,163.738 325.384 C 163.615 325.063,163.309 324.807,163.057 324.816 C 162.806 324.825,163.472 325.635,164.539 326.616 M235.776 327.787 C 235.349 328.110,235.180 328.375,235.400 328.375 C 235.620 328.375,236.149 328.110,236.576 327.787 C 237.004 327.464,237.173 327.200,236.953 327.200 C 236.733 327.200,236.204 327.464,235.776 327.787 M220.000 327.932 C 220.000 328.304,222.306 329.300,222.781 329.133 C 222.991 329.060,222.451 328.698,221.582 328.330 C 220.712 327.961,220.000 327.782,220.000 327.932 M169.804 329.606 C 169.938 329.823,170.607 330.000,171.290 330.000 C 172.801 330.000,172.649 329.800,170.880 329.463 C 170.055 329.306,169.652 329.360,169.804 329.606 M176.600 329.600 L 175.400 329.905 176.676 329.953 C 177.378 329.979,178.064 329.820,178.200 329.600 C 178.474 329.157,178.340 329.157,176.600 329.600 M224.204 329.606 C 224.338 329.823,225.007 330.000,225.690 330.000 C 227.201 330.000,227.049 329.800,225.280 329.463 C 224.455 329.306,224.052 329.360,224.204 329.606 M230.600 329.600 L 229.400 329.905 230.676 329.953 C 231.378 329.979,232.064 329.820,232.200 329.600 C 232.474 329.157,232.340 329.157,230.600 329.600 " stroke="none" fill="#fcac54" fill-rule="evenodd"></path><path id="path4" d="M157.754 84.474 C 157.119 84.955,156.542 85.389,156.471 85.437 C 156.290 85.561,157.575 88.000,157.821 88.000 C 157.931 88.000,157.753 87.482,157.425 86.849 C 156.598 85.249,158.543 83.390,159.918 84.466 C 160.532 84.947,160.545 84.930,160.051 84.300 C 159.348 83.403,159.148 83.418,157.754 84.474 M239.255 87.600 C 238.132 89.140,237.345 90.394,237.506 90.387 C 237.815 90.374,241.771 84.800,241.472 84.800 C 241.376 84.800,240.379 86.060,239.255 87.600 M244.214 87.035 C 243.841 87.604,243.605 88.138,243.689 88.222 C 243.773 88.307,244.158 87.841,244.544 87.188 C 245.406 85.728,245.148 85.609,244.214 87.035 M242.228 90.661 C 241.656 91.684,241.252 92.585,241.329 92.663 C 241.407 92.740,241.961 91.903,242.560 90.802 C 243.160 89.701,243.564 88.800,243.459 88.800 C 243.354 88.800,242.800 89.637,242.228 90.661 M164.575 90.532 C 165.191 91.339,165.776 92.000,165.875 92.000 C 166.153 92.000,164.421 89.660,163.909 89.344 C 163.659 89.189,163.959 89.724,164.575 90.532 M159.437 91.000 C 159.797 91.550,160.157 92.000,160.237 92.000 C 160.317 92.000,160.178 91.550,159.927 91.000 C 159.677 90.450,159.316 90.000,159.127 90.000 C 158.937 90.000,159.076 90.450,159.437 91.000 M167.543 94.700 C 168.408 95.965,169.720 97.539,170.458 98.197 L 171.800 99.395 170.357 97.797 C 169.564 96.919,168.340 95.345,167.638 94.300 C 166.936 93.255,166.274 92.400,166.166 92.400 C 166.058 92.400,166.678 93.435,167.543 94.700 M238.600 97.200 C 238.259 97.860,238.069 98.400,238.179 98.400 C 238.289 98.400,238.659 97.860,239.000 97.200 C 239.341 96.540,239.531 96.000,239.421 96.000 C 239.311 96.000,238.941 96.540,238.600 97.200 M231.641 98.009 L 230.348 99.618 211.074 99.386 C 200.473 99.259,190.270 99.300,188.400 99.477 C 186.294 99.677,193.604 99.800,207.600 99.800 C 231.623 99.800,230.835 99.867,232.347 97.700 C 233.608 95.893,233.196 96.074,231.641 98.009 M165.185 100.678 C 167.005 103.836,167.085 104.194,166.100 104.768 C 165.715 104.992,165.603 105.181,165.851 105.188 C 167.658 105.237,166.381 100.265,164.085 98.314 C 163.801 98.074,164.296 99.137,165.185 100.678 M172.800 99.758 C 173.564 100.227,174.884 100.357,178.400 100.310 L 183.000 100.249 178.200 100.012 C 175.560 99.881,173.040 99.633,172.600 99.460 C 172.138 99.278,172.223 99.404,172.800 99.758 M235.586 102.627 C 234.993 103.734,235.364 104.824,236.429 105.101 C 236.812 105.201,236.770 105.063,236.300 104.681 C 235.488 104.021,235.399 103.161,236.073 102.487 C 236.334 102.226,236.454 101.921,236.341 101.807 C 236.227 101.694,235.888 102.063,235.586 102.627 M161.093 107.814 C 160.272 108.372,159.600 108.915,159.600 109.020 C 159.600 109.125,160.320 108.735,161.200 108.153 C 162.597 107.228,163.070 106.800,162.693 106.800 C 162.634 106.800,161.914 107.256,161.093 107.814 M153.900 113.198 C 150.110 116.362,144.643 121.976,145.003 122.336 C 145.105 122.438,145.595 122.000,146.091 121.361 C 147.968 118.945,150.213 116.707,153.551 113.925 C 157.798 110.384,158.228 110.000,157.951 110.000 C 157.830 110.000,156.007 111.439,153.900 113.198 M244.416 110.274 C 244.425 110.453,245.460 111.366,246.716 112.303 C 250.771 115.326,255.264 119.912,258.563 124.393 C 259.573 125.765,260.400 126.749,260.400 126.580 C 260.400 125.947,256.018 120.480,253.354 117.788 C 250.365 114.769,244.390 109.746,244.416 110.274 M227.000 120.400 C 226.169 121.060,225.650 121.593,225.845 121.584 C 226.236 121.566,229.109 119.200,228.740 119.200 C 228.613 119.200,227.831 119.740,227.000 120.400 M169.581 120.500 C 168.268 121.660,166.795 123.771,166.818 124.462 C 166.827 124.758,167.178 124.352,167.596 123.560 C 168.015 122.768,169.003 121.553,169.793 120.860 C 170.582 120.167,171.087 119.600,170.914 119.600 C 170.741 119.601,170.142 120.006,169.581 120.500 M173.900 120.196 C 174.614 120.507,176.009 121.318,177.000 122.000 C 177.990 122.681,178.800 123.136,178.800 123.010 C 178.800 122.597,173.889 119.600,173.238 119.616 C 172.887 119.624,173.185 119.886,173.900 120.196 M230.800 120.304 C 231.570 120.681,232.965 121.752,233.900 122.684 C 234.835 123.616,235.600 124.239,235.600 124.068 C 235.600 123.279,230.920 119.593,229.938 119.609 C 229.642 119.614,230.030 119.927,230.800 120.304 M143.943 123.500 C 142.996 124.642,140.331 128.865,140.471 129.002 C 140.542 129.072,141.546 127.705,142.702 125.965 C 144.716 122.933,145.183 122.006,143.943 123.500 M235.627 126.020 C 235.652 127.316,235.681 127.344,236.094 126.487 C 236.419 125.812,236.412 125.452,236.067 125.107 C 235.711 124.751,235.606 124.968,235.627 126.020 M178.285 127.962 C 175.073 130.725,174.572 131.240,176.200 130.105 C 177.567 129.152,181.503 125.627,181.200 125.627 C 181.090 125.627,179.778 126.677,178.285 127.962 M224.528 128.200 C 224.874 128.860,225.627 129.940,226.201 130.600 C 226.869 131.369,226.720 131.010,225.786 129.600 C 224.059 126.994,223.665 126.555,224.528 128.200 M169.086 130.003 C 170.014 130.970,170.835 131.680,170.912 131.580 C 170.988 131.481,170.229 130.690,169.225 129.822 L 167.400 128.244 169.086 130.003 M139.381 130.837 C 139.029 131.518,138.812 132.145,138.899 132.232 C 138.986 132.319,139.356 131.762,139.722 130.995 C 140.544 129.270,140.259 129.138,139.381 130.837 M231.861 131.840 C 230.828 133.257,231.200 133.342,232.330 131.947 C 232.842 131.316,233.112 130.806,232.930 130.813 C 232.749 130.819,232.267 131.282,231.861 131.840 M228.076 133.295 C 229.103 134.957,229.637 135.138,230.451 134.100 C 230.955 133.457,230.940 133.447,230.258 133.984 C 229.583 134.515,229.410 134.443,228.334 133.184 L 227.152 131.800 228.076 133.295 M135.829 140.229 C 135.681 140.815,135.638 141.372,135.732 141.466 C 135.827 141.560,136.024 141.158,136.171 140.571 C 136.319 139.985,136.362 139.428,136.268 139.334 C 136.173 139.240,135.976 139.642,135.829 140.229 M266.080 141.000 C 266.080 141.440,266.224 142.250,266.400 142.800 C 266.654 143.592,266.720 143.633,266.720 143.000 C 266.720 142.560,266.576 141.750,266.400 141.200 C 266.146 140.408,266.080 140.367,266.080 141.000 M135.050 144.050 C 134.717 145.717,135.040 146.040,135.400 144.400 C 135.552 143.709,135.593 143.059,135.491 142.958 C 135.389 142.856,135.191 143.347,135.050 144.050 M266.868 147.899 C 266.940 149.712,267.150 151.196,267.334 151.198 C 267.664 151.200,267.274 145.186,266.919 144.801 C 266.818 144.692,266.795 146.086,266.868 147.899 M134.514 149.400 C 134.517 150.500,134.595 150.903,134.687 150.295 C 134.779 149.686,134.777 148.786,134.682 148.295 C 134.587 147.803,134.511 148.300,134.514 149.400 M107.117 161.528 C 106.742 161.678,108.328 161.800,110.642 161.800 C 112.957 161.800,114.434 161.683,113.925 161.540 C 112.694 161.194,107.978 161.185,107.117 161.528 M287.400 161.600 C 286.381 162.038,287.432 162.038,288.800 161.600 C 289.604 161.343,289.643 161.277,289.000 161.268 C 288.560 161.262,287.840 161.411,287.400 161.600 M293.633 161.344 C 293.725 161.423,294.340 161.608,295.000 161.756 C 295.876 161.952,296.038 161.915,295.600 161.618 C 295.060 161.253,293.232 160.998,293.633 161.344 M134.267 161.867 C 133.939 162.194,134.015 245.604,134.355 259.200 C 134.490 264.590,134.600 244.970,134.600 215.600 L 134.600 162.200 200.639 162.099 L 266.678 161.998 267.106 165.499 L 267.534 169.000 267.331 165.604 C 267.219 163.736,267.044 162.071,266.941 161.904 C 266.710 161.531,134.639 161.494,134.267 161.867 M117.400 163.065 C 119.831 164.314,120.582 164.942,122.059 166.960 C 122.686 167.818,123.200 168.338,123.200 168.116 C 123.200 166.743,117.285 161.925,115.713 162.019 C 115.541 162.029,116.300 162.500,117.400 163.065 M297.299 162.578 C 297.903 162.893,298.623 163.268,298.899 163.410 C 299.174 163.553,298.950 163.298,298.400 162.844 C 297.850 162.389,297.130 162.015,296.800 162.011 C 296.470 162.008,296.694 162.263,297.299 162.578 M101.114 164.500 C 100.144 165.435,99.811 165.826,100.375 165.368 C 100.939 164.910,101.919 164.145,102.554 163.668 C 103.189 163.191,103.521 162.800,103.293 162.800 C 103.064 162.800,102.084 163.565,101.114 164.500 M282.139 164.584 C 281.072 165.565,280.425 166.375,280.700 166.384 C 280.975 166.393,281.200 166.228,281.200 166.018 C 281.200 165.808,282.036 164.998,283.058 164.218 C 284.079 163.438,284.727 162.800,284.496 162.800 C 284.266 162.800,283.205 163.603,282.139 164.584 M301.016 165.200 C 301.887 166.190,302.919 167.450,303.309 168.000 L 304.018 169.000 303.442 167.800 C 303.125 167.140,302.093 165.880,301.149 165.000 L 299.431 163.400 301.016 165.200 M98.214 167.835 C 97.841 168.404,97.627 168.961,97.739 169.072 C 97.850 169.183,98.229 168.718,98.581 168.037 C 99.359 166.533,99.144 166.415,98.214 167.835 M279.453 168.100 L 278.733 169.400 279.558 168.400 C 280.289 167.513,280.614 166.800,280.286 166.800 C 280.224 166.800,279.849 167.385,279.453 168.100 M267.793 216.200 C 267.793 241.940,267.841 252.411,267.900 239.469 C 267.959 226.527,267.958 205.467,267.900 192.669 C 267.841 179.871,267.793 190.460,267.793 216.200 M278.113 170.721 C 277.858 171.315,277.556 172.520,277.441 173.400 L 277.233 175.000 277.741 173.200 C 278.020 172.210,278.395 171.077,278.574 170.683 C 278.753 170.288,278.826 169.893,278.738 169.804 C 278.649 169.716,278.368 170.128,278.113 170.721 M97.000 170.800 C 96.850 171.273,96.817 171.750,96.927 171.860 C 97.037 171.970,97.250 171.673,97.400 171.200 C 97.550 170.727,97.583 170.250,97.473 170.140 C 97.363 170.030,97.150 170.327,97.000 170.800 M124.068 170.800 C 124.088 171.839,124.718 173.546,124.732 172.600 C 124.738 172.160,124.589 171.440,124.400 171.000 C 124.189 170.510,124.061 170.432,124.068 170.800 M304.834 171.400 C 304.822 171.840,304.987 172.470,305.200 172.800 C 305.714 173.595,305.714 172.596,305.200 171.400 L 304.856 170.600 304.834 171.400 M96.591 206.000 C 96.591 224.150,96.640 231.575,96.700 222.500 C 96.760 213.425,96.760 198.575,96.700 189.500 C 96.640 180.425,96.591 187.850,96.591 206.000 M305.800 206.400 C 305.800 224.550,305.915 238.320,306.057 237.000 C 306.394 233.845,306.397 178.446,306.060 175.600 C 305.917 174.390,305.800 188.250,305.800 206.400 M124.990 206.200 C 124.991 223.580,125.040 230.632,125.100 221.870 C 125.160 213.109,125.160 198.889,125.100 190.270 C 125.040 181.652,124.990 188.820,124.990 206.200 M276.990 206.200 C 276.990 223.360,277.040 230.322,277.100 221.670 C 277.160 213.019,277.160 198.979,277.100 190.470 C 277.040 181.962,276.990 189.040,276.990 206.200 M124.229 239.829 C 124.081 240.415,124.038 240.972,124.132 241.066 C 124.227 241.160,124.424 240.758,124.571 240.171 C 124.719 239.585,124.762 239.028,124.668 238.934 C 124.573 238.840,124.376 239.242,124.229 239.829 M278.603 243.069 C 279.611 245.481,281.936 248.152,283.800 249.040 C 284.460 249.354,284.654 249.384,284.232 249.106 C 282.168 247.747,280.323 245.723,279.365 243.764 C 278.160 241.301,277.682 240.865,278.603 243.069 M97.618 243.000 C 97.557 244.660,103.381 250.353,104.250 249.483 C 104.347 249.387,103.907 249.093,103.273 248.830 C 101.909 248.265,99.152 245.497,98.261 243.800 C 97.915 243.140,97.625 242.780,97.618 243.000 M301.614 246.716 C 300.129 248.268,299.863 248.670,300.785 247.971 C 301.963 247.078,304.374 244.371,303.951 244.416 C 303.868 244.425,302.816 245.460,301.614 246.716 M120.400 247.000 C 119.428 247.990,118.723 248.800,118.833 248.800 C 118.943 248.800,119.828 247.990,120.800 247.000 C 121.772 246.010,122.477 245.200,122.367 245.200 C 122.257 245.200,121.372 246.010,120.400 247.000 M116.853 249.453 C 116.113 249.776,115.601 250.134,115.716 250.250 C 115.937 250.471,118.400 249.315,118.400 248.990 C 118.400 248.763,118.513 248.729,116.853 249.453 M109.300 250.888 C 110.345 251.070,112.055 251.070,113.100 250.888 C 114.734 250.603,114.468 250.557,111.200 250.557 C 107.932 250.557,107.666 250.603,109.300 250.888 M289.248 250.911 C 290.314 251.116,291.838 251.120,292.848 250.918 C 294.373 250.614,294.135 250.568,291.000 250.561 C 287.787 250.555,287.599 250.592,289.248 250.911 M267.012 267.012 C 266.855 268.688,266.811 270.144,266.914 270.248 C 267.018 270.351,267.231 269.064,267.388 267.388 C 267.545 265.712,267.589 264.256,267.486 264.152 C 267.382 264.049,267.169 265.336,267.012 267.012 M136.727 275.051 C 137.156 275.839,140.000 278.706,140.000 278.350 C 140.000 278.236,139.172 277.279,138.160 276.222 C 137.147 275.166,136.503 274.639,136.727 275.051 M263.775 276.500 L 262.600 277.800 263.900 276.625 C 264.615 275.979,265.200 275.394,265.200 275.325 C 265.200 275.016,264.870 275.288,263.775 276.500 M257.400 279.600 C 257.108 280.073,257.499 280.073,258.600 279.600 C 259.371 279.269,259.369 279.255,258.524 279.228 C 258.042 279.213,257.536 279.380,257.400 279.600 M144.400 280.400 C 145.942 280.894,146.764 280.894,146.000 280.400 C 145.670 280.187,144.950 280.027,144.400 280.046 L 143.400 280.080 144.400 280.400 M253.800 280.419 C 253.242 280.671,253.485 280.707,254.600 280.538 C 255.480 280.404,256.275 280.228,256.367 280.147 C 256.710 279.844,254.568 280.071,253.800 280.419 M150.200 281.213 C 154.405 281.645,158.346 281.621,156.200 281.177 C 155.320 280.995,152.980 280.864,151.000 280.886 L 147.400 280.926 150.200 281.213 M248.400 281.213 C 247.754 281.429,248.180 281.466,249.600 281.319 C 250.810 281.194,251.875 281.026,251.967 280.946 C 252.287 280.665,249.391 280.883,248.400 281.213 M201.200 281.591 L 213.000 281.800 213.207 298.200 L 213.413 314.600 213.507 298.380 C 213.577 286.192,213.481 282.041,213.120 281.680 C 212.764 281.324,209.629 281.224,201.020 281.291 L 189.400 281.382 201.200 281.591 M242.982 282.102 C 242.876 282.379,242.839 288.904,242.900 296.602 L 243.011 310.600 243.105 296.322 L 243.200 282.044 245.100 281.894 L 247.000 281.744 245.087 281.672 C 243.864 281.626,243.105 281.781,242.982 282.102 M159.690 303.200 C 159.673 308.370,159.782 313.410,159.932 314.400 C 160.192 316.115,160.107 296.887,159.845 294.800 C 159.776 294.250,159.706 298.030,159.690 303.200 M242.235 314.635 C 242.083 316.316,242.041 317.774,242.142 317.876 C 242.243 317.977,242.455 316.688,242.612 315.012 C 242.769 313.336,242.811 311.877,242.705 311.771 C 242.599 311.666,242.388 312.954,242.235 314.635 M213.848 316.600 C 213.973 317.700,214.241 318.870,214.444 319.200 C 214.835 319.840,214.752 319.266,214.008 316.200 C 213.632 314.647,213.627 314.659,213.848 316.600 M187.822 317.022 C 187.672 317.825,187.628 318.562,187.726 318.660 C 187.824 318.757,188.027 318.181,188.178 317.378 C 188.328 316.575,188.372 315.838,188.274 315.740 C 188.176 315.643,187.973 316.219,187.822 317.022 M241.467 318.667 C 241.320 318.813,241.211 319.308,241.225 319.767 C 241.249 320.533,241.282 320.523,241.634 319.642 C 242.026 318.663,241.944 318.189,241.467 318.667 M214.805 320.422 C 214.792 321.978,218.301 326.545,220.200 327.444 C 220.860 327.756,221.040 327.784,220.600 327.506 C 218.980 326.482,216.949 324.095,215.894 321.977 C 215.298 320.779,214.808 320.080,214.805 320.422 M185.853 322.900 L 185.133 324.200 185.958 323.200 C 186.689 322.313,187.014 321.600,186.686 321.600 C 186.624 321.600,186.249 322.185,185.853 322.900 M162.000 322.528 C 162.000 322.701,162.450 323.505,163.000 324.314 C 163.550 325.123,164.000 325.644,164.000 325.472 C 164.000 325.299,163.550 324.495,163.000 323.686 C 162.450 322.877,162.000 322.356,162.000 322.528 M237.618 325.734 L 236.237 327.400 237.918 325.819 C 238.843 324.949,239.600 324.184,239.600 324.119 C 239.600 323.659,238.794 324.316,237.618 325.734 M183.578 325.900 L 182.200 327.400 183.700 326.022 C 185.096 324.738,185.384 324.400,185.078 324.400 C 185.012 324.400,184.337 325.075,183.578 325.900 M170.623 329.253 C 172.171 329.585,176.354 329.589,177.524 329.260 C 178.032 329.117,176.422 329.000,173.946 329.000 C 171.471 329.000,169.975 329.114,170.623 329.253 M225.000 329.266 C 226.948 329.617,230.268 329.614,231.523 329.260 C 232.030 329.117,230.410 328.995,227.923 328.989 C 224.893 328.981,223.928 329.072,225.000 329.266 " stroke="none" fill="#fccc94" fill-rule="evenodd"></path></g></svg>