<svg id="svg" version="1.1" width="400" height="400" viewBox="0 0 400 400" xmlns="http://www.w3.org/2000/svg" xmlns:xlink="http://www.w3.org/1999/xlink" ><g id="svgg"><path id="path0" d="M187.364 41.181 C 184.264 41.357,180.574 41.780,179.164 42.122 C 177.754 42.463,175.070 42.865,173.200 43.015 C 171.330 43.165,169.228 43.524,168.529 43.812 C 167.829 44.100,166.209 44.463,164.929 44.620 C 163.648 44.777,161.738 45.241,160.685 45.652 C 159.632 46.064,158.282 46.404,157.685 46.409 C 157.088 46.414,155.861 46.753,154.958 47.163 C 154.055 47.573,152.358 48.114,151.186 48.366 C 150.014 48.617,148.862 48.975,148.627 49.162 C 148.392 49.348,147.300 49.779,146.200 50.120 C 142.796 51.172,140.659 51.987,139.146 52.810 C 138.346 53.244,137.501 53.600,137.269 53.600 C 136.898 53.600,128.799 57.434,127.200 58.367 C 126.870 58.559,125.384 59.303,123.899 60.019 C 122.413 60.735,120.996 61.564,120.750 61.860 C 120.504 62.157,120.109 62.400,119.873 62.400 C 119.445 62.400,118.886 62.741,114.087 65.930 C 112.706 66.849,111.423 67.600,111.236 67.600 C 111.050 67.600,110.665 67.881,110.379 68.225 C 110.094 68.568,108.857 69.504,107.630 70.304 C 106.404 71.104,104.024 72.893,102.341 74.279 C 100.659 75.666,99.093 76.800,98.861 76.800 C 98.629 76.800,98.296 77.042,98.120 77.337 C 97.944 77.632,96.488 78.997,94.885 80.369 C 86.805 87.284,76.558 98.598,70.412 107.390 C 69.648 108.483,68.703 109.697,68.312 110.088 C 67.920 110.480,67.600 111.061,67.600 111.380 C 67.600 111.699,67.371 112.104,67.092 112.280 C 66.812 112.456,66.359 113.050,66.085 113.600 C 65.811 114.150,65.051 115.410,64.395 116.400 C 63.739 117.390,62.942 118.754,62.624 119.432 C 62.306 120.109,61.766 120.896,61.423 121.181 C 61.080 121.465,60.800 121.911,60.800 122.171 C 60.800 122.432,60.350 123.255,59.800 124.000 C 59.250 124.745,58.800 125.697,58.800 126.115 C 58.800 126.532,58.440 127.331,58.000 127.891 C 57.560 128.450,57.200 129.219,57.200 129.600 C 57.200 129.981,56.840 130.750,56.400 131.309 C 55.960 131.869,55.600 132.475,55.600 132.657 C 55.600 132.989,54.154 136.179,52.815 138.800 C 52.422 139.570,51.977 140.767,51.827 141.461 C 51.677 142.154,51.204 143.408,50.777 144.246 C 50.350 145.084,50.000 146.008,50.000 146.301 C 50.000 146.593,49.665 147.500,49.256 148.316 C 48.847 149.132,48.393 150.578,48.247 151.528 C 48.101 152.479,47.735 153.649,47.434 154.128 C 47.133 154.608,46.693 156.145,46.455 157.544 C 46.218 158.944,45.841 160.309,45.617 160.579 C 45.393 160.849,45.018 162.451,44.783 164.138 C 44.549 165.826,44.116 167.790,43.822 168.503 C 43.528 169.216,43.156 171.510,42.994 173.600 C 42.833 175.690,42.453 178.210,42.151 179.200 C 40.827 183.538,40.444 212.558,41.638 218.000 C 41.855 218.990,42.315 222.140,42.659 225.000 C 43.003 227.860,43.523 230.830,43.815 231.600 C 44.107 232.370,44.461 234.157,44.601 235.571 C 44.741 236.984,45.203 238.822,45.628 239.655 C 46.053 240.487,46.408 241.760,46.418 242.484 C 46.427 243.208,46.709 244.520,47.044 245.400 C 47.379 246.280,47.928 247.990,48.263 249.200 C 48.599 250.410,49.061 251.627,49.289 251.904 C 49.518 252.181,49.858 253.226,50.044 254.224 C 50.231 255.223,50.657 256.314,50.992 256.649 C 51.326 256.983,51.600 257.667,51.600 258.169 C 51.600 258.671,52.050 259.927,52.600 260.962 C 53.150 261.996,53.600 263.158,53.600 263.543 C 53.600 263.929,54.050 264.855,54.600 265.600 C 55.150 266.345,55.599 267.145,55.599 267.378 C 55.596 268.131,62.471 281.305,63.477 282.472 C 63.739 282.777,64.150 283.470,64.390 284.013 C 64.630 284.556,65.724 286.260,66.822 287.800 C 67.919 289.340,69.605 291.778,70.569 293.218 C 71.533 294.658,72.609 296.075,72.961 296.367 C 73.312 296.659,73.600 297.039,73.600 297.210 C 73.600 297.382,74.118 298.125,74.751 298.861 C 75.385 299.598,77.393 301.979,79.214 304.154 C 81.036 306.329,83.217 308.759,84.062 309.554 C 84.907 310.349,85.599 311.219,85.599 311.486 C 85.600 311.753,86.005 312.185,86.500 312.445 C 86.995 312.704,88.570 314.049,90.000 315.432 C 93.179 318.507,96.286 321.266,99.200 323.601 C 100.410 324.570,101.702 325.642,102.071 325.982 C 102.439 326.322,103.398 327.050,104.201 327.600 C 105.004 328.150,106.124 329.005,106.689 329.500 C 107.254 329.995,107.843 330.400,107.996 330.400 C 108.150 330.400,108.799 330.850,109.438 331.400 C 110.077 331.949,110.754 332.399,110.942 332.400 C 111.130 332.400,111.789 332.805,112.406 333.300 C 114.735 335.168,115.376 335.600,115.819 335.600 C 116.071 335.600,116.587 335.944,116.967 336.364 C 117.348 336.784,118.114 337.242,118.670 337.382 C 119.225 337.521,120.247 338.021,120.940 338.492 C 121.633 338.963,122.650 339.641,123.200 339.998 C 124.125 340.600,130.585 343.767,134.800 345.686 C 135.790 346.136,137.230 346.819,138.000 347.202 C 138.770 347.586,139.973 348.024,140.672 348.176 C 141.372 348.327,142.159 348.710,142.421 349.026 C 142.683 349.342,143.371 349.602,143.949 349.604 C 144.527 349.606,145.900 350.050,147.000 350.591 C 148.100 351.132,149.457 351.581,150.015 351.587 C 150.574 351.594,151.743 351.963,152.614 352.407 C 153.485 352.851,155.221 353.379,156.472 353.581 C 157.724 353.782,159.164 354.210,159.674 354.532 C 160.183 354.854,161.860 355.244,163.400 355.400 C 164.940 355.556,166.650 355.913,167.200 356.194 C 167.750 356.474,170.067 356.918,172.349 357.180 C 174.631 357.442,176.961 357.833,177.527 358.048 C 181.799 359.673,219.756 359.629,222.806 357.997 C 223.250 357.759,225.678 357.386,228.202 357.166 C 230.725 356.947,233.556 356.498,234.491 356.168 C 235.427 355.838,237.274 355.461,238.596 355.330 C 239.918 355.200,241.270 354.863,241.600 354.582 C 241.930 354.300,243.231 353.881,244.491 353.650 C 245.751 353.419,247.191 352.967,247.691 352.645 C 248.191 352.323,249.320 351.936,250.200 351.785 C 251.080 351.634,252.160 351.288,252.600 351.015 C 253.040 350.743,254.120 350.390,255.000 350.231 C 255.880 350.071,256.960 349.711,257.400 349.431 C 257.840 349.151,258.920 348.691,259.800 348.409 C 260.680 348.127,261.850 347.663,262.400 347.378 C 262.950 347.093,264.660 346.294,266.200 345.602 C 267.740 344.911,269.270 344.204,269.600 344.032 C 273.155 342.180,275.166 341.171,276.000 340.821 C 277.033 340.388,277.746 339.970,279.790 338.600 C 281.627 337.369,282.458 336.887,284.283 335.998 C 285.209 335.546,286.082 334.991,286.222 334.764 C 286.363 334.537,286.865 334.175,287.339 333.960 C 296.502 329.807,320.178 307.500,328.904 294.800 C 329.282 294.250,330.406 292.630,331.401 291.200 C 334.587 286.625,335.365 285.430,336.089 284.000 C 336.479 283.230,337.153 282.060,337.587 281.400 C 338.022 280.740,338.744 279.570,339.193 278.800 C 339.641 278.030,340.182 277.130,340.394 276.800 C 340.606 276.470,341.424 274.850,342.212 273.200 C 343.000 271.550,343.803 269.930,343.995 269.600 C 344.350 268.993,346.045 265.302,347.486 262.000 C 349.438 257.526,349.980 256.107,350.234 254.806 C 350.383 254.039,350.731 253.049,351.008 252.606 C 351.284 252.163,351.634 251.080,351.785 250.200 C 351.936 249.320,352.323 248.191,352.645 247.691 C 352.967 247.191,353.419 245.751,353.650 244.491 C 353.881 243.231,354.301 241.930,354.583 241.600 C 354.865 241.270,355.214 239.783,355.359 238.296 C 355.504 236.808,355.811 235.098,356.041 234.496 C 356.271 233.893,356.720 231.175,357.039 228.457 C 357.358 225.738,357.801 223.173,358.023 222.756 C 359.637 219.741,359.626 179.838,358.010 176.819 C 357.787 176.401,357.397 174.201,357.146 171.930 C 356.894 169.658,356.462 167.350,356.185 166.800 C 355.909 166.249,355.552 164.719,355.393 163.400 C 355.234 162.080,354.765 160.245,354.352 159.322 C 353.938 158.399,353.594 157.049,353.587 156.322 C 353.581 155.595,353.132 154.100,352.591 153.000 C 352.050 151.900,351.606 150.675,351.604 150.278 C 351.602 149.881,351.256 148.801,350.836 147.878 C 350.416 146.955,349.943 145.480,349.786 144.600 C 349.628 143.720,349.279 142.730,349.010 142.400 C 348.741 142.070,348.241 140.990,347.899 140.000 C 346.529 136.042,345.913 134.572,345.369 133.969 C 345.056 133.621,344.801 133.171,344.801 132.969 C 344.804 132.433,340.792 124.431,339.748 122.889 C 339.260 122.167,338.454 120.737,337.956 119.710 C 337.156 118.057,334.204 113.322,333.259 112.175 C 333.066 111.941,332.675 111.311,332.390 110.775 C 332.105 110.239,331.136 108.866,330.236 107.725 C 329.336 106.584,328.150 104.996,327.600 104.196 C 327.050 103.396,326.322 102.439,325.982 102.071 C 325.642 101.702,324.565 100.410,323.588 99.200 C 321.394 96.480,316.758 91.249,314.542 88.994 C 313.631 88.065,312.679 86.922,312.428 86.453 C 312.177 85.984,311.729 85.600,311.432 85.600 C 311.136 85.600,310.273 84.914,309.516 84.075 C 308.758 83.237,306.352 81.060,304.169 79.237 C 296.984 73.238,295.960 72.430,292.969 70.400 C 291.835 69.630,289.599 68.100,288.001 67.000 C 286.403 65.900,284.804 64.824,284.448 64.610 C 284.091 64.395,283.170 63.822,282.400 63.335 C 280.510 62.140,276.663 60.097,271.600 57.599 C 263.984 53.842,262.605 53.200,262.149 53.200 C 261.901 53.200,261.486 52.944,261.226 52.631 C 260.966 52.318,259.999 51.939,259.077 51.788 C 258.155 51.637,257.117 51.264,256.772 50.960 C 256.427 50.656,255.213 50.230,254.075 50.014 C 252.936 49.798,251.599 49.369,251.102 49.061 C 250.606 48.752,249.302 48.284,248.205 48.020 C 247.108 47.757,246.022 47.384,245.792 47.193 C 245.561 47.002,244.269 46.668,242.920 46.450 C 241.571 46.233,239.957 45.794,239.334 45.475 C 238.710 45.155,237.210 44.777,236.000 44.635 C 234.790 44.492,232.900 44.122,231.800 43.811 C 230.700 43.501,227.550 42.964,224.800 42.618 C 222.050 42.273,218.900 41.819,217.800 41.609 C 215.044 41.083,194.244 40.791,187.364 41.181 M111.681 96.760 C 112.187 96.958,113.323 97.312,114.207 97.548 C 119.859 99.055,123.787 105.994,122.794 112.721 C 120.372 129.127,95.800 127.393,95.800 110.816 C 95.800 103.862,98.310 100.480,106.000 97.072 C 107.581 96.371,110.306 96.221,111.681 96.760 M160.371 97.454 C 161.175 98.476,161.200 98.944,161.200 113.010 L 161.200 127.512 165.900 127.759 C 168.485 127.895,171.950 127.870,173.600 127.703 L 176.600 127.400 176.606 124.800 C 176.669 96.652,176.813 95.323,179.626 96.806 C 181.195 97.634,181.187 97.556,181.194 112.857 C 181.199 124.228,181.312 127.550,181.700 127.671 C 182.156 127.814,184.167 127.811,193.900 127.653 L 197.200 127.600 197.200 113.019 C 197.200 97.493,197.321 96.400,199.035 96.400 C 201.514 96.400,201.621 97.097,201.590 112.966 L 201.561 127.400 202.681 127.629 C 203.586 127.814,214.802 127.829,216.700 127.648 C 217.090 127.611,217.200 124.348,217.200 112.800 C 217.200 96.666,217.238 96.400,219.571 96.400 C 221.880 96.400,222.000 97.221,222.000 113.054 C 222.000 124.415,222.109 127.604,222.500 127.617 C 222.775 127.627,224.710 127.699,226.800 127.778 C 228.890 127.857,232.175 127.823,234.100 127.703 L 237.600 127.485 237.600 113.104 C 237.600 97.420,237.738 96.400,239.864 96.400 C 241.924 96.400,242.000 96.987,242.000 112.889 L 242.000 127.600 245.100 127.640 C 249.387 127.695,250.117 127.952,250.438 129.522 C 250.902 131.791,250.278 139.580,249.598 140.009 C 248.393 140.772,149.180 140.506,148.331 139.738 C 147.696 139.163,147.600 138.409,147.600 133.987 C 147.600 127.996,147.665 127.888,151.324 127.806 C 152.686 127.776,154.385 127.717,155.100 127.675 L 156.400 127.600 156.400 112.876 C 156.400 97.710,156.447 97.233,158.000 96.678 C 159.139 96.271,159.545 96.404,160.371 97.454 M291.381 96.769 C 291.506 96.972,292.192 97.264,292.905 97.417 C 296.148 98.113,298.662 100.041,300.679 103.375 L 302.600 106.549 302.581 110.602 C 302.551 116.703,299.650 120.923,293.846 123.307 C 291.008 124.472,285.543 124.879,284.980 123.967 C 284.832 123.729,283.967 123.208,283.056 122.811 C 271.694 117.848,273.099 101.050,285.200 97.177 C 287.602 96.408,291.019 96.183,291.381 96.769 M106.275 101.583 C 102.932 102.657,100.000 106.746,100.000 110.335 C 100.000 120.154,113.327 123.226,117.782 114.435 C 121.400 107.296,114.049 99.086,106.275 101.583 M286.401 101.474 C 283.111 101.925,279.600 106.644,279.600 110.616 C 279.600 113.685,282.646 118.479,284.924 118.995 C 288.567 119.820,289.100 119.838,291.600 119.218 C 299.375 117.289,300.982 107.060,294.186 102.750 C 292.164 101.468,289.559 101.041,286.401 101.474 M138.176 147.980 C 139.002 148.666,139.144 249.096,138.320 249.920 C 137.616 250.624,127.451 250.585,126.863 249.876 C 126.624 249.587,126.344 248.192,126.241 246.776 C 125.922 242.384,127.425 242.784,112.059 243.004 C 96.584 243.226,95.739 243.093,95.864 240.455 C 95.965 238.330,95.748 238.360,111.117 238.379 C 122.003 238.393,125.628 238.279,125.854 237.913 C 126.244 237.281,126.266 223.545,125.877 222.921 C 125.654 222.564,121.933 222.445,111.168 222.452 C 95.956 222.462,95.600 222.420,95.600 220.627 C 95.600 218.164,95.336 218.207,111.204 218.131 C 119.161 218.093,125.760 217.973,125.868 217.865 C 126.184 217.549,126.159 203.380,125.841 202.867 C 125.630 202.525,121.703 202.400,111.186 202.400 L 96.818 202.400 96.176 201.420 C 93.970 198.053,95.960 197.575,112.045 197.611 C 119.551 197.627,125.770 197.563,125.864 197.469 C 126.192 197.142,126.263 183.795,125.942 182.900 L 125.620 182.000 111.341 182.000 C 95.681 182.000,95.600 181.988,95.600 179.618 C 95.600 177.593,95.547 177.600,111.090 177.600 L 125.620 177.600 125.946 176.700 C 126.299 175.726,126.157 162.424,125.790 162.056 C 125.667 161.933,119.139 161.779,111.283 161.714 C 103.427 161.649,96.798 161.521,96.551 161.430 C 95.718 161.123,95.523 159.177,96.220 158.114 L 96.876 157.112 111.230 157.258 L 125.584 157.405 126.033 156.320 C 126.315 155.640,126.379 154.341,126.205 152.840 C 125.808 149.426,126.185 148.078,127.640 147.703 C 129.632 147.190,137.472 147.396,138.176 147.980 M271.448 148.078 C 271.611 148.342,271.847 150.397,271.972 152.646 C 272.097 154.894,272.345 156.879,272.522 157.056 C 272.700 157.233,279.240 157.324,287.056 157.258 C 302.747 157.125,302.356 157.064,302.387 159.651 C 302.413 161.789,302.294 161.804,286.780 161.674 C 276.220 161.585,272.401 161.675,272.188 162.019 C 271.800 162.648,271.962 176.916,272.362 177.320 C 272.537 177.495,279.118 177.626,286.987 177.610 C 302.307 177.579,302.400 177.591,302.400 179.600 C 302.400 181.776,302.286 181.793,286.879 181.879 C 278.786 181.925,272.521 182.119,272.309 182.331 C 271.969 182.671,271.836 197.170,272.171 197.504 C 272.251 197.585,278.501 197.684,286.059 197.725 C 300.844 197.806,302.051 197.966,302.325 199.879 C 302.676 202.337,302.154 202.422,286.784 202.390 C 279.086 202.374,272.610 202.470,272.394 202.604 C 271.967 202.868,271.829 216.689,272.243 217.767 C 272.458 218.328,274.130 218.400,286.963 218.400 C 302.464 218.400,302.400 218.392,302.400 220.431 C 302.400 222.362,302.235 222.383,286.765 222.495 L 272.200 222.600 272.200 230.400 L 272.200 238.200 286.800 238.302 C 302.718 238.413,302.400 238.364,302.400 240.697 C 302.400 242.613,300.941 242.800,286.020 242.800 L 272.415 242.800 272.228 243.700 C 272.126 244.195,271.973 245.624,271.890 246.876 C 271.658 250.352,271.570 250.400,265.378 250.400 C 260.651 250.400,260.031 250.322,259.853 249.700 C 259.312 247.818,259.406 148.916,259.949 148.262 C 260.643 147.425,270.943 147.261,271.448 148.078 M201.420 171.701 C 206.954 175.081,206.430 180.303,200.344 182.422 C 197.599 183.378,190.554 177.988,192.763 176.623 C 192.947 176.509,193.200 175.918,193.326 175.308 C 194.056 171.787,198.394 169.853,201.420 171.701 M224.365 171.500 C 225.041 171.885,225.600 172.470,225.606 172.800 C 225.612 173.130,225.969 174.174,226.398 175.119 L 227.178 176.839 226.089 178.805 C 224.895 180.961,224.492 181.140,220.741 181.174 C 217.412 181.204,216.619 180.430,216.608 177.142 C 216.593 172.504,220.780 169.459,224.365 171.500 M177.564 171.785 C 183.796 173.444,183.105 180.915,176.600 182.214 C 172.589 183.015,170.000 180.921,170.000 176.876 C 170.000 173.933,172.054 171.625,175.000 171.259 C 175.220 171.232,176.374 171.469,177.564 171.785 M178.442 194.508 C 182.952 198.783,183.202 200.611,179.699 203.700 C 176.873 206.191,171.526 205.497,170.328 202.484 C 169.971 201.587,169.978 197.598,170.338 196.687 C 171.262 194.347,176.723 192.879,178.442 194.508 M201.830 194.287 C 204.845 197.302,203.973 202.338,200.186 203.784 C 196.036 205.369,192.193 202.359,192.984 198.143 C 193.611 194.801,199.693 192.150,201.830 194.287 M225.363 196.985 C 227.777 199.331,227.784 200.322,225.402 202.703 C 222.978 205.127,220.221 204.520,218.045 201.084 C 215.456 196.994,221.747 193.470,225.363 196.985 M178.675 217.914 C 180.701 219.202,180.255 226.419,178.099 227.238 C 173.307 229.060,169.664 226.838,170.095 222.356 C 170.456 218.597,175.578 215.945,178.675 217.914 M225.409 220.451 C 228.246 223.066,227.203 226.860,223.480 227.464 C 218.272 228.310,215.466 224.028,218.947 220.547 C 221.341 218.154,222.892 218.130,225.409 220.451 M201.610 220.118 C 204.088 221.428,204.424 222.700,202.932 225.113 C 200.858 228.468,197.179 228.498,195.305 225.175 C 192.999 221.087,197.149 217.759,201.610 220.118 M210.893 260.387 C 233.100 260.403,248.787 260.567,249.369 260.788 C 250.330 261.154,250.355 261.275,250.477 266.081 C 250.625 271.938,250.320 272.526,247.219 272.364 C 246.219 272.312,244.635 272.298,243.700 272.334 L 242.000 272.400 241.994 286.900 C 241.988 302.613,241.903 303.293,239.918 303.524 C 237.893 303.760,237.809 303.140,237.731 287.263 C 237.691 279.267,237.547 272.614,237.410 272.477 C 237.147 272.214,223.352 272.084,222.500 272.337 C 222.112 272.452,222.000 275.746,222.000 287.061 L 222.000 301.636 221.018 302.618 C 219.760 303.877,219.060 303.857,218.020 302.534 C 217.203 301.496,217.182 301.104,217.210 287.050 C 217.237 273.312,217.203 272.619,216.490 272.355 C 216.078 272.203,212.544 272.196,208.636 272.339 L 201.531 272.600 201.525 287.000 C 201.519 302.970,201.384 303.921,199.203 303.397 C 197.210 302.918,197.200 302.842,197.200 287.347 C 197.200 279.372,197.044 272.751,196.854 272.633 C 196.547 272.444,184.421 272.208,182.100 272.346 L 181.200 272.400 181.200 287.184 C 181.200 303.330,181.160 303.600,178.735 303.600 C 176.979 303.600,176.807 302.130,176.784 286.879 L 176.763 272.506 170.681 272.327 C 167.337 272.229,163.835 272.224,162.900 272.316 L 161.200 272.484 161.200 286.862 C 161.200 303.578,161.143 303.893,158.200 303.617 C 156.447 303.452,156.400 303.027,156.400 287.324 C 156.400 279.116,156.265 272.396,156.100 272.392 C 146.687 272.146,147.600 272.762,147.600 266.653 C 147.600 259.535,146.200 260.177,161.499 260.280 C 168.045 260.324,190.272 260.372,210.893 260.387 M114.600 277.207 C 128.130 283.285,124.118 303.800,109.400 303.800 C 105.136 303.800,97.600 299.462,97.600 297.008 C 97.600 296.876,97.195 296.220,96.700 295.550 C 95.327 293.693,95.362 286.533,96.756 284.200 C 99.567 279.496,100.726 278.491,105.247 276.844 C 109.188 275.407,110.727 275.467,114.600 277.207 M292.959 276.881 C 296.710 278.236,298.332 279.560,301.191 283.600 C 302.863 285.964,302.905 292.268,301.271 295.668 C 296.269 306.073,282.546 306.315,276.777 296.099 C 271.091 286.032,282.099 272.960,292.959 276.881 M106.130 281.201 C 96.358 285.140,98.796 299.035,109.241 298.931 C 114.676 298.877,118.225 295.842,118.706 290.836 C 119.348 284.159,112.262 278.730,106.130 281.201 M285.474 281.207 C 279.546 282.986,277.823 291.125,282.258 296.397 C 284.989 299.641,292.133 299.902,295.337 296.875 C 302.852 289.775,295.553 278.181,285.474 281.207 " stroke="none" fill="#FF5B20" fill-rule="evenodd"></path><path id="path1" d="M106.000 97.072 C 98.310 100.480,95.800 103.862,95.800 110.816 C 95.800 124.728,113.703 129.347,121.319 117.400 C 125.505 110.835,121.437 99.491,114.200 97.549 C 113.320 97.313,112.187 96.958,111.681 96.760 C 110.306 96.221,107.581 96.371,106.000 97.072 M158.000 96.701 C 156.451 97.194,156.400 97.711,156.400 112.834 C 156.400 128.939,156.251 128.000,158.800 128.000 C 161.346 128.000,161.200 128.903,161.200 113.190 C 161.200 105.311,161.088 98.574,160.952 98.218 C 160.637 97.398,158.790 96.449,158.000 96.701 M177.629 97.454 C 176.838 98.459,176.795 99.055,176.701 110.354 C 176.543 129.237,176.368 128.102,179.400 127.904 L 181.000 127.800 181.112 113.400 C 181.235 97.451,181.241 97.529,179.791 96.869 C 178.466 96.265,178.591 96.232,177.629 97.454 M197.643 97.500 C 197.325 98.270,197.220 102.986,197.294 113.200 L 197.400 127.800 198.548 127.931 C 199.180 128.003,200.117 127.957,200.630 127.828 L 201.563 127.594 201.590 113.062 C 201.617 98.896,201.596 98.503,200.780 97.465 C 199.660 96.042,198.238 96.058,197.643 97.500 M217.995 97.205 C 217.214 97.986,217.193 98.440,217.295 112.905 L 217.400 127.800 218.755 127.929 C 219.501 128.001,220.536 127.952,221.055 127.822 L 222.000 127.585 222.000 113.046 C 222.000 98.944,221.975 98.476,221.171 97.454 C 220.180 96.194,219.091 96.109,217.995 97.205 M238.429 97.454 C 237.625 98.476,237.600 98.944,237.600 113.046 L 237.600 127.585 238.552 127.824 C 239.075 127.955,240.020 128.003,240.652 127.931 L 241.800 127.800 241.905 113.037 C 241.995 100.316,241.925 98.145,241.396 97.337 C 240.588 96.105,239.455 96.150,238.429 97.454 M285.200 97.177 C 273.099 101.050,271.694 117.848,283.056 122.811 C 283.967 123.208,284.832 123.729,284.980 123.967 C 285.815 125.318,294.136 123.897,296.541 121.992 C 301.373 118.163,302.555 115.939,302.581 110.622 L 302.600 106.549 300.679 103.375 C 298.662 100.041,296.148 98.113,292.905 97.417 C 292.192 97.264,291.506 96.972,291.381 96.769 C 291.019 96.183,287.602 96.408,285.200 97.177 M115.117 103.075 C 121.137 108.007,119.172 117.788,111.867 119.255 C 107.291 120.174,102.918 118.588,101.591 115.529 C 101.336 114.940,100.873 114.360,100.563 114.241 C 99.590 113.868,99.814 108.660,100.897 106.491 C 103.505 101.270,110.782 99.522,115.117 103.075 M294.186 102.750 C 303.035 108.362,297.150 121.554,286.763 119.391 C 279.151 117.806,277.090 108.149,283.281 103.076 C 286.075 100.787,290.864 100.644,294.186 102.750 M96.935 157.576 C 95.001 158.408,95.488 161.600,97.549 161.600 C 98.192 161.600,104.722 161.639,112.059 161.687 C 126.609 161.781,127.200 161.717,127.200 160.035 C 127.200 157.454,127.003 157.420,111.663 157.306 C 103.742 157.248,97.429 157.363,96.935 157.576 M271.870 158.263 C 271.072 159.321,271.005 160.540,271.712 161.127 C 272.555 161.827,300.907 161.941,301.742 161.248 C 302.749 160.413,302.578 158.535,301.426 157.780 C 299.662 156.625,272.774 157.063,271.870 158.263 M96.020 178.176 C 95.248 179.106,95.675 180.918,96.800 181.485 C 98.615 182.399,125.293 182.202,126.138 181.269 C 127.046 180.265,126.986 178.528,126.026 178.014 C 124.707 177.308,96.615 177.459,96.020 178.176 M271.900 178.168 C 270.956 178.869,271.017 180.111,272.042 181.038 C 273.148 182.039,300.552 182.236,301.739 181.251 C 302.542 180.584,302.607 178.670,301.848 178.040 C 301.007 177.342,272.850 177.462,271.900 178.168 M97.127 198.209 C 95.722 198.979,95.365 200.182,96.176 201.420 L 96.818 202.400 111.180 202.400 L 125.542 202.400 126.371 201.346 C 127.329 200.128,127.467 198.188,126.618 197.862 C 125.152 197.300,98.209 197.617,97.127 198.209 M271.415 198.140 C 270.663 198.689,270.841 200.051,271.841 201.400 C 272.796 202.689,300.335 202.865,301.610 201.590 C 302.734 200.466,302.481 199.149,301.000 198.404 C 299.386 197.592,272.492 197.352,271.415 198.140 M98.200 218.278 C 95.877 218.514,94.668 220.728,96.178 221.982 C 96.995 222.659,125.416 222.650,126.234 221.972 C 127.005 221.332,126.949 219.421,126.139 218.749 C 125.495 218.214,102.622 217.829,98.200 218.278 M271.614 219.174 C 271.016 220.292,271.102 220.987,271.931 221.738 C 272.874 222.591,301.078 222.762,301.920 221.920 C 302.539 221.301,302.539 219.499,301.920 218.880 C 300.980 217.940,272.124 218.220,271.614 219.174 M97.391 238.401 C 96.494 238.557,96.143 238.902,95.852 239.919 C 95.057 242.690,96.921 243.005,113.384 242.877 C 127.616 242.767,127.402 242.803,127.005 240.600 C 126.650 238.626,125.959 238.401,120.224 238.392 C 117.351 238.387,111.299 238.342,106.777 238.292 C 102.254 238.241,98.030 238.291,97.391 238.401 M271.780 239.374 C 271.429 239.910,271.200 240.855,271.271 241.474 L 271.400 242.600 286.000 242.600 C 301.446 242.600,302.400 242.493,302.400 240.760 C 302.400 238.311,302.982 238.400,286.995 238.400 L 272.418 238.400 271.780 239.374 M156.900 272.265 C 156.513 272.421,156.400 275.819,156.400 287.357 C 156.400 304.187,156.353 303.941,159.490 303.646 C 161.281 303.478,162.330 272.919,160.567 272.243 C 159.829 271.960,157.624 271.973,156.900 272.265 M177.274 272.335 C 176.933 272.558,176.768 273.440,176.805 274.840 C 176.837 276.028,176.854 282.464,176.842 289.142 C 176.819 303.630,177.318 305.585,180.329 302.780 L 181.210 301.960 181.105 287.080 L 181.000 272.200 179.400 272.096 C 178.520 272.038,177.563 272.146,177.274 272.335 M197.680 272.480 C 196.976 273.184,196.994 301.578,197.700 302.502 C 198.656 303.753,200.133 303.761,200.863 302.519 C 201.809 300.909,201.751 272.993,200.800 272.392 C 199.959 271.860,198.252 271.908,197.680 272.480 M217.919 272.263 C 216.743 272.588,216.838 301.032,218.020 302.535 C 219.062 303.859,219.760 303.876,221.028 302.608 L 222.020 301.617 221.910 286.908 L 221.800 272.200 220.200 272.137 C 219.320 272.103,218.293 272.159,217.919 272.263 M238.129 272.312 C 237.417 272.765,237.604 301.451,238.328 302.724 C 239.033 303.962,240.789 303.782,241.485 302.400 C 242.323 300.735,242.213 272.567,241.367 272.243 C 240.500 271.910,238.701 271.948,238.129 272.312 M108.200 275.882 C 104.316 276.741,100.047 279.091,98.703 281.110 C 95.827 285.434,95.800 285.515,95.800 290.010 C 95.800 293.770,95.896 294.342,96.700 295.364 C 97.195 295.993,97.600 296.674,97.600 296.878 C 97.600 298.005,100.786 300.890,103.571 302.284 C 117.366 309.189,129.887 290.806,118.750 279.998 C 116.068 277.395,110.747 275.319,108.200 275.882 M283.800 277.381 C 276.255 281.067,273.074 289.544,276.777 296.099 C 284.223 309.283,302.904 304.144,302.335 289.068 C 302.172 284.768,302.104 284.588,299.272 281.037 C 295.603 276.434,288.955 274.863,283.800 277.381 M113.424 281.438 C 118.764 283.972,120.239 290.077,116.782 295.335 C 111.971 302.653,100.000 298.847,100.000 289.999 C 100.000 283.326,107.424 278.591,113.424 281.438 M293.645 281.945 C 299.173 284.883,300.030 292.441,295.337 296.875 C 292.133 299.902,284.989 299.641,282.258 296.397 C 275.178 287.982,283.980 276.810,293.645 281.945 " stroke="none" fill="#1A0202" fill-rule="evenodd"></path><path id="path2" d="M0.000 200.000 L 0.000 400.000 200.000 400.000 L 400.000 400.000 400.000 200.000 L 400.000 0.000 200.000 0.000 L 0.000 0.000 0.000 200.000 M206.724 39.606 C 208.772 39.822,213.422 40.186,217.057 40.415 C 220.894 40.657,224.440 41.095,225.508 41.457 C 226.519 41.801,228.799 42.231,230.574 42.413 C 232.348 42.595,234.520 43.018,235.400 43.354 C 236.280 43.690,237.637 43.973,238.415 43.982 C 239.194 43.992,240.537 44.360,241.400 44.800 C 242.263 45.240,243.386 45.600,243.895 45.600 C 245.054 45.600,250.927 47.434,252.800 48.381 C 253.570 48.770,254.899 49.217,255.754 49.373 C 256.609 49.529,257.956 50.004,258.748 50.428 C 259.540 50.853,260.406 51.200,260.673 51.200 C 260.940 51.200,262.004 51.650,263.038 52.200 C 264.073 52.750,265.140 53.200,265.411 53.200 C 265.681 53.200,266.110 53.450,266.363 53.756 C 266.617 54.061,267.609 54.509,268.567 54.750 C 269.526 54.991,270.415 55.461,270.543 55.794 C 270.670 56.128,271.196 56.400,271.711 56.400 C 272.226 56.400,272.996 56.670,273.424 57.000 C 273.851 57.330,274.920 57.956,275.800 58.390 C 276.680 58.825,277.670 59.365,278.000 59.590 C 278.330 59.816,279.050 60.184,279.600 60.408 C 280.150 60.633,281.410 61.351,282.400 62.005 C 283.390 62.659,284.681 63.388,285.268 63.625 C 285.855 63.862,286.435 64.313,286.555 64.628 C 286.676 64.943,286.965 65.200,287.197 65.200 C 287.618 65.200,291.619 67.827,292.000 68.352 C 292.110 68.505,293.100 69.208,294.200 69.915 C 296.197 71.198,297.155 71.891,299.020 73.400 C 299.563 73.840,300.481 74.560,301.059 75.000 C 302.420 76.037,310.577 83.284,312.895 85.516 C 313.777 86.365,317.320 90.197,319.505 92.663 C 320.882 94.218,322.502 96.043,323.105 96.718 C 323.707 97.392,324.560 98.415,325.000 98.991 C 325.850 100.104,327.263 101.809,328.156 102.800 C 328.453 103.130,328.983 103.963,329.333 104.652 C 329.684 105.340,330.247 106.009,330.585 106.139 C 330.923 106.269,331.200 106.623,331.200 106.925 C 331.200 107.228,331.560 107.802,332.000 108.200 C 332.440 108.598,332.800 109.095,332.800 109.304 C 332.800 109.513,333.250 110.219,333.800 110.873 C 334.350 111.527,334.800 112.309,334.800 112.611 C 334.800 112.913,335.026 113.304,335.301 113.480 C 336.033 113.947,338.512 117.949,339.836 120.800 C 340.194 121.570,340.723 122.336,341.012 122.502 C 341.301 122.669,341.655 123.342,341.800 123.998 C 341.944 124.654,342.219 125.288,342.411 125.407 C 342.827 125.664,345.022 130.171,345.427 131.600 C 345.582 132.150,346.045 133.029,346.455 133.554 C 346.865 134.079,347.200 134.822,347.200 135.205 C 347.200 135.588,347.460 136.118,347.778 136.382 C 348.096 136.646,348.556 137.824,348.800 139.000 C 349.044 140.176,349.499 141.350,349.811 141.609 C 350.123 141.868,350.501 142.734,350.651 143.532 C 350.801 144.330,351.255 145.527,351.660 146.192 C 352.065 146.856,352.398 147.943,352.399 148.606 C 352.399 149.269,352.747 150.460,353.172 151.253 C 353.597 152.045,354.123 153.572,354.340 154.647 C 354.558 155.721,355.013 157.320,355.351 158.200 C 355.689 159.080,355.973 160.294,355.982 160.898 C 355.992 161.503,356.343 163.033,356.763 164.298 C 357.183 165.564,357.625 167.682,357.747 169.004 C 357.868 170.326,358.243 172.189,358.581 173.145 C 358.918 174.100,359.371 177.069,359.588 179.741 C 359.804 182.414,360.184 185.860,360.431 187.400 C 361.026 191.109,361.055 211.403,360.468 213.228 C 360.226 213.983,359.832 216.914,359.595 219.742 C 359.357 222.569,358.918 225.629,358.619 226.542 C 358.320 227.454,357.954 229.753,357.806 231.650 C 357.658 233.548,357.267 235.618,356.939 236.250 C 356.610 236.883,356.236 238.300,356.108 239.400 C 355.979 240.500,355.556 242.148,355.167 243.063 C 354.778 243.978,354.335 245.562,354.182 246.583 C 354.029 247.604,353.652 248.691,353.346 248.997 C 353.039 249.304,352.615 250.464,352.405 251.575 C 352.194 252.686,351.766 254.001,351.454 254.498 C 351.142 254.994,350.765 256.265,350.615 257.323 C 350.466 258.381,350.101 259.340,349.805 259.454 C 349.508 259.567,349.053 260.547,348.793 261.630 C 348.533 262.714,348.172 263.600,347.991 263.600 C 347.810 263.600,347.440 264.275,347.170 265.100 C 346.899 265.925,346.365 267.230,345.984 268.000 C 345.603 268.770,344.782 270.480,344.159 271.800 C 343.536 273.120,342.796 274.438,342.514 274.728 C 342.232 275.018,341.889 275.738,341.753 276.328 C 341.616 276.918,341.301 277.580,341.052 277.800 C 340.803 278.020,340.288 278.875,339.906 279.700 C 339.525 280.525,339.050 281.200,338.850 281.200 C 338.650 281.200,338.366 281.681,338.219 282.268 C 338.071 282.856,337.602 283.780,337.175 284.322 C 336.749 284.864,336.400 285.547,336.400 285.840 C 336.400 286.132,336.040 286.565,335.600 286.800 C 335.160 287.035,334.800 287.478,334.800 287.783 C 334.800 288.089,334.350 288.873,333.800 289.527 C 333.250 290.181,332.800 290.815,332.800 290.938 C 332.800 291.319,330.453 294.658,329.811 295.191 C 329.475 295.470,329.200 295.944,329.200 296.246 C 329.200 296.547,328.840 297.018,328.400 297.293 C 327.960 297.568,327.600 298.009,327.600 298.274 C 327.600 298.538,327.269 298.990,326.863 299.277 C 326.458 299.565,325.894 300.250,325.609 300.800 C 325.324 301.350,324.801 302.093,324.446 302.451 C 324.091 302.810,322.630 304.400,321.200 305.986 C 317.888 309.658,309.685 317.865,306.134 321.060 C 304.630 322.413,302.879 323.988,302.242 324.560 C 301.604 325.132,300.967 325.600,300.825 325.600 C 300.683 325.600,299.674 326.409,298.583 327.398 C 297.492 328.387,296.381 329.197,296.114 329.198 C 295.847 329.199,295.449 329.535,295.229 329.945 C 295.010 330.355,294.284 330.917,293.615 331.194 C 292.947 331.471,292.400 331.833,292.400 332.000 C 292.400 332.167,291.860 332.527,291.200 332.800 C 290.540 333.073,290.000 333.453,290.000 333.643 C 290.000 333.834,289.415 334.234,288.700 334.533 C 287.985 334.832,287.153 335.374,286.851 335.738 C 286.549 336.102,286.062 336.400,285.769 336.400 C 285.475 336.400,284.572 336.850,283.762 337.400 C 282.951 337.950,282.043 338.400,281.744 338.400 C 281.445 338.400,281.200 338.583,281.200 338.806 C 281.200 339.030,280.525 339.525,279.700 339.906 C 278.875 340.288,278.064 340.811,277.898 341.069 C 277.731 341.327,277.058 341.655,276.402 341.800 C 275.746 341.944,275.101 342.237,274.968 342.452 C 274.748 342.808,271.407 344.445,266.800 346.453 C 265.810 346.885,264.370 347.567,263.600 347.969 C 262.830 348.371,261.615 348.827,260.900 348.982 C 260.185 349.137,259.600 349.422,259.600 349.616 C 259.600 349.810,258.835 350.159,257.900 350.391 C 256.965 350.623,255.660 351.076,255.000 351.397 C 254.340 351.719,252.934 352.169,251.875 352.398 C 250.816 352.627,249.556 353.068,249.075 353.378 C 248.594 353.687,247.480 354.058,246.600 354.201 C 245.720 354.344,244.100 354.793,243.000 355.197 C 241.900 355.602,240.144 356.035,239.097 356.159 C 238.050 356.284,236.790 356.639,236.297 356.949 C 235.804 357.259,233.870 357.635,232.000 357.784 C 230.130 357.933,227.880 358.294,227.000 358.586 C 226.120 358.879,223.960 359.239,222.200 359.387 C 220.440 359.536,216.750 359.930,214.000 360.264 C 208.075 360.983,192.455 361.078,188.000 360.423 C 186.350 360.180,182.659 359.818,179.799 359.618 C 176.938 359.419,174.086 359.061,173.461 358.823 C 172.836 358.586,170.728 358.133,168.777 357.817 C 166.825 357.502,164.883 357.059,164.461 356.833 C 164.039 356.607,162.376 356.217,160.767 355.968 C 159.157 355.718,157.471 355.284,157.020 355.004 C 156.569 354.724,155.418 354.378,154.463 354.237 C 153.508 354.095,152.030 353.624,151.179 353.189 C 150.328 352.755,149.123 352.400,148.501 352.400 C 147.878 352.400,146.684 352.050,145.846 351.623 C 145.008 351.196,143.787 350.729,143.134 350.585 C 142.481 350.442,141.854 350.085,141.742 349.792 C 141.629 349.499,140.786 349.136,139.869 348.984 C 138.110 348.693,133.415 346.671,133.022 346.035 C 132.895 345.830,132.238 345.540,131.561 345.392 C 130.430 345.143,126.366 343.182,125.409 342.423 C 125.184 342.244,124.550 341.965,124.000 341.802 C 123.450 341.639,122.697 341.240,122.328 340.916 C 121.600 340.278,119.782 339.219,117.671 338.204 C 116.353 337.571,113.182 335.451,111.137 333.838 C 110.553 333.377,109.068 332.392,107.837 331.649 C 106.607 330.906,105.600 330.153,105.600 329.976 C 105.600 329.799,105.234 329.538,104.787 329.396 C 104.340 329.254,103.528 328.747,102.983 328.269 C 102.438 327.791,101.522 327.040,100.949 326.600 C 100.375 326.160,99.566 325.485,99.152 325.100 C 98.739 324.715,98.250 324.400,98.066 324.400 C 97.882 324.400,97.286 323.905,96.741 323.300 C 96.196 322.695,94.793 321.390,93.623 320.400 C 90.439 317.704,81.780 308.958,78.600 305.224 C 77.060 303.416,75.395 301.558,74.900 301.096 C 74.405 300.634,74.000 300.108,74.000 299.928 C 74.000 299.748,73.685 299.251,73.300 298.825 C 72.207 297.616,71.295 296.370,69.893 294.170 C 69.182 293.054,68.330 291.865,68.000 291.527 C 67.670 291.190,66.950 290.152,66.400 289.221 C 65.850 288.291,64.995 287.069,64.500 286.506 C 64.005 285.944,63.600 285.267,63.600 285.004 C 63.600 284.740,63.250 284.207,62.823 283.821 C 62.395 283.434,61.931 282.596,61.791 281.959 C 61.651 281.321,61.390 280.800,61.212 280.800 C 61.033 280.800,60.581 280.125,60.208 279.300 C 59.316 277.332,57.944 274.827,57.087 273.603 C 56.709 273.063,56.400 272.252,56.400 271.800 C 56.400 271.348,56.040 270.670,55.600 270.293 C 55.160 269.916,54.800 269.270,54.800 268.858 C 54.800 268.445,54.457 267.672,54.039 267.140 C 53.620 266.607,53.077 265.458,52.832 264.586 C 52.587 263.714,52.120 262.651,51.794 262.224 C 51.467 261.796,51.200 261.074,51.200 260.618 C 51.200 260.161,50.864 259.161,50.453 258.394 C 50.043 257.627,49.569 256.370,49.400 255.600 C 49.231 254.830,48.757 253.573,48.347 252.806 C 47.936 252.039,47.600 251.047,47.600 250.600 C 47.600 250.153,47.263 249.159,46.851 248.390 C 46.439 247.621,45.973 246.056,45.815 244.911 C 45.658 243.767,45.185 242.155,44.765 241.330 C 44.344 240.506,43.992 239.194,43.982 238.415 C 43.973 237.637,43.690 236.280,43.354 235.400 C 43.018 234.520,42.595 232.348,42.413 230.574 C 42.231 228.799,41.800 226.518,41.456 225.505 C 41.087 224.418,40.654 220.843,40.400 216.793 C 40.162 213.015,39.801 208.636,39.597 207.062 C 39.062 202.946,39.138 197.319,39.804 191.800 C 40.123 189.160,40.391 185.380,40.400 183.400 C 40.409 181.420,40.691 178.630,41.026 177.200 C 41.361 175.770,41.870 172.884,42.157 170.788 C 42.443 168.691,42.910 166.542,43.194 166.012 C 43.477 165.482,43.842 163.842,44.004 162.368 C 44.165 160.894,44.581 159.120,44.927 158.426 C 45.273 157.732,45.682 156.318,45.835 155.282 C 45.989 154.247,46.448 152.773,46.857 152.006 C 47.266 151.239,47.606 150.159,47.613 149.606 C 47.619 149.053,48.068 147.700,48.609 146.600 C 49.150 145.500,49.594 144.268,49.596 143.863 C 49.598 143.458,49.960 142.669,50.400 142.109 C 50.840 141.550,51.200 140.671,51.200 140.157 C 51.200 139.643,51.987 137.552,52.949 135.511 C 53.911 133.470,54.818 131.411,54.964 130.936 C 55.111 130.461,55.494 129.854,55.815 129.587 C 56.137 129.320,56.400 128.788,56.400 128.405 C 56.400 128.022,56.749 127.264,57.175 126.722 C 57.602 126.180,58.069 125.263,58.214 124.685 C 58.360 124.106,58.741 123.415,59.062 123.148 C 59.383 122.882,59.907 122.109,60.226 121.432 C 60.545 120.754,61.251 119.480,61.794 118.600 C 62.338 117.720,63.084 116.325,63.452 115.500 C 63.820 114.675,64.251 114.000,64.410 114.000 C 64.568 114.000,65.306 112.993,66.049 111.763 C 66.792 110.532,67.805 109.021,68.300 108.405 C 68.795 107.789,69.200 107.126,69.200 106.931 C 69.200 106.737,69.515 106.285,69.900 105.928 C 70.285 105.570,71.050 104.616,71.600 103.808 C 72.150 103.000,73.005 101.876,73.500 101.311 C 73.995 100.746,74.401 100.174,74.402 100.042 C 74.403 99.909,75.069 99.080,75.883 98.200 C 76.696 97.320,78.351 95.430,79.562 94.000 C 84.319 88.379,92.064 80.709,94.208 79.495 C 94.504 79.327,95.614 78.367,96.673 77.360 C 99.465 74.709,99.832 74.400,100.188 74.400 C 100.364 74.400,100.911 73.995,101.404 73.500 C 101.897 73.005,102.970 72.150,103.789 71.600 C 104.608 71.050,105.570 70.285,105.928 69.900 C 106.285 69.515,106.782 69.200,107.030 69.200 C 107.279 69.200,107.944 68.795,108.506 68.300 C 109.069 67.805,110.293 66.950,111.226 66.400 C 112.159 65.850,113.210 65.104,113.561 64.743 C 113.913 64.382,115.385 63.461,116.833 62.697 C 119.605 61.233,121.145 60.332,122.808 59.199 C 123.362 58.821,124.262 58.374,124.808 58.204 C 125.353 58.034,126.278 57.559,126.862 57.148 C 127.446 56.736,128.189 56.400,128.513 56.400 C 128.837 56.400,129.318 56.139,129.583 55.820 C 129.848 55.502,130.720 55.025,131.521 54.760 C 132.322 54.496,133.216 54.041,133.507 53.750 C 133.798 53.459,134.703 53.041,135.518 52.820 C 136.333 52.600,137.360 52.168,137.800 51.860 C 138.240 51.552,139.355 51.174,140.277 51.019 C 141.199 50.864,142.166 50.482,142.426 50.169 C 142.686 49.856,143.281 49.598,143.749 49.596 C 144.217 49.594,145.500 49.150,146.600 48.609 C 147.700 48.068,149.050 47.618,149.600 47.610 C 150.150 47.602,151.138 47.314,151.797 46.971 C 152.455 46.628,154.075 46.103,155.397 45.804 C 156.718 45.505,158.520 44.984,159.400 44.647 C 160.280 44.311,161.685 44.027,162.522 44.018 C 163.359 44.008,164.799 43.661,165.722 43.247 C 166.645 42.833,168.823 42.365,170.563 42.207 C 172.303 42.049,174.463 41.657,175.363 41.336 C 176.304 41.001,179.892 40.581,183.800 40.350 C 187.540 40.129,191.500 39.804,192.600 39.628 C 195.497 39.163,202.418 39.153,206.724 39.606 M154.400 128.845 C 153.190 128.980,151.722 129.005,151.137 128.902 C 149.690 128.647,149.361 129.417,149.025 133.846 C 148.627 139.097,147.991 138.796,159.529 138.817 C 224.680 138.931,248.099 138.816,248.628 138.377 C 249.383 137.750,249.418 130.520,248.670 129.536 C 248.076 128.756,238.353 128.470,219.600 128.682 C 214.431 128.741,200.573 128.736,178.800 128.669 C 166.590 128.631,155.610 128.710,154.400 128.845 M127.992 149.410 C 127.792 149.651,127.620 151.278,127.610 153.024 C 127.601 154.771,127.572 157.415,127.546 158.900 C 127.521 160.385,127.511 162.050,127.525 162.600 C 127.841 175.230,127.825 176.272,127.286 178.115 C 126.801 179.774,126.804 180.230,127.312 181.515 C 127.972 183.187,127.899 195.577,127.206 199.555 C 126.959 200.977,126.970 201.970,127.240 202.475 C 127.592 203.132,127.724 207.145,127.666 215.400 C 127.659 216.500,127.435 218.066,127.169 218.879 C 126.785 220.055,126.792 220.614,127.202 221.604 C 127.914 223.324,127.936 236.623,127.229 238.330 C 126.821 239.315,126.821 239.849,127.227 241.076 C 127.504 241.914,127.762 243.806,127.800 245.280 C 127.895 249.009,128.130 249.203,132.549 249.187 C 138.468 249.167,137.782 255.846,137.712 198.923 C 137.654 151.992,137.620 149.842,136.926 149.430 C 135.956 148.855,128.466 148.838,127.992 149.410 M261.286 149.521 L 260.373 150.224 260.486 199.144 C 260.596 246.536,260.624 248.082,261.354 248.616 C 262.172 249.214,268.959 249.243,269.914 248.653 C 270.238 248.453,270.407 247.514,270.380 246.069 C 270.356 244.821,270.626 242.739,270.979 241.442 C 271.537 239.390,271.545 239.002,271.045 238.442 C 270.418 237.742,270.372 223.754,270.987 220.694 C 271.176 219.750,271.125 218.992,270.851 218.661 C 270.213 217.893,270.463 203.089,271.126 202.289 C 271.521 201.813,271.510 201.339,271.069 199.946 C 270.347 197.664,270.150 182.184,270.832 181.361 C 271.120 181.015,271.183 180.254,271.004 179.306 C 270.477 176.526,270.331 162.733,270.815 161.563 C 271.153 160.748,271.144 159.687,270.778 157.337 C 270.510 155.612,270.323 153.356,270.364 152.324 C 270.488 149.166,270.010 148.799,265.804 148.809 C 262.988 148.816,262.000 148.972,261.286 149.521 M149.467 261.867 C 148.812 262.522,149.180 271.107,149.875 271.373 C 150.246 271.516,153.891 271.620,157.975 271.605 C 162.059 271.591,172.600 271.590,181.400 271.604 C 190.200 271.618,200.640 271.586,204.600 271.533 C 208.560 271.480,212.790 271.441,214.000 271.447 C 215.210 271.453,222.770 271.475,230.800 271.496 C 238.830 271.516,245.850 271.544,246.400 271.557 C 249.206 271.623,249.200 271.634,249.200 266.635 C 249.200 262.856,249.093 262.045,248.567 261.843 C 247.700 261.510,149.800 261.534,149.467 261.867 " stroke="none" fill="none" fill-rule="evenodd"></path><path id="path3" d="M196.800 171.414 C 194.645 172.898,193.578 174.094,193.326 175.308 C 193.200 175.918,192.947 176.509,192.763 176.623 C 192.297 176.911,193.155 178.783,194.375 180.138 C 198.567 184.794,205.858 182.063,204.974 176.168 C 204.407 172.382,199.521 169.541,196.800 171.414 M219.597 171.695 C 214.630 174.554,215.435 181.222,220.741 181.174 C 224.492 181.140,224.895 180.961,226.089 178.805 L 227.178 176.839 226.398 175.119 C 225.969 174.174,225.612 173.130,225.606 172.800 C 225.573 171.052,221.890 170.374,219.597 171.695 M173.724 171.479 C 168.469 172.500,169.035 181.691,174.400 182.449 C 181.836 183.500,184.745 173.697,177.564 171.785 C 175.349 171.196,175.231 171.186,173.724 171.479 M172.610 194.807 C 170.304 196.159,170.056 196.623,170.056 199.600 C 170.056 206.079,177.514 207.489,181.694 201.800 C 182.462 200.755,181.984 198.409,180.700 196.922 C 177.405 193.107,176.095 192.764,172.610 194.807 M196.509 194.255 C 193.331 195.822,192.254 198.140,193.258 201.258 C 194.316 204.546,200.610 205.220,202.520 202.251 C 205.781 197.182,201.669 191.711,196.509 194.255 M219.247 196.605 C 216.275 199.290,217.955 203.371,222.399 204.260 C 223.954 204.571,227.200 201.582,227.200 199.838 C 227.200 196.284,221.960 194.154,219.247 196.605 M171.622 218.977 C 169.379 221.291,169.359 225.841,171.586 226.993 C 172.882 227.663,176.612 227.804,178.099 227.238 C 180.255 226.419,180.701 219.202,178.675 217.914 C 177.164 216.954,172.971 217.586,171.622 218.977 M218.947 220.547 C 215.466 224.028,218.272 228.310,223.480 227.464 C 227.203 226.860,228.246 223.066,225.409 220.451 C 222.892 218.130,221.341 218.154,218.947 220.547 M196.298 220.211 C 192.395 222.863,195.797 228.692,200.467 227.352 C 202.315 226.822,204.243 223.729,203.714 222.143 C 202.872 219.616,198.753 218.543,196.298 220.211 " stroke="none" fill="#12b4c0" fill-rule="evenodd"></path><path id="path4" d="M192.600 39.628 C 191.500 39.804,187.540 40.129,183.800 40.350 C 179.892 40.581,176.304 41.001,175.363 41.336 C 174.463 41.657,172.303 42.049,170.563 42.207 C 168.823 42.365,166.645 42.833,165.722 43.247 C 164.799 43.661,163.359 44.008,162.522 44.018 C 161.685 44.027,160.280 44.311,159.400 44.647 C 158.520 44.984,156.718 45.505,155.397 45.804 C 154.075 46.103,152.455 46.628,151.797 46.971 C 151.138 47.314,150.150 47.602,149.600 47.610 C 149.050 47.618,147.700 48.068,146.600 48.609 C 145.500 49.150,144.217 49.594,143.749 49.596 C 143.281 49.598,142.686 49.856,142.426 50.169 C 142.166 50.482,141.199 50.864,140.277 51.019 C 139.355 51.174,138.240 51.552,137.800 51.860 C 137.360 52.168,136.333 52.600,135.518 52.820 C 134.703 53.041,133.798 53.459,133.507 53.750 C 133.216 54.041,132.322 54.496,131.521 54.760 C 130.720 55.025,129.848 55.502,129.583 55.820 C 129.318 56.139,128.837 56.400,128.513 56.400 C 128.189 56.400,127.446 56.736,126.862 57.148 C 126.278 57.559,125.353 58.034,124.808 58.204 C 124.262 58.374,123.362 58.821,122.808 59.199 C 121.145 60.332,119.605 61.233,116.833 62.697 C 115.385 63.461,113.913 64.382,113.561 64.743 C 113.210 65.104,112.159 65.850,111.226 66.400 C 110.293 66.950,109.069 67.805,108.506 68.300 C 107.944 68.795,107.279 69.200,107.030 69.200 C 106.782 69.200,106.285 69.515,105.928 69.900 C 105.570 70.285,104.608 71.050,103.789 71.600 C 102.970 72.150,101.897 73.005,101.404 73.500 C 100.911 73.995,100.364 74.400,100.188 74.400 C 99.832 74.400,99.465 74.709,96.673 77.360 C 95.614 78.367,94.504 79.327,94.208 79.495 C 92.064 80.709,84.319 88.379,79.562 94.000 C 78.351 95.430,76.696 97.320,75.883 98.200 C 75.069 99.080,74.403 99.909,74.402 100.042 C 74.401 100.174,73.995 100.746,73.500 101.311 C 73.005 101.876,72.150 103.000,71.600 103.808 C 71.050 104.616,70.285 105.570,69.900 105.928 C 69.515 106.285,69.200 106.737,69.200 106.931 C 69.200 107.126,68.795 107.789,68.300 108.405 C 67.805 109.021,66.792 110.532,66.049 111.763 C 65.306 112.993,64.568 114.000,64.410 114.000 C 64.251 114.000,63.820 114.675,63.452 115.500 C 63.084 116.325,62.338 117.720,61.794 118.600 C 61.251 119.480,60.545 120.754,60.226 121.432 C 59.907 122.109,59.383 122.882,59.062 123.148 C 58.741 123.415,58.360 124.106,58.214 124.685 C 58.069 125.263,57.602 126.180,57.175 126.722 C 56.749 127.264,56.400 128.022,56.400 128.405 C 56.400 128.788,56.137 129.320,55.815 129.587 C 55.494 129.854,55.111 130.461,54.964 130.936 C 54.818 131.411,53.911 133.470,52.949 135.511 C 51.987 137.552,51.200 139.643,51.200 140.157 C 51.200 140.671,50.840 141.550,50.400 142.109 C 49.960 142.669,49.598 143.458,49.596 143.863 C 49.594 144.268,49.150 145.500,48.609 146.600 C 48.068 147.700,47.619 149.053,47.613 149.606 C 47.606 150.159,47.266 151.239,46.857 152.006 C 46.448 152.773,45.989 154.247,45.835 155.282 C 45.682 156.318,45.273 157.732,44.927 158.426 C 44.581 159.120,44.165 160.894,44.004 162.368 C 43.842 163.842,43.477 165.482,43.194 166.012 C 42.910 166.542,42.443 168.691,42.157 170.788 C 41.870 172.884,41.361 175.770,41.026 177.200 C 40.691 178.630,40.409 181.420,40.400 183.400 C 40.391 185.380,40.123 189.160,39.804 191.800 C 39.138 197.319,39.062 202.946,39.597 207.062 C 39.801 208.636,40.162 213.015,40.400 216.793 C 40.654 220.843,41.087 224.418,41.456 225.505 C 41.800 226.518,42.231 228.799,42.413 230.574 C 42.595 232.348,43.018 234.520,43.354 235.400 C 43.690 236.280,43.973 237.637,43.982 238.415 C 43.992 239.194,44.344 240.506,44.765 241.330 C 45.185 242.155,45.658 243.767,45.815 244.911 C 45.973 246.056,46.439 247.621,46.851 248.390 C 47.263 249.159,47.600 250.153,47.600 250.600 C 47.600 251.047,47.936 252.039,48.347 252.806 C 48.757 253.573,49.231 254.830,49.400 255.600 C 49.569 256.370,50.043 257.627,50.453 258.394 C 50.864 259.161,51.200 260.161,51.200 260.618 C 51.200 261.074,51.467 261.796,51.794 262.224 C 52.120 262.651,52.587 263.714,52.832 264.586 C 53.077 265.458,53.620 266.607,54.039 267.140 C 54.457 267.672,54.800 268.445,54.800 268.858 C 54.800 269.270,55.160 269.916,55.600 270.293 C 56.040 270.670,56.400 271.348,56.400 271.800 C 56.400 272.252,56.709 273.063,57.087 273.603 C 57.944 274.827,59.316 277.332,60.208 279.300 C 60.581 280.125,61.033 280.800,61.212 280.800 C 61.390 280.800,61.651 281.321,61.791 281.959 C 61.931 282.596,62.395 283.434,62.823 283.821 C 63.250 284.207,63.600 284.740,63.600 285.004 C 63.600 285.267,64.005 285.944,64.500 286.506 C 64.995 287.069,65.850 288.291,66.400 289.221 C 66.950 290.152,67.670 291.190,68.000 291.527 C 68.330 291.865,69.182 293.054,69.893 294.170 C 71.295 296.370,72.207 297.616,73.300 298.825 C 73.685 299.251,74.000 299.748,74.000 299.928 C 74.000 300.108,74.405 300.634,74.900 301.096 C 75.395 301.558,77.060 303.416,78.600 305.224 C 81.780 308.958,90.439 317.704,93.623 320.400 C 94.793 321.390,96.196 322.695,96.741 323.300 C 97.286 323.905,97.882 324.400,98.066 324.400 C 98.250 324.400,98.739 324.715,99.152 325.100 C 99.566 325.485,100.375 326.160,100.949 326.600 C 101.522 327.040,102.438 327.791,102.983 328.269 C 103.528 328.747,104.340 329.254,104.787 329.396 C 105.234 329.538,105.600 329.799,105.600 329.976 C 105.600 330.153,106.607 330.906,107.837 331.649 C 109.068 332.392,110.553 333.377,111.137 333.838 C 113.182 335.451,116.353 337.571,117.671 338.204 C 119.782 339.219,121.600 340.278,122.328 340.916 C 122.697 341.240,123.450 341.639,124.000 341.802 C 124.550 341.965,125.184 342.244,125.409 342.423 C 126.366 343.182,130.430 345.143,131.561 345.392 C 132.238 345.540,132.895 345.830,133.022 346.035 C 133.415 346.671,138.110 348.693,139.869 348.984 C 140.786 349.136,141.629 349.499,141.742 349.792 C 141.854 350.085,142.481 350.442,143.134 350.585 C 143.787 350.729,145.008 351.196,145.846 351.623 C 146.684 352.050,147.878 352.400,148.501 352.400 C 149.123 352.400,150.328 352.755,151.179 353.189 C 152.030 353.624,153.508 354.095,154.463 354.237 C 155.418 354.378,156.569 354.724,157.020 355.004 C 157.471 355.284,159.157 355.718,160.767 355.968 C 162.376 356.217,164.039 356.607,164.461 356.833 C 164.883 357.059,166.825 357.502,168.777 357.817 C 170.728 358.133,172.836 358.586,173.461 358.823 C 174.086 359.061,176.938 359.419,179.799 359.618 C 182.659 359.818,186.350 360.180,188.000 360.423 C 192.455 361.078,208.075 360.983,214.000 360.264 C 216.750 359.930,220.440 359.536,222.200 359.387 C 223.960 359.239,226.120 358.879,227.000 358.586 C 227.880 358.294,230.130 357.933,232.000 357.784 C 233.870 357.635,235.804 357.259,236.297 356.949 C 236.790 356.639,238.050 356.284,239.097 356.159 C 240.144 356.035,241.900 355.602,243.000 355.197 C 244.100 354.793,245.720 354.344,246.600 354.201 C 247.480 354.058,248.594 353.687,249.075 353.378 C 249.556 353.068,250.816 352.627,251.875 352.398 C 252.934 352.169,254.340 351.719,255.000 351.397 C 255.660 351.076,256.965 350.623,257.900 350.391 C 258.835 350.159,259.600 349.810,259.600 349.616 C 259.600 349.422,260.185 349.137,260.900 348.982 C 261.615 348.827,262.830 348.371,263.600 347.969 C 264.370 347.567,265.810 346.885,266.800 346.453 C 271.407 344.445,274.748 342.808,274.968 342.452 C 275.101 342.237,275.746 341.944,276.402 341.800 C 277.058 341.655,277.731 341.327,277.898 341.069 C 278.064 340.811,278.875 340.288,279.700 339.906 C 280.525 339.525,281.200 339.030,281.200 338.806 C 281.200 338.583,281.445 338.400,281.744 338.400 C 282.043 338.400,282.951 337.950,283.762 337.400 C 284.572 336.850,285.475 336.400,285.769 336.400 C 286.062 336.400,286.549 336.102,286.851 335.738 C 287.153 335.374,287.985 334.832,288.700 334.533 C 289.415 334.234,290.000 333.834,290.000 333.643 C 290.000 333.453,290.540 333.073,291.200 332.800 C 291.860 332.527,292.400 332.167,292.400 332.000 C 292.400 331.833,292.947 331.471,293.615 331.194 C 294.284 330.917,295.010 330.355,295.229 329.945 C 295.449 329.535,295.847 329.199,296.114 329.198 C 296.381 329.197,297.492 328.387,298.583 327.398 C 299.674 326.409,300.683 325.600,300.825 325.600 C 300.967 325.600,301.604 325.132,302.242 324.560 C 302.879 323.988,304.630 322.413,306.134 321.060 C 309.685 317.865,317.888 309.658,321.200 305.986 C 322.630 304.400,324.091 302.810,324.446 302.451 C 324.801 302.093,325.324 301.350,325.609 300.800 C 325.894 300.250,326.458 299.565,326.863 299.277 C 327.269 298.990,327.600 298.538,327.600 298.274 C 327.600 298.009,327.960 297.568,328.400 297.293 C 328.840 297.018,329.200 296.547,329.200 296.246 C 329.200 295.944,329.475 295.470,329.811 295.191 C 330.453 294.658,332.800 291.319,332.800 290.938 C 332.800 290.815,333.250 290.181,333.800 289.527 C 334.350 288.873,334.800 288.089,334.800 287.783 C 334.800 287.478,335.160 287.035,335.600 286.800 C 336.040 286.565,336.400 286.132,336.400 285.840 C 336.400 285.547,336.749 284.864,337.175 284.322 C 337.602 283.780,338.071 282.856,338.219 282.268 C 338.366 281.681,338.650 281.200,338.850 281.200 C 339.050 281.200,339.525 280.525,339.906 279.700 C 340.288 278.875,340.803 278.020,341.052 277.800 C 341.301 277.580,341.616 276.918,341.753 276.328 C 341.889 275.738,342.232 275.018,342.514 274.728 C 342.796 274.438,343.536 273.120,344.159 271.800 C 344.782 270.480,345.603 268.770,345.984 268.000 C 346.365 267.230,346.899 265.925,347.170 265.100 C 347.440 264.275,347.810 263.600,347.991 263.600 C 348.172 263.600,348.533 262.714,348.793 261.630 C 349.053 260.547,349.508 259.567,349.805 259.454 C 350.101 259.340,350.466 258.381,350.615 257.323 C 350.765 256.265,351.142 254.994,351.454 254.498 C 351.766 254.001,352.194 252.686,352.405 251.575 C 352.615 250.464,353.039 249.304,353.346 248.997 C 353.652 248.691,354.029 247.604,354.182 246.583 C 354.335 245.562,354.778 243.978,355.167 243.063 C 355.556 242.148,355.979 240.500,356.108 239.400 C 356.236 238.300,356.610 236.883,356.939 236.250 C 357.267 235.618,357.658 233.548,357.806 231.650 C 357.954 229.753,358.320 227.454,358.619 226.542 C 358.918 225.629,359.357 222.569,359.595 219.742 C 359.832 216.914,360.226 213.983,360.468 213.228 C 361.055 211.403,361.026 191.109,360.431 187.400 C 360.184 185.860,359.804 182.414,359.588 179.741 C 359.371 177.069,358.918 174.100,358.581 173.145 C 358.243 172.189,357.868 170.326,357.747 169.004 C 357.625 167.682,357.183 165.564,356.763 164.298 C 356.343 163.033,355.992 161.503,355.982 160.898 C 355.973 160.294,355.689 159.080,355.351 158.200 C 355.013 157.320,354.558 155.721,354.340 154.647 C 354.123 153.572,353.597 152.045,353.172 151.253 C 352.747 150.460,352.399 149.269,352.399 148.606 C 352.398 147.943,352.065 146.856,351.660 146.192 C 351.255 145.527,350.801 144.330,350.651 143.532 C 350.501 142.734,350.123 141.868,349.811 141.609 C 349.499 141.350,349.044 140.176,348.800 139.000 C 348.556 137.824,348.096 136.646,347.778 136.382 C 347.460 136.118,347.200 135.588,347.200 135.205 C 347.200 134.822,346.865 134.079,346.455 133.554 C 346.045 133.029,345.582 132.150,345.427 131.600 C 345.022 130.171,342.827 125.664,342.411 125.407 C 342.219 125.288,341.944 124.654,341.800 123.998 C 341.655 123.342,341.301 122.669,341.012 122.502 C 340.723 122.336,340.194 121.570,339.836 120.800 C 338.512 117.949,336.033 113.947,335.301 113.480 C 335.026 113.304,334.800 112.913,334.800 112.611 C 334.800 112.309,334.350 111.527,333.800 110.873 C 333.250 110.219,332.800 109.513,332.800 109.304 C 332.800 109.095,332.440 108.598,332.000 108.200 C 331.560 107.802,331.200 107.228,331.200 106.925 C 331.200 106.623,330.923 106.269,330.585 106.139 C 330.247 106.009,329.684 105.340,329.333 104.652 C 328.983 103.963,328.453 103.130,328.156 102.800 C 327.263 101.809,325.850 100.104,325.000 98.991 C 324.560 98.415,323.707 97.392,323.105 96.718 C 322.502 96.043,320.882 94.218,319.505 92.663 C 317.320 90.197,313.777 86.365,312.895 85.516 C 310.577 83.284,302.420 76.037,301.059 75.000 C 300.481 74.560,299.563 73.840,299.020 73.400 C 297.155 71.891,296.197 71.198,294.200 69.915 C 293.100 69.208,292.110 68.505,292.000 68.352 C 291.619 67.827,287.618 65.200,287.197 65.200 C 286.965 65.200,286.676 64.943,286.555 64.628 C 286.435 64.313,285.855 63.862,285.268 63.625 C 284.681 63.388,283.390 62.659,282.400 62.005 C 281.410 61.351,280.150 60.633,279.600 60.408 C 279.050 60.184,278.330 59.816,278.000 59.590 C 277.670 59.365,276.680 58.825,275.800 58.390 C 274.920 57.956,273.851 57.330,273.424 57.000 C 272.996 56.670,272.226 56.400,271.711 56.400 C 271.196 56.400,270.670 56.128,270.543 55.794 C 270.415 55.461,269.526 54.991,268.567 54.750 C 267.609 54.509,266.617 54.061,266.363 53.756 C 266.110 53.450,265.681 53.200,265.411 53.200 C 265.140 53.200,264.073 52.750,263.038 52.200 C 262.004 51.650,260.940 51.200,260.673 51.200 C 260.406 51.200,259.540 50.853,258.748 50.428 C 257.956 50.004,256.609 49.529,255.754 49.373 C 254.899 49.217,253.570 48.770,252.800 48.381 C 250.927 47.434,245.054 45.600,243.895 45.600 C 243.386 45.600,242.263 45.240,241.400 44.800 C 240.537 44.360,239.194 43.992,238.415 43.982 C 237.637 43.973,236.280 43.690,235.400 43.354 C 234.520 43.018,232.348 42.595,230.574 42.413 C 228.799 42.231,226.519 41.801,225.508 41.457 C 224.440 41.095,220.894 40.657,217.057 40.415 C 213.422 40.186,208.772 39.822,206.724 39.606 C 202.418 39.153,195.497 39.163,192.600 39.628 M217.800 41.609 C 218.900 41.819,222.050 42.273,224.800 42.618 C 227.550 42.964,230.700 43.501,231.800 43.811 C 232.900 44.122,234.790 44.492,236.000 44.635 C 237.210 44.777,238.710 45.155,239.334 45.475 C 239.957 45.794,241.571 46.233,242.920 46.450 C 244.269 46.668,245.561 47.002,245.792 47.193 C 246.022 47.384,247.108 47.757,248.205 48.020 C 249.302 48.284,250.606 48.752,251.102 49.061 C 251.599 49.369,252.936 49.798,254.075 50.014 C 255.213 50.230,256.427 50.656,256.772 50.960 C 257.117 51.264,258.155 51.637,259.077 51.788 C 259.999 51.939,260.966 52.318,261.226 52.631 C 261.486 52.944,261.901 53.200,262.149 53.200 C 262.605 53.200,263.984 53.842,271.600 57.599 C 276.663 60.097,280.510 62.140,282.400 63.335 C 283.170 63.822,284.091 64.395,284.448 64.610 C 284.804 64.824,286.403 65.900,288.001 67.000 C 289.599 68.100,291.835 69.630,292.969 70.400 C 295.960 72.430,296.984 73.238,304.169 79.237 C 306.352 81.060,308.758 83.237,309.516 84.075 C 310.273 84.914,311.136 85.600,311.432 85.600 C 311.729 85.600,312.177 85.984,312.428 86.453 C 312.679 86.922,313.631 88.065,314.542 88.994 C 316.758 91.249,321.394 96.480,323.588 99.200 C 324.565 100.410,325.642 101.702,325.982 102.071 C 326.322 102.439,327.050 103.396,327.600 104.196 C 328.150 104.996,329.336 106.584,330.236 107.725 C 331.136 108.866,332.105 110.239,332.390 110.775 C 332.675 111.311,333.066 111.941,333.259 112.175 C 334.204 113.322,337.156 118.057,337.956 119.710 C 338.454 120.737,339.260 122.167,339.748 122.889 C 340.792 124.431,344.804 132.433,344.801 132.969 C 344.801 133.171,345.056 133.621,345.369 133.969 C 345.913 134.572,346.529 136.042,347.899 140.000 C 348.241 140.990,348.741 142.070,349.010 142.400 C 349.279 142.730,349.628 143.720,349.786 144.600 C 349.943 145.480,350.416 146.955,350.836 147.878 C 351.256 148.801,351.602 149.881,351.604 150.278 C 351.606 150.675,352.050 151.900,352.591 153.000 C 353.132 154.100,353.581 155.595,353.587 156.322 C 353.594 157.049,353.938 158.399,354.352 159.322 C 354.765 160.245,355.234 162.080,355.393 163.400 C 355.552 164.719,355.909 166.249,356.185 166.800 C 356.462 167.350,356.894 169.658,357.146 171.930 C 357.397 174.201,357.787 176.401,358.010 176.819 C 359.626 179.838,359.637 219.741,358.023 222.756 C 357.801 223.173,357.358 225.738,357.039 228.457 C 356.720 231.175,356.271 233.893,356.041 234.496 C 355.811 235.098,355.504 236.808,355.359 238.296 C 355.214 239.783,354.865 241.270,354.583 241.600 C 354.301 241.930,353.881 243.231,353.650 244.491 C 353.419 245.751,352.967 247.191,352.645 247.691 C 352.323 248.191,351.936 249.320,351.785 250.200 C 351.634 251.080,351.284 252.163,351.008 252.606 C 350.731 253.049,350.383 254.039,350.234 254.806 C 349.980 256.107,349.438 257.526,347.486 262.000 C 346.045 265.302,344.350 268.993,343.995 269.600 C 343.803 269.930,343.000 271.550,342.212 273.200 C 341.424 274.850,340.606 276.470,340.394 276.800 C 340.182 277.130,339.641 278.030,339.193 278.800 C 338.744 279.570,338.022 280.740,337.587 281.400 C 337.153 282.060,336.479 283.230,336.089 284.000 C 335.365 285.430,334.587 286.625,331.401 291.200 C 330.406 292.630,329.282 294.250,328.904 294.800 C 320.178 307.500,296.502 329.807,287.339 333.960 C 286.865 334.175,286.363 334.537,286.222 334.764 C 286.082 334.991,285.209 335.546,284.283 335.998 C 282.458 336.887,281.627 337.369,279.790 338.600 C 277.746 339.970,277.033 340.388,276.000 340.821 C 275.166 341.171,273.155 342.180,269.600 344.032 C 269.270 344.204,267.740 344.911,266.200 345.602 C 264.660 346.294,262.950 347.093,262.400 347.378 C 261.850 347.663,260.680 348.127,259.800 348.409 C 258.920 348.691,257.840 349.151,257.400 349.431 C 256.960 349.711,255.880 350.071,255.000 350.231 C 254.120 350.390,253.040 350.743,252.600 351.015 C 252.160 351.288,251.080 351.634,250.200 351.785 C 249.320 351.936,248.191 352.323,247.691 352.645 C 247.191 352.967,245.751 353.419,244.491 353.650 C 243.231 353.881,241.930 354.300,241.600 354.582 C 241.270 354.863,239.918 355.200,238.596 355.330 C 237.274 355.461,235.427 355.838,234.491 356.168 C 233.556 356.498,230.725 356.947,228.202 357.166 C 225.678 357.386,223.250 357.759,222.806 357.997 C 219.756 359.629,181.799 359.673,177.527 358.048 C 176.961 357.833,174.631 357.442,172.349 357.180 C 170.067 356.918,167.750 356.474,167.200 356.194 C 166.650 355.913,164.940 355.556,163.400 355.400 C 161.860 355.244,160.183 354.854,159.674 354.532 C 159.164 354.210,157.724 353.782,156.472 353.581 C 155.221 353.379,153.485 352.851,152.614 352.407 C 151.743 351.963,150.574 351.594,150.015 351.587 C 149.457 351.581,148.100 351.132,147.000 350.591 C 145.900 350.050,144.527 349.606,143.949 349.604 C 143.371 349.602,142.683 349.342,142.421 349.026 C 142.159 348.710,141.372 348.327,140.672 348.176 C 139.973 348.024,138.770 347.586,138.000 347.202 C 137.230 346.819,135.790 346.136,134.800 345.686 C 130.585 343.767,124.125 340.600,123.200 339.998 C 122.650 339.641,121.633 338.963,120.940 338.492 C 120.247 338.021,119.225 337.521,118.670 337.382 C 118.114 337.242,117.348 336.784,116.967 336.364 C 116.587 335.944,116.071 335.600,115.819 335.600 C 115.376 335.600,114.735 335.168,112.406 333.300 C 111.789 332.805,111.130 332.400,110.942 332.400 C 110.754 332.399,110.077 331.949,109.438 331.400 C 108.799 330.850,108.150 330.400,107.996 330.400 C 107.843 330.400,107.254 329.995,106.689 329.500 C 106.124 329.005,105.004 328.150,104.201 327.600 C 103.398 327.050,102.439 326.322,102.071 325.982 C 101.702 325.642,100.410 324.570,99.200 323.601 C 96.286 321.266,93.179 318.507,90.000 315.432 C 88.570 314.049,86.995 312.704,86.500 312.445 C 86.005 312.185,85.600 311.753,85.599 311.486 C 85.599 311.219,84.907 310.349,84.062 309.554 C 83.217 308.759,81.036 306.329,79.214 304.154 C 77.393 301.979,75.385 299.598,74.751 298.861 C 74.118 298.125,73.600 297.382,73.600 297.210 C 73.600 297.039,73.312 296.659,72.961 296.367 C 72.609 296.075,71.533 294.658,70.569 293.218 C 69.605 291.778,67.919 289.340,66.822 287.800 C 65.724 286.260,64.630 284.556,64.390 284.013 C 64.150 283.470,63.739 282.777,63.477 282.472 C 62.471 281.305,55.596 268.131,55.599 267.378 C 55.599 267.145,55.150 266.345,54.600 265.600 C 54.050 264.855,53.600 263.929,53.600 263.543 C 53.600 263.158,53.150 261.996,52.600 260.962 C 52.050 259.927,51.600 258.671,51.600 258.169 C 51.600 257.667,51.326 256.983,50.992 256.649 C 50.657 256.314,50.231 255.223,50.044 254.224 C 49.858 253.226,49.518 252.181,49.289 251.904 C 49.061 251.627,48.599 250.410,48.263 249.200 C 47.928 247.990,47.379 246.280,47.044 245.400 C 46.709 244.520,46.427 243.208,46.418 242.484 C 46.408 241.760,46.053 240.487,45.628 239.655 C 45.203 238.822,44.741 236.984,44.601 235.571 C 44.461 234.157,44.107 232.370,43.815 231.600 C 43.523 230.830,43.003 227.860,42.659 225.000 C 42.315 222.140,41.855 218.990,41.638 218.000 C 40.444 212.558,40.827 183.538,42.151 179.200 C 42.453 178.210,42.833 175.690,42.994 173.600 C 43.156 171.510,43.528 169.216,43.822 168.503 C 44.116 167.790,44.549 165.826,44.783 164.138 C 45.018 162.451,45.393 160.849,45.617 160.579 C 45.841 160.309,46.218 158.944,46.455 157.544 C 46.693 156.145,47.133 154.608,47.434 154.128 C 47.735 153.649,48.101 152.479,48.247 151.528 C 48.393 150.578,48.847 149.132,49.256 148.316 C 49.665 147.500,50.000 146.593,50.000 146.301 C 50.000 146.008,50.350 145.084,50.777 144.246 C 51.204 143.408,51.677 142.154,51.827 141.461 C 51.977 140.767,52.422 139.570,52.815 138.800 C 54.154 136.179,55.600 132.989,55.600 132.657 C 55.600 132.475,55.960 131.869,56.400 131.309 C 56.840 130.750,57.200 129.981,57.200 129.600 C 57.200 129.219,57.560 128.450,58.000 127.891 C 58.440 127.331,58.800 126.532,58.800 126.115 C 58.800 125.697,59.250 124.745,59.800 124.000 C 60.350 123.255,60.800 122.432,60.800 122.171 C 60.800 121.911,61.080 121.465,61.423 121.181 C 61.766 120.896,62.306 120.109,62.624 119.432 C 62.942 118.754,63.739 117.390,64.395 116.400 C 65.051 115.410,65.811 114.150,66.085 113.600 C 66.359 113.050,66.812 112.456,67.092 112.280 C 67.371 112.104,67.600 111.699,67.600 111.380 C 67.600 111.061,67.920 110.480,68.312 110.088 C 68.703 109.697,69.648 108.483,70.412 107.390 C 76.558 98.598,86.805 87.284,94.885 80.369 C 96.488 78.997,97.944 77.632,98.120 77.337 C 98.296 77.042,98.629 76.800,98.861 76.800 C 99.093 76.800,100.659 75.666,102.341 74.279 C 104.024 72.893,106.404 71.104,107.630 70.304 C 108.857 69.504,110.094 68.568,110.379 68.225 C 110.665 67.881,111.050 67.600,111.236 67.600 C 111.423 67.600,112.706 66.849,114.087 65.930 C 118.886 62.741,119.445 62.400,119.873 62.400 C 120.109 62.400,120.504 62.157,120.750 61.860 C 120.996 61.564,122.413 60.735,123.899 60.019 C 125.384 59.303,126.870 58.559,127.200 58.367 C 128.799 57.434,136.898 53.600,137.269 53.600 C 137.501 53.600,138.346 53.244,139.146 52.810 C 140.659 51.987,142.796 51.172,146.200 50.120 C 147.300 49.779,148.392 49.348,148.627 49.162 C 148.862 48.975,150.014 48.617,151.186 48.366 C 152.358 48.114,154.055 47.573,154.958 47.163 C 155.861 46.753,157.088 46.414,157.685 46.409 C 158.282 46.404,159.632 46.064,160.685 45.652 C 161.738 45.241,163.648 44.777,164.929 44.620 C 166.209 44.463,167.829 44.100,168.529 43.812 C 169.228 43.524,171.330 43.165,173.200 43.015 C 175.070 42.865,177.754 42.463,179.164 42.122 C 184.234 40.895,212.116 40.525,217.800 41.609 M176.247 127.486 C 176.106 127.628,169.888 127.766,162.430 127.793 C 151.853 127.832,148.731 127.959,148.235 128.371 C 147.226 129.208,147.307 138.811,148.331 139.738 C 149.180 140.506,248.393 140.772,249.598 140.009 C 250.277 139.581,250.902 131.793,250.440 129.533 C 250.057 127.661,251.347 127.721,213.000 127.794 C 193.640 127.830,177.509 127.718,177.153 127.544 C 176.797 127.370,176.389 127.344,176.247 127.486 M209.000 128.725 C 213.400 128.718,218.170 128.699,219.600 128.682 C 238.353 128.470,248.076 128.756,248.670 129.536 C 249.418 130.520,249.383 137.750,248.628 138.377 C 248.099 138.816,224.680 138.931,159.529 138.817 C 147.991 138.796,148.627 139.097,149.025 133.846 C 149.361 129.417,149.690 128.647,151.137 128.902 C 151.722 129.005,153.190 128.980,154.400 128.845 C 155.610 128.710,166.590 128.631,178.800 128.669 C 191.010 128.707,204.600 128.732,209.000 128.725 M127.640 147.703 C 126.178 148.080,125.826 149.369,126.209 152.950 C 126.391 154.642,126.323 155.796,126.009 156.383 C 125.619 157.111,125.661 157.404,126.245 158.050 C 127.264 159.175,128.076 156.085,127.743 152.352 C 127.564 150.347,127.640 149.622,128.053 149.364 C 128.993 148.778,136.120 148.806,136.931 149.399 C 137.618 149.901,137.655 152.228,137.712 198.956 C 137.782 255.841,138.468 249.167,132.549 249.187 C 128.236 249.202,127.822 248.912,127.770 245.841 C 127.700 241.647,127.636 241.319,127.043 242.100 C 126.751 242.485,126.287 242.800,126.013 242.800 C 125.702 242.800,125.616 243.063,125.784 243.500 C 125.933 243.885,126.138 245.359,126.241 246.776 C 126.344 248.192,126.624 249.587,126.863 249.876 C 127.451 250.585,137.616 250.624,138.320 249.920 C 139.144 249.096,139.002 148.666,138.176 147.980 C 137.472 147.396,129.632 147.190,127.640 147.703 M259.949 148.262 C 259.406 148.916,259.312 247.818,259.853 249.700 C 260.138 250.693,270.400 250.763,271.218 249.778 C 271.989 248.850,272.403 243.088,271.729 242.680 C 271.438 242.504,271.182 242.054,271.159 241.680 C 271.061 240.057,270.374 244.017,270.397 246.069 C 270.413 247.497,270.234 248.455,269.914 248.653 C 268.959 249.243,262.172 249.214,261.354 248.616 C 260.624 248.082,260.596 246.536,260.486 199.144 L 260.373 150.224 261.286 149.521 C 262.000 148.972,262.988 148.816,265.804 148.809 C 269.963 148.799,270.518 149.203,270.375 152.139 C 270.268 154.333,270.823 158.800,271.203 158.800 C 272.255 158.800,272.454 149.705,271.438 148.061 C 270.943 147.260,260.631 147.440,259.949 148.262 M270.825 161.553 C 270.311 162.513,270.272 177.146,270.781 177.969 C 271.219 178.678,272.557 178.187,272.265 177.424 C 271.957 176.622,271.848 162.570,272.146 162.088 C 272.281 161.869,272.136 161.479,271.823 161.219 C 271.372 160.845,271.168 160.913,270.825 161.553 M126.098 161.466 C 125.821 161.577,125.689 161.821,125.805 162.007 C 126.165 162.591,126.289 175.753,125.943 176.707 C 125.700 177.378,125.814 177.814,126.381 178.381 C 127.137 179.137,127.152 179.129,127.431 177.874 C 127.869 175.907,127.951 167.575,127.549 165.939 C 127.352 165.135,127.340 164.055,127.523 163.539 C 128.153 161.758,127.550 160.880,126.098 161.466 M270.883 181.216 C 269.980 182.661,270.368 198.826,271.292 198.253 C 271.957 197.839,272.017 197.147,271.980 190.277 C 271.955 185.459,272.094 182.568,272.369 182.238 C 272.684 181.858,272.608 181.551,272.085 181.077 C 271.426 180.481,271.335 180.492,270.883 181.216 M126.040 181.351 C 125.747 181.705,125.705 182.243,125.924 182.851 C 126.112 183.373,126.212 186.913,126.147 190.718 C 126.046 196.589,126.119 197.671,126.631 197.867 C 127.607 198.242,127.639 198.024,127.766 190.344 C 127.904 181.914,127.466 179.633,126.040 181.351 M271.373 201.118 C 271.536 201.402,271.435 201.916,271.150 202.260 C 270.375 203.194,270.206 217.787,270.957 218.860 C 271.893 220.196,272.079 218.756,272.015 210.668 C 271.982 206.525,272.123 202.925,272.327 202.668 C 272.573 202.359,272.424 201.929,271.888 201.400 C 271.442 200.960,271.210 200.833,271.373 201.118 M126.127 201.673 C 125.871 201.997,125.815 203.107,125.982 204.555 C 126.259 206.949,126.137 217.011,125.821 217.871 C 125.548 218.611,126.779 219.481,127.180 218.832 C 127.633 218.099,128.066 214.031,127.747 213.514 C 127.600 213.276,127.506 210.814,127.539 208.041 C 127.600 202.830,127.076 200.470,126.127 201.673 M126.354 221.818 C 125.868 222.303,125.801 222.895,126.036 224.625 C 126.363 227.034,126.205 236.725,125.819 237.941 C 125.456 239.083,126.676 239.379,127.258 238.291 C 127.830 237.222,127.903 222.870,127.341 221.866 C 127.007 221.268,126.908 221.264,126.354 221.818 M270.821 221.961 C 269.977 223.537,270.347 237.828,271.253 238.648 C 271.664 239.020,272.006 239.206,272.013 239.062 C 272.020 238.918,272.031 234.995,272.038 230.346 C 272.051 221.996,271.784 220.161,270.821 221.961 M97.556 242.618 C 98.511 243.062,99.037 243.123,99.336 242.824 C 99.635 242.525,99.450 242.400,98.713 242.400 C 98.137 242.400,97.336 242.307,96.933 242.194 C 96.530 242.081,96.810 242.272,97.556 242.618 M149.099 260.346 C 147.859 260.709,147.600 261.797,147.600 266.653 C 147.600 270.135,147.745 271.646,148.100 271.873 C 148.862 272.362,157.200 272.481,157.200 272.003 C 157.200 271.764,155.779 271.598,153.700 271.594 C 148.979 271.586,149.151 271.790,149.286 266.368 L 149.400 261.800 198.400 261.690 C 225.350 261.630,247.805 261.678,248.300 261.798 C 249.168 262.008,249.200 262.176,249.200 266.600 C 249.200 271.571,249.081 271.797,246.600 271.552 C 244.657 271.360,241.200 271.634,241.200 271.980 C 241.200 272.686,249.143 272.387,249.917 271.651 C 251.148 270.480,250.684 261.288,249.369 260.788 C 248.787 260.567,233.100 260.403,210.893 260.387 C 190.272 260.372,168.045 260.324,161.499 260.280 C 154.954 260.236,149.374 260.266,149.099 260.346 M161.800 271.600 C 153.704 272.005,162.027 272.351,179.473 272.335 C 188.754 272.327,196.520 272.427,196.732 272.558 C 196.944 272.689,197.630 272.528,198.258 272.200 L 199.400 271.605 198.200 271.590 C 185.970 271.442,164.854 271.447,161.800 271.600 M206.300 271.499 C 202.825 271.571,200.400 271.781,200.400 272.011 C 200.400 272.481,200.131 272.467,206.800 272.328 C 209.770 272.266,213.550 272.199,215.200 272.179 C 216.850 272.159,218.470 272.086,218.800 272.018 C 219.708 271.829,215.628 271.262,213.800 271.323 C 212.920 271.353,209.545 271.432,206.300 271.499 M219.759 271.893 C 220.163 272.296,238.010 272.371,239.000 271.972 C 239.440 271.795,235.225 271.639,229.633 271.625 C 224.042 271.611,219.598 271.732,219.759 271.893 " stroke="none" fill="#0F0605" fill-rule="evenodd"></path></g></svg>