<?xml version="1.0"?>
<svg xmlns="http://www.w3.org/2000/svg" height="512px" viewBox="0 0 496 496" width="512px"><path d="m488 0h-480c-4.425781 0-8 3.585938-8 8v304c0 4.425781 3.574219 8 8 8h8v24c0 4.425781 3.574219 8 8 8h168v48h-136c-4.425781 0-8 3.574219-8 8v80c0 4.425781 3.574219 8 8 8h384c4.425781 0 8-3.574219 8-8v-80c0-4.425781-3.574219-8-8-8h-136v-48h168c4.425781 0 8-3.574219 8-8v-24h8c4.425781 0 8-3.574219 8-8v-304c0-4.414062-3.574219-8-8-8zm-56 480h-368v-64h368zm-144-80h-80v-48h80zm176-64h-432v-16h432zm16-32h-464v-288h464zm0 0" fill="#ff4200"/><path d="m448 272h-32v16h40c4.425781 0 8-3.574219 8-8v-40h-16zm0 0" fill="#ff4200"/><path d="m48 48h32v-16h-40c-4.425781 0-8 3.585938-8 8v40h16zm0 0" fill="#ff4200"/><path d="m448 80h16v-40c0-4.414062-3.574219-8-8-8h-40v16h32zm0 0" fill="#ff4200"/><path d="m40 288h40v-16h-32v-32h-16v40c0 4.425781 3.574219 8 8 8zm0 0" fill="#ff4200"/><path d="m118.527344 144c-3.3125-9.289062-12.113282-16-22.527344-16-13.230469 0-24 10.769531-24 24s10.769531 24 24 24c10.414062 0 19.214844-6.710938 22.527344-16h33.472656v16h-24c-2.128906 0-4.160156.839844-5.65625 2.34375l-16.0625 16.0625c-3.128906-1.503906-6.585938-2.40625-10.28125-2.40625-13.230469 0-24 10.769531-24 24s10.769531 24 24 24 24-10.769531 24-24c0-3.695312-.902344-7.152344-2.40625-10.28125l13.71875-13.71875h20.6875v8c0 4.414062 3.574219 8 8 8h8v33.472656c-9.289062 3.3125-16 12.113282-16 22.527344 0 13.230469 10.769531 24 24 24s24-10.769531 24-24c0-10.414062-6.710938-19.214844-16-22.527344v-33.472656h16v24c0 2.121094.839844 4.160156 2.34375 5.65625l16.0625 16.0625c-1.503906 3.128906-2.40625 6.585938-2.40625 10.28125 0 13.230469 10.769531 24 24 24s24-10.769531 24-24-10.769531-24-24-24c-3.695312 0-7.152344.902344-10.28125 2.40625l-13.71875-13.71875v-20.6875h20.6875l21.65625 21.65625c1.496094 1.503906 3.527344 2.34375 5.65625 2.34375h17.472656c3.3125 9.289062 12.113282 16 22.527344 16 13.230469 0 24-10.769531 24-24s-10.769531-24-24-24c-10.414062 0-19.214844 6.710938-22.527344 16h-14.160156l-19.3125-19.3125v-28.6875h33.472656c3.3125 9.289062 12.113282 16 22.527344 16 13.230469 0 24-10.769531 24-24s-10.769531-24-24-24c-10.414062 0-19.214844 6.710938-22.527344 16h-33.472656v-24h16c2.128906 0 4.160156-.839844 5.65625-2.34375l15.265625-15.265625c4.382813 5.800781 11.261719 9.609375 19.078125 9.609375 13.230469 0 24-10.769531 24-24s-10.769531-24-24-24c-11.976562 0-21.839844 8.839844-23.625 20.3125l-19.6875 19.6875h-12.6875v-12.6875l19.6875-19.6875c11.472656-1.785156 20.3125-11.648438 20.3125-23.625 0-13.230469-10.769531-24-24-24s-24 10.769531-24 24c0 7.816406 3.808594 14.695312 9.609375 19.078125l-15.265625 15.265625c-1.503906 1.496094-2.34375 3.535156-2.34375 5.65625v16h-24v-33.472656c9.289062-3.3125 16-12.113282 16-22.527344 0-13.230469-10.769531-24-24-24s-24 10.769531-24 24c0 10.414062 6.710938 19.214844 16 22.527344v33.472656h-28.6875l-19.3125-19.3125v-14.160156c9.289062-3.3125 16-12.113282 16-22.527344 0-13.230469-10.769531-24-24-24s-24 10.769531-24 24c0 10.414062 6.710938 19.214844 16 22.527344v17.472656c0 2.121094.839844 4.160156 2.34375 5.65625l21.65625 21.65625v20.6875zm-22.527344 16c-4.414062 0-8-3.59375-8-8s3.585938-8 8-8 8 3.59375 8 8-3.585938 8-8 8zm0 64c-4.414062 0-8-3.59375-8-8s3.585938-8 8-8 8 3.59375 8 8-3.585938 8-8 8zm80 48c-4.414062 0-8-3.585938-8-8s3.585938-8 8-8 8 3.585938 8 8-3.585938 8-8 8zm72-8c0 4.414062-3.585938 8-8 8s-8-3.585938-8-8 3.585938-8 8-8 8 3.585938 8 8zm56-48c4.414062 0 8 3.59375 8 8s-3.585938 8-8 8-8-3.59375-8-8 3.585938-8 8-8zm0-64c4.414062 0 8 3.59375 8 8s-3.585938 8-8 8-8-3.59375-8-8 3.585938-8 8-8zm0-64c4.414062 0 8 3.59375 8 8s-3.585938 8-8 8-8-3.59375-8-8 3.585938-8 8-8zm-40-40c4.414062 0 8 3.59375 8 8s-3.585938 8-8 8-8-3.59375-8-8 3.585938-8 8-8zm-64 0c4.414062 0 8 3.59375 8 8s-3.585938 8-8 8-8-3.59375-8-8 3.585938-8 8-8zm-64 0c4.414062 0 8 3.59375 8 8s-3.585938 8-8 8-8-3.59375-8-8 3.585938-8 8-8zm32 80h64v64h-64zm0 0" fill="#ff4200"/><path d="m400 448h16v16h-16zm0 0" fill="#ff4200"/><path d="m368 448h16v16h-16zm0 0" fill="#ff4200"/><path d="m336 448h16v16h-16zm0 0" fill="#ff4200"/><path d="m96 472c13.230469 0 24-10.769531 24-24s-10.769531-24-24-24-24 10.769531-24 24 10.769531 24 24 24zm0-32c4.414062 0 8 3.585938 8 8s-3.585938 8-8 8-8-3.585938-8-8 3.585938-8 8-8zm0 0" fill="#ff4200"/><path d="m160 472c13.230469 0 24-10.769531 24-24s-10.769531-24-24-24-24 10.769531-24 24 10.769531 24 24 24zm0-32c4.414062 0 8 3.585938 8 8s-3.585938 8-8 8-8-3.585938-8-8 3.585938-8 8-8zm0 0" fill="#ff4200"/><path d="m304 432h16v32h-16zm0 0" fill="#ff4200"/><path d="m272 432h16v32h-16zm0 0" fill="#ff4200"/><path d="m348.9375 255.390625c.992188.410156 2.03125.609375 3.0625.609375 2.078125 0 4.128906-.816406 5.65625-2.34375l21.65625-21.65625h36.6875c3.230469 0 6.160156-1.953125 7.390625-4.9375 1.242187-2.992188.554687-6.429688-1.734375-8.71875l-64-64c-2.289062-2.296875-5.726562-2.960938-8.71875-1.734375-2.992188 1.238281-4.9375 4.160156-4.9375 7.390625v88c0 3.230469 1.945312 6.152344 4.9375 7.390625zm11.0625-76.078125 36.6875 36.6875h-20.6875c-2.128906 0-4.160156.839844-5.65625 2.34375l-10.34375 10.34375zm0 0" fill="#ff4200"/></svg>
